<svg xmlns="http://www.w3.org/2000/svg" width="1921" height="1080" viewBox="0 0 1921 1080"><title>03_maze_alt</title><path d="M977.43,892.57a28.43,28.43,0,0,1-3.4-4c-8.86-15.26-17.71-30.52-26.37-45.9-1.77-3.15-3.83-4.38-7.48-4.34q-25.25.28-50.5,0c-3.46,0-5.42,1.12-7.11,4.1q-13.27,23.47-27,46.7a6.69,6.69,0,0,1-4.82,2.81c-19,.2-38,.05-57,.2-3.13,0-4.71-1.13-6.2-3.75-8.64-15.2-17.56-30.23-26.15-45.45-1.85-3.28-3.84-4.7-7.77-4.64q-25,.36-50,0c-3.93-.06-5.95,1.35-7.8,4.63-8.61,15.21-17.53,30.24-26.16,45.44-1.61,2.83-3.43,3.81-6.68,3.78-18.16-.17-36.33-.22-54.5,0-3.94.06-6-1.33-7.83-4.56-8.63-15.2-17.5-30.26-26.13-45.46-1.61-2.83-3.48-3.86-6.73-3.83q-25.75.23-51.5,0A6.25,6.25,0,0,0,510,842c-8.77,15.5-17.8,30.85-26.56,46.36-1.61,2.84-3.39,3.85-6.65,3.82q-28-.25-56,0c-3,0-4.57-.73-6.14-3.55q-13.13-23.55-27-46.7a8,8,0,0,0-5.77-3.34c-17.16-.26-34.33-.05-51.5-.23-3.46,0-5.4,1.11-7.08,4.09-8.78,15.5-17.85,30.83-26.58,46.35-1.46,2.6-3,3.37-5.84,3.36q-28.5-.15-57,0c-2.64,0-4-.76-5.39-3.15-8.75-15.51-17.81-30.85-26.57-46.36-1.8-3.19-3.93-4.32-7.54-4.28q-25,.25-50,0c-3.59,0-5.76,1-7.57,4.18-8.76,15.51-17.81,30.85-26.57,46.36-1.33,2.36-2.63,3.28-5.35,3.27q-28.75-.18-57.5,0c-2.81,0-4.06-1.09-5.34-3.34-8.9-15.62-17.93-31.17-27-46.71-1.16-2-2.57-3.83-3.9-5.81a44.51,44.51,0,0,0,3.35-4.48c8.77-15.12,17.42-30.31,26.26-45.39,1.51-2.57,1.81-4.55.22-7.25-9-15.36-17.83-30.84-26.77-46.25a30,30,0,0,0-2.74-3.54c8-13.85,15.38-28.2,24.33-41.48,6.25-9.27,6.5-16.46,0-25.71-7.8-11.14-13.86-23.49-20.73-35.28-1.15-2-2.59-3.79-3.8-5.54,1.17-1.78,2.52-3.63,3.66-5.61,8.6-14.83,17.1-29.72,25.78-44.51,1.6-2.73,1.76-4.8.05-7.69-8.92-15-17.54-30.24-26.32-45.35a43.38,43.38,0,0,0-3-4.11c4.92-8.43,9.93-17,14.9-25.55S36.38,471.6,41,462.95a7.58,7.58,0,0,0,.07-6.23C32.3,441,23.25,425.5,14.21,410a25.32,25.32,0,0,0-2.77-3.42c2.51-4.24,5-8.35,7.38-12.49,7.35-12.67,14.6-25.4,22-38,1.63-2.76,1.66-4.86,0-7.71-8.71-14.76-17.15-29.69-25.73-44.54-1.08-1.86-2.38-3.59-3.42-5.15q9.86-17,19.74-34c3.34-5.76,6.87-11.43,9.91-17.34,1.76-3.42,4-4.68,7.83-4.63,17.33.2,34.67,0,52,.16,3.64,0,5.76-1.17,7.55-4.33,8.27-14.64,16.74-29.16,25.18-43.7,1.38-2.37,3-4.6,4.52-6.89l1.74.65c-.65,2.25-.88,4.74-2,6.73q-12.94,22.8-26.24,45.4c-1.64,2.78-1.71,4.85,0,7.66,8.72,14.76,17.22,29.65,25.78,44.51a24.58,24.58,0,0,1,2.21,4.45,2.61,2.61,0,0,1-.65,2.4,2.75,2.75,0,0,1-2.54-.5,18.56,18.56,0,0,1-2.46-3.73c-8.51-14.69-17.1-29.34-25.42-44.14-1.79-3.18-3.86-4.46-7.45-4.43q-25.49.17-51,0a6.38,6.38,0,0,0-6.31,3.71q-12.55,22.16-25.47,44.11c-1.57,2.66-1.52,4.58,0,7.2C27.45,317,36,332.26,44.93,347.26c2.21,3.69,2,6.38-.09,9.93C36.1,371.93,27.69,386.88,19,401.64c-1.72,2.92-1.76,5.21,0,8.14q12.89,22,25.41,44.14c1.59,2.81,3.42,3.95,6.7,3.92q25.25-.23,50.5,0c2.86,0,4.59-.86,6-3.32q13-22.74,26.32-45.35c1.62-2.74,1.13-4.78-.34-7.29q-13.1-22.42-25.92-45c-1-1.73-.85-4.08-1.23-6.14,1.62,1.32,3.77,2.32,4.77,4,9,15.35,17.78,30.87,26.84,46.2,2.09,3.54,2.36,6.24.15,9.94-9.21,15.44-18.14,31-27,46.7-1.89,3.36-4.15,4.49-8,4.45-17.33-.21-34.67,0-52-.18-3.28,0-5.11,1-6.71,3.8Q31.73,488,18.62,510.1c-1.58,2.67-1.41,4.71.09,7.29C27.53,532.48,36.1,547.72,45,562.74c2.08,3.5,1.93,6.05-.1,9.47C36.19,587,27.81,601.92,19.13,616.7c-1.69,2.87-2.1,5.14-.31,8.18q13,22.16,25.69,44.55C46,672.1,47.84,673,50.88,673q25.5-.21,51,0c3.12,0,4.78-1.09,6.27-3.7C116.88,654,125.9,638.8,134.5,623.4c1.93-3.44,4.09-4.43,7.85-4.38,17.33.2,34.67,0,52,.17,3.68,0,5.66-1.24,7.44-4.39,8.51-15.08,17.33-30,25.85-45,1.76-3.1,3.69-4.45,7.41-4.41,18.16.2,36.33.09,54.5.09a10.92,10.92,0,0,1,3.47.15c.9.32,1.57,1.32,2.34,2-.72.58-1.37,1.48-2.18,1.67a17.46,17.46,0,0,1-4,.15c-17.17,0-34.33.1-51.5-.08-3.46,0-5.45,1.09-7.13,4.06-8.54,15.06-17.36,30-25.85,45-2,3.63-4.44,5.13-8.69,5.07-17.16-.22-34.33,0-51.5-.16-3.2,0-5.19.86-6.82,3.73q-12.62,22.13-25.6,44c-1.77,3-1.61,5.3.13,8.25q13,22.16,25.66,44.58c1,1.8.87,4.26,1.27,6.41-1.69-1.53-3.87-2.77-5-4.64q-12.58-21.28-24.73-42.81c-2.16-3.85-4.49-5.77-9.25-5.69-16.32.29-32.65.09-49,0-3.36,0-5.41,1.22-7.1,4.2Q31.7,703.35,18.86,725.06c-1.78,3-1.51,5.34.17,8.2,8.84,15.08,17.47,30.28,26.34,45.34,1.74,2.95,1.7,5.22,0,8.16C36.38,802,27.7,817.33,18.77,832.55c-1.58,2.69-1.89,4.72-.17,7.62,8.77,14.73,17.31,29.6,25.78,44.51,1.4,2.47,2.9,3.5,5.81,3.48q26-.2,52,0a5.83,5.83,0,0,0,5.85-3.43c8.55-15.05,17.16-30.07,26-45,1.53-2.58,1.24-4.38-.14-6.74-8.55-14.67-17-29.41-25.46-44.12a6.38,6.38,0,0,1-1-1.74c-.39-2-.63-4.07-.93-6.1,1.59,1.41,3.66,2.52,4.69,4.26,8.55,14.48,17,29,25.23,43.67,2.12,3.78,4.43,5.31,8.94,5.22,17-.32,34,0,51-.21,3.84,0,6.07,1.26,7.94,4.58,8.41,14.94,17.11,29.72,25.55,44.64,1.9,3.35,4,4.88,8.17,4.81,16.49-.29,33-.26,49.5,0,3.92.06,5.87-1.32,7.74-4.65,8.46-15.1,17.29-30,25.83-45.05,1.59-2.81,3.46-4,6.73-4q28.25.19,56.5,0c2.91,0,4.47,1,5.87,3.49,8.82,15.47,17.86,30.82,26.67,46.3,1.58,2.78,3.31,3.9,6.63,3.86q25.5-.29,51,0c3.25,0,5.05-.91,6.68-3.79q12.5-22.19,25.47-44.11a6.22,6.22,0,0,0,0-7.23c-8.85-15.07-17.45-30.29-26.32-45.35-2-3.4-2.14-6.08,0-9.61,8.85-14.88,17.31-30,26.06-44.92,1.71-2.93,1.82-5.23,0-8.25-8.88-15.05-17.55-30.23-26.22-45.41a34.18,34.18,0,0,1-2-5.45l1.67-1c1.25,1.26,2.82,2.33,3.69,3.82,9.4,16.1,18.64,32.29,28.05,48.38,1.66,2.84,1.41,5.13-.18,7.86-8.82,15.09-17.46,30.28-26.31,45.35-1.58,2.69-2,4.84-.31,7.72q13,22.19,25.63,44.59c1.51,2.67,3.3,3.6,6.36,3.58q25.75-.21,51.5,0a5.87,5.87,0,0,0,5.88-3.41c8.48-14.9,17.11-29.72,25.69-44.56a16.26,16.26,0,0,1,2-3.41A12.3,12.3,0,0,1,605,781c.21,1.17.83,2.45.55,3.49a20.3,20.3,0,0,1-2.3,4.4c-8.4,14.56-16.74,29.16-25.28,43.64-1.64,2.78-1.73,4.92-.09,7.71,8.77,14.93,17.3,30,26.15,44.88a7,7,0,0,0,5.07,2.81c17.66.21,35.33.23,53,0,1.76,0,4.14-1.83,5.12-3.47q13.51-22.75,26.54-45.79c1.77-3.12,3.76-4.38,7.44-4.33,17.33.2,34.67,0,52,.19,3.88,0,6-1.25,7.83-4.58,8-14.22,16.26-28.28,24.43-42.4.83-1.44,1.46-3.1,2.6-4.23,1-1,2.58-1.35,3.9-2-.12,1.36.18,3-.43,4-7.61,13.48-14.83,27.23-23.25,40.19-5.09,7.83-5.41,13.81-.09,21.74,8.05,12,14.76,24.91,21.89,37.51a5.39,5.39,0,0,0,5.46,3.2q26.25-.2,52.5,0c3,0,4.43-1.2,5.79-3.59,8.58-15,17.36-30,25.87-45,2-3.58,4.26-5.17,8.63-5.09,17.16.31,34.33,0,51.5.19,3.61,0,5.73-1.14,7.53-4.34,8.4-14.94,17.17-29.68,25.54-44.64,2.06-3.69,4.44-4.93,8.65-4.86,17.16.26,34.33,0,51.5.21,3.71,0,5.67-1.27,7.42-4.36,8.7-15.35,17.66-30.55,26.33-45.92a6.68,6.68,0,0,1,6.68-3.86q28,.15,56,0c3.22,0,5.05,1.09,6.66,3.93,8.6,15.21,17.52,30.25,26.12,45.46,1.76,3.11,3.68,4.46,7.39,4.42q25-.31,50,0c3.69,0,5.7-1.28,7.46-4.4,8.26-14.64,16.68-29.19,25.15-43.72,1.38-2.37,1.77-4.22.24-6.82q-13.32-22.58-26.23-45.4c-1.49-2.64-3.33-3.14-6-3.12-17.83.08-35.67,0-53.5.12-3.22,0-5.06-.87-6.69-3.76q-13.5-23.92-27.48-47.56c-2-3.31-2-5.79-.06-9.08,8.81-14.9,17.31-30,26.08-44.91,1.68-2.86,2-5.1.2-8.13Q1146,542,1133.67,520a7.21,7.21,0,0,0-7.14-4.11c-16.83.1-33.66.17-50.49-.07-3.63-.05-5.31,1.45-6.93,4.31-8.22,14.47-16.51,28.91-25,43.23-1.78,3-1.74,5.2,0,8.18,8.89,15,17.47,30.28,26.34,45.34,1.81,3.07,1.94,5.44.07,8.59q-14.1,23.86-27.72,48c-1.66,2.94-3.7,3.7-6.81,3.68-17.33-.1-34.67.08-52-.14-4-.05-6.27,1.09-8.26,4.63-8.46,15.1-17.33,30-25.82,45.06-1.81,3.21-3.9,4.34-7.51,4.31-17.33-.16-34.67.08-52-.19-4-.06-6,1.37-7.79,4.59-8.27,14.63-16.73,29.16-25.15,43.72a18.81,18.81,0,0,1-2.76,4.12c-.62.61-2,.45-3,.63-.1-.89-.49-1.88-.22-2.64a24.38,24.38,0,0,1,2.08-4c8.56-14.86,17.07-29.74,25.75-44.53,1.62-2.76,1.72-4.89,0-7.73-8.64-14.61-17-29.42-25.68-44a8.05,8.05,0,0,0-5.69-3.45c-17-.38-34-.3-51-.54-3.64-.05-5.73,1.35-7.5,4.48-8.45,14.92-17.1,29.72-25.7,44.55a16.54,16.54,0,0,1-2.54,3.67,2.7,2.7,0,0,1-2.57.32c-.51-.32-.68-1.71-.49-2.5a12.32,12.32,0,0,1,1.54-3.12c9.07-15.71,18.23-31.38,27.18-47.16,1.78-3.14,3.83-4.32,7.49-4.28q27.5.29,55,0c3.7,0,5.68,1.27,7.44,4.38,8.62,15.2,17.51,30.26,26.14,45.45a6.28,6.28,0,0,0,6.3,3.65c17.17-.13,34.33-.16,51.5,0,3.38,0,5-1.3,6.59-4,8.65-15.19,17.56-30.23,26.11-45.47,1.73-3.09,3.68-4,7.06-4,17.5.15,35,0,52.5.14,3.4,0,5.41-1,7.13-4q12.54-22.17,25.57-44.06c1.65-2.78,1.74-4.81.05-7.66-8.89-15-17.43-30.3-26.34-45.34-2.08-3.51-1.89-6.17.14-9.6,8.82-14.9,17.29-30,26.1-44.9,1.76-3,1.59-5.24-.1-8.11-8.51-14.5-16.86-29.09-25.26-43.66a7.81,7.81,0,0,1-1.22-2.16c-.32-1.74-.37-3.53-.54-5.3,1.44,1.1,3.38,1.9,4.23,3.34q13.44,22.8,26.52,45.81c1.76,3.11,3.72,4.38,7.42,4.34,17.5-.22,35,0,52.5-.19,3.49,0,5.43,1.13,7.1,4.06,8.64,15.19,17.54,30.24,26.12,45.47,1.62,2.88,3.46,3.93,6.66,3.91,17.32-.1,34.64.09,52-.18,1.91,0,4.5-1.91,5.55-3.67q13.54-22.74,26.52-45.8c1.63-2.89,3.46-3.8,6.69-3.77,17.66.16,35.33,0,53,.15,3.26,0,5.13-1,6.74-3.85q12.73-22.35,25.84-44.47c1.69-2.86,1.44-5-.18-7.77-8.52-14.49-16.87-29.09-25.27-43.65a20.16,20.16,0,0,1-2.1-4,11.75,11.75,0,0,1,0-3.56c1.2.52,2.95.7,3.5,1.61,4,6.53,7.74,13.21,11.57,19.84,5.66,9.8,11.19,19.68,17,29.36,1.88,3.11,2,5.49.13,8.65-9,15.2-17.62,30.58-26.58,45.78-1.56,2.65-1.57,4.54,0,7.15q13.08,22.14,25.8,44.5c1.7,3,3.74,4.07,7.16,4,17.5-.16,35,0,52.5-.15a6.75,6.75,0,0,1,6.75,3.87c9.15,16.05,18.45,32,27.68,48a12.06,12.06,0,0,1,1.44,3.15c.16.69-.14,2-.53,2.17a3.13,3.13,0,0,1-2.66-.3,16.85,16.85,0,0,1-2.49-3.71c-8.42-14.55-17-29-25.13-43.72-2.13-3.85-4.6-5.48-8.9-5.45-16.83.13-33.67-.15-50.5.21-4.37.09-6.81-1.34-8.82-4.87-8.39-14.76-17-29.41-25.28-44.21-1.85-3.3-4-4.71-7.83-4.67q-25.49.27-51,0c-3,0-4.48,1.25-5.81,3.57-8.62,15-17.49,29.89-25.84,45.05-2.33,4.23-5.27,5.37-9.58,5.32-16.81-.18-33.63-.16-50.44-.42-3.59-.06-5.76,1-7.57,4.24q-12.37,22-25.21,43.68c-1.63,2.76-1.84,4.85-.14,7.72q13,21.92,25.48,44.1c1.59,2.81,3.32,3.94,6.64,3.9,17.33-.18,34.67.05,52-.19,4.15-.06,6.51,1,8.61,4.82,8.24,14.84,17,29.4,25.31,44.2,2,3.59,4.19,5.11,8.5,5,17.33-.29,34.66,0,52-.2,3.28,0,5.19,1,6.78,3.8,9.24,16.19,18.65,32.29,27.86,48.5.76,1.35.53,3.26.77,4.9-1.48-.92-3.56-1.49-4.34-2.82q-13.47-22.78-26.52-45.81c-1.79-3.17-3.84-4.3-7.47-4.26q-25.24.29-50.49,0c-3.4,0-5,1.28-6.54,4-8.63,15.2-17.49,30.27-26.13,45.46-1.55,2.73-3.19,4.08-6.57,4.06-18.66-.08-37.32.07-56,.29-3.65,0-5.68-1.47-7.44-4.59-8.51-15.07-17.33-30-25.84-45-1.76-3.11-3.66-4.4-7.37-4.34q-25,.35-50,0c-3.48,0-5.33,1.12-7,4.08-8.7,15.35-17.7,30.53-26.39,45.89-1.71,3-3.62,4.06-7.06,4-17.5-.17-35,0-52.5-.15-3.17,0-5.14.76-6.79,3.66q-12.69,22.36-25.82,44.48c-1.69,2.85-1.46,5,.13,7.71q13.13,22.4,26,45a40.55,40.55,0,0,1,2.29,6Zm743.49-108.94a29.11,29.11,0,0,0,5.53,1.09c18.17.08,36.33-.07,54.5.15,3.87,0,6-1.19,7.9-4.49q13.41-23.68,27.22-47.13c1.83-3.11,1.87-5.56,0-8.72-8.71-14.77-17.08-29.74-25.82-44.49-2.1-3.54-2.34-6.17-.11-9.88,8.91-14.84,17.44-29.9,26-45,.91-1.6.91-3.72,1.33-5.6l-1.93-.68c-1.28,1.83-2.71,3.59-3.83,5.52-8.7,15-17.39,29.94-25.95,45a6.22,6.22,0,0,1-6.28,3.59c-17.66-.16-35.33,0-53-.16-3.67,0-5.72,1.23-7.49,4.37-8.61,15.21-17.5,30.26-26.13,45.46-1.58,2.79-3.44,4.14-6.67,4.11-17-.18-34-.36-51-.25-3.6,0-5.32-1.43-7-4.31-8.46-14.91-17.15-29.7-25.61-44.6-1.89-3.32-4-4.9-8.16-4.83-17.49.3-35,.06-52.5.19-3,0-4.8-.75-6.34-3.48q-12.51-22.18-25.47-44.11c-1.9-3.19-1.68-5.44.15-8.53,8.9-15,17.49-30.27,26.32-45.35,1.68-2.87,1.79-5.14,0-8.13q-13.57-23-26.61-46.33a8,8,0,0,1-.14-6.68c8.47-15.09,17.33-30,26-45,1.49-2.6,3.26-3.58,6.34-3.55,17.66.17,35.33.13,53,0,1.69,0,3.37-1.22,5.06-1.87-1.58-.74-3.15-2.1-4.74-2.11-18.67-.15-37.33,0-56-.16-3.48,0-5.3,1.4-6.94,4.28-8.62,15.21-17.47,30.28-26.1,45.48-1.67,2.95-3.66,4.1-7.12,4.06q-25-.27-50,0c-3.5,0-5.43-1.22-7.1-4.15q-12.47-21.92-25.27-43.64c-1.71-2.89-1.79-5.14,0-8.13,9-15.19,17.66-30.56,26.6-45.76,1.65-2.8,1.59-5,0-7.72-9.27-15.79-18.49-31.61-27.46-47.57-2-3.59-4.49-4.7-8.42-4.67-17.16.16-34.33,0-51.5.16-3.63,0-5.65-1-7.44-4.21-8.48-15.09-17.29-30-25.81-45.06-1.85-3.27-4.08-4.76-7.94-4.72q-27,.23-54,0c-4,0-6.3,1.33-8.28,4.87-8.46,15.1-17.32,30-25.83,45.06-1.68,3-3.55,4.1-7,4.06-17.16-.19-34.33-.12-51.5,0a50.49,50.49,0,0,0-6.68.9q0,.95,0,1.9c1.4.44,2.8,1.26,4.2,1.27,18,.15,36,.28,54,.16,3.29,0,5.18,1,6.78,3.78q12.56,22.15,25.46,44.11c1.66,2.82,1.69,4.88,0,7.7q-13,21.91-25.54,44.07c-1.71,3-3.77,4-7.19,4-16.5-.17-33-.19-49.5,0-3.65,0-5.64-1.08-7.43-4.26-8.58-15.23-17.49-30.27-26.11-45.47-1.78-3.14-3.9-4.32-7.53-4.28-17.33.18-34.67,0-52,.18-3.89,0-5.91-1.27-7.79-4.62-8.56-15.24-17.49-30.27-26.11-45.47-1.6-2.82-3.47-4.07-6.71-4.05-18.67.09-37.33-.07-56,.21a8.72,8.72,0,0,0-6.27,3.63c-9.63,16.15-18.86,32.55-28.36,48.78-1.56,2.67-1.4,4.62.13,7.23,9,15.35,17.79,30.86,26.84,46.2,1.66,2.82,1.62,4.93,0,7.7q-12.85,21.7-25.33,43.62c-1.87,3.3-3.95,4.66-7.84,4.61-17.33-.22-34.66-.12-52-.06a33.67,33.67,0,0,0-5.33.86l-.09,2a31.53,31.53,0,0,0,5.56,1q26.5.15,53,.07c3,0,4.82.88,6.35,3.59Q959.49,541.77,972.5,564c1.65,2.83,1.39,5-.23,7.79-8.45,14.34-16.82,28.73-25,43.24-1.71,3-3.67,4.14-7,4.11-16.83-.15-33.66-.25-50.49-.07-3.52,0-5.34-1.2-7-4.12-8.62-15.2-17.48-30.27-26.12-45.46-1.66-2.92-3.6-4.13-7.1-4.1q-27.75.28-55.5,0c-3.54,0-5.39,1.25-7,4.15-8.73,15.33-17.61,30.58-26.43,45.86-1.27,2.2-2.44,3.89-5.66,3.85-17.5-.21-35,0-52.5-.21a6.41,6.41,0,0,1-4.71-2.54q-13.7-23.22-26.89-46.74a6.44,6.44,0,0,1,.09-5.36c8.58-15.22,17.45-30.28,26.08-45.48,1.48-2.6,3.34-3.16,6.06-3.14,17.67.09,35.33-.06,53,.13,3.68,0,5.72-1.27,7.49-4.39,8.45-14.92,17.21-29.66,25.59-44.62,2-3.62,4.17-5.1,8.48-5,17.16.3,34.33,0,51.5.18,3.61,0,5.86-1.23,7.64-4.35Q870.2,434,884,410.5c1.94-3.31,1.82-5.89-.13-9.18-8.56-14.47-16.69-29.19-25.33-43.61-2.46-4.1-2.42-7.14.05-11.24,8.59-14.25,16.79-28.75,25.06-43.2a46.37,46.37,0,0,0,2.4-5.88l-1.84-1.15c-1.3,1.41-2.9,2.65-3.85,4.26-9.23,15.81-18.27,31.74-27.59,47.5-1.88,3.18-1.7,5.5.12,8.58q13.46,22.79,26.44,45.86c.94,1.67,1.31,4.65.45,6.19q-12.88,23.12-26.43,45.86a8,8,0,0,1-5.85,3.14c-16.16.25-32.33-.06-48.49.26-5,.1-7.81-1.36-10.25-5.79-8.2-14.86-16.84-29.48-25.37-44.16-1.15-2-2.2-4.74-6-2.42,1.06,2.07,2,4,3,5.82,8.54,14.87,17.2,29.67,25.56,44.63,1,1.8,1.45,5,.54,6.64-8.39,15.14-17.18,30.05-25.74,45.1-1.59,2.8-3.57,3.83-6.82,3.8q-25.25-.23-50.5,0c-3.53,0-5.32-1.29-7-4.24q-12.92-22.81-26.31-45.35c-1.08-1.82-3.58-3.94-5.45-4-19.49-.28-39-.22-58.49,0a6.43,6.43,0,0,0-4.59,2.78q-14.6,24.72-28.77,49.7c-.78,1.37-.61,3.28-.88,4.94l1.85.65c1.36-2,2.87-3.85,4.07-5.91,8.45-14.53,16.91-29.06,25.19-43.7,1.74-3.07,3.66-4.45,7.39-4.4,16.83.22,33.67.19,50.5,0,3.25,0,5.06.92,6.67,3.77Q680.06,488,693,509.92c1.55,2.63,1.63,4.57.07,7.23-8.76,14.93-17.16,30.07-26.06,44.91-2.43,4-2.23,7,.1,10.9,8.52,14.3,16.59,28.87,25.13,43.15,2.26,3.78,2.19,6.57-.07,10.35-8.8,14.71-17.16,29.69-25.84,44.47-1.73,2.95-1.74,5.27,0,8.26,8.87,15.06,17.41,30.31,26.33,45.34,1.88,3.18,1.83,5.51,0,8.6q-13.56,23-26.71,46.28c-.68,1.19-.35,3-.48,4.46,1.38-.76,3.37-1.17,4.06-2.34,9.47-16.06,18.72-32.25,28.12-48.35,1.79-3.06,1.77-5.63-.09-8.79-8.87-15.06-17.48-30.27-26.26-45.39-1.42-2.44-2.14-4.46-.45-7.31q13.1-22.13,25.75-44.53c1.61-2.85,3.52-3.83,6.76-3.81,17.16.15,34.33-.06,51.5.16,4.36.06,6.91-1.18,9.11-5.14,8.4-15.13,17.26-30,25.82-45.06a6.25,6.25,0,0,1,6.28-3.64q25.5.24,51,0c3.48,0,5.38,1.13,7.06,4.09,8.62,15.2,17.5,30.26,26.13,45.46,1.67,2.95,3.61,4.29,7.09,4.26,18.33-.14,36.67-.11,55,0,3.53,0,5.8-1.16,7.61-4.38q13.37-23.71,27.18-47.16c2-3.33,1.83-5.94-.08-9.18-8.46-14.34-16.56-28.89-25.13-43.16-2.5-4.17-2.81-7.32-.18-11.67,8.63-14.23,16.62-28.84,25.16-43.14,2.19-3.67,2.11-6.46,0-10.06q-13.13-22.11-25.71-44.55c-1-1.84-1.66-5-.76-6.66,8.67-15.55,17.65-30.94,26.75-46.25a6.53,6.53,0,0,1,4.72-2.72c17.48-.12,35,.1,52.45,0,3.1,0,4.73,1.27,6.19,3.83,8.46,14.91,17.14,29.7,25.57,44.63,2,3.57,4.39,5.19,8.7,5.13,17.16-.25,34.33,0,51.5-.18,3.65,0,5.7,1.19,7.49,4.36q12.88,22.83,26.28,45.37c1.14,1.9,3.92,4,6,4q28.49.46,57,0a8.2,8.2,0,0,0,5.91-3.4c9.61-16.17,18.87-32.54,28.34-48.79a6.34,6.34,0,0,0-.06-7.29c-8.76-14.93-17.18-30.06-26.06-44.92-2.26-3.78-2.41-6.49-.09-10.32,8-13.24,15.93-26.56,23.18-40.23,2.73-5.15,6.08-6.57,11.39-6.46q23.74.46,47.48.32c3.45,0,5.41,1.09,7.1,4.08,8.44,14.92,17.17,29.68,25.59,44.62,1.94,3.44,4.13,4.87,8.23,4.83,17.66-.17,35.32.11,53,.09,3.08,0,4.68,1.28,6.16,3.9q12.42,21.95,25.24,43.67c1.73,2.92,1.83,5.17.07,8.14-8.8,14.91-17.36,30-26.08,44.91-1.71,2.93-2.5,5.52-.58,8.8q14,23.9,27.73,48c1.68,3,3.68,4.16,7.15,4.13,17.5-.16,35,0,52.5-.15,3.66,0,5.68,1.22,7.46,4.39q12.24,21.76,25,43.24c1.74,2.94,1.75,5.19,0,8.1-8.77,14.92-17.29,30-26.07,44.91-2,3.4-2.18,6.16-.1,9.67,8.83,14.89,17.33,30,26.11,44.89,1.62,2.75,1.8,4.9.14,7.72q-12.93,21.94-25.5,44.09a7.28,7.28,0,0,1-7.21,4.11c-16.49-.19-33-.41-49.48-.24-4.18,0-6.18-1.59-8.09-5-8.34-14.79-17-29.39-25.37-44.17-1.83-3.23-3.78-4.66-7.75-4.6-17.33.28-34.67,0-52,.21-3.62,0-5.69-1-7.48-4.19-8.59-15.22-17.5-30.27-26.11-45.48-1.67-3-3.57-4.34-7-4.31-18.5.12-37,0-55.5.11a27.18,27.18,0,0,0-5.33,1.09l-.05,2.05a47,47,0,0,0,7.06,1.09c16.5.1,33,.21,49.5-.05,4.54-.07,7.19,1.24,9.44,5.3,8.25,14.84,17,29.41,25.31,44.2,1.79,3.17,3.83,4.39,7.48,4.36,17.66-.17,35.33,0,53-.14,3,0,4.77.92,6.29,3.61,8.7,15.35,17.7,30.53,26.37,45.9,1.8,3.19,3.86,4.34,7.49,4.31q27.75-.25,55.5,0c3.24,0,5.06-.92,6.69-3.8,8.68-15.36,17.66-30.55,26.39-45.88,1.48-2.6,3.08-3.82,6.21-3.8q25.75.22,51.5,0a6.31,6.31,0,0,1,6.33,3.64q12.54,22.16,25.42,44.14c1.53,2.61,1.59,4.63.05,7.27q-13,22.2-25.62,44.6c-1.59,2.81-3.44,3.87-6.73,3.84-17.33-.18-34.66-.08-52-.08a22.79,22.79,0,0,0-4,.13c-.66.12-1.76,1-1.69,1.32.17.83.75,2,1.42,2.21a16.37,16.37,0,0,0,4.45.33c18,0,36-.13,54,.12,4,.06,6-1.37,7.81-4.6,8.46-14.91,17.25-29.64,25.58-44.62,2.1-3.78,4.48-4.89,8.64-4.83,17,.24,34-.06,51,.21,4.13.07,6.22-1.43,8.15-4.85,8.5-15.08,17.3-30,25.86-45,1.48-2.6,3.09-3.82,6.23-3.8,17.33.14,34.67,0,52,.22a8,8,0,0,1,5.7,3.34q13.31,22.3,26,45a6.87,6.87,0,0,1,.09,5.72c-8.46,15.1-17.27,30-25.76,45.09-1.82,3.24-4,4.17-7.58,4.14-17.33-.17-34.67-.1-52,0a36.16,36.16,0,0,0-5.36.8Zm94.74-595.48c-.44.63-.92,1.24-1.3,1.91-9.34,16.14-18.71,32.25-27.95,48.44-1.56,2.73-3.3,4.06-6.65,4q-25.73-.25-51.46,0c-3.53,0-5.37-1.31-7-4.24-8.8-15.48-17.89-30.8-26.58-46.34-1.75-3.13-3.71-3.94-7-3.92-17.83.14-35.66.17-53.49,0-3.77,0-5.88,1-7.8,4.4-8.67,15.56-17.65,30.94-26.7,46.29-.94,1.6-3.07,3.54-4.67,3.57-17.82.28-35.64.15-53.46.31-3.33,0-5.07-1.43-6.61-4.13-9-15.77-18.17-31.42-27.08-47.22-1.34-2.38-2.68-3.19-5.35-3.17q-28,.17-56,0c-2.92,0-4.43,1-5.85,3.47-8.82,15.47-17.94,30.78-26.67,46.3-2.06,3.66-4.33,5.13-8.59,5.07-16.16-.25-32.33-.33-48.49,0-4.62.11-6.82-1.65-8.9-5.32-8.53-15.07-17.34-30-25.91-45-1.82-3.19-3.89-4.65-7.85-4.6-17.66.26-35.33.22-53,0-3.66,0-5.72,1.14-7.49,4.27-8.62,15.2-17.54,30.24-26.12,45.47-2,3.61-4.32,5.19-8.61,5.12q-24.49-.37-49,0c-4.14.07-6.28-1.47-8.22-4.89q-13.16-23.25-26.82-46.21c-1-1.66-3.39-3.49-5.16-3.51-19.16-.25-38.33-.21-57.49,0a5.62,5.62,0,0,0-4,2.5c-9.19,15.64-18.35,31.3-27.19,47.14-2.12,3.79-4.79,5-8.78,4.95-16.49-.09-33-.13-49.48,0-3.49,0-5.4-1.24-7.08-4.19-8.71-15.34-17.61-30.58-26.46-45.84-1-1.65-2.06-3.22-3.09-4.82l-1.83.59c.48,2,.52,4.35,1.52,6.11q13.06,23,26.46,45.84c1.73,2.94,1.67,5.2,0,8.11q-13.54,23-26.7,46.28c-.75,1.32-.41,3.25-.58,4.9a35.73,35.73,0,0,0,4.09-2.63,9.11,9.11,0,0,0,1.55-2.54c8.4-14.56,16.86-29.09,25.16-43.71,1.65-2.89,3.52-4.14,7.05-4.1,17,.22,34,.18,51,0a6.26,6.26,0,0,1,6.31,3.6q10.31,18.26,20.93,36.35c9.9,16.8,5,13.76,23.57,13.64,14.83-.1,29.66,0,44.5-.08,1.74,0,3.48-.89,5.22-1.37l-.29-2.09a75.78,75.78,0,0,0-7.57-.76c-16.83-.07-33.66-.1-50.5,0-3,0-4.86-.72-6.4-3.44-8.52-15.07-17.3-30-25.73-45.1a7.53,7.53,0,0,1-.07-6.26q12.71-22.63,26.06-44.91a8.09,8.09,0,0,1,5.81-3.36c16.82-.22,33.65.06,50.48-.12,3.92,0,5.93,1.41,7.77,4.67,8.41,14.94,17.08,29.73,25.62,44.6,1.56,2.72,3.22,4.7,6.91,4.66,18.33-.19,36.66-.25,55,0,4.13,0,6.3-1.51,8.23-4.93,8.51-15.07,17.32-30,25.84-45,1.69-3,3.63-4.08,7.08-4q25.24.28,50.49,0c3.26,0,5.1,1,6.72,3.86,8.52,15.07,17.35,30,25.84,45,2,3.62,4.32,5.17,8.63,5.1,16.66-.26,33.33,0,50-.19,4.66-.06,7.44,1.26,9.81,5.57,8,14.59,16.65,28.83,24.77,43.36,2.08,3.72,4.53,5,8.71,4.92,17.49-.16,35,.07,52.48.06,3,0,4.72,1.13,6.21,3.79,7.26,12.91,14.21,26,22.36,38.39,4.67,7.08,4.1,12.28-.21,19.08-8.28,13.07-15.66,26.7-23.35,40.14-1.11,1.94-3.06,4.26.88,6.24,1.38-2.09,2.73-3.95,3.87-5.92,8.44-14.54,16.76-29.15,25.35-43.6,1.1-1.84,3.56-4,5.42-4.07,17.48-.29,35-.08,52.46-.16,3.5,0,5.22,1.66,6.85,4.54,8.45,14.92,17.21,29.66,25.62,44.6,1.88,3.33,4,4.63,7.87,4.58,17.66-.2,35.33,0,53-.15a5.88,5.88,0,0,1,5.91,3.37q12.7,22.36,25.69,44.55c1.64,2.79,1.69,4.87,0,7.72q-13.09,22.14-25.71,44.55c-1.51,2.68-3.22,3.63-6.28,3.61-17.66-.14-35.33,0-53-.16-3.65,0-5.7,1.1-7.47,4.25q-13.38,23.69-27.18,47.16c-1.85,3.15-1.79,5.64,0,8.75q13.64,23.26,26.92,46.72c1.94,3.43,4.26,5,8.32,5q27-.26,54,0c3.83,0,6.05-1.29,7.93-4.62,8.59-15.22,17.47-30.28,26.08-45.49,1.68-3,3.66-4.09,7.11-4.05,17.16.18,34.33.08,51.49.08a14.6,14.6,0,0,0,4-.15c.9-.26,1.57-1.3,2.34-2a8.24,8.24,0,0,0-2.14-1.68,9.39,9.39,0,0,0-3-.16c-18.67,0-37.33.06-56-.07-3.08,0-4.74,1-6.25,3.68-8.78,15.5-17.83,30.84-26.63,46.32-1.5,2.64-3.14,3.66-6.23,3.63q-25.75-.24-51.49,0c-2.83,0-4.53-.79-5.95-3.28-8.53-15.06-17.3-30-25.7-45.13a8,8,0,0,1-.09-6.69c8.41-14.94,17.19-29.66,25.74-44.51,1.61-2.79,3.58-3.73,6.82-3.7,17.5.17,35,0,52.49.17,3.49,0,5.44-1.15,7.12-4.11q13.56-23.88,27.46-47.57c1.83-3.11,1.88-5.54,0-8.69-8.87-15.06-17.41-30.31-26.3-45.36-1.88-3.18-1.72-5.46.13-8.57q12.63-21.24,24.73-42.8c1.77-3.15,3.7-4.45,7.38-4.4,16.5.2,33,.24,49.49,0,4.1-.06,6.31,1.37,8.24,4.8q12.5,22.18,25.45,44.12c1,1.75,3.12,2.87,4.73,4.28-.38-2.19-.19-4.71-1.22-6.53q-12.74-22.62-25.92-45a6.59,6.59,0,0,1,0-7.68c7.47-12.6,14.72-25.33,22-38,1.91-3.32,3.93-6.58,5.61-10,.42-.86-.31-2.28-.52-3.45-1,.41-2.2.6-2.91,1.29a15.36,15.36,0,0,0-2.12,3.36c-8.33,14.41-16.74,28.77-24.92,43.27-2.06,3.65-4.22,5.44-8.86,5.34-16.66-.38-33.33,0-50-.24-4.49-.06-7.2,1.17-9.5,5.34-8.29,15-17.13,29.7-25.58,44.62-1.67,3-3.47,4.26-7,4.22q-25.24-.3-50.49,0c-3.32,0-5.07-1.08-6.64-3.85-8.63-15.2-17.51-30.25-26.08-45.48-2-3.48-4.27-4.89-8.3-4.85-17.33.19-34.66,0-52,.17-3.47,0-5.38-1.07-7.06-4-8.44-14.92-17.2-29.66-25.57-44.62-2.14-3.82-4.58-5.41-9-5.35-17.33.24-34.66.06-52,.13-2.67,0-4.57-.36-6.09-3.06-8.58-15.22-17.46-30.28-26-45.52a6.84,6.84,0,0,1-.09-5.7q12.88-22.83,26.33-45.33a8.09,8.09,0,0,1,5.76-3.44c16.82-.23,33.65.05,50.48-.12,3.88,0,6,1.33,7.82,4.61,8.35,14.78,17,29.37,25.36,44.17,2,3.65,4.35,5.17,8.63,5.11,16.83-.24,33.66,0,50.49-.16,4.21,0,6.84,1.12,9,5.09,8.2,14.86,16.74,29.54,25.46,44.11,1.23,2.06,4.13,4.4,6.29,4.43,18.82.31,37.66.16,56.49,0a26.5,26.5,0,0,0,5.17-1.06q0-1,0-2c-2.26-.4-4.51-1.15-6.77-1.16q-26-.15-52,0c-2.79,0-4.56-.73-6-3.28-8.59-15.21-17.42-30.3-25.93-45.55a7,7,0,0,1-.07-5.79q12.92-22.81,26.43-45.28a8.05,8.05,0,0,1,5.85-3.17c16.49-.25,33,0,49.49-.25,4.23-.07,6.61,1.29,8.65,4.93,8.21,14.67,16.56,29.26,25.22,43.67,1.42,2.37,4.58,5.18,7,5.23,19,.38,38,.23,57,0a7.11,7.11,0,0,0,5.16-2.9q14.74-24.93,29-50.17c.79-1.39.39-3.46.54-5.22ZM198.36,297.7a59.71,59.71,0,0,0,2.53,5.65c8.53,14.87,17,29.76,25.79,44.49,1.89,3.17,1.82,5.49,0,8.59-8.63,14.62-16.93,29.43-25.59,44-2.27,3.83-2.58,6.81-.14,10.88,8.92,14.84,17.32,30,26.06,44.92,1.44,2.46,1.55,4.36.1,6.82q-13.31,22.58-26.36,45.32c-1.54,2.68-3.44,3.46-6.43,3.44-17.66-.13-35.33,0-53-.14-3.28,0-5.08,1-6.69,3.84-8.94,15.79-18.13,31.43-27,47.23-1,1.72-.78,4.1-1.12,6.17,1.6-1.35,3.7-2.4,4.71-4.1q13.2-22.36,26-45c1.81-3.22,3.89-4.23,7.49-4.19,17.16.19,34.33,0,51.5.17,4,0,6.34-1,8.35-4.61,8.46-15.1,17.35-30,25.79-45.07,1.83-3.27,3.92-4.34,7.49-4.3,16.49.19,33,.27,49.48.15,3.8,0,6,1.2,7.93,4.56,8.33,14.79,16.92,29.44,25.43,44.13a20.05,20.05,0,0,0,2.43,3.76,1.92,1.92,0,0,0,3.37-1.8,18.47,18.47,0,0,0-2-4c-8.9-15.43-17.92-30.79-26.65-46.32-2-3.54-4.4-4.71-8.34-4.67-17.33.18-34.66,0-52,.15-3.18,0-5.08-.77-6.72-3.69Q218.08,431.74,205,409.59a6.23,6.23,0,0,1,0-7.26c8.28-14.05,16.64-28.07,24.39-42.42,2.48-4.6,5.53-5.92,10.23-5.86,16,.21,32,.37,48,.29,3.68,0,5.67,1.29,7.44,4.43,8.51,15.08,17.32,30,25.85,45,1.77,3.13,3.85,4.4,7.51,4.36,17.5-.18,35,0,52.5-.16,3.24,0,5.13.9,6.73,3.74,7.21,12.75,14.66,25.36,21.94,38.07,5.85,10.22,5.76,10.24-.07,20.34q-11.74,20.32-23.36,40.71c-.61,1.07-.29,2.66-.4,4a23.48,23.48,0,0,0,3.92-2c.74-.54,1.06-1.66,1.56-2.52,8.58-14.84,17.06-29.75,25.87-44.45,1.12-1.87,4-3.81,6.06-3.84,17.32-.25,34.65-.16,52,.13a7.59,7.59,0,0,1,5.47,3.15q13.22,22.34,25.8,45.05a8.12,8.12,0,0,1-.1,6.74c-8.4,14.94-17.17,29.67-25.71,44.54-1.61,2.8-3.57,3.81-6.81,3.78-17.5-.15-35,0-52.5-.16-3.49,0-5.39,1.14-7.07,4.1-8.63,15.2-17.56,30.22-26.11,45.46-1.82,3.24-3.88,4.3-7.47,4.27-17.33-.16-34.67.07-52-.19-3.94-.06-6,1.32-7.82,4.57-8.54,15.06-17.38,29.95-25.86,45-1.79,3.18-3.73,4.46-7.41,4.42-17.5-.18-35,0-52.5-.15-3.41,0-5.47,1-7.18,4.06Q214.21,701,200.19,725c-1.63,2.79-1.54,5,.11,7.8q14.22,24.07,28.09,48.36c1.64,2.86,3.59,3.76,6.8,3.73,18.16-.15,36.33-.18,54.5,0,3.81,0,6-1.1,7.94-4.48,8.65-15.38,17.62-30.57,26.34-45.91a6.23,6.23,0,0,1,6.29-3.6q25.5.24,51,0c3.33,0,5.05,1.17,6.64,4,8.28,14.63,16.76,29.15,25.17,43.7a29.55,29.55,0,0,0,2.9,4.65c.58.68,1.9.72,2.89,1a12.57,12.57,0,0,0,.59-3.11,5.83,5.83,0,0,0-1.1-2.21c-9.33-16.14-18.73-32.24-27.92-48.46-1.65-2.91-3.69-3.73-6.8-3.71q-27.75.14-55.5,0c-3.42,0-5.41,1.19-7.09,4.17-8.69,15.35-17.64,30.56-26.36,45.9-1.5,2.63-3.24,3.74-6.32,3.72q-25.5-.19-51,0c-3,0-4.89-.91-6.41-3.57-8.56-15-17.35-30-25.8-45.07a7.49,7.49,0,0,1,0-6.24c8.5-15.08,17.36-30,25.94-45,1.66-2.92,3.74-3.62,6.89-3.59,17,.14,34-.08,51,.16,4.36.06,6.91-1.17,9.1-5.1,8.33-15,16.95-29.81,25.74-44.52,1.13-1.89,3.91-3.93,5.95-4,17.31-.21,34.63.14,51.94.05,3.39,0,5,1.35,6.56,4.08q12.69,22.37,25.74,44.53c1.06,1.8,3.35,2.87,5.07,4.28-.44-2.09-.39-4.45-1.39-6.23-8.59-15.22-17.42-30.3-26-45.53-.9-1.59-1.54-4.34-.78-5.71q13.15-23.54,26.91-46.73a6.42,6.42,0,0,1,4.73-2.49c17.65-.15,35.31-.16,53,.15,1.91,0,4.53,1.87,5.57,3.62,8.7,14.58,17.3,29.23,25.49,44.1,2.45,4.45,5.27,5.91,10.24,5.81,16.83-.31,33.66,0,50.49-.18,3.34,0,5.43.82,7.17,3.92q12.34,22,25.2,43.68c1.77,3,1.69,5.23,0,8.14-8.6,14.64-17,29.37-25.5,44.09a23.26,23.26,0,0,0-2.22,4.45c-.24.75.4,1.77.64,2.66.87-.24,2-.24,2.57-.78a11.11,11.11,0,0,0,2-2.87c9.09-15.7,18.08-31.46,27.31-47.08,1.95-3.3,1.94-5.83,0-9.13-8.81-14.9-17.28-30-26.09-44.9-1.84-3.1-1.95-5.39-.07-8.56,8.59-14.45,16.92-29.06,25.29-43.64,1.19-2.08,2.08-4.33,3.11-6.49L605,565.45c-1.48,1.39-3.38,2.53-4.36,4.21q-13.28,22.6-26.24,45.4c-1.54,2.71-3.17,4-6.57,4-17.16-.22-34.33-.16-51.5,0-2.81,0-4.46-.74-5.92-3.31q-12.67-22.38-25.76-44.51c-1.65-2.8-1.51-4.93.12-7.68,9-15.2,17.66-30.55,26.6-45.76,1.74-3,1.73-5.29,0-8.26-9-15.2-17.67-30.54-26.57-45.78-1.55-2.66-1.89-4.7-.14-7.63q13-21.87,25.49-44.1c1.76-3.14,3.8-3.94,7.13-3.91,17.16.14,34.33-.11,51.49.18,4.52.08,6.84-1.52,9-5.32,8.27-14.82,16.91-29.45,25.32-44.2,1.51-2.64,3.12-4.36,6.53-4.33,17,.14,34,.11,51,0,3.54,0,5.65,1.32,7.44,4.5,8.74,15.52,17.71,30.9,26.74,46.26.67,1.14,2.41,1.65,3.66,2.46a21.21,21.21,0,0,0,0-4.39,11.23,11.23,0,0,0-1.68-3c-8.48-14.71-17-29.38-25.34-44.18-1-1.72-1.57-4.71-.73-6.22,8.66-15.56,17.59-31,26.66-46.3a6.42,6.42,0,0,1,4.68-2.61c17.48-.17,35,0,52.46-.12,3.29,0,5,1.26,6.58,4.05,7.59,13.49,15.41,26.85,23.16,40.26a70.8,70.8,0,0,0,4.43,7.22c.6.8,2.16.88,3.29,1.29a12.77,12.77,0,0,0,.17-3.15,9.22,9.22,0,0,0-1.31-2.67c-9-15.58-18-31.12-26.88-46.76-1.94-3.44-4.32-5-8.36-5q-27,.22-54,0c-3.85,0-6,1.35-7.89,4.67C685,315.92,676.14,331,667.51,346.17c-1.58,2.78-3.32,3.89-6.63,3.86-17.5-.19-35,0-52.5-.13-3.73,0-6.06,1.26-8,4.65-8.66,15.37-17.67,30.55-26.38,45.89-1.53,2.69-3.26,3.59-6.3,3.57-17.66-.14-35.33,0-53-.14-3.63,0-5.65,1.18-7.44,4.35q-13,23-26.54,45.8c-.91,1.54-3.13,3.26-4.77,3.28-17.49.25-35,0-52.46.27-3.66,0-5.32-1.58-6.93-4.39-8.58-15-17.37-30-25.87-45-1.78-3.15-3.79-4.33-7.44-4.29-17.5.19-35,0-52.5.17-3.44,0-5.38-1-7.07-4-8.52-15.07-17.37-30-25.82-45.06-2.05-3.67-4.37-5.17-8.62-5.11-17,.22-34,0-51,.18-4,.05-6.3-1.13-8.29-4.68-8.37-15-17-29.78-25.68-44.56-1-1.74-2.95-2.94-4.45-4.39Zm1211.71,484a53.19,53.19,0,0,0,2.53,6c8.51,14.89,17,29.78,25.73,44.53,1.76,3,1.86,5.28.14,8.2-8.46,14.33-16.89,28.69-25.08,43.18-2,3.56-4.47,4.66-8.38,4.6q-24.49-.34-49-.16c-3.65,0-5.67-1.24-7.44-4.38-8.51-15.07-17.32-30-25.86-45-1.68-3-3.71-4.25-7.11-4.21-18.64.2-37.29.39-55.93.26-3.64,0-5.26,1.47-6.88,4.31-8.64,15.19-17.5,30.26-26.14,45.45a6.2,6.2,0,0,1-6.26,3.6q-25.49-.25-51,0c-3.44,0-5.34-1-7.06-4.09-8.67-15.36-17.57-30.59-26.55-45.78-.86-1.46-2.82-3.21-4.29-3.23q-29.73-.36-59.46-.1a6.43,6.43,0,0,0-4.62,2.75q-14.6,24.72-28.74,49.7c-.67,1.18,0,3.11,0,4.69,1.14-.93,2.67-1.64,3.37-2.83q13.6-23.28,26.93-46.72c1.7-3,3.71-4.07,7.14-4q25.25.25,50.49,0c3.67,0,5.68,1.27,7.46,4.41q13,23,26.54,45.79c1,1.62,3.36,3.38,5.11,3.4q29,.36,58,0a6.79,6.79,0,0,0,4.81-3q13.71-23.21,27-46.69c1.57-2.77,3.37-4,6.68-3.95q25.5.25,51,0c3.45,0,5.43,1.1,7.13,4.1,8.77,15.5,17.84,30.83,26.57,46.35,1.46,2.6,3,3.36,5.84,3.34,18.83-.1,37.66-.13,56.49,0a6.18,6.18,0,0,0,6.25-3.62c8.75-15.51,17.73-30.89,26.52-46.38,1.46-2.58,3.08-3.83,6.23-3.8,17.33.15,34.66,0,52,.21a8.07,8.07,0,0,1,5.88,3.2q13.81,23.15,27,46.69c1.51,2.69,2.93,3.74,6,3.71q28-.24,56,0c3.22,0,5.06-.85,6.7-3.76,8.58-15.22,17.51-30.25,26.1-45.48,1.86-3.3,3.88-4.66,7.79-4.61q25,.36,50,0c4-.06,6,1.4,7.8,4.65,8.43,14.93,17.16,29.68,25.59,44.61,1.83,3.24,3.8,4.69,7.76,4.63q27-.39,54,0c3.94.06,6-1.35,7.82-4.58,8.46-14.91,17.23-29.64,25.61-44.6,2-3.65,4.28-5.09,8.54-5,17.33.26,34.66,0,52,.19,3.27,0,5.16-1,6.75-3.78q13.56-23.88,27.42-47.6c1.71-2.91,1.83-5.14,0-8.18-8.8-14.91-17.23-30-26-45-2-3.34-2.25-5.87-.15-9.41,8.92-15,17.38-30.33,26.24-45.39,1.69-2.88,1.54-4.88-.1-7.67-8.76-14.93-17.19-30.05-26-45-2.11-3.58-2.17-6.32,0-10,8.78-14.72,17.12-29.71,25.85-44.46,1.87-3.16,1.74-5.46-.09-8.57-8.68-14.78-16.94-29.81-25.69-44.54-2.27-3.83-2.09-6.65.12-10.36,8.85-14.88,17.34-30,26.1-44.9,1.54-2.62,1.56-4.53,0-7.25-8.9-15-17.44-30.29-26.31-45.35-2-3.38-2.15-6-.1-9.49,8.83-14.89,17.31-30,26.1-44.89,1.71-2.89,2-5,.17-8.13-9.08-15.32-17.79-30.86-26.76-46.24-1.51-2.58-1.66-4.56-.08-7.24,9-15.35,17.8-30.85,26.82-46.21,1.61-2.74,2-4.86.26-7.75-9.63-16.35-19.05-32.82-28.58-49.23-.76-1.31-1.75-2.49-2.64-3.73l-1.8.75c.58,2.1.76,4.44,1.8,6.28q13.06,23,26.46,45.84c1.65,2.8,1.59,4.86-.06,7.65-8.79,14.91-17.23,30-26.09,44.89-2.14,3.59-2.34,6.2-.14,9.87,8.88,14.86,17.31,30,26.12,44.88,1.74,2.95,1.79,5.17.05,8.11-8.46,14.34-16.51,28.92-25.14,43.14-2.87,4.72-3.1,8.26-.15,13.11,8.83,14.49,17.16,29.3,25.45,44.11a7.4,7.4,0,0,1,.21,6.13c-8.34,15-17,29.75-25.48,44.67-1.79,3.16-4,4.2-7.63,4.17q-24.74-.27-49.49,0c-3.63,0-5.72-1.1-7.5-4.25-8.43-14.93-17.07-29.73-25.66-44.57a17,17,0,0,0-2.52-3.68,2.77,2.77,0,0,0-2.58-.45c-.5.27-.65,1.68-.51,2.51a8.66,8.66,0,0,0,1.25,2.69c9.23,16,18.54,32,27.67,48,1.68,3,3.64,4.11,7.12,4.07,17.5-.18,35,0,52.49-.1,3.27,0,5.45.89,7.18,4q12.16,21.8,24.83,43.32c2.07,3.51,1.77,6.14-.25,9.55-8.75,14.74-17.12,29.71-25.82,44.48-1.76,3-1.72,5.31,0,8.26,8.94,15.21,17.63,30.56,26.57,45.77,1.62,2.76,1.76,4.87.08,7.71-8.8,14.91-17.24,30-26.12,44.88-2.3,3.84-2.14,6.69.1,10.45,8.85,14.87,17.32,30,26.08,44.91,1.54,2.62,1.61,4.58,0,7.23-8.46,14.33-16.88,28.69-24.95,43.25-2.1,3.79-4.7,5-8.67,4.91-16.66-.19-33.32-.17-50-.4-4.47-.06-7.3,1.46-9.57,5.54-8.34,15-17.1,29.72-25.58,44.62-1.45,2.55-3,3.83-6.18,3.8q-26-.26-52,0a5.81,5.81,0,0,1-5.84-3.41c-8.73-15.33-17.69-30.54-26.39-45.88-1.75-3.09-3.7-4.42-7.42-4.38q-27.49.31-55,0c-3.67,0-5.7,1.24-7.47,4.38-8.59,15.22-17.46,30.28-26.07,45.49-1.59,2.81-3.38,3.84-6.66,3.8q-25.49-.28-51,0c-3.32,0-5.07-1.08-6.66-3.88-8.63-15.2-17.52-30.24-26.12-45.46-1.8-3.18-3.9-4.36-7.54-4.32-17.5.17-35,0-52.49.16-3.48,0-5.4-1.17-7.07-4.12q-12.93-22.8-26.22-45.4c-1-1.7-2.65-3-4-4.52ZM198.6,188.59c.45,1.88.5,4,1.42,5.6,9.29,16.35,18.6,32.69,28.27,48.82,1.16,1.94,4.48,3.62,6.83,3.66,17.16.28,34.33-.24,51.48.27,6.5.19,9.81-2.14,12.78-7.59,7.88-14.46,16.39-28.58,24.54-42.91,1.49-2.62,3.27-3.62,6.34-3.59q25.49.23,51,0c3.28,0,5.06,1.06,6.66,3.9C396.51,212,405.39,227,414,242.24c1.86,3.29,4.07,4.65,7.93,4.61q27.24-.28,54.49,0c3.68,0,5.72-1.3,7.49-4.43,8.7-15.35,17.69-30.53,26.39-45.88,1.53-2.7,3.24-3.68,6.29-3.66,17.16.13,34.33,0,51.49.21a8,8,0,0,1,5.78,3.3c8.8,14.71,17.2,29.66,25.92,44.42,1.68,2.85,1.47,5-.12,7.69-8.54,14.48-17,29-25.31,43.62-1.7,3-3.63,4.1-7.07,4.07-17.33-.17-34.66,0-52-.14-3.76,0-6.09,1.18-8,4.56-8.41,14.94-17.19,29.67-25.59,44.61-2,3.51-4.36,4.82-8.27,4.77-16.66-.19-33.32-.27-50-.12-3.35,0-5.08-1.19-6.64-3.94-8.63-15.19-17.48-30.27-26.1-45.47-1.76-3.11-3.89-4.45-7.55-4.42-18,.16-36,0-54,.16-2.05,0-4.09,1.28-6.14,2,2.08.76,4.15,2.16,6.23,2.18,15.83.18,31.67.33,47.49,0,6.3-.14,10.18,1.58,13.32,7.53,7.54,14.26,16.08,28,24,42.07,1.8,3.21,3.89,4.29,7.5,4.26q27.49-.26,55,0c3.62,0,5.68-1.1,7.48-4.3,8.49-15.08,17.34-30,25.84-45,1.88-3.34,4.06-4.54,7.9-4.49,17.16.22,34.33,0,51.49.2,4.12.06,6.3-1.45,8.24-4.89,8.33-14.79,17-29.41,25.32-44.18,1.91-3.38,4-4.89,8.18-4.81,16.82.33,33.66.16,50.48.33,4.23,0,7-1.19,9.22-5.18,8.33-15,17.13-29.69,25.59-44.61,1.75-3.09,3.71-4.41,7.43-4.36q24.74.33,49.49,0c3.85-.05,6,1.12,7.88,4.47q12.86,22.84,26.29,45.36c1.13,1.89,3.94,3.89,6,3.92,19,.3,38,.25,57,.06,1.81,0,4.4-1.23,5.27-2.7q14.87-25.14,29.18-50.61c.74-1.32.1-3.43.1-5.17l-1.46,0c-.36.51-.76,1-1.07,1.54-9.3,16.16-18.66,32.28-27.81,48.51-1.77,3.13-3.81,4.41-7.45,4.37-17.48-.19-35,0-52.46-.3-1.74,0-4.07-2-5.07-3.7q-13.83-23.44-27.2-47.14a5.8,5.8,0,0,0-5.85-3.39c-18.33.14-36.66.19-55,0-3.73,0-5.52,1.29-7.28,4.43q-12.93,23.09-26.43,45.85c-1.07,1.82-3.56,3.93-5.42,4-17.48.32-35,.1-52.46.31-3.78,0-5.63-1.58-7.35-4.59-8.81-15.48-17.86-30.82-26.62-46.32-1.51-2.67-3.08-3.65-6.16-3.62q-27.49.24-55,0c-3.32,0-5,1.12-6.6,3.94q-13.26,23.47-27,46.68c-1,1.68-3.37,3.58-5.13,3.62-17.48.32-35,.21-52.46.37-3.62,0-5.64-1.45-7.41-4.58-8.67-15.36-17.69-30.53-26.32-45.92-1.69-3-3.42-4.16-6.89-4.13q-27,.27-54,0c-3.69,0-5.62,1.26-7.39,4.38C313,207.74,304,222.92,295.3,238.27c-1.87,3.3-4.05,4.63-7.92,4.58-16.66-.21-33.33-.17-50,0-3.42,0-5.41-1-7.13-4.09-8.6-15.21-17.43-30.29-26.24-45.39-1.1-1.89-2.53-3.6-3.81-5.39Z"/></svg>