<svg xmlns="http://www.w3.org/2000/svg" width="1921" height="1081" viewBox="0 0 1921 1081"><title>02_borders_alt</title><rect x="270.5" y="624.5" width="253" height="253" transform="translate(-414.26 501.18) rotate(-45)" style="fill:#1b1464"/><path d="M397,572.81,575.19,751,397,929.19,218.81,751,397,572.81m0-1.41L217.39,751,397,930.61,576.61,751,397,571.39Z" transform="translate(0.5 0.5)"/><rect x="487.5" y="410.5" width="253" height="253" transform="translate(-199.38 591.95) rotate(-45)" style="fill:#1b1464"/><path d="M614,358.81,792.19,537,614,715.19,435.81,537,614,358.81m0-1.41L434.39,537,614,716.61,793.61,537,614,357.39Z" transform="translate(0.5 0.5)"/><rect x="275.5" y="202.5" width="253" height="253" transform="translate(-114.4 381.12) rotate(-45)" style="fill:#1b1464"/><path d="M402,150.81,580.19,329,402,507.19,223.81,329,402,150.81m0-1.41L222.39,329,402,508.61,581.61,329,402,149.39Z" transform="translate(0.5 0.5)"/><rect x="849.5" y="415.5" width="253" height="253" transform="translate(-96.89 849.38) rotate(-45)" style="fill:#1b1464"/><path d="M976,363.81,1154.19,542,976,720.19,797.81,542,976,363.81m0-1.41L796.39,542,976,721.61,1155.61,542,976,362.39Z" transform="translate(0.5 0.5)"/><rect x="1062.5" y="624.5" width="253" height="253" transform="translate(-182.29 1061.21) rotate(-45)" style="fill:#1b1464"/><path d="M1189,572.81,1367.19,751,1189,929.19,1010.81,751,1189,572.81m0-1.41L1009.39,751,1189,930.61,1368.61,751,1189,571.39Z" transform="translate(0.5 0.5)"/><rect x="1279.5" y="410.5" width="253" height="253" transform="translate(32.59 1151.98) rotate(-45)" style="fill:#1b1464"/><path d="M1406,358.81,1584.19,537,1406,715.19,1227.81,537,1406,358.81m0-1.41L1226.39,537,1406,716.61,1585.61,537,1406,357.39Z" transform="translate(0.5 0.5)"/><rect x="1631.26" y="425.56" width="222.87" height="222.87" transform="translate(131.21 1390.06) rotate(-45)" style="fill:#1b1464"/><path d="M1742.7,380.11,1899.59,537,1742.7,693.89,1585.81,537,1742.7,380.11m0-1.41L1584.39,537l158.3,158.3L1901,537,1742.7,378.7Z" transform="translate(0.5 0.5)"/><polygon points="0.72 588.62 49.23 542.5 0.72 496.39 133.5 363.6 312.4 542.5 133.5 721.4 0.72 588.62" style="fill:#1b1464"/><path d="M133,363.81,311.19,542,133,720.19.93,588.13l47.75-45.4.76-.72-.76-.72L.93,495.88,133,363.81m0-1.41L-.5,495.89,48,542-.5,588.11,133,721.61,312.61,542,133,362.39Z" transform="translate(0.5 0.5)"/><rect x="642.5" y="171.5" width="253" height="253" transform="translate(15.02 631.55) rotate(-45)" style="fill:#1b1464"/><path d="M769,119.81,947.19,298,769,476.19,590.81,298,769,119.81m0-1.41L589.39,298,769,477.61,948.61,298,769,118.39Z" transform="translate(0.5 0.5)"/><rect x="1067.5" y="202.5" width="253" height="253" transform="translate(117.58 941.15) rotate(-45)" style="fill:#1b1464"/><path d="M1194,150.81,1372.19,329,1194,507.19,1015.81,329,1194,150.81m0-1.41L1014.39,329,1194,508.61,1373.61,329,1194,149.39Z" transform="translate(0.5 0.5)"/><path d="M1919.5.5v1079H.5V.5h1919m1-1H-.5v1081h1921V-.5Z" transform="translate(0.5 0.5)"/></svg>