<svg xmlns="http://www.w3.org/2000/svg" width="1922" height="1082" viewBox="0 0 1922 1082"><title>02_borders_alt</title><rect x="0.5" y="0.5" width="1921" height="1081" style="fill:none;stroke:#e6e6e6;stroke-miterlimit:10"/><path d="M376.75,300.32c6.3-.14,10.18,1.58,13.32,7.53,7.54,14.26,16.08,28,24,42.07,1.8,3.21,3.89,4.29,7.5,4.26q11.73-.11,23.45-.12v-4.27q-10.78,0-21.56.07c-3.35,0-5.08-1.19-6.64-3.94-8.63-15.19-17.48-30.27-26.1-45.47-1.76-3.11-3.89-4.45-7.55-4.42-18,.16-36,0-54,.16-2.05,0-4.09,1.28-6.14,2,2.08.76,4.15,2.16,6.23,2.18C345.09,300.51,360.93,300.66,376.75,300.32Z" transform="translate(1 1)"/><path d="M387.92,196.76C396.51,212,405.39,227,414,242.24c1.86,3.29,4.07,4.65,7.93,4.61q27.24-.28,54.49,0c3.68,0,5.72-1.3,7.49-4.43,8.7-15.35,17.69-30.53,26.39-45.88,1.53-2.7,3.24-3.68,6.29-3.66,17.16.13,34.33,0,51.49.21a8,8,0,0,1,5.78,3.3c8.8,14.71,17.2,29.66,25.92,44.42,1.68,2.85,1.47,5-.12,7.69-8.54,14.48-17,29-25.31,43.62-1.7,3-3.63,4.1-7.07,4.07-17.33-.17-34.66,0-52-.14-3.76,0-6.09,1.18-8,4.56-8.41,14.94-17.19,29.67-25.59,44.61-2,3.51-4.36,4.82-8.27,4.77q-14.21-.16-28.43-.19v4.27q15.77,0,31.53.12c3.62,0,5.68-1.1,7.48-4.3,8.49-15.08,17.34-30,25.84-45,1.88-3.34,4.06-4.54,7.9-4.49,17.16.22,34.33,0,51.49.2,4.12.06,6.3-1.45,8.24-4.89,8.33-14.79,17-29.41,25.32-44.18,1.91-3.38,4-4.89,8.18-4.81,16.82.33,33.65.16,50.48.33,4.23,0,7-1.19,9.22-5.18,8.33-15,17.13-29.69,25.59-44.61,1.75-3.09,3.71-4.41,7.43-4.36q8.63.12,17.27.14-1.13-2.43-2.35-4.85-8.54,0-17.07-.12c-3.73,0-5.52,1.29-7.28,4.43q-12.93,23.09-26.43,45.85c-1.07,1.82-3.56,3.93-5.42,4-17.48.32-35,.1-52.46.31-3.78,0-5.63-1.58-7.35-4.59-8.81-15.48-17.86-30.82-26.62-46.32-1.51-2.67-3.08-3.65-6.16-3.62q-27.49.24-55,0c-3.32,0-5,1.12-6.6,3.94q-13.26,23.47-27,46.68c-1,1.68-3.37,3.58-5.13,3.62-17.48.32-35,.21-52.46.37-3.62,0-5.64-1.45-7.41-4.58-8.67-15.36-17.69-30.53-26.32-45.92-1.69-3-3.42-4.16-6.89-4.13q-12,.12-24.06.13V193q11.13,0,22.25-.11C384.54,192.82,386.31,193.92,387.92,196.76Z" transform="translate(1 1)"/><path d="M884.9,188.17l-1.46,0c-.36.51-.76,1-1.07,1.54-9.3,16.16-18.66,32.28-27.81,48.51-1.77,3.13-3.81,4.41-7.45,4.37-17.48-.19-35,0-52.46-.3-1.74,0-4.07-2-5.07-3.7q-13.83-23.44-27.2-47.14a5.79,5.79,0,0,0-5.85-3.39q-19,.14-37.91.09,1.22,2.42,2.35,4.85,16.11.07,32.22-.14c3.85-.05,6,1.12,7.88,4.47q12.86,22.84,26.29,45.36c1.13,1.89,3.94,3.89,6,3.92,19,.3,38,.25,57,.06,1.81,0,4.4-1.23,5.27-2.7q14.87-25.14,29.18-50.61C885.55,192,884.9,189.91,884.9,188.17Z" transform="translate(1 1)"/><path d="M972.45,240.52c1.73,2.94,1.67,5.2,0,8.11q-13.54,23-26.7,46.28c-.75,1.32-.41,3.25-.58,4.9a35.73,35.73,0,0,0,4.09-2.63,9.11,9.11,0,0,0,1.55-2.54c8.4-14.56,16.86-29.09,25.16-43.71,1.65-2.89,3.52-4.14,7.05-4.1,14.36.18,28.72.18,43.08.08q0-2.07,0-4.14c-14.38-.06-28.75-.08-43.13.07-3.49,0-5.4-1.24-7.08-4.19-8.71-15.34-17.61-30.58-26.46-45.84-1-1.65-2.06-3.22-3.09-4.82l-1.83.59c.48,2,.52,4.35,1.51,6.11Q959,217.7,972.45,240.52Z" transform="translate(1 1)"/><path d="M1623.88,283.85c-6.95-12.17-14-24.3-20.8-36.53a7,7,0,0,1-.07-5.79q12.92-22.81,26.43-45.28a8.05,8.05,0,0,1,5.85-3.17c16.49-.25,33,0,49.49-.25,4.23-.07,6.61,1.29,8.65,4.93,8.21,14.67,16.56,29.26,25.22,43.67,1.42,2.37,4.58,5.18,7,5.23,19,.38,38,.23,57,0a7.11,7.11,0,0,0,5.16-2.9q14.74-24.93,29-50.17c.79-1.39.39-3.46.54-5.22l-1.6-.21c-.44.63-.92,1.24-1.3,1.91-9.34,16.14-18.71,32.25-27.95,48.44-1.56,2.73-3.3,4.06-6.65,4q-25.73-.25-51.46,0c-3.53,0-5.37-1.31-7-4.24-8.8-15.48-17.89-30.8-26.58-46.34-1.75-3.13-3.71-3.94-7-3.92-17.83.14-35.66.17-53.49,0-3.77,0-5.88,1-7.8,4.4-8.67,15.56-17.65,30.94-26.7,46.29-.95,1.6-3.07,3.54-4.67,3.57-17.82.28-35.64.15-53.46.31a8.71,8.71,0,0,1-1.65-.15c-.36,1.44-.71,2.87-1.07,4.31a13.24,13.24,0,0,0,2,.13c16.83-.24,33.66,0,50.49-.16,4.22,0,6.84,1.12,9,5.09q9,16.36,18.54,32.44c1-.07,2.06-.15,3.09-.24Z" transform="translate(1 1)"/><path d="M1632.12,300.33c18.82.31,37.66.16,56.49,0a26.5,26.5,0,0,0,5.17-1.06q0-1,0-2c-2.26-.4-4.51-1.15-6.77-1.16q-26-.15-52,0c-2.79,0-4.56-.73-6-3.28q-2.55-4.52-5.13-9L1622,284c-1,.09-2.06.16-3.09.24q3.44,5.85,6.92,11.67C1627.07,298,1630,300.3,1632.12,300.33Z" transform="translate(1 1)"/><path d="M1635.8,515.68c17.5.17,35,0,52.49.17,3.49,0,5.44-1.15,7.12-4.11q13.56-23.88,27.46-47.57c1.83-3.11,1.88-5.54,0-8.69-8.87-15.06-17.41-30.31-26.3-45.36-1.88-3.18-1.72-5.46.13-8.57q12.63-21.24,24.73-42.8c1.77-3.15,3.7-4.45,7.38-4.4,16.5.2,33,.24,49.49,0,4.1-.06,6.31,1.37,8.24,4.8q12.5,22.18,25.45,44.12c1,1.75,3.13,2.87,4.73,4.28-.38-2.19-.19-4.71-1.22-6.53q-12.74-22.62-25.92-45a6.59,6.59,0,0,1,0-7.68c7.47-12.6,14.72-25.33,22-38,1.91-3.32,3.93-6.58,5.61-10,.42-.86-.31-2.28-.52-3.45-1,.41-2.2.6-2.91,1.29a15.36,15.36,0,0,0-2.12,3.36c-8.33,14.41-16.74,28.77-24.93,43.27-2.06,3.65-4.22,5.44-8.86,5.34-16.66-.38-33.33,0-50-.24-4.49-.06-7.2,1.17-9.5,5.34-8.29,15-17.13,29.7-25.58,44.62-1.67,3-3.47,4.26-7,4.22q-25.24-.3-50.49,0c-3.32,0-5.07-1.08-6.64-3.85-8.63-15.2-17.51-30.25-26.08-45.48-2-3.48-4.27-4.89-8.3-4.85-17.33.19-34.66,0-52,.17-3.47,0-5.38-1.07-7.06-4-4.65-8.23-9.4-16.4-14.13-24.58-.49,2.2-1,4.39-1.48,6.59,2.91,5,5.91,10,9.09,14.78,4.67,7.08,4.1,12.28-.21,19.08-8.28,13.07-15.66,26.7-23.35,40.14-1.11,1.94-3.06,4.26.88,6.24,1.38-2.09,2.73-3.95,3.88-5.92,8.44-14.54,16.76-29.15,25.35-43.6,1.1-1.84,3.56-4,5.42-4.07,17.48-.29,35-.08,52.46-.16,3.5,0,5.22,1.66,6.85,4.54,8.45,14.92,17.21,29.66,25.62,44.6,1.88,3.33,4,4.63,7.87,4.58,17.66-.2,35.33,0,53-.15a5.88,5.88,0,0,1,5.91,3.37q12.7,22.36,25.69,44.55c1.64,2.79,1.69,4.87,0,7.72q-13.09,22.14-25.71,44.55c-1.51,2.68-3.22,3.63-6.28,3.61-17.66-.14-35.33,0-53-.16-3.65,0-5.7,1.1-7.47,4.25-2.44,4.32-4.91,8.61-7.37,12.91h5.18q2.75-4.72,5.48-9.45C1630.59,516.59,1632.56,515.65,1635.8,515.68Z" transform="translate(1 1)"/><path d="M1598.5,563.07c-1.85,3.15-1.79,5.64,0,8.75q13.64,23.26,26.92,46.72c1.94,3.43,4.26,5,8.32,5q27-.26,54,0c3.83,0,6.05-1.29,7.93-4.62,8.59-15.22,17.47-30.28,26.08-45.49,1.68-3,3.66-4.09,7.11-4.05,17.16.18,34.33.08,51.5.08a14.6,14.6,0,0,0,4-.15c.9-.26,1.57-1.3,2.34-2a8.24,8.24,0,0,0-2.14-1.68,9.39,9.39,0,0,0-3-.16c-18.67,0-37.33.06-56-.07-3.08,0-4.74,1-6.25,3.68-8.78,15.5-17.83,30.84-26.63,46.32-1.5,2.64-3.14,3.66-6.23,3.63q-25.75-.24-51.49,0c-2.82,0-4.53-.79-5.95-3.28-8.53-15.06-17.3-30-25.7-45.13a8,8,0,0,1-.09-6.69c6.62-11.76,13.47-23.4,20.26-35.06h-5.18Q1608.5,546,1598.5,563.07Z" transform="translate(1 1)"/><path d="M1439,295.61c2.08,3.72,4.53,5,8.71,4.92,17.49-.16,35,.07,52.48.06,3,0,4.72,1.13,6.21,3.79,4.42,7.87,8.73,15.81,13.26,23.61.49-2.2,1-4.39,1.48-6.59-3.85-6.66-7.69-13.33-11.45-20-2.14-3.82-4.58-5.41-9-5.35-17.33.24-34.66.06-52,.14-2.67,0-4.57-.36-6.09-3.06l-1.64-2.88-4.9.17Q1437.52,293,1439,295.61Z" transform="translate(1 1)"/><path d="M1076.15,296.16c-3,0-4.86-.72-6.4-3.44-8.52-15.07-17.3-30-25.73-45.1a7.53,7.53,0,0,1-.07-6.26q12.71-22.63,26.06-44.91a8.09,8.09,0,0,1,5.81-3.36c16.82-.22,33.65.06,50.48-.12,3.92,0,5.93,1.41,7.77,4.67,8.41,14.94,17.08,29.73,25.62,44.6,1.56,2.72,3.22,4.7,6.91,4.66,18.33-.19,36.66-.25,55,0,4.14,0,6.3-1.51,8.23-4.93,8.51-15.07,17.32-30,25.84-45,1.69-3,3.63-4.08,7.08-4q25.24.28,50.49,0c3.26,0,5.1,1,6.72,3.86,8.52,15.07,17.35,30,25.84,45,2,3.62,4.32,5.17,8.63,5.1,16.66-.26,33.33,0,50-.19,4.66-.06,7.44,1.26,9.81,5.57,7,12.83,14.57,25.39,21.81,38.12l4.9-.17c-8.07-14.24-16.36-28.36-24.37-42.64a6.84,6.84,0,0,1-.09-5.7q12.88-22.83,26.33-45.33a8.09,8.09,0,0,1,5.76-3.44c16.82-.23,33.65.05,50.48-.12,3.88,0,6,1.33,7.82,4.61,8.35,14.78,17,29.37,25.36,44.17,1.69,3,3.58,4.56,6.6,5,.36-1.44.71-2.87,1.07-4.31-2.29-.41-3.69-1.78-5-4-9-15.77-18.17-31.42-27.08-47.22-1.34-2.38-2.68-3.19-5.35-3.17q-28,.17-56,0c-2.92,0-4.43,1-5.85,3.47-8.82,15.47-17.94,30.78-26.67,46.3-2.06,3.66-4.33,5.13-8.59,5.07-16.16-.25-32.33-.33-48.49,0-4.62.11-6.82-1.65-8.9-5.32-8.53-15.07-17.34-30-25.91-45-1.82-3.19-3.89-4.65-7.85-4.6-17.66.26-35.33.22-53,0-3.66,0-5.72,1.14-7.49,4.27-8.62,15.2-17.54,30.24-26.12,45.47-2,3.61-4.32,5.19-8.61,5.12q-24.49-.37-49,0c-4.14.07-6.28-1.47-8.22-4.89q-13.16-23.25-26.82-46.21c-1-1.66-3.39-3.49-5.16-3.51-19.16-.25-38.33-.21-57.49,0a5.62,5.62,0,0,0-4,2.5c-9.19,15.64-18.35,31.3-27.19,47.14-2.12,3.79-4.79,5-8.78,4.95l-6.36,0q0,2.07,0,4.14l7.92-.06a6.26,6.26,0,0,1,6.31,3.6q10.31,18.26,20.93,36.35c3.09,5.25,4.74,8.56,6.1,10.63q9.74-.7,19.49-1.33Z" transform="translate(1 1)"/><path d="M1084.79,300.45c14.83-.1,29.66,0,44.5-.08,1.74,0,3.48-.89,5.22-1.37l-.29-2.09a75.76,75.76,0,0,0-7.57-.76q-19.92-.08-39.84,0-9.75.63-19.49,1.33C1070.33,302,1072,300.53,1084.79,300.45Z" transform="translate(1 1)"/><path d="M228.29,243c1.16,1.94,4.48,3.62,6.83,3.66,17.16.28,34.33-.24,51.48.27,6.5.19,9.81-2.14,12.78-7.59,7.88-14.46,16.39-28.58,24.54-42.91,1.49-2.62,3.27-3.62,6.34-3.59q14.37.13,28.74.11v-4.82q-15,0-29.93-.14c-3.69,0-5.62,1.26-7.39,4.38C313,207.74,304,222.92,295.3,238.27c-1.87,3.3-4.05,4.63-7.92,4.58-16.66-.21-33.33-.17-50,0-3.42,0-5.41-1-7.13-4.09-8.6-15.21-17.43-30.29-26.24-45.39-1.1-1.89-2.53-3.6-3.81-5.39l-1.61.63c.45,1.88.5,4,1.42,5.6C209.31,210.55,218.62,226.89,228.29,243Z" transform="translate(1 1)"/><path d="M666,779.41c-.68,1.19-.35,3-.48,4.46,1.38-.76,3.37-1.17,4.06-2.34q6-10.2,11.94-20.46l-5.31.48Q671,770.48,666,779.41Z" transform="translate(1 1)"/><path d="M883.61,303.28a46.38,46.38,0,0,0,2.4-5.88l-1.84-1.15c-1.3,1.41-2.9,2.65-3.85,4.26q-4.31,7.39-8.58,14.8l5.29-.52Z" transform="translate(1 1)"/><path d="M697,518.86c1.48-2.6,3.34-3.16,6.06-3.14,17.67.09,35.33-.06,53,.13,3.68,0,5.72-1.27,7.49-4.39,8.45-14.92,17.21-29.66,25.59-44.62,2-3.62,4.17-5.1,8.48-5,17.16.3,34.33,0,51.5.18,3.61,0,5.86-1.23,7.64-4.35Q870.2,434,884,410.5c1.94-3.31,1.82-5.89-.13-9.18-8.56-14.47-16.69-29.19-25.33-43.61-2.46-4.1-2.42-7.14.05-11.24C864.87,336,871,325.41,877,314.79l-5.29.52c-6.31,10.92-12.59,21.85-19,32.7-1.88,3.18-1.7,5.5.12,8.58q13.46,22.79,26.44,45.86c.94,1.67,1.31,4.65.45,6.19q-12.88,23.12-26.43,45.86a8,8,0,0,1-5.85,3.14c-16.16.25-32.33-.06-48.49.26-5,.1-7.81-1.36-10.25-5.79-8.2-14.86-16.84-29.48-25.37-44.16-1.15-2-2.2-4.74-6-2.42,1.06,2.07,2,4,3,5.82,8.54,14.87,17.2,29.67,25.56,44.63,1,1.8,1.45,5,.54,6.64-8.39,15.14-17.18,30.05-25.74,45.1-1.59,2.8-3.57,3.83-6.82,3.8q-25.25-.23-50.5,0c-3.53,0-5.32-1.29-7-4.24q-12.92-22.81-26.31-45.35c-1.08-1.82-3.58-3.94-5.45-4-19.49-.28-39-.22-58.49,0a6.43,6.43,0,0,0-4.59,2.78q-14.6,24.72-28.77,49.7c-.78,1.37-.61,3.28-.88,4.94l1.85.65c1.36-2,2.87-3.85,4.07-5.91,8.45-14.53,16.91-29.06,25.19-43.7,1.74-3.07,3.66-4.45,7.39-4.4,16.83.22,33.67.19,50.5,0,3.25,0,5.06.92,6.67,3.77Q680.06,488,693,509.92c1.55,2.63,1.63,4.57.07,7.23q-3.64,6.21-7.22,12.45h5Q694,524.23,697,518.86Z" transform="translate(1 1)"/><path d="M692.15,626.46c-8.8,14.71-17.16,29.69-25.84,44.47-1.73,2.95-1.74,5.27,0,8.26,8.87,15.06,17.41,30.31,26.33,45.34,1.88,3.18,1.83,5.51,0,8.6q-8.34,14.16-16.51,28.43l5.31-.48q8.09-13.95,16.18-27.89c1.79-3.06,1.77-5.63-.09-8.79-8.87-15.06-17.48-30.27-26.26-45.39-1.42-2.44-2.14-4.46-.45-7.31q13.1-22.13,25.75-44.53c1.61-2.85,3.52-3.83,6.76-3.81,17.17.15,34.33-.06,51.5.16,4.36.06,6.91-1.18,9.11-5.14,4.34-7.82,8.81-15.57,13.29-23.31l-4.45-.85q-6.11,10.57-12.22,21.13c-1.27,2.2-2.44,3.89-5.66,3.85-17.5-.21-35,0-52.5-.21a6.41,6.41,0,0,1-4.71-2.54q-10.73-18.2-21.16-36.58l-5.78-.61c7.18,12.26,14.14,24.66,21.43,36.85C694.48,619.89,694.41,622.69,692.15,626.46Z" transform="translate(1 1)"/><path d="M670.84,569.71a6.44,6.44,0,0,1,.09-5.36c6.56-11.64,13.29-23.18,19.95-34.76h-5c-6.24,10.85-12.41,21.73-18.85,32.46-2.43,4-2.23,7,.1,10.9,1.25,2.09,2.47,4.2,3.7,6.3l5.78.61Q673.7,574.79,670.84,569.71Z" transform="translate(1 1)"/><path d="M887.34,623.49h.09c-1.73-.56-3.45-1.14-5.19-1.68A7.09,7.09,0,0,0,887.34,623.49Z" transform="translate(1 1)"/><path d="M972.5,564c1.65,2.83,1.39,5-.23,7.79-8.45,14.34-16.82,28.73-25,43.24-1.71,3-3.67,4.14-7,4.11-16.83-.15-33.66-.25-50.49-.07-3.52,0-5.34-1.2-7-4.12-8.62-15.2-17.48-30.27-26.12-45.46-1.66-2.92-3.6-4.13-7.1-4.1q-27.75.28-55.5,0c-3.54,0-5.39,1.25-7,4.15q-7.05,12.4-14.21,24.73l4.45.85c4.19-7.24,8.4-14.47,12.53-21.75a6.25,6.25,0,0,1,6.28-3.64q25.5.24,51,0c3.48,0,5.38,1.13,7.06,4.09,8.62,15.2,17.5,30.26,26.13,45.46a10,10,0,0,0,2,2.58c1.74.55,3.46,1.12,5.19,1.68,18.3-.14,36.61-.11,54.91,0,3.53,0,5.8-1.16,7.61-4.38q13.37-23.71,27.18-47.16c2-3.33,1.83-5.94-.08-9.18-6.61-11.2-13-22.53-19.57-33.76h-5.14Q962.33,546.53,972.5,564Z" transform="translate(1 1)"/><path d="M951.74,507.92c8.63-14.23,16.62-28.84,25.16-43.14,2.19-3.67,2.11-6.46,0-10.06q-13.13-22.11-25.71-44.55c-1-1.84-1.66-5-.76-6.66,8.67-15.55,17.65-30.94,26.75-46.25a6.53,6.53,0,0,1,4.72-2.72c13.4-.09,26.79,0,40.19,0q.18-2.34.35-4.69c-14.07,0-28.14,0-42.21.18a8.72,8.72,0,0,0-6.27,3.63c-9.63,16.15-18.86,32.55-28.36,48.78-1.56,2.67-1.4,4.62.13,7.23,9,15.35,17.79,30.86,26.84,46.2,1.66,2.82,1.62,4.93,0,7.7q-12.85,21.7-25.33,43.62c-1.87,3.3-3.95,4.66-7.84,4.61-17.33-.22-34.66-.12-52-.06a33.68,33.68,0,0,0-5.33.86l-.09,2a31.53,31.53,0,0,0,5.56,1q26.5.15,53,.07c3,0,4.82.88,6.35,3.59,1.81,3.21,3.66,6.41,5.48,9.61h5.14q-2.76-4.71-5.55-9.4C949.42,515.42,949.11,512.27,951.74,507.92Z" transform="translate(1 1)"/><path d="M1311.38,623.32c4.54-.07,7.19,1.24,9.44,5.3,8.25,14.84,17,29.41,25.31,44.2,1.79,3.17,3.83,4.39,7.48,4.36,17.66-.17,35.33,0,53-.14,3,0,4.77.92,6.29,3.61,8.71,15.35,17.7,30.53,26.37,45.9,1.8,3.19,3.86,4.34,7.49,4.31q6.38-.06,12.75-.09c.1-1.42.22-2.83.33-4.25-3.43,0-6.87,0-10.3.05-4.18,0-6.18-1.59-8.09-5-8.34-14.79-17-29.39-25.37-44.17-1.83-3.23-3.78-4.66-7.75-4.6-17.33.28-34.67,0-52,.21-3.62,0-5.69-1-7.48-4.19-8.59-15.22-17.5-30.27-26.11-45.48-1.67-3-3.57-4.34-7-4.31-18.5.12-37,0-55.5.11a27.18,27.18,0,0,0-5.33,1.09q0,1-.05,2.05a47.05,47.05,0,0,0,7.06,1.09C1278.38,623.47,1294.89,623.59,1311.38,623.32Z" transform="translate(1 1)"/><path d="M1449.38,511.51c-3.5,0-5.43-1.22-7.1-4.15q-12.47-21.92-25.27-43.64c-1.71-2.89-1.79-5.14,0-8.13,9-15.19,17.66-30.56,26.6-45.76,1.65-2.8,1.59-5,0-7.72-9.27-15.79-18.49-31.61-27.46-47.57-2-3.59-4.49-4.7-8.42-4.67-17.16.16-34.33,0-51.5.16-3.63,0-5.65-1-7.44-4.21-8.48-15.09-17.29-30-25.81-45.06-1.85-3.27-4.08-4.76-7.94-4.72q-27,.23-54,0c-4,0-6.29,1.33-8.28,4.87-8.46,15.1-17.32,30-25.83,45.06-1.68,3-3.56,4.1-7,4.06-17.16-.19-34.33-.12-51.5,0a50.48,50.48,0,0,0-6.68.9q0,.95,0,1.9c1.4.44,2.8,1.26,4.2,1.27,18,.15,36,.28,54,.16,3.29,0,5.18,1,6.78,3.78q12.56,22.15,25.46,44.11c1.66,2.82,1.69,4.88,0,7.7q-13,21.91-25.54,44.07c-1.71,3-3.77,4-7.19,4-16.5-.17-33-.19-49.5,0-3.65,0-5.64-1.08-7.43-4.26-8.58-15.23-17.49-30.27-26.11-45.47-1.78-3.14-3.9-4.32-7.53-4.28-17.33.18-34.67,0-52,.18-3.89,0-5.91-1.27-7.79-4.62-8.56-15.24-17.49-30.27-26.11-45.47-1.6-2.82-3.47-4.07-6.71-4.05q-6.89,0-13.79,0-.17,2.34-.35,4.69,6.13,0,12.26,0c3.1,0,4.73,1.27,6.19,3.83,8.46,14.91,17.14,29.7,25.57,44.63,2,3.57,4.39,5.19,8.7,5.13,17.16-.25,34.33,0,51.5-.18,3.65,0,5.7,1.19,7.49,4.36q12.88,22.83,26.28,45.37c1.14,1.9,3.92,4,6,4q28.49.46,57,0a8.2,8.2,0,0,0,5.91-3.4c9.61-16.17,18.87-32.54,28.34-48.79a6.34,6.34,0,0,0-.06-7.29c-8.76-14.93-17.18-30.06-26.06-44.92-2.26-3.78-2.41-6.49-.09-10.32,8-13.24,15.93-26.56,23.18-40.23,2.73-5.15,6.08-6.57,11.39-6.46q23.74.46,47.48.32c3.45,0,5.41,1.09,7.1,4.08,8.44,14.92,17.17,29.68,25.59,44.62,1.94,3.44,4.13,4.87,8.23,4.83,17.66-.17,35.32.11,53,.09,3.08,0,4.68,1.28,6.16,3.9q12.42,21.95,25.24,43.67c1.73,2.92,1.83,5.17.07,8.14-8.8,14.91-17.36,30-26.08,44.91-1.71,2.93-2.5,5.52-.58,8.8q14,23.9,27.73,48c1.69,3,3.68,4.16,7.15,4.13,12.48-.12,25-.06,37.45-.08.23-1.45.44-2.9.67-4.36Q1467.1,511.32,1449.38,511.51Z" transform="translate(1 1)"/><path d="M1816.13,625.19c.91-1.6.91-3.72,1.33-5.6l-.18-.06q-8.53,16.8-17.14,33.66Q1808.22,639.23,1816.13,625.19Z" transform="translate(1 1)"/><path d="M1599.23,777c-1.59,2.81-3.44,3.87-6.73,3.84-17.33-.18-34.66-.08-52-.08a22.79,22.79,0,0,0-4,.13c-.66.12-1.76,1-1.69,1.32.17.83.75,2,1.42,2.21a16.37,16.37,0,0,0,4.45.33c18,0,36-.13,54,.12,4,.06,6-1.37,7.81-4.6,7.55-13.32,15.36-26.5,22.88-39.83l-6.88,2.92Q1608.79,760.14,1599.23,777Z" transform="translate(1 1)"/><path d="M1692.85,722.68c-1.58,2.79-3.44,4.14-6.67,4.11q-12-.12-24-.22a99.37,99.37,0,0,0-14,4.35c13.17,0,26.34-.08,39.51.13,4.13.07,6.22-1.43,8.15-4.85.8-1.43,1.62-2.85,2.43-4.27l-5.26.42Z" transform="translate(1 1)"/><path d="M1790.27,680a10.67,10.67,0,0,1-1.65-4.47q-1.45,2.55-3.2,5c.08.11.17.22.24.33q13.31,22.3,26,45a6.87,6.87,0,0,1,.09,5.72c-8.46,15.1-17.27,30-25.76,45.09-1.82,3.24-4,4.17-7.58,4.14-17.33-.17-34.67-.1-52,0a36.15,36.15,0,0,0-5.36.8l-.12,2a29.11,29.11,0,0,0,5.53,1.09c18.17.08,36.33-.07,54.5.15,3.87,0,6-1.19,7.9-4.49q13.41-23.68,27.22-47.13c1.83-3.11,1.87-5.56,0-8.72C1807.37,709.76,1799,694.79,1790.27,680Z" transform="translate(1 1)"/><path d="M1510.07,517.06a8,8,0,0,1-.14-6.68c8.47-15.09,17.33-30,26-45,1.49-2.6,3.26-3.58,6.34-3.55,17.66.17,35.33.13,53,0,1.69,0,3.37-1.22,5.06-1.87-1.58-.74-3.15-2.1-4.74-2.11-18.67-.15-37.33,0-56-.16-3.48,0-5.3,1.4-6.94,4.28-8.62,15.21-17.47,30.28-26.1,45.48-1.67,2.95-3.66,4.1-7.12,4.06q-7.28-.08-14.56-.11c-.23,1.45-.45,2.9-.67,4.36q7.52,0,15-.08c3.66,0,5.68,1.22,7.46,4.39q2.46,4.37,4.94,8.72h5.06Q1513.34,522.94,1510.07,517.06Z" transform="translate(1 1)"/><path d="M1790.15,670.15q5.07-8.44,10-17,8.62-16.86,17.14-33.66l-1.75-.62c-1.28,1.83-2.71,3.59-3.83,5.52-8.7,15-17.39,29.94-25.95,45a6.22,6.22,0,0,1-6.28,3.59c-17.66-.16-35.33,0-53-.16-3.67,0-5.72,1.23-7.49,4.37-8.55,15.1-17.37,30-25.94,45.13l5.26-.42c7.74-13.63,15.68-27.14,23.43-40.77,1.48-2.6,3.09-3.82,6.23-3.8,17.33.14,34.67,0,52,.22a8,8,0,0,1,5.47,3q1.75-2.48,3.2-5A8.8,8.8,0,0,1,1790.15,670.15Z" transform="translate(1 1)"/><path d="M1635.2,726.54c-3.6,0-5.32-1.43-7-4.31-8.46-14.91-17.15-29.7-25.61-44.6-1.89-3.32-4-4.9-8.16-4.83-17.49.3-35,.06-52.5.19-3,0-4.8-.75-6.34-3.48q-12.51-22.18-25.47-44.11c-1.9-3.19-1.68-5.44.15-8.53,8.9-15,17.49-30.27,26.32-45.35,1.68-2.87,1.79-5.14,0-8.13q-10.16-17.22-20-34.6h-5.06q9.87,17.35,20,34.53c1.74,2.94,1.75,5.19,0,8.1-8.77,14.92-17.29,30-26.07,44.91-2,3.4-2.18,6.16-.1,9.67,8.83,14.89,17.33,30,26.11,44.89,1.62,2.75,1.8,4.9.14,7.72q-12.93,21.94-25.5,44.09a7.28,7.28,0,0,1-7.21,4.11c-13.06-.15-26.12-.31-39.17-.29-.11,1.42-.22,2.83-.33,4.25q21.37-.1,42.74.08c3.24,0,5.06-.92,6.69-3.8,8.68-15.36,17.66-30.55,26.39-45.88,1.48-2.6,3.08-3.82,6.21-3.8q25.75.22,51.5,0a6.31,6.31,0,0,1,6.33,3.64q12.54,22.16,25.42,44.14c1.53,2.61,1.59,4.63.05,7.27-2.13,3.64-4.23,7.3-6.35,11l6.88-2.92c.9-1.6,1.81-3.19,2.7-4.79,2.1-3.78,4.48-4.89,8.64-4.83,3.83.05,7.66.07,11.48.09a99.37,99.37,0,0,1,14-4.35C1653.21,726.51,1644.21,726.48,1635.2,726.54Z" transform="translate(1 1)"/><path d="M697.28,303.49a6.42,6.42,0,0,1,4.68-2.61c17.48-.17,35,0,52.46-.12,3.29,0,5,1.26,6.58,4.05q5.47,9.72,11.06,19.37l4.84-.38q-6.56-11.38-13.05-22.81c-1.94-3.44-4.32-5-8.35-5q-27,.22-54,0c-3.85,0-6,1.35-7.89,4.67-6.49,11.51-13.17,22.93-19.77,34.39l5.49-.73Q688.19,318.85,697.28,303.49Z" transform="translate(1 1)"/><path d="M237.34,780.49c-3,0-4.89-.91-6.41-3.57l-.76-1.32h-5c1.05,1.83,2.12,3.66,3.17,5.5,1.64,2.86,3.59,3.76,6.8,3.73l14.15-.09q-.46-2.14-.9-4.3C244.74,780.47,241,780.47,237.34,780.49Z" transform="translate(1 1)"/><path d="M205.14,731.85a7.49,7.49,0,0,1,0-6.24c8.5-15.08,17.36-30,25.94-45,1.66-2.92,3.74-3.62,6.89-3.59q7.28.06,14.56,0c.55-1.39,1.13-2.78,1.74-4.16-6.39,0-12.78,0-19.17-.06-3.41,0-5.47,1-7.18,4.06Q214.21,701,200.19,725c-1.63,2.79-1.54,5,.11,7.8q12.61,21.34,24.92,42.86h5C221.85,761,213.34,746.52,205.14,731.85Z" transform="translate(1 1)"/><path d="M107.6,562.76c-1,1.72-.78,4.1-1.12,6.17,1.6-1.35,3.7-2.4,4.71-4.1q10.58-17.91,20.89-36-2.78.42-5.55.88C120.21,540.73,113.84,551.71,107.6,562.76Z" transform="translate(1 1)"/><path d="M383.61,726.72q-27.75.14-55.5,0c-3.42,0-5.41,1.19-7.09,4.17-8.48,15-17.2,29.82-25.72,44.78h5c7.82-13.78,15.83-27.44,23.66-41.21a6.23,6.23,0,0,1,6.29-3.6q25.5.24,51,0c3.33,0,5.05,1.17,6.64,4,7.7,13.61,15.57,27.12,23.41,40.66l5-.05c-8.67-15-17.38-29.93-25.91-45C388.76,727.52,386.72,726.71,383.61,726.72Z" transform="translate(1 1)"/><path d="M229.41,359.92c2.48-4.6,5.53-5.92,10.23-5.86,16,.21,32,.37,48,.29,3.68,0,5.67,1.29,7.44,4.43q4.63,8.2,9.35,16.35l4.8-.35c-3.8-6.59-7.6-13.18-11.31-19.81-2.05-3.67-4.37-5.17-8.62-5.11-17,.22-34,0-51,.18-4,.05-6.3-1.13-8.29-4.68-8.37-15-17-29.78-25.68-44.56-1-1.74-2.95-2.94-4.45-4.39l-1.49,1.3a59.7,59.7,0,0,0,2.53,5.65c8.53,14.87,17,29.76,25.79,44.49,1.89,3.17,1.82,5.49,0,8.59-4.85,8.21-9.59,16.48-14.35,24.74l5.31-.3C221.65,373.93,225.61,367,229.41,359.92Z" transform="translate(1 1)"/><path d="M289.69,784.85c3.81,0,6-1.1,7.94-4.48.88-1.57,1.78-3.14,2.67-4.71h-5l-.64,1.12c-1.5,2.63-3.24,3.74-6.32,3.72q-19.95-.15-39.9,0,.44,2.15.9,4.3Q269.51,784.66,289.69,784.85Z" transform="translate(1 1)"/><path d="M784.16,345.07a70.78,70.78,0,0,0,4.43,7.22c.6.8,2.16.88,3.29,1.29a12.77,12.77,0,0,0,.17-3.15,9.22,9.22,0,0,0-1.31-2.67q-6.9-12-13.83-24l-4.84.38Q778.1,334.63,784.16,345.07Z" transform="translate(1 1)"/><path d="M417.76,572.37a6.42,6.42,0,0,1,4.73-2.49c17.65-.15,35.31-.16,53,.15,1.91,0,4.53,1.87,5.57,3.62l.42.72,5-.23-1.74-3c-1.65-2.8-1.51-4.93.12-7.68,6.07-10.3,12-20.66,18-31l-5.44.38c-5.57,9.63-11.21,19.23-16.75,28.88-1.61,2.8-3.57,3.81-6.81,3.78-17.5-.15-35,0-52.5-.16-3.49,0-5.39,1.14-7.07,4.1q-3.1,5.46-6.24,10.89,2.78-.44,5.58-.84Q415.66,575.93,417.76,572.37Z" transform="translate(1 1)"/><path d="M506.5,617.73c2.45,4.45,5.27,5.91,10.24,5.81,16.83-.31,33.66,0,50.49-.18,3.34,0,5.43.82,7.17,3.92q12.34,22,25.2,43.68c1.77,3,1.69,5.23,0,8.14-8.6,14.64-17,29.37-25.5,44.09a23.27,23.27,0,0,0-2.22,4.45c-.24.75.4,1.77.64,2.66.87-.24,2-.24,2.57-.78a11.11,11.11,0,0,0,2-2.87c9.09-15.7,18.08-31.46,27.31-47.08,1.95-3.3,1.94-5.83,0-9.13-8.81-14.9-17.28-30-26.09-44.9-1.84-3.1-1.95-5.39-.07-8.56,8.43-14.17,16.6-28.49,24.8-42.8l-4.83-.21q-12,20.46-23.72,41.07c-1.54,2.71-3.17,4-6.57,4-17.16-.22-34.33-.16-51.5,0-2.81,0-4.46-.74-5.92-3.31q-11.82-20.88-24-41.55l-5,.23C490,588.69,498.44,603.11,506.5,617.73Z" transform="translate(1 1)"/><path d="M413.05,778.51a29.55,29.55,0,0,0,2.9,4.65c.58.68,1.9.72,2.89,1a12.57,12.57,0,0,0,.59-3.11,5.83,5.83,0,0,0-1.1-2.21l-2-3.48-5,.05Z" transform="translate(1 1)"/><path d="M288.92,677.2c4.36.06,6.91-1.17,9.1-5.1,8.33-15,16.95-29.81,25.74-44.52,1.13-1.89,3.91-3.93,5.95-4,17.31-.21,34.63.14,51.94.05,3.39,0,5,1.35,6.56,4.08q12.69,22.37,25.74,44.53c1.06,1.8,3.35,2.87,5.07,4.28-.44-2.09-.39-4.45-1.39-6.23-8.59-15.22-17.42-30.3-26-45.53-.9-1.59-1.54-4.34-.78-5.71Q402,599.17,413.56,579.5q-2.79.39-5.58.84c-6.64,11.51-13.37,23-19.87,34.57-1.82,3.24-3.88,4.3-7.47,4.27-17.33-.16-34.67.07-52-.19-3.94-.06-6,1.32-7.82,4.57-8.54,15.06-17.38,29.95-25.86,45-1.79,3.18-3.73,4.46-7.41,4.42-11.11-.12-22.22-.09-33.32-.09-.61,1.38-1.19,2.76-1.74,4.16C264.63,677.08,276.78,677,288.92,677.2Z" transform="translate(1 1)"/><path d="M603.45,573.35c1.19-2.08,2.08-4.33,3.11-6.49L605,565.45c-1.48,1.39-3.38,2.53-4.36,4.21-.84,1.44-1.68,2.88-2.52,4.32l4.83.21Z" transform="translate(1 1)"/><path d="M144.66,515.68c17.16.19,34.33,0,51.5.17,4,0,6.34-1,8.35-4.61,8.46-15.1,17.35-30,25.79-45.07,1.83-3.27,3.92-4.34,7.49-4.3,16.49.19,33,.27,49.48.15,3.8,0,6,1.2,7.93,4.56,8.33,14.79,16.92,29.44,25.43,44.13a20.06,20.06,0,0,0,2.43,3.76,1.92,1.92,0,0,0,3.37-1.8,18.46,18.46,0,0,0-2-4c-8.9-15.43-17.92-30.79-26.65-46.32-2-3.54-4.4-4.71-8.34-4.67-17.33.18-34.66,0-52,.15-3.18,0-5.08-.77-6.72-3.69Q218.08,431.74,205,409.59a6.23,6.23,0,0,1,0-7.26c4.21-7.15,8.45-14.29,12.61-21.47l-5.31.3c-3.72,6.45-7.44,12.89-11.23,19.29-2.27,3.83-2.58,6.81-.14,10.88,8.92,14.84,17.32,30,26.06,44.92,1.44,2.46,1.55,4.36.1,6.82q-13.31,22.58-26.36,45.32c-1.54,2.68-3.44,3.46-6.43,3.44-17.66-.13-35.33,0-53-.14-3.28,0-5.08,1-6.69,3.84q-4,7.12-8.11,14.2,2.77-.46,5.55-.88,2.55-4.49,5.09-9C139,516.65,141.06,515.64,144.66,515.68Z" transform="translate(1 1)"/><path d="M511.39,517.71c1.74-3,1.73-5.29,0-8.26-9-15.2-17.67-30.54-26.57-45.78-1.55-2.66-1.89-4.7-.14-7.63q13-21.87,25.49-44.1c1.76-3.14,3.79-3.94,7.13-3.91,17.16.14,34.33-.11,51.49.18,4.52.08,6.84-1.52,9-5.32,8.27-14.82,16.91-29.45,25.32-44.2,1.51-2.64,3.12-4.36,6.53-4.33,17,.14,34,.11,51,0,3.54,0,5.65,1.32,7.44,4.5,8.74,15.52,17.71,30.9,26.74,46.26.67,1.14,2.41,1.65,3.66,2.46a21.22,21.22,0,0,0,0-4.39,11.23,11.23,0,0,0-1.68-3c-8.48-14.71-17-29.38-25.34-44.18-1-1.72-1.57-4.71-.73-6.22q4.31-7.74,8.71-15.43l-5.49.73q-3.19,5.53-6.35,11.08c-1.58,2.78-3.32,3.89-6.63,3.86-17.5-.19-35,0-52.5-.13-3.73,0-6.06,1.26-8,4.65-8.66,15.37-17.67,30.55-26.38,45.89-1.53,2.69-3.26,3.59-6.3,3.57-17.66-.14-35.33,0-53-.14-3.63,0-5.65,1.18-7.44,4.35q-13,23-26.54,45.8c-.91,1.54-3.13,3.26-4.77,3.28-17.48.25-35,0-52.46.27-3.66,0-5.32-1.58-6.93-4.39-8.58-15-17.37-30-25.87-45-1.78-3.15-3.79-4.33-7.44-4.29-17.5.19-35,0-52.5.17-3.44,0-5.38-1-7.07-4-4.78-8.45-9.66-16.84-14.51-25.25l-4.8.35c5.51,9.56,11.06,19.09,16.5,28.69,1.77,3.13,3.85,4.4,7.51,4.36,17.5-.18,35,0,52.5-.16,3.24,0,5.13.9,6.73,3.74,7.21,12.75,14.66,25.36,21.94,38.07,5.85,10.22,5.76,10.24-.07,20.34q-11.74,20.32-23.36,40.71c-.61,1.07-.29,2.66-.4,4a23.48,23.48,0,0,0,3.92-2c.74-.54,1.06-1.66,1.56-2.52,8.58-14.84,17.06-29.75,25.87-44.45,1.12-1.87,4-3.81,6.06-3.84,17.32-.25,34.65-.16,52,.13a7.59,7.59,0,0,1,5.47,3.15q13.22,22.34,25.8,45.05a8.12,8.12,0,0,1-.1,6.74q-4.42,7.86-9,15.66l5.44-.38Q507.07,525.08,511.39,517.71Z" transform="translate(1 1)"/><path d="M1322.74,838.6c-1.68-3-3.71-4.25-7.11-4.21-18.64.2-37.29.39-55.93.26-3.64,0-5.26,1.47-6.88,4.31-8.64,15.19-17.5,30.26-26.14,45.45a6.2,6.2,0,0,1-6.26,3.6q-25.49-.25-51,0c-3.44,0-5.34-1-7.06-4.09-8.67-15.36-17.57-30.59-26.55-45.78-.86-1.46-2.82-3.21-4.29-3.23q-29.73-.36-59.46-.1a6.43,6.43,0,0,0-4.62,2.75q-14.6,24.72-28.74,49.7c-.67,1.18,0,3.11,0,4.69,1.14-.93,2.67-1.64,3.37-2.83q13.6-23.28,26.93-46.72c1.7-3,3.71-4.07,7.14-4q25.25.25,50.49,0c3.67,0,5.68,1.27,7.46,4.41q13,23,26.54,45.79c1,1.62,3.36,3.38,5.11,3.4q29,.36,58,0a6.79,6.79,0,0,0,4.81-3q13.71-23.21,27-46.69c1.57-2.77,3.37-4,6.68-3.95q25.49.25,51,0c3.45,0,5.43,1.1,7.13,4.1,8.08,14.26,16.38,28.4,24.47,42.66l3.43-2.13C1339.83,868.13,1331.16,853.44,1322.74,838.6Z" transform="translate(1 1)"/><path d="M1411.88,780.47l-1.8,1.23a53.17,53.17,0,0,0,2.53,6c8.24,14.43,16.48,28.86,24.93,43.16l3.67-2q-12.51-22-25.33-43.84C1414.88,783.29,1413.23,782,1411.88,780.47Z" transform="translate(1 1)"/><path d="M1438.34,832.19c1.76,3,1.86,5.28.14,8.2-8.46,14.33-16.89,28.69-25.08,43.18-2,3.56-4.47,4.66-8.38,4.6q-24.49-.34-49-.16c-3.65,0-5.67-1.24-7.44-4.38l-.37-.65-3.43,2.13c.7,1.23,1.41,2.46,2.1,3.7,1.46,2.6,3,3.36,5.84,3.34,18.83-.1,37.66-.13,56.49,0a6.18,6.18,0,0,0,6.25-3.62c8.75-15.51,17.73-30.89,26.52-46.38,1.46-2.58,3.08-3.83,6.23-3.8l5.79,0c0-1.3.08-2.6.12-3.9l-5,0c-3.48,0-5.4-1.17-7.07-4.12l-.89-1.56-3.67,2Z" transform="translate(1 1)"/><path d="M1883,733.66c-2-3.34-2.25-5.87-.15-9.41,8.92-15,17.38-30.33,26.24-45.39,1.69-2.88,1.54-4.88-.1-7.67-8.76-14.93-17.19-30.05-26-45-2.11-3.58-2.17-6.32,0-10,8.78-14.72,17.12-29.71,25.85-44.46,1.87-3.16,1.74-5.46-.08-8.57-6.67-11.36-13.1-22.87-19.69-34.28h-4.72q9.67,17.14,19.66,34.11c2.07,3.51,1.77,6.14-.25,9.55-8.75,14.74-17.12,29.71-25.82,44.48-1.76,3-1.72,5.31,0,8.26,8.94,15.21,17.63,30.56,26.57,45.77,1.62,2.76,1.76,4.87.08,7.71-8.79,14.91-17.24,30-26.12,44.88-2.3,3.84-2.14,6.69.1,10.45,8.85,14.87,17.32,30,26.08,44.91,1.54,2.62,1.61,4.58,0,7.23-8.46,14.33-16.88,28.69-24.95,43.25-2.1,3.79-4.7,5-8.67,4.91-16.66-.19-33.32-.17-50-.4-4.47-.06-7.3,1.46-9.57,5.54-8.34,15-17.1,29.72-25.58,44.62-1.45,2.55-3,3.83-6.18,3.8q-26-.26-52,0a5.81,5.81,0,0,1-5.84-3.41c-8.73-15.33-17.69-30.54-26.39-45.88-1.75-3.09-3.7-4.42-7.42-4.38q-27.49.31-55,0c-3.67,0-5.7,1.24-7.47,4.38-8.59,15.22-17.46,30.28-26.07,45.49-1.59,2.81-3.38,3.84-6.66,3.8q-25.49-.28-51,0c-3.32,0-5.07-1.08-6.66-3.88-8.63-15.2-17.52-30.24-26.12-45.46-1.8-3.18-3.9-4.36-7.54-4.32-15.84.15-31.68,0-47.53.13,0,1.3-.08,2.6-.12,3.9,15.4.07,30.8,0,46.2.19a8.07,8.07,0,0,1,5.88,3.2q13.81,23.15,27,46.69c1.51,2.69,2.93,3.74,6,3.71q28-.24,56,0c3.22,0,5.06-.85,6.7-3.76,8.58-15.22,17.51-30.25,26.09-45.48,1.86-3.3,3.88-4.66,7.79-4.61q25,.36,50,0c3.95-.06,6,1.4,7.8,4.65,8.43,14.93,17.16,29.68,25.59,44.61,1.83,3.24,3.8,4.69,7.76,4.63q27-.39,54,0c3.94.06,6-1.35,7.82-4.58,8.46-14.91,17.23-29.64,25.61-44.6,2-3.65,4.28-5.09,8.54-5,17.33.26,34.66,0,52,.19,3.27,0,5.16-1,6.75-3.78q13.56-23.88,27.42-47.6c1.71-2.91,1.83-5.14,0-8.18C1900.2,763.72,1891.77,748.59,1883,733.66Z" transform="translate(1 1)"/><path d="M1909.12,248.63c1.61-2.74,2-4.86.26-7.75-9.63-16.35-19.05-32.82-28.58-49.23-.76-1.31-1.75-2.49-2.64-3.73l-1.8.75c.58,2.1.76,4.44,1.8,6.28q13.06,23,26.46,45.84c1.65,2.8,1.59,4.86-.06,7.65q-4.6,7.8-9.09,15.65l4.93-.46Q1904.74,256.11,1909.12,248.63Z" transform="translate(1 1)"/><path d="M1883.1,518.69c-2.27-3.83-2.09-6.65.12-10.36,8.85-14.88,17.34-30,26.1-44.9,1.54-2.62,1.56-4.53,0-7.25q-3.26-5.52-6.47-11.07l-2.07,4.42,3.93,7a7.4,7.4,0,0,1,.21,6.13c-8.34,15-17,29.75-25.48,44.67-1.79,3.16-4,4.2-7.63,4.17h-.61l-2.08,4.25h3c3.27,0,5.45.89,7.18,4s3.44,6.14,5.17,9.21h4.72Q1886.13,523.81,1883.1,518.69Z" transform="translate(1 1)"/><path d="M1822.26,511.52c-3.63,0-5.72-1.1-7.5-4.25-8.43-14.93-17.07-29.73-25.66-44.57a17.05,17.05,0,0,0-2.52-3.68,2.77,2.77,0,0,0-2.58-.45c-.5.27-.65,1.68-.51,2.51a8.66,8.66,0,0,0,1.25,2.69c9.23,16,18.54,32,27.67,48,1.68,3,3.64,4.11,7.12,4.07,16.51-.17,33,0,49.54-.1l2.08-4.25Q1846.71,511.25,1822.26,511.52Z" transform="translate(1 1)"/><path d="M1878.33,303.18c8.88,14.86,17.31,30,26.12,44.88,1.74,2.95,1.79,5.17.05,8.11-8.46,14.34-16.51,28.92-25.14,43.14-2.87,4.72-3.1,8.26-.15,13.11,7.44,12.21,14.52,24.64,21.52,37.11l2.07-4.42c-6.62-11.42-13.14-22.91-19.84-34.28-2-3.38-2.15-6-.1-9.49,8.83-14.89,17.31-30,26.1-44.89,1.71-2.89,2-5,.17-8.13-9.08-15.32-17.79-30.86-26.76-46.24-1.51-2.58-1.66-4.56-.08-7.24,6.1-10.37,12.09-20.81,18.1-31.22l-4.93.46c-5.63,9.77-11.22,19.56-17,29.24C1876.33,296.91,1876.14,299.52,1878.33,303.18Z" transform="translate(1 1)"/><path d="M511.56,725.06c-9.42-16.09-18.65-32.28-28.05-48.38-.87-1.48-2.44-2.56-3.69-3.82l-1.67,1a34.18,34.18,0,0,0,2,5.45c8.66,15.18,17.34,30.36,26.22,45.41,1.78,3,1.67,5.32,0,8.25-8,13.66-15.77,27.45-23.81,41.09l5.08-.18c8-13.64,15.79-27.36,23.77-41C513,730.2,513.23,727.91,511.56,725.06Z" transform="translate(1 1)"/><path d="M111.15,354.73c-1-1.69-3.15-2.69-4.77-4,.39,2.06.26,4.42,1.23,6.14q8,14.22,16.23,28.35l4.88-.18C122.87,374.93,117.07,364.79,111.15,354.73Z" transform="translate(1 1)"/><path d="M44.85,357.19c2.1-3.55,2.29-6.24.08-9.93-9-15-17.48-30.27-26.33-45.34-1.54-2.62-1.59-4.54,0-7.2q12.95-21.93,25.47-44.11a6.38,6.38,0,0,1,6.31-3.71q25.49.15,51,0c3.58,0,5.66,1.26,7.45,4.43,8.32,14.8,16.91,29.45,25.42,44.14a18.56,18.56,0,0,0,2.46,3.73,2.75,2.75,0,0,0,2.54.5,2.62,2.62,0,0,0,.65-2.4,24.58,24.58,0,0,0-2.21-4.45c-8.56-14.86-17.06-29.75-25.78-44.51-1.66-2.82-1.6-4.88,0-7.66q13.32-22.58,26.24-45.4c1.13-2,1.36-4.47,2-6.73l-1.74-.65c-1.51,2.29-3.14,4.52-4.52,6.89-8.45,14.54-16.91,29.06-25.18,43.7-1.79,3.16-3.91,4.37-7.55,4.33-17.33-.17-34.67,0-52-.16-3.88,0-6.07,1.21-7.83,4.63-3,5.91-6.57,11.58-9.91,17.34q-9.87,17-19.74,34c1,1.55,2.35,3.28,3.42,5.15,8.57,14.85,17,29.77,25.73,44.54,1.68,2.85,1.66,4.95,0,7.71-6.33,10.73-12.53,21.54-18.77,32.34l4.68-.12C32.79,377.88,38.73,367.49,44.85,357.19Z" transform="translate(1 1)"/><path d="M330.45,838.35c17.16.18,34.33,0,51.5.23a8,8,0,0,1,5.77,3.34q13.81,23.16,27,46.7c1.57,2.82,3.16,3.57,6.14,3.55q28-.19,56,0c3.26,0,5-1,6.65-3.82C492.22,872.85,501.26,857.5,510,842a6.25,6.25,0,0,1,6.3-3.63q25.75.19,51.5,0c3.25,0,5.12,1,6.73,3.83,8.62,15.2,17.5,30.26,26.13,45.46,1.83,3.23,3.9,4.61,7.83,4.56,18.16-.25,36.33-.2,54.5,0,3.25,0,5.07-.95,6.68-3.78,8.63-15.2,17.55-30.23,26.16-45.44,1.86-3.28,3.88-4.69,7.8-4.63q25,.36,50,0c3.93-.06,5.92,1.36,7.77,4.64,8.6,15.22,17.51,30.26,26.15,45.45,1.49,2.62,3.07,3.77,6.2,3.75,19-.15,38,0,57-.2a6.69,6.69,0,0,0,4.82-2.81q13.72-23.22,27-46.7c1.69-3,3.64-4.14,7.11-4.1q25.25.26,50.5,0c3.65,0,5.71,1.19,7.48,4.34,8.66,15.37,17.51,30.64,26.37,45.9a28.44,28.44,0,0,0,3.4,4l1.75-1a40.54,40.54,0,0,0-2.29-6q-12.87-22.55-26-45c-1.59-2.71-1.82-4.86-.13-7.71q13.13-22.11,25.82-44.48c1.65-2.91,3.62-3.69,6.79-3.66q8.47.07,16.94.06c0-1.33,0-2.66,0-4-6.26,0-12.52,0-18.79-.12-4.21-.06-6.59,1.18-8.65,4.86-8.37,15-17.14,29.7-25.54,44.64-1.8,3.2-3.92,4.37-7.53,4.34-17.17-.15-34.34.11-51.5-.19-4.37-.08-6.61,1.51-8.63,5.09-8.51,15.07-17.29,30-25.87,45C852.46,886.81,851,888,848,888q-26.25-.24-52.5,0a5.39,5.39,0,0,1-5.46-3.2c-7.13-12.6-13.83-25.51-21.89-37.51-5.32-7.93-5-13.91.09-21.74,8.42-13,15.64-26.71,23.25-40.19.61-1.08.31-2.69.43-4-1.32.64-2.91,1-3.9,2-1.14,1.13-1.77,2.79-2.6,4.23-8.17,14.12-16.44,28.18-24.43,42.4-1.87,3.33-3.95,4.63-7.83,4.58-17.33-.22-34.67,0-52-.19-3.68,0-5.67,1.21-7.44,4.33q-13,23-26.54,45.79c-1,1.64-3.36,3.45-5.12,3.47-17.66.25-35.33.23-53,0a7,7,0,0,1-5.07-2.81c-8.85-14.88-17.38-30-26.15-44.88-1.64-2.79-1.55-4.93.09-7.71,8.54-14.48,16.88-29.08,25.28-43.64a20.3,20.3,0,0,0,2.3-4.4c.29-1-.33-2.31-.55-3.49a12.3,12.3,0,0,0-3.17,1.74,16.25,16.25,0,0,0-2,3.41c-8.58,14.84-17.21,29.66-25.69,44.56a5.87,5.87,0,0,1-5.88,3.41q-25.75-.2-51.5,0c-3.05,0-4.85-.91-6.36-3.58Q497.73,808.2,484.76,786c-1.69-2.88-1.26-5,.31-7.72l2.54-4.36-5.08.18c-.75,1.28-1.49,2.56-2.25,3.83-2.1,3.53-2,6.21,0,9.61,8.87,15.06,17.47,30.27,26.32,45.35a6.22,6.22,0,0,1,0,7.23Q493.72,862,481.18,884.22c-1.62,2.88-3.43,3.83-6.68,3.79q-25.5-.25-51,0c-3.32,0-5-1.08-6.63-3.86-8.81-15.48-17.84-30.83-26.67-46.3-1.41-2.46-3-3.51-5.87-3.49q-28.25.19-56.5,0c-3.27,0-5.14,1.15-6.73,4-6.73,11.86-13.63,23.62-20.39,35.45q1.25,1.83,2.53,3.63c6.69-11.67,13.48-23.27,20.11-35C325.05,839.46,327,838.31,330.45,838.35Z" transform="translate(1 1)"/><path d="M106.53,781.07l0,.13.1,0Z" transform="translate(1 1)"/><path d="M45.33,786.76c1.73-2.94,1.77-5.22,0-8.16C36.5,763.54,27.87,748.33,19,733.26c-1.68-2.86-1.95-5.19-.17-8.2q12.84-21.7,25.25-43.65c1.69-3,3.74-4.23,7.1-4.2,16.33.13,32.66.32,49,0,4.76-.08,7.1,1.84,9.25,5.69q12.1,21.55,24.73,42.81c1.11,1.87,3.29,3.11,5,4.64-.39-2.15-.25-4.61-1.27-6.41q-12.62-22.41-25.66-44.58c-1.73-2.94-1.9-5.25-.13-8.25q13-21.91,25.6-44c1.63-2.87,3.62-3.75,6.82-3.73,17.17.14,34.33-.07,51.5.16,4.25.06,6.64-1.44,8.69-5.07,8.49-15.08,17.31-30,25.85-45,1.68-3,3.67-4.1,7.13-4.06,17.16.18,34.33.08,51.5.08a17.46,17.46,0,0,0,4-.15c.81-.19,1.46-1.09,2.18-1.67-.77-.7-1.43-1.71-2.34-2a10.92,10.92,0,0,0-3.47-.15c-18.17,0-36.33.11-54.5-.09-3.72,0-5.65,1.31-7.41,4.41-8.52,15.07-17.35,30-25.85,45-1.78,3.15-3.75,4.43-7.44,4.39-17.33-.19-34.67,0-52-.17-3.76,0-5.92.94-7.85,4.38-8.61,15.4-17.62,30.58-26.36,45.91-1.49,2.61-3.15,3.73-6.27,3.7q-25.5-.23-51,0c-3,0-4.86-.9-6.37-3.57q-12.69-22.36-25.69-44.55c-1.79-3-1.38-5.31.31-8.18,8.68-14.78,17.06-29.74,25.8-44.49,2-3.42,2.18-6,.1-9.47s-4.26-7.21-6.36-10.83l-3.9,1.23q3,5.22,6.13,10.43c1.71,2.89,1.55,5-.05,7.69C32.17,586,23.66,600.94,15.06,615.77c-1.15,2-2.5,3.84-3.66,5.61,1.21,1.75,2.65,3.56,3.8,5.54,6.87,11.79,12.94,24.14,20.73,35.28,6.48,9.26,6.23,16.44,0,25.71-9,13.28-16.32,27.63-24.33,41.48a30,30,0,0,1,2.74,3.54c8.94,15.41,17.75,30.89,26.77,46.25,1.59,2.71,1.29,4.68-.22,7.25q-2,3.38-3.94,6.77c1.75-.38,3.49-.72,5.24-1C43.22,790.37,44.27,788.56,45.33,786.76Z" transform="translate(1 1)"/><path d="M18.71,517.39c-1.51-2.58-1.68-4.62-.09-7.29Q31.73,488,44.48,465.65c1.61-2.81,3.43-3.83,6.71-3.8,17.33.18,34.67,0,52,.18,3.83,0,6.08-1.09,8-4.45,8.83-15.66,17.77-31.26,27-46.7,2.21-3.7,1.94-6.41-.15-9.94Q133.31,393,128.72,385l-4.87.18q4.83,8.34,9.69,16.66c1.47,2.51,2,4.55.34,7.29q-13.33,22.58-26.32,45.35c-1.41,2.46-3.14,3.34-6,3.32q-25.25-.2-50.5,0c-3.28,0-5.11-1.1-6.7-3.92q-12.52-22.17-25.41-44.14c-1.72-2.93-1.68-5.22,0-8.14q3.93-6.68,7.8-13.39l-4.68.12-3.28,5.68c-2.4,4.15-4.87,8.25-7.38,12.49A25.32,25.32,0,0,1,14.21,410c9,15.54,18.09,31.07,26.87,46.76a7.57,7.57,0,0,1-.07,6.23c-4.63,8.66-9.65,17.11-14.57,25.6s-10,17.12-14.9,25.55a43.39,43.39,0,0,1,3,4.11c6.75,11.63,13.42,23.31,20.19,34.92l3.9-1.23C32,540.42,25.42,528.87,18.71,517.39Z" transform="translate(1 1)"/><path d="M295.28,883.38c-1.86,3.33-3.82,4.7-7.74,4.65-16.5-.24-33-.27-49.5,0-4.15.07-6.28-1.46-8.17-4.81-8.44-14.92-17.14-29.7-25.55-44.64-1.87-3.33-4.1-4.62-7.94-4.58-17,.18-34-.11-51,.21-4.51.09-6.82-1.44-8.94-5.22-8.21-14.67-16.68-29.19-25.23-43.67-1-1.7-3-2.8-4.57-4.16l-.1,0c.29,2,.53,4,.91,6a6.38,6.38,0,0,0,1,1.74c8.47,14.71,16.91,29.45,25.46,44.12,1.38,2.36,1.67,4.15.14,6.74-8.81,14.9-17.43,29.92-26,45a5.83,5.83,0,0,1-5.85,3.43q-26-.2-52,0c-2.91,0-4.41-1-5.81-3.48-8.46-14.91-17-29.78-25.78-44.51-1.73-2.9-1.41-4.92.17-7.62,7.87-13.42,15.56-26.94,23.4-40.37-1.75.31-3.49.64-5.24,1C29.45,806.06,22.07,819,14.61,831.83a44.53,44.53,0,0,1-3.35,4.48c1.34,2,2.75,3.82,3.9,5.81,9,15.54,18.06,31.09,27,46.71,1.28,2.25,2.53,3.37,5.34,3.34q28.75-.22,57.5,0c2.72,0,4-.91,5.35-3.27,8.75-15.51,17.81-30.85,26.57-46.36,1.8-3.19,4-4.22,7.57-4.18q25,.27,50,0c3.61,0,5.74,1.1,7.54,4.28,8.76,15.51,17.82,30.85,26.57,46.36,1.35,2.39,2.75,3.17,5.39,3.15q28.5-.16,57,0c2.8,0,4.38-.76,5.84-3.36q3.21-5.7,6.47-11.38-1.29-1.8-2.53-3.63Q298,878.58,295.28,883.38Z" transform="translate(1 1)"/><path d="M1325.2,528.75c6.83,12,13.79,24,20.62,36,2,3.53,4.45,5,8.82,4.87,16.83-.36,33.66-.07,50.5-.21,4.3,0,6.77,1.6,8.9,5.45,8.15,14.7,16.71,29.18,25.13,43.72a16.85,16.85,0,0,0,2.49,3.71,3.13,3.13,0,0,0,2.66.3c.39-.13.69-1.49.53-2.17a12.07,12.07,0,0,0-1.44-3.15c-9.23-16-18.53-32-27.68-48a6.75,6.75,0,0,0-6.75-3.87c-17.5.16-35,0-52.5.15-3.43,0-5.46-1-7.16-4Q1340,545,1330.42,528.75Z" transform="translate(1 1)"/><path d="M1039.58,562.49c-2,3.43-2.22,6.08-.14,9.6,8.91,15,17.45,30.29,26.34,45.34,1.68,2.85,1.6,4.88-.05,7.66q-13,21.9-25.57,44.06c-1.73,3.05-3.73,4.06-7.13,4-10.61-.09-21.22-.07-31.82-.07q0,2-.06,4c11.62,0,23.25,0,34.87,0,3.12,0,5.15-.74,6.81-3.68q13.63-24.13,27.72-48c1.86-3.15,1.73-5.53-.07-8.59-8.87-15.06-17.45-30.29-26.34-45.34-1.76-3-1.8-5.18,0-8.18q10.17-17.15,20-34.49h-5.06C1052.58,540.08,1046.18,551.34,1039.58,562.49Z" transform="translate(1 1)"/><path d="M1136.33,515.74c-1.67-2.93-3.61-4.1-7.1-4.06-17.5.19-35,0-52.5.19-3.7,0-5.66-1.23-7.42-4.34q-13-23-26.52-45.81c-.85-1.44-2.8-2.25-4.23-3.34.16,1.77.22,3.56.54,5.3a7.82,7.82,0,0,0,1.22,2.16c8.4,14.56,16.74,29.16,25.26,43.66,1.69,2.87,1.86,5.12.1,8.11q-3.32,5.63-6.59,11.28h5.06q2.49-4.37,5-8.74c1.62-2.86,3.3-4.36,6.93-4.31,16.83.24,33.66.17,50.49.07a7.21,7.21,0,0,1,7.14,4.11q2.48,4.41,5,8.8h5.18Q1140.06,522.28,1136.33,515.74Z" transform="translate(1 1)"/><path d="M1226.61,561.26c-1,1.76-3.64,3.64-5.55,3.67-17.32.27-34.64.09-52,.18-3.19,0-5-1-6.66-3.91-6.11-10.85-12.39-21.62-18.62-32.4h-5.18q9.94,17.54,20.14,34.92c1.79,3,1.48,5.27-.2,8.13-8.77,14.92-17.27,30-26.08,44.91-1.94,3.29-1.91,5.77.06,9.08q14,23.62,27.48,47.56c1.63,2.89,3.47,3.79,6.69,3.76,17.83-.15,35.67,0,53.5-.12,2.7,0,4.54.48,6,3.12q12.9,22.82,26.23,45.4c1.53,2.6,1.14,4.45-.24,6.82-8.47,14.52-16.9,29.07-25.15,43.72-1.76,3.12-3.77,4.44-7.46,4.4q-25-.29-50,0c-3.71,0-5.63-1.3-7.39-4.42-8.6-15.21-17.52-30.25-26.12-45.46-1.61-2.84-3.44-4-6.66-3.93q-28,.17-56,0a6.68,6.68,0,0,0-6.68,3.86c-8.67,15.37-17.64,30.57-26.33,45.92-1.75,3.09-3.71,4.4-7.42,4.36-10.9-.14-21.81-.09-32.71-.09,0,1.33,0,2.66,0,4,11.85,0,23.71,0,35.56.09,3.43,0,5.35-1,7.06-4,8.68-15.36,17.69-30.54,26.39-45.89,1.68-3,3.53-4.13,7-4.08q25,.3,50,0c3.72-.05,5.62,1.24,7.37,4.34,8.51,15.07,17.33,30,25.84,45,1.76,3.12,3.79,4.63,7.44,4.59,18.66-.22,37.32-.36,56-.29,3.39,0,5-1.34,6.57-4.06,8.64-15.19,17.5-30.26,26.13-45.46,1.55-2.73,3.14-4,6.54-4q25.24.32,50.49,0c3.63,0,5.68,1.09,7.47,4.26q13,23,26.52,45.81c.79,1.33,2.87,1.89,4.34,2.82-.23-1.65,0-3.56-.77-4.9-9.22-16.21-18.62-32.3-27.86-48.5-1.59-2.79-3.5-3.84-6.78-3.8-17.33.17-34.67-.09-52,.2-4.31.07-6.48-1.45-8.5-5-8.31-14.8-17.07-29.36-25.31-44.2-2.1-3.78-4.46-4.88-8.61-4.82-17.33.24-34.67,0-52,.19-3.32,0-5.05-1.1-6.64-3.9q-12.54-22.17-25.48-44.1c-1.7-2.87-1.48-5,.14-7.72q12.8-21.73,25.21-43.68c1.81-3.21,4-4.3,7.57-4.24,16.81.26,33.63.24,50.44.42,4.31,0,7.25-1.09,9.58-5.32,6.61-12,13.55-23.84,20.43-35.7h-4.94Q1236.22,545.09,1226.61,561.26Z" transform="translate(1 1)"/><path d="M1323.56,509.82c9-15.2,17.62-30.58,26.58-45.78,1.86-3.16,1.76-5.54-.13-8.65-5.86-9.68-11.39-19.56-17-29.36-3.83-6.63-7.58-13.31-11.57-19.84-.56-.91-2.31-1.09-3.5-1.61a11.75,11.75,0,0,0,0,3.56,20.16,20.16,0,0,0,2.1,4c8.4,14.56,16.74,29.16,25.27,43.65,1.62,2.75,1.87,4.91.18,7.77q-13.11,22.12-25.84,44.47c-1.62,2.84-3.49,3.87-6.74,3.85-17.66-.15-35.33,0-53-.15-3.23,0-5.06.88-6.69,3.77q-3.76,6.66-7.56,13.3h4.94q2.71-4.67,5.41-9.35c1.33-2.32,2.78-3.6,5.81-3.57q25.49.27,51,0c3.86,0,6,1.37,7.83,4.67q2.31,4.12,4.66,8.23h5.22c-2.3-3.93-4.58-7.86-6.89-11.77C1322,514.37,1322,512.47,1323.56,509.82Z" transform="translate(1 1)"/><path d="M853.56,777.28a24.36,24.36,0,0,0-2.08,4c-.27.76.13,1.75.22,2.64,1-.19,2.42,0,3-.63a18.81,18.81,0,0,0,2.76-4.12c7.26-12.57,14.56-25.12,21.74-37.74l-5.27.53C867.12,753.68,860.35,765.49,853.56,777.28Z" transform="translate(1 1)"/><path d="M1001.14,677.11q0-2,.06-4h-9.87q2.67,2,5.31,4Z" transform="translate(1 1)"/><path d="M973.47,677c-8.56,15.24-17.47,30.28-26.11,45.47-1.55,2.73-3.21,4.07-6.59,4-17.16-.19-34.33-.15-51.5,0a6.28,6.28,0,0,1-6.3-3.65c-8.63-15.2-17.52-30.25-26.14-45.45-1.76-3.11-3.74-4.42-7.44-4.38q-27.5.3-55,0c-3.65,0-5.71,1.14-7.49,4.28-8.95,15.78-18.1,31.45-27.18,47.16a12.32,12.32,0,0,0-1.54,3.12c-.19.79,0,2.18.49,2.5a2.7,2.7,0,0,0,2.57-.32,16.54,16.54,0,0,0,2.54-3.67c8.6-14.83,17.25-29.63,25.7-44.55,1.77-3.13,3.86-4.53,7.5-4.48,17,.24,34,.16,51,.54a8.05,8.05,0,0,1,5.69,3.45c8.71,14.57,17,29.37,25.68,44,1.68,2.84,1.58,5,0,7.73q-2.69,4.58-5.35,9.17l5.27-.53q1.7-3,3.4-6c1.82-3.22,3.83-4.66,7.79-4.59,17.33.27,34.66,0,52,.19,3.61,0,5.71-1.09,7.51-4.31,8.49-15.09,17.36-30,25.82-45.06,2-3.55,4.28-4.68,8.26-4.63,4.21.05,8.42.08,12.64.09q-2.65-2-5.31-4-5.4,0-10.81-.06C977.15,673,975.2,673.92,973.47,677Z" transform="translate(1 1)"/></svg>