<?xml version="1.0" encoding="utf-8"?>
<!-- Generator: Adobe Illustrator 16.0.0, SVG Export Plug-In . SVG Version: 6.00 Build 0)  -->
<!DOCTYPE svg PUBLIC "-//W3C//DTD SVG 1.1//EN" "http://www.w3.org/Graphics/SVG/1.1/DTD/svg11.dtd">
<svg version="1.1" id="Layer_1" xmlns="http://www.w3.org/2000/svg" xmlns:xlink="http://www.w3.org/1999/xlink" x="0px" y="0px"
	 width="1921px" height="1080px" viewBox="0 0 1921 1080" enable-background="new 0 0 1921 1080" xml:space="preserve">
<path stroke="#000000" stroke-width="2.8346" stroke-miterlimit="10" d="M351.428,368.14c1.012,1.11,1.989,2.245,2.95,3.389
	c2.334-0.968,4.666-1.94,7.003-2.898c2.893-1.186,5.786-2.371,8.672-3.573c0.062-0.027,0.115-0.05,0.182-0.079
	c1.055-0.455,2.107-0.915,3.158-1.379c10.808-4.812,21.364-10.129,31.062-16.947c1.774-1.248,3.667-2.193,5.628-2.881
	c-0.968-5.85-1.395-11.807-1.213-17.81c0.823-27.129,10.654-54.837,32.475-72.078c35.848-28.324,81.437-32.297,125.195-37.852
	c16.362-2.603,32.851-4.143,49.28-6.217c10.775-1.569,21.552-3.612,31.847-7.192c1.318-0.459,2.635-0.923,3.938-1.423
	c2.156-1.008,4.299-2.047,6.373-3.216c2.833-1.597,5.631-3.267,8.288-5.146c0.39-0.275,0.957-0.711,1.493-1.131
	c0.164-0.137,0.331-0.271,0.495-0.409c4.028-3.459,7.888-7.147,11.3-11.224c0.583-0.834,1.161-1.673,1.702-2.536
	c1.166-1.859,2.301-3.742,3.298-5.699c0.309-0.606,0.616-1.213,0.916-1.823c0.626-1.732,1.225-3.476,1.723-5.25
	c0.927-3.308,1.665-6.645,2.251-10.018c0.337-3.333,0.562-6.675,0.707-10.021H202.465c0.505,2.735,1.02,5.47,1.544,8.202
	c2.742,14.269,6.007,28.564,6.995,43.096c1.657,24.377-3.656,48.567-14.411,70.419c-10.022,20.365-25.349,37.331-41.913,52.576
	c-3.397,3.127-6.819,6.249-9.997,9.603c-1.021,1.078-2.024,2.174-2.997,3.297c-0.065,0.097-0.135,0.19-0.199,0.287
	c-0.951,1.467-1.868,2.96-2.662,4.52c-0.857,2.646-1.514,5.325-2.027,8.041c-0.341,4.073-0.43,8.14-0.158,12.219
	c0.41,2.112,0.906,4.207,1.548,6.262c0.352,1.125,0.725,2.243,1.119,3.354c0.027,0.055,0.053,0.108,0.079,0.159
	c1.161,2.283,2.416,4.524,3.801,6.681c1.081,1.236,3.821,4.563,4.978,5.638c0.613,0.569,1.722,1.459,2.542,2.111
	c0.563,0.37,1.123,0.745,1.705,1.086c1.67,0.978,3.382,1.896,5.121,2.757c1.44,0.51,5.081,1.899,6.531,2.287
	c1.578,0.422,3.162,0.787,4.757,1.107c3.104,0.208,6.205,0.192,9.312-0.027c3.235-0.618,6.434-1.417,9.566-2.445
	c1.773-0.582,3.532-1.207,5.274-1.878c0.406-0.185,0.816-0.363,1.22-0.554c8.689-4.112,16.987-8.957,25.28-13.804
	c17.438-10.192,36.272-21.375,56.529-24.454c13.602-2.067,27.869-3.163,41.22,1.287C330.142,350.857,342.191,358.007,351.428,368.14
	z"/>
<path stroke="#000000" stroke-width="2.8346" stroke-miterlimit="10" d="M910.83,289.024c-0.727-4.058-1.707-8.076-3.038-11.976
	c-0.79-1.588-2.428-5.036-3.284-6.412c-0.509-0.818-1.031-1.629-1.568-2.43c-0.006-0.007-0.013-0.015-0.02-0.022
	c-1.254-1.395-2.564-2.741-3.932-4.026c-1.56-1.069-4.813-3.385-6.293-4.168c-0.769-0.406-2.06-0.989-3.078-1.441
	c-0.297-0.102-0.589-0.214-0.888-0.311c-3.021-0.973-6.076-1.762-9.173-2.412c-6.899-0.617-13.813-0.726-20.718-0.12
	c-3.578,0.641-7.123,1.478-10.567,2.639c-0.616,0.208-1.232,0.417-1.846,0.634c-1.778,0.872-3.533,1.794-5.218,2.839
	c-0.973,0.604-2.714,1.908-3.835,2.75c-0.787,0.713-1.562,1.438-2.301,2.201c-0.943,0.973-2.808,3.275-3.626,4.244
	c-0.563,0.848-1.113,1.705-1.629,2.583c-1.261,2.145-2.46,4.327-3.518,6.58c-0.282,0.748-0.559,1.498-0.821,2.254
	c-1.646,4.756-2.986,9.607-4.148,14.503c-2.496,10.513-4.437,21.149-6.929,31.663c-6.052,25.535-16.438,55.108-41.687,67.604
	c-14.088,6.972-28.28,9.662-43.884,10.884c-9.694,0.76-19.443,0.864-29.115,1.891c-46.332,7.078-90.963,22.481-137.712,27.328
	c-22.702,2.354-46.982,2.681-69.031-4.018c-19.964-6.066-39.26-16.653-53.782-31.834c-1.214-1.27-2.399-2.568-3.557-3.893
	c-0.458,0.354-0.923,0.701-1.4,1.037c-10.155,7.14-21.272,12.705-32.638,17.64c-7.36,3.196-14.77,6.281-22.194,9.326
	c1.067,5.33,1.822,10.742,2.234,16.209c0.383,5.083,0.443,10.219-0.162,15.289c-0.745,6.248-1.221,13.734-3.546,19.796
	c-5.186,13.52-11.691,25.958-19.683,37.999c-6.82,10.276-14.111,20.297-20.147,31.07c-1.709,3.049-3.371,6.131-4.847,9.301
	c-0.176,0.378-0.4,0.891-0.619,1.401c-0.173,0.454-0.349,0.907-0.511,1.365c-1.559,4.409-2.831,8.851-3.706,13.412
	c-0.299,3.605-0.368,7.212-0.143,10.823c0.327,1.566,0.734,3.113,1.231,4.634c0.485,0.902,0.995,1.791,1.548,2.653
	c0.633,0.687,1.278,1.363,1.962,2c0.258,0.24,0.568,0.509,0.897,0.783c0.344,0.227,0.684,0.459,1.034,0.675
	c1.511,0.93,3.059,1.799,4.636,2.609c1.915,0.713,5.487,2.082,7.072,2.541c5.446,1.577,10.984,2.738,16.573,3.634
	c16.733,1.925,33.618,2.023,50.444,2.002c20.203-0.024,40.376,0.744,60.479-1.488c10.445-1.625,20.782-3.96,30.837-7.241
	c4.031-1.315,8.029-2.734,11.975-4.288c1.474-0.65,4.339-1.897,5.453-2.424c2.556-1.207,5.1-2.438,7.612-3.733
	c10.609-5.471,20.861-11.604,30.82-18.179c10.65-7.032,20.669-15.148,31.52-21.843c45.994-28.375,102.301-30.793,154.631-36.295
	c7.216-1.067,14.422-2.196,21.619-3.375c-2.611-6.553-4.101-13.504-3.966-20.696c0.312-16.711,7.481-31.149,18.333-43.513
	c17.584-20.034,42.063-30.186,64.639-43.057c5.487-3.128,10.892-6.415,16.084-10.015c1.375-0.953,2.738-1.922,4.092-2.904
	c1.273-1.025,3.812-3.044,4.737-3.849c4.313-3.749,8.48-7.681,12.322-11.916c1.708-1.882,3.378-3.8,4.983-5.771
	c0.708-0.977,1.413-1.956,2.088-2.956c3.627-5.37,6.943-10.96,9.729-16.815c0.414-0.869,0.823-1.741,1.225-2.616
	c0.745-1.929,1.468-3.866,2.124-5.827c2.474-7.392,4.365-14.938,5.642-22.615C911.391,303.916,911.503,296.458,910.83,289.024z"/>
<path stroke="#000000" stroke-width="2.8346" stroke-miterlimit="10" d="M1021.336,146.095c2.325,1.912,4.615,3.869,6.812,5.929
	c11.114,10.428,20.833,22.409,29.54,34.894c7.608,10.909,14.394,22.467,19.739,34.659c3.385,7.719,6.78,15.519,9.275,23.586
	c2.715,8.778,3.907,18.071,4.976,27.162c3.439,29.25-2.988,58.148-7.12,87.001c-1.066,8.45-1.906,16.958-1.309,25.453
	c0.428,2.184,0.956,4.35,1.634,6.468c0.625,1.284,1.521,3.114,2.103,4.026c0.16,0.252,0.325,0.502,0.486,0.754
	c0.925,0.951,2.676,2.385,3.67,3.209c0.814,0.495,1.646,0.962,2.497,1.393c0.656,0.225,1.315,0.437,1.983,0.624
	c1.362,0.381,2.727,0.718,4.101,1.013c1.176,0.055,2.351,0.066,3.526,0.032c0.144-0.036,0.284-0.081,0.427-0.119
	c0.681-0.352,1.53-0.79,2.35-1.237c1.233-1.052,2.784-2.397,3.522-3.217c0.348-0.386,0.692-0.774,1.035-1.165
	c3.527-5.181,6.552-10.681,9.175-16.373c0.062-0.133,0.121-0.266,0.182-0.399c0.067-0.238,0.132-0.483,0.186-0.72
	c0.083-0.37,0.147-0.743,0.221-1.114c0.96-9.964,1.018-20.031,1.549-30.014c0.766-14.374,1.354-29.399,7.945-42.476
	c8.592-17.043,29.163-20.277,46.211-20.664c13.032-0.296,25.914,0.927,38.806,2.713c-2.614-0.351-5.229-0.703-7.843-1.054
	c11.404,0.951,22.403,2.912,33.014,7.218c3.464,1.405,6.905,2.862,10.339,4.341c5.184-20.298,16.909-38.33,36.787-49.244
	c23.446-12.874,51.871-14.426,77.933-10.958c29.373,3.91,56.487,13.166,83.104,26.182c45.831,22.412,86.223,54.197,131.616,77.348
	c18.301,9.333,36.452,19.05,55.114,27.649c2.966,1.367,5.938,2.718,8.934,4.021c0.413,0.18,0.827,0.355,1.24,0.534
	c0.291,0.12,0.567,0.232,0.799,0.326c5.193,2.098,10.427,4.107,15.735,5.898c8.999,3.036,18.15,5.593,27.508,7.187
	c4.736,0.446,9.478,0.572,14.221,0.238c1.058-0.215,2.109-0.457,3.147-0.754c0.704-0.202,1.406-0.412,2.104-0.635
	c1.082-0.562,2.146-1.159,3.178-1.811c0.541-0.499,1.076-1.006,1.579-1.545c0.103-0.11,0.209-0.229,0.316-0.354
	c0.144-0.227,0.294-0.448,0.43-0.68c0.456-0.778,1.023-2.009,1.489-3.07c0.569-1.863,1.023-3.752,1.407-5.66
	c0.329-4.736,0.226-9.471-0.21-14.2c-1.044-6.05-2.528-12.025-4.486-17.846c-0.516-1.534-2.093-5.427-2.817-7.28
	c-1.103-2.197-2.302-4.346-3.612-6.425c-1.06-1.68-2.151-3.342-3.312-4.955c-0.153-0.184-0.303-0.371-0.457-0.554
	c-2.53-2.954-5.174-5.812-7.991-8.496c-2.849-2.715-5.786-5.337-8.854-7.805c-0.064-0.052-0.115-0.093-0.176-0.142
	c-0.057-0.041-0.104-0.076-0.163-0.119c-1.444-1.056-2.892-2.105-4.363-3.122c-39.522-27.309-91.675-42.271-120.069-83.23
	c-14.942-21.554-20.412-48.123-22.85-73.793h-518.039C1020.185,145.184,1020.771,145.631,1021.336,146.095z"/>
<path stroke="#000000" stroke-width="2.8346" stroke-miterlimit="10" d="M1483.898,534.641c-0.373-1.652-0.813-3.288-1.364-4.893
	c-0.184-0.535-0.369-1.07-0.559-1.603c-2.641-5.395-5.707-10.573-9.146-15.499c-0.929-1.332-1.87-2.655-2.835-3.96
	c-1.401-1.737-2.816-3.462-4.278-5.148c-3.105-3.583-6.299-7.091-9.627-10.468c-1.57-1.593-3.21-3.119-4.903-4.583
	c-1.195-0.845-4.69-3.448-5.873-4.189c-3.105-1.946-6.274-3.798-9.563-5.42c-1.11-0.547-2.226-1.086-3.35-1.605
	c-11.073-4.2-22.562-6.879-34.238-8.688c-17.225-1.931-34.577-1.882-51.718-4.779c-20.384-3.445-42.507-14.393-51.203-34.326
	c-0.792-1.814-1.501-3.58-2.099-5.332c-17.026-15.689-29.688-35.065-37.99-56.762c-0.664-1.734-1.274-3.501-1.859-5.282
	c-1.615-0.236-3.224-0.642-4.805-1.259c-6.086-2.376-12.103-4.938-18.076-7.58c-1.961-0.867-3.916-1.743-5.88-2.604
	c-5.974-2.357-12.028-4.25-18.349-5.385c-2.519-0.298-5.038-0.597-7.56-0.947c2.614,0.352,5.228,0.703,7.842,1.054
	c-8.275-1.084-16.838-1.818-25.335-1.788c-0.238,3.824-0.405,7.654-0.57,11.478c-0.385,8.908-0.489,17.917-1.632,26.77
	c-1.241,9.622-2.05,14.025-5.905,22.928c-2.219,5.121-4.575,10.209-7.385,15.037c-7.313,12.567-16.918,24.332-29.467,31.989
	c-15.084,9.205-32.131,10.941-49.247,7.932c-29.276-5.147-53.791-28.327-60.197-57.46c-6.392-29.072,1.078-58.614,5.358-87.555
	c1.58-13.322,2.168-26.642,0.833-39.997c-1.381-8.042-3.468-15.811-6.499-23.443c-0.059-0.148-0.109-0.275-0.161-0.407
	c-0.559-1.245-1.117-2.49-1.706-3.72c-1.359-2.838-2.756-5.661-4.249-8.432c-3.062-5.68-6.325-11.256-9.896-16.633
	c-2.101-3.166-4.25-6.3-6.52-9.348c-0.068-0.092-0.147-0.196-0.231-0.307c-0.709-0.886-1.413-1.775-2.142-2.645
	c-4.056-4.843-8.29-9.553-12.855-13.925c-2.557-2.448-5.162-4.852-7.897-7.101c-0.369-0.304-0.892-0.711-1.389-1.092
	c-1.364-1.021-1.623-1.222-1.353-1.022c-1.401-1.062-2.798-2.137-4.194-3.249c10.164,8.087,1.299,1.245-1.906-0.482
	c-3.381-1.821-6.849-3.473-10.359-5.027c-1.147-0.508-2.302-1.001-3.455-1.498c-0.6-0.25-1.161-0.483-1.575-0.654
	c-18.498-7.622-38.193-14.576-54.781-26.03c-2.283-1.577-4.529-3.238-6.717-4.977H749.225c-0.197,4.372-0.538,8.732-1.109,13.07
	c-1.806,13.717-4.499,25.279-9.91,38.015c-4.311,10.146-10.851,19.325-18.218,27.484c-17.296,19.154-40.757,32.497-65.656,38.93
	c-22.996,5.941-46.897,7.28-70.381,10.351c-11.625,1.57-23.256,3.075-34.887,4.608c-10.265,1.433-20.511,3.103-30.603,5.473
	c-5.693,1.337-11.36,2.829-16.911,4.681c-2.368,0.79-4.722,1.625-7.049,2.529c-0.559,0.255-1.122,0.502-1.674,0.771
	c-4.362,2.125-8.624,4.505-12.6,7.297c-0.755,0.661-1.51,1.324-2.23,2.022c-1.241,1.204-2.438,2.454-3.583,3.751
	c-0.497,0.749-0.989,1.502-1.44,2.28c-0.519,0.896-1.018,1.803-1.495,2.721c-1.397,4.125-2.519,8.305-3.329,12.569
	c-0.317,4.078-0.33,8.146-0.018,12.22c0.645,3.351,1.494,6.664,2.643,9.879c0.093,0.261,0.189,0.521,0.283,0.782
	c0.762,1.569,1.548,3.126,2.428,4.633c1.191,2.041,2.441,4.05,3.811,5.977c0.073,0.083,0.141,0.16,0.222,0.253
	c2.765,3.166,5.707,6.187,8.912,8.913c0.289,0.246,0.58,0.489,0.87,0.734c0.071,0.05,0.141,0.1,0.207,0.145
	c1.766,1.223,3.55,2.421,5.397,3.52c2.708,1.611,5.479,3.124,8.323,4.484c1.2,0.468,2.775,1.081,3.623,1.363
	c2.109,0.703,4.23,1.377,6.382,1.939c3.004,0.784,6.028,1.43,9.078,1.961c14.926,1.439,30.131,0.605,45.006-1.161
	c29.139-4.322,57.476-12.497,86.221-18.779c16.263-3.554,32.834-6.766,49.425-8.316c10.575-0.989,21.212-1.052,31.778-2.13
	c2.053-0.35,4.096-0.76,6.106-1.297c1.479-0.395,2.953-0.816,4.402-1.311c0.853-0.457,1.699-0.928,2.525-1.432
	c0.217-0.206,0.446-0.398,0.658-0.61c0.096-0.105,0.178-0.195,0.263-0.288c0.306-0.46,0.608-0.923,0.893-1.397
	c1.069-1.775,2.064-3.592,2.988-5.445c0.582-1.651,2.398-6.345,2.896-7.959c2.096-6.799,3.792-13.708,5.312-20.656
	c5.121-23.419,8.914-49.023,23.606-68.794c8.587-11.556,18.271-21.824,31.089-28.824c13.293-7.26,26.693-10.694,41.554-12.569
	c24.635-3.109,53.706,1.093,74.112,16.109c19.775,14.552,34.044,34.91,38.473,59.423c9,49.804-7.889,102.745-42.995,139.11
	c-18.534,19.199-40.954,32.508-64.359,44.745c-5.806,3.036-11.562,6.191-17.104,9.691c-2.545,1.606-5.075,3.241-7.525,4.99
	c-0.459,0.328-0.918,0.658-1.376,0.988c-0.277,0.226-0.539,0.442-0.748,0.622c-2.448,2.097-4.857,4.261-7.036,6.641
	c-0.378,0.414-0.755,0.829-1.13,1.246c-0.439,0.711-0.935,1.704-1.375,2.636c0.138,0.259,0.272,0.499,0.398,0.701
	c0.378,0.605,1.074,1.514,1.688,2.287c1.039,1.128,2.095,2.238,3.193,3.319c0.883,0.87,1.688,1.791,2.434,2.747
	c27.131-5.4,54.176-11.254,81.193-17.183c3.536-0.776,7.095-0.971,10.538-0.625c5.194-4.514,11.932-7.278,19.222-7.278
	c1.25,0,2.48,0.09,3.692,0.247c3.876-1.902,8.201-2.987,12.747-2.987c6.127,0,11.858,1.963,16.616,5.266
	c2.564-0.747,5.262-1.156,8.042-1.156c13.003,0,24.262,8.775,28.097,20.635c0.969,0.49,1.931,0.988,2.875,1.502
	c8.804,4.795,17.063,10.46,25.984,15.066c3.409,1.76,6.848,3.47,10.339,5.062c1.401,0.582,3.442,1.426,4.335,1.753
	c1.906,0.7,3.817,1.391,5.752,2.013c6.828,2.193,13.761,3.868,20.813,5.049c10.678,1.063,21.358,0.897,32.094,1.094
	c12.54,0.23,25.074,0.701,37.595,1.438c25.787,1.519,51.511,3.939,77.169,6.904c14.883,1.72,30.023,3.041,44.747,5.806
	c11.145,2.093,22.096,5.025,32.949,8.291c21.909,6.593,43.614,14.076,66.24,17.823c20.06,2.263,40.459,2.479,60.514,0.187
	c6.865-1.062,13.689-2.451,20.354-4.412c3.133-0.922,6.245-1.926,9.303-3.078c0.706-0.314,1.407-0.635,1.894-0.877
	c1.655-0.823,3.304-1.665,4.904-2.591c1.884-1.092,3.751-2.219,5.537-3.465c2.04-1.773,3.993-3.653,5.778-5.685
	c0.021-0.032,0.045-0.064,0.066-0.097c0.966-1.49,1.905-3.002,2.72-4.582c0.021-0.042,0.043-0.085,0.064-0.127
	c0.02-0.07,0.043-0.14,0.062-0.21C1483.915,535.648,1483.915,535.144,1483.898,534.641z"/>
<path stroke="#000000" stroke-width="2.8346" stroke-miterlimit="10" d="M120.077,515.959c2.968,29.949,4.716,60.143,3.194,90.234
	c-1.606,31.749-6.047,63.872-16.482,94.002c-9.038,26.097-19.823,51.857-24.268,79.241c-0.82,8.121-0.962,16.244-0.222,24.371
	c1.038,5.86,2.522,11.646,4.622,17.217c0.052,0.1,0.105,0.201,0.167,0.321c0.598,1.159,1.194,2.322,1.867,3.44
	c0.446,0.741,0.902,1.479,1.374,2.205c0.594,0.65,1.208,1.283,1.843,1.894c0.318,0.197,0.644,0.382,0.97,0.565
	c0.456,0.129,0.914,0.239,1.372,0.352c1.24,0.036,2.479,0.021,3.719-0.043c2.961-0.635,5.868-1.501,8.709-2.554
	c0.932-0.45,1.863-0.9,2.778-1.384c2.39-1.264,4.749-2.588,7.033-4.033c2.277-1.441,4.522-2.935,6.698-4.525
	c0.573-0.466,1.149-0.928,1.71-1.407c3.918-3.342,7.696-6.856,11.22-10.614c1.845-1.968,3.658-3.966,5.38-6.043
	c0.23-0.277,0.51-0.626,0.797-0.989c0.015-0.021,0.031-0.041,0.045-0.062c2.564-3.61,4.99-7.346,7-11.298
	c1.019-2.005,1.963-4.053,2.869-6.112c0.011-0.028,0.019-0.05,0.03-0.078c1.544-3.956,3.012-7.946,4.232-12.016
	c1.698-5.661,3.056-11.379,4.05-17.187c0.88-9.152,0.765-18.294-0.208-27.44c-4.446-28.541-12.966-57.211-10.274-86.332
	c1.083-11.717,2.871-26.19,10.157-36.06c8.279-11.213,19.263-19.78,34.019-19.453c19.047,0.423,34.632,13.034,46.683,26.701
	c11.72,13.291,22.056,27.866,31.875,42.613c0.028-0.043,0.057-0.084,0.085-0.127c4.924-7.497,9.72-15.205,14.98-22.546
	c-3.434-3.642-6.493-7.648-9.029-12.213c-6.076-10.94-8.972-22.421-9.799-34.848c-1.826-27.452,9.45-54.155,24.051-76.781
	c6.664-10.327,13.975-20.25,20.265-30.815c1.748-2.936,3.46-5.898,5.011-8.945c0.559-1.097,1.815-3.97,2.515-5.523
	c0.637-1.986,1.142-3.999,1.551-6.042c0.333-4.563,0.267-9.125-0.134-13.683c-1.006-5.603-2.455-11.133-4.474-16.458
	c-0.02-0.052-0.035-0.093-0.054-0.143c-0.64-1.344-1.29-2.684-2.003-3.992c-1.46-2.678-3.017-5.311-4.77-7.81
	c-1.01-1.148-2.03-2.29-3.122-3.361c-0.816-0.801-1.65-1.587-2.504-2.349c-1.264-0.832-2.552-1.63-3.895-2.328
	c-1.212-0.383-2.436-0.708-3.672-0.992c-2.871-0.169-5.739-0.15-8.613,0.05c-3.576,0.688-7.105,1.604-10.554,2.786
	c-1.295,0.443-4.113,1.591-5.496,2.142c-0.646,0.304-1.294,0.603-1.934,0.917c-8.979,4.416-17.561,9.553-26.205,14.578
	c-21.131,12.285-43.309,23.233-68.159,24.496c-20.721,1.052-43.756-5.756-61.213-18.513
	C116.093,458.048,117.208,487.012,120.077,515.959z"/>
<path stroke="#000000" stroke-width="2.8346" stroke-miterlimit="10" d="M323.005,702.84c1.831,1.648,3.668,3.289,5.553,4.876
	c0.894,0.752,3.171,2.532,4.177,3.333c2.742,1.969,5.55,3.849,8.476,5.53c2.018,1.159,4.054,2.296,6.16,3.291
	c0.01,0.005,0.022,0.01,0.032,0.015c0.192,0.07,0.381,0.147,0.574,0.216c3.956,1.355,7.957,2.369,12.086,3.029
	c0.566,0.091,1.121,0.208,1.668,0.341c5.258-0.115,10.501-0.479,15.738-1.052c32.385-4.966,63.626-15.93,95.619-22.827
	c33.506-7.223,68.309-11.917,100.875-22.857c29.49-9.908,58.775-20.506,88.635-29.271c29.642-8.703,60.861-16.804,91.812-18.697
	c31.299-1.915,62.597-0.452,93.803-4.182c5.82-0.875,11.619-1.926,17.333-3.336c3.143-0.775,6.274-1.615,9.351-2.624
	c1.359-0.445,2.714-0.904,4.054-1.404c2.108-1.012,4.177-2.114,6.136-3.391l0.018-0.012c0.112-0.105,0.228-0.205,0.338-0.312
	c2.387-9.757,10.095-16.967,19.229-19.973c0.666-4.256,1.489-8.483,2.202-12.73c1.952-15.964,4.692-31.288,10.319-46.24
	c-36.381,7.95-72.816,15.703-109.48,22.239c-21.292,3.795-42.716,7.626-64.237,9.84c-15.064,1.55-30.145,2.952-45.17,4.854
	c-15.08,2.141-30.136,4.873-44.732,9.251c-3.909,1.173-7.8,2.412-11.627,3.831c-1.235,0.458-2.467,0.927-3.695,1.406
	c-0.687,0.296-1.351,0.589-1.78,0.791c-6.678,3.146-13.194,6.703-19.228,10.973c-20.896,14.786-41.741,29.679-65.05,40.517
	c-25.7,11.948-51.607,19.247-79.8,22.228c-20.503,2.167-41.155,1.275-61.737,1.271c-19.681-0.004-39.068-0.792-58.585-3.438
	c-3.561-0.482-7.187-1.077-10.824-1.797c-1.689,1.969-3.743,4.477-3.761,4.38c-1.182,1.651-2.344,3.315-3.473,5.004
	c-4.154,6.213-8.091,12.57-12.294,18.749c-2.331,3.427-4.735,6.84-7.24,10.18C317.282,697.547,320.108,700.231,323.005,702.84z"/>
<path stroke="#000000" stroke-width="2.8346" stroke-miterlimit="10" d="M1828.874,800.149c-3.14-19.505-9.341-38.436-15.866-57.031
	c-6.286-17.91-13.624-35.723-18.043-54.22c-6.934-29.021-5.307-60.957-2.436-90.415c3.087-31.678,8.464-63.058,13.437-94.476
	c-0.352,2.614-0.702,5.228-1.054,7.842c4.904-36.895,16.65-72.357,22.1-109.108c1.098-9.472,1.731-19.097,0.944-28.6
	c-0.663-3.596-1.523-7.155-2.653-10.635c-0.468-1.439-0.963-2.871-1.48-4.293c-0.617-1.39-1.525-3.44-1.973-4.308
	c-2.396-4.647-5.021-9.182-8.01-13.477c-0.609-0.876-1.225-1.748-1.85-2.613c-1.064-1.296-2.138-2.584-3.26-3.83
	c-3.488-3.874-7.148-7.606-11.098-11.013c-0.915-0.79-3.405-2.69-4.426-3.484c-0.986-0.685-1.981-1.355-2.997-1.996
	c-2.089-1.318-4.198-2.61-6.381-3.771c-0.649-0.346-1.731-0.821-2.489-1.149c-3.644-1.185-7.326-2.076-11.074-2.75
	c-2.248-0.22-4.501-0.391-6.755-0.545c4.938,10.533,8.488,21.714,10.34,33.349c4.467,28.066,2.337,56.641-17.267,78.896
	c-17.4,19.754-45.458,26.204-70.734,23.087c-27.165-3.35-52.069-12.657-76.901-23.928c-41.453-18.815-81.144-41.07-119.571-65.4
	c-21.827-13.82-43.703-27.746-66.843-39.301c-4.832-2.413-9.709-4.743-14.648-6.93c-1.539-0.627-4.884-2.009-6.075-2.461
	c-2.808-1.067-5.626-2.111-8.473-3.072c-10.702-3.615-21.613-6.437-32.756-8.236c-10.461-1.121-21.007-1.29-31.481-0.276
	c-2.397,0.432-4.779,0.955-7.111,1.66c-0.993,0.3-1.981,0.618-2.963,0.955c-1.453,0.743-2.881,1.539-4.267,2.404
	c-1.175,0.997-2.705,2.32-3.473,3.16c-0.129,0.141-0.266,0.298-0.406,0.464c-0.23,0.352-0.464,0.701-0.681,1.061
	c-0.655,1.089-1.611,3.139-2.253,4.523c-0.716,2.266-1.301,4.566-1.764,6.898c-0.358,4.74-0.291,9.485,0.135,14.223
	c0.849,4.809,2.017,9.562,3.541,14.202c0.564,1.718,2.389,6.203,2.877,7.51c0.563,1.174,1.141,2.341,1.752,3.491
	c1.528,2.871,3.14,5.702,4.914,8.429c0.863,1.327,1.745,2.642,2.662,3.931c5.969,6.984,12.365,13.537,19.509,19.334
	c4.921,3.994,7.584,9.686,8.375,15.756c0.142,0.05,0.282,0.101,0.426,0.147c1.518,0.477,3.042,0.935,4.591,1.306
	c2.211,0.53,4.436,0.968,6.672,1.348c7.263,0.733,14.554,0.989,21.846,1.393c13.175,0.729,26.504,2.438,39.432,5.047
	c26.191,5.287,51.039,16.443,71.006,34.41c6.8,6.118,12.96,13.144,18.614,20.322c7.27,9.228,14.637,18.619,19.821,29.23
	c2.244,4.592,4.373,9.366,6.131,14.272c24.235,0.821,48.494,2.55,72.642-0.128c8.056-1.329,15.96-3.247,23.661-6.031
	c4.678-1.691,9.547-1.758,14.162-0.618c4.602-1.452,9.43-2.456,14.525-2.988c28.434-2.967,58.319,16.619,63.541,45.421
	c4.158,22.934-0.558,45.565-7.271,67.559c-2.524,8.272-5.347,16.463-7.67,24.795c-2.257,8.099-3.74,16.421-4.953,24.749
	c-3.807,30.86-3.904,62.289-0.151,93.161c2.037,13.764,4.87,27.465,9.196,40.695c1.126,3.444,2.31,6.871,3.646,10.24
	c0.033,0.084,0.061,0.153,0.092,0.231c0.52,1.165,1.044,2.328,1.623,3.461c1.263,2.47,2.642,4.884,4.225,7.163
	c0.252,0.294,0.492,0.598,0.751,0.885c1.961,2.176,4.008,4.279,6.2,6.225c0.687,0.609,1.38,1.21,2.08,1.803
	c4.728,3.313,9.699,6.282,14.91,8.771c0.643,0.307,1.287,0.611,1.934,0.912c0.328,0.129,0.638,0.249,0.896,0.345
	c3.02,1.118,6.07,2.16,9.169,3.037c4.632,1.312,9.313,2.358,14.051,3.162c7.261,0.71,14.547,0.789,21.813,0.129
	c4.939-0.871,9.823-2.098,14.529-3.833c0.186-0.09,0.373-0.174,0.558-0.265c1.321-0.665,2.639-1.341,3.915-2.09
	c1.43-0.839,2.842-1.71,4.209-2.648c1.128-0.985,2.223-2.007,3.271-3.076c0.91-1.344,2.396-3.51,3.188-4.937
	c0.346-1.02,0.679-2.044,0.956-3.084c0.415-1.559,0.768-3.126,1.075-4.703C1829.78,813.268,1829.559,806.695,1828.874,800.149z"/>
<path stroke="#000000" stroke-width="2.8346" stroke-miterlimit="10" d="M1532.372,570.293c-0.122,0.185-0.237,0.372-0.361,0.556
	c-27.415,40.477-79.279,50.733-125.182,50.993c-22.487,0.128-45.291-2.021-67.148-7.369c-28.775-7.039-56.447-18.396-85.749-23.26
	c-49.699-6.255-99.677-11.308-149.809-11.497c-23.395-0.088-46.972-2.878-68.754-11.828c-11.912-4.894-24.033-10.069-35.024-16.867
	c-5.093-3.149-10.104-6.524-15.424-9.287c-0.459-0.238-0.92-0.474-1.381-0.71c-0.042-0.015-0.076-0.027-0.12-0.042
	c-0.064-0.019-0.129-0.031-0.193-0.05c-0.847,0.429-1.712,0.883-2.217,1.212c-0.15,0.098-0.283,0.184-0.414,0.268
	c-0.656,0.592-1.304,1.193-1.914,1.833c-0.54,0.564-1.072,1.137-1.596,1.717c-0.14,0.205-0.27,0.4-0.38,0.574
	c-1.568,2.467-3.02,5.01-4.268,7.655c-0.445,1.221-0.888,2.443-1.283,3.683c-0.98,3.073-1.874,6.174-2.609,9.315
	c-1.45,6.199-2.521,12.461-3.381,18.767c0.352-2.613,0.702-5.228,1.054-7.842c-1.254,9.537-2.832,18.992-4.27,28.488
	c-0.2,2.094-0.308,4.187-0.278,6.282c0.017,0.06,0.035,0.119,0.053,0.178c0.075,0.141,0.15,0.275,0.223,0.397
	c0.422,0.714,1.143,1.722,1.753,2.55c0.238,0.257,0.467,0.522,0.712,0.773c1.437,1.468,2.906,2.903,4.468,4.238
	c0.249,0.214,0.568,0.473,0.91,0.744c2.201,1.57,4.434,3.095,6.738,4.511c12.176,7.477,25.237,13.161,38.03,19.453
	c4.303,2.116,8.558,4.322,12.914,6.33c1.933,0.892,3.874,1.766,5.821,2.622c1.143,0.477,2.51,1.045,3.152,1.298
	c9.125,3.597,18.393,6.839,27.808,9.599c17.436,5.111,35.206,8.835,53.178,11.434c54.55,6.653,109.724,3.208,164.073-3.836
	c71.47-9.915,142.004-29.011,214.553-29.181c3.453-0.008,6.782,0.611,9.883,1.742c4.491-0.918,8.924-2.122,13.215-3.741
	c1.285-0.612,2.566-1.236,3.819-1.915c2.812-1.524,5.574-3.145,8.219-4.945c0.858-0.585,1.711-1.181,2.557-1.785
	c0.02-0.017,0.035-0.029,0.056-0.047c2.445-2.055,4.835-4.177,7.117-6.413c4.633-4.541,8.99-9.354,13.077-14.394
	c0.642-0.791,1.272-1.592,1.906-2.39c0.12-0.159,0.231-0.308,0.329-0.438c1.992-2.683,3.957-5.386,5.882-8.117
	c3.891-5.521,7.681-11.11,11.475-16.698c2.978-4.388,6.04-8.709,9.12-13.018C1565.912,571.775,1549.024,570.72,1532.372,570.293z"/>
<path stroke="#000000" stroke-width="2.8346" stroke-miterlimit="10" d="M1234.121,911.651c-0.04-0.1-0.085-0.208-0.131-0.319
	c-0.156-0.357-0.308-0.717-0.467-1.072c-1.054-2.348-2.127-4.688-3.259-6.999c-2.012-4.109-4.114-8.177-6.397-12.143
	c-2.165-3.761-4.422-7.473-6.873-11.054c-0.85-1.239-1.718-2.468-2.6-3.686c-0.269-0.333-0.521-0.642-0.729-0.886
	c-2.591-3.044-5.309-6.001-8.294-8.666c-0.821-0.733-1.653-1.444-2.51-2.138c-2.01-1.467-4.035-2.914-6.116-4.279
	c-5.372-3.523-10.91-6.8-16.654-9.683c-2.767-1.39-5.556-2.737-8.39-3.988c-0.658-0.264-1.315-0.528-1.977-0.785
	c-22.382-8.596-45.901-13.508-69.48-17.504c-24.767-4.196-50.001-6.972-74.054-14.49c-23.21-7.255-46.364-17.273-66.221-31.477
	c-20.878-14.934-39.806-33.062-52.158-55.864c-8.667-16.002-14.333-33.357-16.76-51.238c-16.528,5.129-34.325,7.44-49.277,8.948
	c-18.033,1.819-36.161,2.389-54.274,2.675c-13.324,0.21-26.673,0.029-39.92,1.525c-8.148,1.212-16.264,2.641-24.325,4.345
	c-1.303,0.275-2.603,0.563-3.903,0.85c7.357,13.527,8.844,28.868,6.214,44.086c-2.631,15.229-11.771,28.639-21.382,40.304
	c-10.163,12.333-22.812,22.356-35.591,31.827c-12.909,9.569-26.599,18.066-40.634,25.877
	c-30.537,16.992-62.706,31.237-95.362,43.629c-22.128,8.397-44.515,16.315-68.048,19.438c2.614-0.352,5.228-0.702,7.842-1.054
	c-52.613,8.6-105.715,5.9-157.778-5.257c-22.727-4.87-46.048-8.68-67.736-17.309c-11.866-4.721-23.064-10.498-34.547-16.024
	c-1.431-0.689-2.867-1.369-4.309-2.037c-1.415-0.568-4.093-1.658-5.131-2.007c-3.468-1.164-6.958-2.132-10.522-2.853
	c-0.141-0.01-0.281-0.025-0.422-0.035c-5.346-0.374-10.402-1.902-14.773-4.392c-9.879,10.285-21.343,19.569-33.637,26.624
	c-20.132,11.551-46.497,19.566-69.225,10.725c-14.778-5.749-26.445-15.097-34.989-28.579c-9.566-15.095-13.801-32.814-15.78-50.348
	c-3.485-30.873,5.146-62.123,15.329-90.988c4.745-13.452,10.14-26.764,14.189-40.448c3.864-13.055,6.688-26.349,8.717-39.799
	c5.243-43.058,2.204-85.931-1.684-128.984c-4.148-45.936-3.143-92.042-3.126-138.105c0.005-13.181,9.017-24.567,21.124-28.248
	c0.5-4.869,1.35-9.71,2.593-14.488c3.546-13.624,10.556-25.434,19.928-35.832c7.567-8.395,16.501-15.385,24.336-23.51
	c2.53-2.624,5.016-5.293,7.363-8.083c0.696-0.827,1.379-1.665,2.062-2.503c3.41-4.736,6.601-9.645,9.311-14.818
	c0.879-1.677,3.365-7.444,3.5-7.54c0.472-1.302,0.919-2.612,1.326-3.936c1.378-4.48,2.458-9.014,3.274-13.616
	c0.712-7.711,0.633-15.425-0.139-23.134c-2.498-15.924-6.163-31.676-8.833-47.581H0v783.562h1240.16
	C1238.333,922.672,1236.332,917.115,1234.121,911.651z"/>
<path stroke="#000000" stroke-width="2.8346" stroke-miterlimit="10" d="M1596.683,144.727c0.12,1.22,0.241,2.439,0.38,3.658
	c1.221,7.834,2.887,15.624,5.422,23.138c0.505,1.497,1.037,2.986,1.595,4.464c0.273,0.581,0.546,1.162,0.831,1.737
	c1.857,3.681,3.901,7.282,6.284,10.652c0.406,0.478,0.818,0.95,1.243,1.412c1.467,1.593,2.965,3.162,4.571,4.616
	c1.128,1.021,2.287,2.002,3.461,2.967c0.677,0.515,1.339,1.012,1.774,1.323c7.24,5.171,14.792,9.881,22.503,14.315
	c24.793,14.258,52.102,26.719,75.153,44.277c5.04-4.613,13.122-8.682,19.991-7.814c15.306,1.935,30.736,1.635,45.968,4.41
	c14.54,2.649,28.551,9.071,40.344,17.962c25.025,18.868,44.782,43.144,55.028,73.087c10.007,29.243,5.707,61.008-0.318,90.618
	c-5.609,27.565-13.919,54.607-17.837,82.505c0.351-2.614,0.702-5.228,1.054-7.842c-2.971,22.348-7.044,44.535-10.168,66.865
	c-3.899,30.47-6.138,61.304-3.033,91.922c4.201,20.871,12.894,40.877,19.835,60.909c8.646,24.947,16.502,50.764,17.687,77.333
	c1.075,24.124-5.265,49.979-22.998,67.354c-18.604,18.229-43.126,26.891-68.702,28.956c-45.628,3.686-99.26-16.773-123.608-57.15
	c-6.512-10.798-11.041-23.229-14.701-35.273c-3.539-11.644-6.165-23.557-8.004-35.586c-4.212-27.556-6.116-55.306-4.725-83.171
	c1.183-23.7,3.437-48.357,10.231-71.189c4.842-16.271,10.744-32.319,13.604-49.091c0.33-3.574,0.454-7.152,0.263-10.733
	c-0.052-0.229-0.109-0.455-0.165-0.683c-0.208-0.049-0.416-0.093-0.624-0.139c-0.704-0.023-1.409-0.027-2.113-0.016
	c-0.247,0.064-0.495,0.121-0.741,0.191c-0.693,0.38-1.383,0.77-2.045,1.203c-0.119,0.078-0.245,0.163-0.373,0.251
	c-0.073,0.067-0.151,0.13-0.225,0.198c-1.804,1.672-3.548,3.406-5.175,5.252c-0.837,0.949-2.686,3.28-3.57,4.375
	c-0.696,0.951-1.41,1.891-2.092,2.853c-3.029,4.274-5.974,8.612-9.076,12.834c-11.76,16.006-22.481,32.728-34.208,48.751
	c-13.873,18.959-28.677,36.542-48.432,49.649c-20.725,13.752-45.662,19.993-70.395,19.654c-3.974-0.055-7.783-0.895-11.27-2.369
	c-15.799,0.642-31.55,2.088-47.246,4.087c-44.496,6.271-88.384,16.23-132.908,22.356c-44.873,6.174-90.069,10.88-135.432,9.602
	c-30.758-0.867-61.746-4.129-91.79-10.898c-30.115-6.786-58.543-17.767-86.208-31.373c-11.333-5.574-22.81-10.818-33.721-16.996
	c0.7,2.435,1.44,4.858,2.305,7.24c0.271,0.747,0.547,1.493,0.828,2.237c2.217,4.766,4.691,9.415,7.541,13.836
	c1.307,2.027,2.652,4.032,4.074,5.981c0.392,0.48,0.775,0.968,1.178,1.439c3.62,4.252,7.455,8.325,11.562,12.112
	c1.911,1.762,3.847,3.499,5.847,5.161c0.657,0.546,1.322,1.082,1.985,1.621c8.701,6.364,17.943,11.984,27.613,16.753
	c2.792,1.377,5.604,2.717,8.452,3.971c0.604,0.244,1.206,0.494,1.813,0.731c5.065,1.975,10.187,3.814,15.377,5.437
	c24.02,7.508,49.037,10.437,73.771,14.628c26.191,4.438,52.352,9.837,76.939,20.159c24.727,10.381,50.064,24.025,66.787,45.646
	c15.413,19.925,26.593,41.386,35.325,65.048c3.162,8.569,5.887,17.3,8.156,26.146H1921V144.727H1596.683z"/>
<path stroke="#000000" stroke-width="2.8346" stroke-miterlimit="10" d="M667.742,722.34c-0.178-0.328-0.354-0.656-0.545-0.978
	c-0.339-0.573-0.688-1.142-1.047-1.703c-1.479-1.655-3.019-3.248-4.653-4.758c-1.401-1.294-2.619-2.717-3.669-4.231
	c-7.989,2.553-15.951,5.192-23.894,7.879c-14.772,4.997-29.5,10.125-44.287,15.078c-15.047,5.04-30.807,8.321-46.314,11.613
	c-31.002,6.58-62.17,12.232-92.777,20.55c-31.597,8.587-63.904,17.657-96.966,16.655c-4.48-0.136-8.754-1.213-12.59-3.048
	c-25.877-5.207-45.854-21.649-64.669-39.612c-10.227-1.176-19.001-7.752-23.33-16.743c-3.783-2.55-6.749-5.979-9.814-10.001
	c-11.226-14.725-20.258-31.153-31.021-46.232c-0.783-1.098-1.571-2.191-2.363-3.282c0.209,2.141,0.445,4.276,0.703,6.407
	c2.912,19.401,7.993,38.525,9.494,58.103c1.715,22.371-1.763,45.662-9.926,66.571c-0.186,0.475-0.373,0.954-0.559,1.43
	c11.213,2.684,21.815,6.998,32.595,12.258c6.312,3.08,12.523,6.377,18.896,9.329c0.63,0.292,1.26,0.583,1.892,0.872
	c0.405,0.161,0.792,0.312,1.095,0.421c3.151,1.144,6.313,2.297,9.495,3.351c14.493,4.803,29.499,7.418,44.383,10.661
	c14.168,3.089,28.306,6.003,42.65,8.107c30.283,3.726,60.902,4.339,91.22,0.678c4.372-0.636,8.74-1.29,13.124-1.872
	c-2.614,0.352-5.228,0.703-7.842,1.054c13.185-1.842,26.199-6.424,38.742-10.705c9.651-3.295,19.222-6.823,28.711-10.56
	c4.778-1.882,9.537-3.812,14.276-5.791c1.104-0.474,2.207-0.948,3.308-1.427c2.419-1.054,4.834-2.115,7.242-3.195
	c30.053-13.476,59.855-28.675,86.575-48.064c1.299-0.943,2.584-1.904,3.868-2.868c0.05-0.041,0.102-0.08,0.153-0.121
	c2.662-2.146,5.29-4.337,7.837-6.619c4.882-4.374,9.585-8.985,13.794-14.02c0.084-0.101,0.165-0.204,0.249-0.305
	c0.39-0.55,0.774-1.104,1.147-1.665c1.463-2.204,2.849-4.466,4.044-6.828c0.027-0.054,0.055-0.11,0.083-0.166
	c0.084-0.253,0.177-0.503,0.255-0.757c0.285-0.923,0.533-1.852,0.759-2.785c0.012-0.496,0.013-0.993,0.004-1.49
	C667.965,723.132,667.86,722.734,667.742,722.34z"/>
<path stroke="#000000" stroke-width="2.8346" stroke-miterlimit="10" d="M982.123,189.715c-1.186-0.882-2.357-1.76-3.528-2.643
	c0.23,0.174,0.5,0.378,0.779,0.593C980.021,188.149,980.914,188.815,982.123,189.715z"/>
<path stroke="#000000" stroke-width="2.8346" stroke-miterlimit="10" d="M1093.771,400.697c0.086,0.043,0.168,0.091,0.254,0.133
	C1095.979,401.786,1099.853,402.953,1093.771,400.697z"/>
</svg>
