<svg xmlns="http://www.w3.org/2000/svg" width="1921" height="1080" viewBox="0 0 1921 1080"><defs><style>.a{fill:none;stroke:#000;stroke-miterlimit:10;stroke-width:3px;}</style></defs><title>03_EasyMaze</title><path class="a" d="M7,559.25c73.45,5.88,140.77,11.95,214.19,2.92,80.65-9.91,155.95-35.24,220.17-86.18,56.16-44.55,97.07-104.35,141.87-159.5,22.68-27.92,46.55-55.12,74-78.53,3-2.57,6.07-5.07,9.14-7.55,5.3-4.29.64-.48-.4.29,1.81-1.33,3.61-2.69,5.43-4q12.91-9.33,26.6-17.51a492.21,492.21,0,0,1,51.86-26.49c9.8-4.4-5,1.92,1.16-.5,2.06-.81,4.11-1.67,6.17-2.49q7-2.77,14-5.37,14-5.21,28.25-9.84c18.59-6.09,37.37-11.61,56.24-16.75,35-9.55,70.53-17.51,106.46-22.75.42-.06,10.59-1.36,3.94-.57-5.7.68,1-.1,2.4-.27q6.94-.84,13.89-1.53,13.85-1.37,27.75-2.09a491.18,491.18,0,0,1,55,.17c8.06.5,16.07,1.33,24.1,2.17,9.91,1-6.45-1.08-.18,0,2,.33,4,.6,5.94.92q7.41,1.21,14.76,2.71A332.32,332.32,0,0,1,1160,140.92c2.34.88,4.65,1.85,7,2.73,5.33,2-6.41-2.94-1.24-.52,4.11,1.92,8.26,3.74,12.32,5.75q12.32,6.09,24,13.31c7.57,4.67,14.75,9.81,22,15,5.22,3.74-7.12-6,.81.68,1.64,1.39,3.33,2.73,5,4.12q6.19,5.23,12.11,10.77a392.21,392.21,0,0,1,38.79,42.19c1.29,1.62,5.81,7.62.86,1,1.33,1.77,2.66,3.53,4,5.31q3.95,5.34,7.76,10.79,8.57,12.25,16.5,24.94a458.29,458.29,0,0,1,28.59,52.64c.92,2,1.8,4.08,2.72,6.11-3.29-7.25-.77-1.87-.16-.3,1.8,4.69,3.63,9.35,5.29,14.1a296.76,296.76,0,0,1,8.92,30.55q1.53,6.55,2.72,13.18a42,42,0,0,1,1.11,6.66c0-7.78-.33-3-.13-.95a260.91,260.91,0,0,1,1.39,28.68q-.1,6.82-.62,13.63c-.15,2-.37,4-.55,6-.51,5.76-1.52-.08.29-1.64-1.45,1.25-1.69,9.85-2.11,11.86q-1.53,7.32-3.61,14.51-1.86,6.41-4.19,12.67c-1,2.69-1.75,8.65.16,0-.35,1.61-1.8,4-2.46,5.31a163.79,163.79,0,0,1-13.35,22.42c-4.65,6.65.68-1.35,1-1.25-.1,0-3.26,3.82-3.76,4.37q-4.26,4.74-9,9.05c-1.71,1.57-3.5,3-5.25,4.58-3.9,3.42.59,1.34,1.55-1.19-1,2.68-8.83,5.91-11.44,7.43-3.13,1.82-6.37,3.41-9.58,5.06-6.15,3.16,1.08-.45,2.14-.74-1.66.45-3.4,1.36-5,2a157.56,157.56,0,0,1-24.81,6.85c-1,.19-6.16,1.7-6.72,1.16,0,0,10.45-1,2.48-.39-3.66.28-7.3.65-11,.81a202.06,202.06,0,0,1-24.92-.48c-2.31-.19-4.62-.48-6.93-.67-5.6-.47,7.88,1.31,2.34.33-4.13-.73-8.25-1.37-12.35-2.23a229.5,229.5,0,0,1-24.18-6.47c-3.67-1.2-7.31-2.5-10.93-3.86-2.57-1-5.1-2-7.65-3-5.55-2.19,5.83,2.77.47.15-9.41-4.6-18.88-8.91-28.09-13.91-34.36-18.61-66.25-41.31-98.83-62.79-68.73-45.33-144.66-82.41-227-93.84-78-10.83-157.38.84-224.78,43.24-61.89,38.94-110.41,98.78-131,169.39-12.39,42.54-15.28,90.89-1.48,133.47,12,37.07,35.36,69.49,65.58,93.91,32.09,25.93,67.77,43.61,105.81,59.12A720.09,720.09,0,0,0,749,898.73c83.14,18.15,168.58,24.46,253.5,26.15,78.67,1.57,164,3.93,234.33-37,36.3-21.1,63.19-52.56,87.67-86,10.83-14.79,21-30,31.66-45q4.09-5.75,8.27-11.43c1.24-1.68,2.49-3.34,3.74-5,4.5-6,0-.36-.55.69,4.29-8.15,13.11-15.94,19.32-22.71a406,406,0,0,1,39.3-37.41q2.37-2,4.76-3.91c.2-.17,8.15-6.44,3.2-2.59-4.22,3.28,1-.75,2.07-1.53q3.08-2.29,6.19-4.54,11.2-8,22.89-15.39a475.57,475.57,0,0,1,48.18-26.48q5.5-2.63,11.07-5.12c1.85-.83,3.72-1.64,5.58-2.46,7.07-3.11-.45-.14-1.14.47,2.78-2.46,9.37-3.77,12.73-5.06q7.1-2.72,14.27-5.23c36.67-12.86,74.48-21.33,112.86-27.16,1.45-.22,7.87-1,.37-.08,2.45-.31,4.9-.62,7.35-.92q8.27-1,16.55-1.8,17.5-1.72,35.05-2.7c21.59-1.23,43.21-1.58,64.83-1.59,64,0,123,5,123,4.65V540c-1-23,1.5-39.5,0-40.35-.3-.17-276-46.65-483.21,79.6-33.45,20.38-65.26,44.58-92.76,72.5s-49.57,60-71.89,91.89c-5.39,7.7-10.82,15.37-16.44,22.9-1.23,1.64-2.42,3.41-3.75,5,.85-1,5.16-6.45.52-.77-3.25,4-6.49,8-9.88,11.81a247.36,247.36,0,0,1-18,18.6c-1.91,1.76-7.51,8.51-10.32,8.91.48-.07,7.72-5.46.73-.65-2.61,1.79-5.18,3.63-7.85,5.34-7,4.51-14.42,8.18-21.84,12-8.9,4.56,5.48-1.92-.37.25-1.93.72-3.83,1.5-5.76,2.21q-7.24,2.66-14.65,4.81c-8.43,2.46-17,4.45-25.61,6.06-3.93.74-8.3,2-12.29,2,9.32-.11,2.42-.32-.22,0s-5.19.58-7.79.83c-38.92,3.76-78.33,2.71-117.36,1.85-40.79-.9-81.58-2.88-122.2-6.86q-15.64-1.54-31.25-3.48l-6.92-.89c1.53.2,8.05,1.15.26,0-5.75-.84-11.5-1.69-17.24-2.6-20.64-3.3-41.18-7.27-61.53-12q-29.7-6.94-58.78-16.23-14.15-4.55-28.09-9.7-6.58-2.44-13.1-5c-2.72-1.08-5.42-2.22-8.15-3.28-4.34-1.69,5.12,2.3-1.8-.76-16-7.1-31.83-14.67-46.87-23.75-7-4.21-13.77-8.7-20.34-13.52-2.6-1.91-7.42-3.31.12.15-1.37-.63-3.4-2.78-4.42-3.64q-5.46-4.61-10.59-9.6c-5.16-5-11.62-10.66-15.3-16.9,5.59,9.46-1.69-2.83-2.88-4.7q-3.89-6.08-7.19-12.5c-1-1.91-2.83-4.47-3.16-6.57.14.89,3.1,8.52.66,1.37-1.44-4.21-2.92-8.37-4.1-12.67-1.22-4.45-2-9-3-13.47-2.33-10.64.1,5.25-.24-1.37-.15-2.89-.53-5.77-.68-8.66a219.41,219.41,0,0,1,.88-31.37c.16-1.79,1.38-7.66-.08.25.42-2.28.74-4.58,1.16-6.86q1.36-7.35,3.19-14.61a236.14,236.14,0,0,1,7.08-23c.8-2.2,1.68-4.38,2.5-6.57,1.19-3.18.18-4.95-.79,1.8.58-4.06,4.09-8.91,6-12.61q5-9.9,11-19.31,3.31-5.27,6.88-10.37c1.32-1.89,2.7-3.73,4-5.61,4.28-6-3.53,4.22-.37.44a306.25,306.25,0,0,1,33.23-34.71c3.1-2.71,6.31-5.26,9.46-7.91,4.52-3.79-7.94,5.72-.51.4,1.48-1.06,2.94-2.16,4.42-3.22q10-7.13,20.57-13.37,9.94-5.85,20.34-10.87c3.63-1.75,7.51-3.16,11.06-5-.88.47-8.61,3.43-2.08,1,2.52-1,5-1.93,7.54-2.85a262.16,262.16,0,0,1,46.07-12c2.24-.37,9.83-1.83,1-.26,2.16-.38,4.46-.53,6.63-.76q6.62-.69,13.27-1.08,14.92-.88,29.88-.35c9.26.32,20.93-.36,29.82,2.35-1.24-.38-8.55-1.31-.72-.08,2.2.35,4.4.68,6.6,1.05q8.25,1.4,16.44,3.15a436.14,436.14,0,0,1,58.34,16.94q6.4,2.34,12.73,4.85c2.11.84,4.21,1.72,6.33,2.56-7.22-2.89-1.57-.68-.12,0,9.91,4.44,19.75,9,29.43,13.91,17.75,9,35,19,51.81,29.64,65.9,41.63,129.88,94.33,208,110.72,37.48,7.86,77.07,8.71,114.13-2,39-11.26,71.7-34.62,95.75-67.09,48.46-65.39,47.55-158,20.53-231.59-14.63-39.84-35-77.14-59.32-111.87-23.2-33.16-49.43-64.85-81-90.41-63.48-51.42-139.8-76.67-220.95-80.82-75.56-3.86-152,10-224.7,29.74-80.36,21.79-159,50.58-224.9,102.73-56.24,44.51-97.16,104.58-142,159.74C446.6,360.14,423.1,386.91,396.19,410c-3,2.57-6.05,5-9.09,7.55-5.56,4.59.23,0,1.12-.8-1.85,1.63-4,3-6,4.46q-12.07,8.74-24.9,16.35-10.62,6.29-21.69,11.78-6.18,3.06-12.47,5.87c-1.22.55-7.31,3.12-2.23,1,5.43-2.26-4,1.57-5.12,2A395.3,395.3,0,0,1,264.88,474q-13.39,3.19-27,5.57-6,1.07-12.12,2c-2,.3-4.08.72-6.09.89,10.74-.9.16-.07-1.6.14-36.67,4.3-73.68,5.07-110.56,4.12C71.65,485.73,7,479,7,479.25,7,480,6.09,505.59,7,526c1,23.1,0,33,0,33.25Z"/></svg>