<svg xmlns="http://www.w3.org/2000/svg" width="1921" height="1081" viewBox="0 0 1921 1081"><title>Untitled-1</title><rect x="0.5" y="0.5" width="1920" height="1080" style="fill:none;stroke:#000;stroke-miterlimit:10"/><path d="M7054,7079.89c-10.69,55.82-2.08,75.35,8.53,82.44,12.09,8.08,44.7,12,58.34,16.94,6.55,2.39,12.73,4.85,12.73,4.85,3.16,1.26,6.33,2.56,6.33,2.56s-3.59-1.46-3.59-1.45,3.23,1.35,3.47,1.45c4,1.65,17.36,7.59,29.43,13.91,30,15.68,51.81,29.64,51.81,29.64,114.91,73.39,172.36,110.09,208,110.72,49.71.88,78.09-25,119.49-3.78,5.94,3,28.35,14.5,29.08,31.08,8.92,12.92,72.24,40.85,86.16,29.27q2.37-2,4.76-3.91c.2-.17,8.15-6.44,3.2-2.59-4.22,3.28,1-.75,2.07-1.53q3.08-2.29,6.19-4.54,11.2-8,22.89-15.39a475.57,475.57,0,0,1,48.18-26.48q5.5-2.63,11.07-5.12c1.85-.83,3.72-1.64,5.58-2.46,7.07-3.11-.45-.14-1.14.47,2.78-2.46,9.37-3.77,12.73-5.06q7.1-2.72,14.27-5.23c36.67-12.86,74.48-21.33,112.86-27.16,1.45-.22,7.87-1,.37-.08l7.35-.92q8.27-1,16.55-1.8,17.5-1.72,35.05-2.7c21.59-1.23,43.21-1.58,64.83-1.59,64,0,123,5,123,4.65V7256.5c-1-23,1.5-39.5,0-40.35-61.65-34.94-304.38-11.65-483.17,79.59h0c-8.14,2.55-22.19,3.59-30.51-4.58-.78-.77-6.5-6.53-5.33-12.67a11.72,11.72,0,0,1,4.39-6.64c8.35-6.88,65.24-109.2,27.61-231.36-15-48.74-45.23-81.84-66.4-112.1-23.2-33.16-49.43-64.85-81-90.41-63.48-51.42-139.8-76.67-220.95-80.82-75.56-3.86-152,10-224.7,29.74-80.36,21.79-159,50.58-224.9,102.73-56.24,44.51-97.16,104.58-142,159.74-22.45,27.26-46,54-72.86,77.12-3,2.57-6,5-9.09,7.55-5.56,4.59.23,0,1.12-.8-1.85,1.63-4,3-6,4.46q-12.07,8.74-24.9,16.35-10.62,6.29-21.69,11.78-6.18,3.06-12.47,5.87c-1.22.55-7.31,3.12-2.23,1,5.43-2.26-4,1.57-5.12,2a395.3,395.3,0,0,1-50.93,15.79q-13.39,3.19-27,5.57-6,1.07-12.12,2c-2,.3-4.08.72-6.09.89,10.74-.9.16-.07-1.6.14-36.67,4.3-73.68,5.07-110.56,4.12-35.86-1-100.51-7.72-100.51-7.47,0,7.12-1,10.95,0,46.75.37,13.79.21,25.26,0,33.25,73.45,5.88,140.77,12,214.19,2.92,80.65-9.91,156-35.24,220.17-86.18,56.16-44.55,97.07-104.35,141.87-159.5,22.68-27.92,46.55-55.12,74-78.53,3-2.57,6.07-5.07,9.14-7.55,5.3-4.29.64-.48-.4.29,1.81-1.33,3.61-2.69,5.43-4q12.91-9.33,26.6-17.51a492.21,492.21,0,0,1,51.86-26.49c9.8-4.4-5,1.92,1.16-.5,2.06-.81,4.11-1.67,6.17-2.49q7-2.77,14-5.37,14-5.21,28.25-9.84c18.59-6.09,37.37-11.61,56.24-16.75,35-9.55,70.53-17.51,106.46-22.75.42-.06,10.59-1.36,3.94-.57-5.7.68,1-.1,2.4-.27q6.94-.84,13.89-1.53,13.85-1.37,27.75-2.09a491.18,491.18,0,0,1,55,.17c8.06.5,16.07,1.33,24.1,2.17,9.91,1-6.45-1.08-.18,0,2,.33,4,.6,5.94.92q7.41,1.21,14.76,2.71a332.32,332.32,0,0,1,50.26,14.41c2.34.88,4.65,1.85,7,2.73,5.33,2-6.41-2.94-1.24-.52,4.11,1.92,8.26,3.74,12.32,5.75q12.32,6.09,24,13.31c7.57,4.67,14.75,9.81,22,15,5.22,3.74-7.12-6,.81.68,1.64,1.39,3.33,2.73,5,4.12q6.19,5.23,12.11,10.77a392.2,392.2,0,0,1,38.79,42.19c1.29,1.62,5.81,7.62.86,1l4,5.31q3.95,5.34,7.76,10.79,8.57,12.25,16.5,24.94a458.3,458.3,0,0,1,28.59,52.64c.92,2,1.8,4.08,2.72,6.11-3.29-7.25-.77-1.87-.16-.3,1.8,4.69,3.63,9.35,5.29,14.1a296.76,296.76,0,0,1,8.92,30.55q1.53,6.55,2.72,13.18a42,42,0,0,1,1.11,6.66c0-7.78-.33-3-.13-1a260.92,260.92,0,0,1,1.39,28.68q-.1,6.82-.62,13.63c-.15,2-.37,4-.55,6-.51,5.76-1.52-.08.29-1.64-1.45,1.25-1.69,9.85-2.11,11.86q-1.53,7.32-3.61,14.51-1.86,6.41-4.19,12.67c-1,2.69-1.75,8.65.16,0-.35,1.61-1.8,4-2.46,5.31a163.79,163.79,0,0,1-13.35,22.42c-4.65,6.65.68-1.35,1-1.25-.1,0-3.26,3.82-3.76,4.37a126.64,126.64,0,0,1-9,9c-1.71,1.57-3.5,3-5.25,4.58-3.9,3.42.59,1.34,1.55-1.19-1,2.68-8.83,5.91-11.44,7.43-3.13,1.82-6.37,3.41-9.58,5.06-6.15,3.16,1.08-.45,2.14-.74a48.68,48.68,0,0,0-5,2,157.56,157.56,0,0,1-24.81,6.85c-1,.19-6.16,1.7-6.72,1.16,0,0,10.45-1,2.48-.39-3.66.28-7.3.65-11,.81a202.06,202.06,0,0,1-24.92-.48c-2.31-.19-4.62-.48-6.93-.67-5.6-.47,7.88,1.31,2.34.33-4.13-.73-8.25-1.37-12.35-2.23a229.5,229.5,0,0,1-24.18-6.47c-3.67-1.2-7.31-2.5-10.93-3.86l-7.65-3c-5.55-2.19,5.83,2.77.47.15-9.41-4.6-18.88-8.91-28.09-13.91-34.36-18.61-66.25-41.31-98.83-62.79-68.73-45.33-144.66-82.41-227-93.84" transform="translate(-6239.5 -6659.5)" style="fill:none;stroke:#000;stroke-miterlimit:10;stroke-width:3px"/></svg>