<svg xmlns="http://www.w3.org/2000/svg" width="1921" height="1081" viewBox="0 0 1921 1081"><title>04_Maze</title><path d="M709.18,380.54l.64-1.25-63.06-37.55-92.13,218,1.52.52C583.3,569.54,607.44,583,627.49,595l1,.63,45.22-49.09,3.19-.92,35.68,37-40.72,43.76,1.27,1c43.44,34.65,81.37,75.86,116,126l.83,1.21,1.23-.81c55.11-36.3,87.84-82,100.08-139.7l.33-1.58-1.6-.22a364,364,0,0,1-110.16-33.09c-33.26-16.17-65-38.08-94.44-65.15L684.25,513l-26.75,32.21-42.82-32,.36-.41C658.71,463.46,687.75,422.67,709.18,380.54ZM658,549.29l26.56-32c29.3,26.77,60.92,48.49,94,64.57A366.76,366.76,0,0,0,888,615c-12.24,55.72-44.06,100-97.24,135.43C756.56,701.11,719.1,660.39,676.31,626l40.45-43.48-38.91-40.33-5.73,1.66L628,591.82c-19.59-11.68-43-24.68-69.34-33.84l89.54-211.9,57.69,34.35c-21.25,41.45-50,81.73-93.08,130.38l-2.52,2.85Z" transform="translate(0.76 1.16)"/><path d="M1438.64,616.68c3.92-42.38,31.55-98.79,96.55-118.28,7.2-2.16,14.62-3.85,21.79-5.48,2.81-.64,5.7-1.3,8.54-2l1-.25,16.9-160.75-3.34,4.83c-3.24,4.68-6.46,9.42-9.6,14-8.37,12.29-17,25-26.13,37-29.25,38.66-63.2,69.81-100.9,92.6-38.52,23.29-82,38.48-129.29,45.15-39.72,5.61-77.49,2.47-112.27-9.33a6.43,6.43,0,0,0-4.81.88c-37,25.31-71.48,44.64-105.29,59.11-36.66,15.68-76.42,30.84-118.81,35.49l-18.46,2-8.94,1-.36,1.68c-.31,1.45-.62,2.89-.91,4.34-7.48,37.24-20.52,69.28-39.88,97.94-34.85,51.62-85.62,84.48-126,107.33-1.28.72-4.36-.33-5.25-1.53-5-6.81-10.31-14.29-16.11-22.88-28.25-41.82-56.72-76.24-87-105.23-5.41-5.18-11.06-10-17.07-15.1-2.1-1.79-4.26-3.62-6.43-5.5l-1.54-1.33-.81,1.87c-16.6,38.31-26,80.14-29.61,131.62l-.13,1.83,1.82-.23c.4-.05.73-.1,1.06-.16l17-3.09c20.77-3.79,42.24-7.71,63.5-11.71a12,12,0,0,1,2.22-.23c2.21,0,3.77.87,5.4,3C719.57,814,736.26,835.82,753,857.18c6.15,7.86,12.38,15.36,19,23.36q3.52,4.23,7.06,8.52l1.33,1.62,2.51-4.08,9.94-16.25c9.72-15.88,19.77-32.31,29.5-48.55,2.21-3.69,4.75-4.62,9-3.32l2,.62c8.41,2.55,17.11,5.18,25.81,7.19,33.77,7.79,68.14,15.56,101.39,23.08L982,854.18c6.17,1.39,12.29,2.72,18.77,4.12l8.35,1.8-4.67-4.75c-3.94-4-7.65-7.78-11-11.85-16.59-20-35.92-37.78-54.62-55l-2.82-2.6a53.67,53.67,0,0,1-5.83-6.76c-1-1.27-2.09-2.7-3.34-4.21l-.53-.65.82-.16a376.78,376.78,0,0,0,119.51-45.69c33.8-19.87,65.85-45.11,98-77.14l1.19-1.18-32.26-25.88,39-36.35.34.28c36.32,29.74,75.51,53.29,109.06,72.41l1.34.76,43.64-81.9.4.13,10,3.2.16,0c11.91,3.8,24.23,7.72,36.3,11.75,1.68.56,3.29,2.91,3.56,4.55,3.32,20.28,6.43,40.2,9.26,59.22,6.09,41,17.81,83.13,38,136.67,1,2.6,2.06,3,5,2.76,4-.26,8-.55,12.06-.85h.12c13.51-1,27.46-2,41.21-1.85,48.33.51,99.64,9.78,156.86,28.33.71.23,1.45.42,2.14.59l1.29.32,3.81-9.85c3.17-8.21,6.16-16,9.32-24,2.78-7,5.48-13.49,8.25-19.74,1.21-2.74,3.54-3.64,6.38-2.47l5.59,2.31c9.95,4.1,20.24,8.35,30.46,12.27,5,1.9,6.32,5.09,4.4,10.35l-2.21,6.06c-3,8.13-6,16.54-9.15,24.83-2,5.21-4,10.42-6,15.46l-.07.19-2,5.1-.45,1.15,41.6,26.26.85-.91a480.41,480.41,0,0,0,98.42-158.89l.59-1.58-1.64-.41a288.27,288.27,0,0,0-65.86-8.24c-2.75-.07-3.45,1.35-4.46,3.52h0c-5.44,11.68-13.1,26.75-24.08,39.69-2,2.39-4.06,4.68-6.24,7.13l-3,3.34-.36.41-37.21-38.8.35-.35c19.93-19.78,33.26-51.91,37.54-90.5,3.61-32.49.08-66.26-9.21-88.12l-.53-1.25-1.3.41A221.79,221.79,0,0,1,1617.15,548l-1.5-.08-12.32,220.21h-.48c-31.37-.41-57.34-2.92-82.12-13.84C1465.39,729.91,1433.16,675.88,1438.64,616.68Zm167.54,154.53,12.31-220.1A224.58,224.58,0,0,0,1696.61,541c8.71,21.44,12,54,8.47,85.36-4.21,37.9-17.23,69.4-36.67,88.7l-2.44,2.42,41.52,43.28,2.52-2.86,3-3.36c2.16-2.44,4.21-4.74,6.25-7.15,11.21-13.21,19-28.51,24.51-40.36.84-1.81.84-1.81,1.68-1.79A286.07,286.07,0,0,1,1809,713a477.33,477.33,0,0,1-96.36,155.41l-37.4-23.61,1.55-3.94.07-.19c2-5,4-10.27,6-15.5,3.12-8.3,6.19-16.71,9.16-24.85l2.21-6.06c2.48-6.79.36-11.7-6.14-14.18-10.19-3.9-20.46-8.14-30.39-12.24l-5.6-2.31c-4.36-1.79-8.39-.21-10.26,4-2.79,6.29-5.5,12.78-8.3,19.85-3.17,8-6.16,15.77-9.33,24l-2.84,7.36-.67-.2c-57.51-18.64-109.11-28-157.75-28.47-13.86-.14-27.89.87-41.46,1.85h-.15c-4,.29-8,.58-12,.84a13.36,13.36,0,0,1-1.62,0,5.19,5.19,0,0,1-.39-.87c-20.1-53.33-31.77-95.3-37.83-136.06-2.83-19-5.95-39-9.27-59.26-.42-2.57-2.67-5.95-5.57-6.92-12.08-4-24.42-8-36.34-11.77l-.16-.05-10-3.2-2.78-.89L1262,657.17c-33.14-18.92-71.64-42.15-107.3-71.36l-2.37-1.94-43.45,40.5,32.35,25.95c-31.55,31.3-63,56-96.19,75.5a373.81,373.81,0,0,1-118.57,45.33l-5.75,1.14,3.73,4.52c1.22,1.48,2.27,2.83,3.29,4.15a55.64,55.64,0,0,0,6.16,7.12l2.82,2.6c18.63,17.17,37.88,34.92,54.35,54.72,2.77,3.33,5.73,6.45,8.85,9.64-5.94-1.28-11.6-2.51-17.29-3.8l-21.35-4.83c-33.23-7.51-67.6-15.28-101.36-23.07-8.6-2-17.25-4.61-25.61-7.14l-2-.62c-5.6-1.7-9.57-.22-12.48,4.65-9.73,16.23-19.77,32.65-29.5,48.55L780.35,885l-.31.5-5.78-7c-6.58-7.92-12.8-15.41-18.93-23.23C738.63,834,722,812.14,707.85,793.58c-2.21-2.91-4.61-4.2-7.79-4.2a14.88,14.88,0,0,0-2.77.28c-21.24,4-42.72,7.92-63.48,11.71l-16,2.93c3.61-49.43,12.67-89.85,28.43-126.87l4.92,4.2c5.95,5.06,11.56,9.84,16.91,15,30.15,28.84,58.48,63.1,86.61,104.74,5.82,8.62,11.12,16.14,16.19,23,1.73,2.34,6.38,3.92,9.14,2.35,40.62-23,91.76-56.13,127-108.26,19.58-29,32.78-61.39,40.34-99,.26-1.29.53-2.57.81-3.87l6.78-.75,18.46-2c42.78-4.7,82.79-19.94,119.66-35.72,34-14.54,68.6-34,105.8-59.39a3.92,3.92,0,0,1,2.15-.52c35.23,11.95,73.47,15.13,113.66,9.46,47.67-6.73,91.55-22.06,130.42-45.55,38-23,72.26-54.39,101.74-93.35,9.16-12.1,17.83-24.84,26.22-37.16,2.05-3,4.14-6.08,6.25-9.15l-15.45,146.93c-2.49.59-5,1.17-7.48,1.73-7.22,1.64-14.69,3.34-22,5.53-66.43,19.92-94.67,77.56-98.68,120.88-5.6,60.51,27.33,115.73,83.88,140.67,25.24,11.13,51.55,13.69,83.29,14.1Z" transform="translate(0.76 1.16)"/><path d="M1117.45,222.28c-17-6.3-34.63-12.82-51.91-19.32a6.77,6.77,0,0,0-2.39-.55,4.48,4.48,0,0,0-3.43,2c-10.79,12.69-19.84,23.12-28.49,32.81-2,2.24-2.23,3.66-1.06,6.33,11.69,26.55,29.7,50,53.52,69.58,4.29,3.53,8.88,6.66,13.74,10q2.2,1.5,4.48,3.07l1.91,1.32.42-2.28c5.82-31.52,17.52-61.84,35.77-92.68l.91-1.54-1.68-.62L1119.38,223Zm-15.72,100.11-2.6-1.77c-4.8-3.27-9.34-6.37-13.53-9.81-23.46-19.32-41.18-42.36-52.68-68.47-.68-1.54-.7-1.72.55-3.12,8.67-9.72,17.74-20.16,28.54-32.87.79-.93,1-.93,1.14-.93a5.09,5.09,0,0,1,1.33.36c17.28,6.5,34.89,13,51.92,19.33l1.93.71,18.19,6.74C1119.05,262.42,1107.65,291.85,1101.73,322.39Z" transform="translate(0.76 1.16)"/><path d="M1509.78,576.23A85.67,85.67,0,0,0,1491,627.32c-.55,20.47,5.82,39.32,18.41,54.49a85,85,0,0,0,42.11,27.37l1.79.5L1563,545.72l-1.9.37C1540.08,550.17,1522.35,560.59,1509.78,576.23Zm50-26.8-9.17,156.33c-29.25-8.92-57.68-36.29-56.55-78.36a82.66,82.66,0,0,1,18.09-49.29C1523.86,563.5,1540.29,553.61,1559.73,549.43Z" transform="translate(0.76 1.16)"/><path d="M828.13,914.16c-4.6,7.9-8.94,15.36-13.23,23-1.86,3.33-3.65,6.78-5.39,10.15-2.17,4.21-4.42,8.56-6.86,12.72a11.88,11.88,0,0,1-6.51,4.91,83.54,83.54,0,0,1-9.19,1.78c-2.31.36-4.71.73-7,1.25-4,.89-6.9-.24-9.55-3.66-10-12.86-19.9-25.52-28.29-36.2-20.07-25.55-39.72-50.54-59.36-75.35a5.21,5.21,0,0,0-3.21-1.87h-.13l-.13,0c-18.35,2.93-37,6.08-55.09,9.13l-7.53,1.27.16,1.41c1.94,17.22,4.66,35.6,11.38,53.44,1.66,4.4,2.66,7.43,1.58,9.54s-4.1,3-8.28,4.16c-9,2.43-18,4.82-27.4,7.3l-13,3.44-.17-.39c-9.19-20.47-12.79-42.36-16.23-66.8l-.22-1.59-55.24,11.61-10.8-51.77.28-.19c.25-.17.45-.33.66-.48a2.56,2.56,0,0,1,1.05-.6l11.4-2.32c14.69-3,29.88-6.08,44.88-9,4.06-.78,5.26-2.27,5.36-6.66,1.36-57.66,12.9-111.58,34.29-160.25,1.08-2.46,2.27-4.88,3.56-7.5l1.66-3.38-1.16-.71c-24.41-15-45.53-25.17-66.48-32l-1.29-.42-.55,1.24q-2.6,5.87-5.21,11.7c-4.26,9.53-8.67,19.39-12.76,29.15l-2.8,6.67c-11.36,27-23.1,55-34.15,82.74-5.74,14.41-10.93,29.31-15.94,43.73l-.14.41q-1.95,5.59-3.9,11.18c-1.28,3.64-3.37,5.52-7.2,6.48-9.3,2.33-18.49,5-25.45,7.16-3,.9-4.74.26-6.31-2.3C407,788,391.76,772.69,377,757.85l-3.13-3.16c-18.86-19-40.19-36.43-65.21-53.19-11.32-7.58-23.86-13.74-36-19.71l-.12-.06c-4.45-2.19-9.05-4.45-13.53-6.75l-.34-.13a6.38,6.38,0,0,0-4.14,1.32c-9.47,7.67-19.06,15.51-28.4,23.16l-.12.1c-9.28,7.6-18.88,15.46-28.36,23.13-3.29,2.67-6.83,5.09-10.25,7.43-1.58,1.08-3.16,2.17-4.72,3.27l-.41.29-49.58-71.13-1.15,2.18c-26.3,49.9-34.09,98.33-23.81,148.05l.31,1.49,1.49-.33c57.78-13,111.5-39.23,163.45-64.62l.82-.4q9.38-4.58,18.78-9.15l.4-.19.24.37c12.88,19.7,25.07,42.08,37.25,68.41,7.56,16.35,14.83,33.14,21.87,49.38l.12.27q4.34,10,8.7,20l.42,1,86-5.8v54.08h-.51c-70.85-1.51-139.64,13.77-204.45,45.46l-.47.23-20.78-49,.45-.2c29.15-12.93,55.58-24.2,83.83-31.31l1.53-.39-.46-1.51c-9.5-30.9-22.75-58-34.46-80.45l-.68-1.3-1.31.65c-54.44,26.79-97.9,43.47-140.9,54.08l-1.83.45.86,1.68c4.73,9.3,11.11,17.3,17.29,25,3.59,4.5,7.3,9.15,10.65,14l.28.4L113.22,936.5,71.72,878.07l-39.1,4-.08-.46c-.54-3-1.07-6-1.59-8.94-1.2-6.69-2.33-13-3.37-19.37-.37-2.28-.63-4.62-.88-6.87a87.43,87.43,0,0,0-1.58-10.39c-.5-2.12-.35-3.69.44-4.82,1.05-1.49,3.08-1.87,4.52-2,4.64-.52,9.49-.93,13.77-1.3l.36,0c2.42-.21,4.83-.42,7.24-.64,1.07-.1,2.14-.27,3.38-.46l1.64-.3-.31-1.5c-7.37-36.11-7.49-72-.37-106.54,6.86-33.33,20.69-66.65,41.11-99.05l.57-.9-.67-.83c-20.74-25.87-40-46.05-60.72-63.51l-.41-.34,36.76-38.22.36.3c37.34,31.68,67.12,70.55,95.92,108.14,8.31,10.84,16.9,22.05,25.57,33l1,1.25,1.19-1.07q4.06-3.66,8-7.31l.08-.07c6.73-6.13,13.68-12.47,20.7-18.41,40.74-34.46,78.53-66.23,115.55-97.14,6.59-5.5,13.56-10.71,20.31-15.75q4.13-3.08,8.24-6.19a30.27,30.27,0,0,1,3.34-2.11l1-.55c3.79-2.21,7-1.93,10.85,1,26.45,20,51.69,42,73.27,61.11,2.75,2.43,4,4.7,1.66,8.52-3.21,5.27-6.36,10.7-9.45,16-3.67,6.33-7.47,12.87-11.4,19.18C428.3,632,417.5,648.66,407.05,664.75l-.47.73a72.21,72.21,0,0,1-5.12,6.69c-.78.93-1.54,1.85-2.25,2.76l-.33.42L359.7,640.51l34.44-54.16-16-14.54-77.42,63.9,2,1C343,657.27,379.8,685.27,422,727.54l1.57,1.57L592.27,335.89l-4.26,2.9C478.94,413.23,348.82,500,210.77,579l-.36.21-5.93-7.12c-4.07-4.88-8-9.6-11.92-14.33q-5.68-6.87-11.34-13.78l-5.71-7,.24-.32c3.49-4.54,7.09-9.09,10.57-13.5l.1-.13c7.68-9.72,15.63-19.77,22.77-30.08,24.08-34.74,49-70.66,65.34-111.67C285,355.1,290,331.65,289.89,309.65c-.1-14.58-1.75-33.37-13.78-49.3-10.09-13.37-23.87-20.71-41-21.83a99.7,99.7,0,0,0-55.9,13c-39.54,22.08-69.81,54-92.55,97.73-1.28,2.47-2.59,3.72-5.77,3.27-11.63-1.62-23-3.1-35.12-4.67l-.81-.1-11.56-1.5-.47-.06,0-.47c.31-3.82.56-7.63.81-11.31v-.13c.54-8.23,1.06-16,2.15-23.83,2.79-20,5.76-40.21,8.63-59.78,3.07-20.9,6.24-42.52,9.19-63.81,1.64-11.86,2.79-24,3.91-35.73v-.12c.49-5.18,1-10.54,1.55-15.81.17-1.61.31-3.22.47-5.1l.3-3.42,52.51,3.08,0,.5c-2,34.15-6.35,68.6-14,111.69l-.77,4.34,3.26-3c29.5-26.81,56.35-43.12,84.5-51.34,30.16-8.81,54.82-9.4,77.61-1.86,43.17,14.28,69.2,45.16,77.37,91.77,5.82,33.22-.5,64.66-7.44,91-9.55,36.26-27.15,67.56-43.1,93.38l-3.3,5.35,5.36-3.28c116.52-71.25,221.65-141.58,321.4-215l.29-.21.29.21c5.83,4.11,11.74,8.35,17.48,12.47,13.33,9.56,27.11,19.44,41.12,28.69,13.77,9.1,27.72,17.56,42.52,26.53,5.8,3.52,11.78,7.15,17.81,10.85l1.55,1,26.45-70.55-1.44-.51c-3-1.06-5.92-2.07-8.79-3.06l-.31-.11c-7.53-2.6-14.64-5.06-21.64-7.89-23.54-9.53-47.42-19.32-70.5-28.78l-.69-.28q-21.69-8.89-43.39-17.76c-1.22-.5-2.48-1.1-3.69-1.68-3.62-1.73-7.36-3.51-10.46-2.91s-5.89,3.67-8.6,6.65c-.91,1-1.85,2-2.78,2.94C544.41,252,495,288.53,452.42,318.53c-7.49,5.28-14.83,10.43-22.22,15.32a6.44,6.44,0,0,1-5.28.71c-7.39-3.16-13.89-6.23-19.88-9.38a9.42,9.42,0,0,1-4.38-5.23c-2-7.75-4-15.65-5.88-23.35l0-.11c-1.58-6.44-3.22-13.1-4.91-19.62-8.54-33-17.32-66.64-26.86-102.85-3.26-12.38-6.5-24.28-9.94-36.92q-2.3-8.46-4.62-17l-.5-1.86L345,119l.5,1.86c1.55,5.72,3.09,11.39,4.63,17.07,3.43,12.6,6.66,24.49,9.92,36.86,9.54,36.21,18.32,69.85,26.86,102.84,1.68,6.51,3.32,13.16,4.9,19.59l0,.16c1.88,7.66,3.83,15.58,5.88,23.35a12.36,12.36,0,0,0,5.89,7.12c6.06,3.19,12.64,6.29,20.1,9.49a9.41,9.41,0,0,0,8.12-1c7.43-4.92,14.78-10.08,22.29-15.37,42.64-30.07,92.21-66.65,136.53-110,1-1,2-2,2.92-3.08,2.26-2.48,4.82-5.29,6.94-5.71s5.56,1.22,8.59,2.67c1.2.57,2.55,1.22,3.85,1.75q21.7,8.85,43.38,17.76l.69.28c23.09,9.47,47,19.26,70.51,28.79,7.07,2.86,14.22,5.33,21.79,7.94l.31.11,7.33,2.55-24.1,64.28c-5.51-3.38-11-6.69-16.31-9.93C701.85,309.46,687.93,301,674.21,292c-14-9.22-27.72-19.08-41-28.64-5.72-4.1-11.64-8.35-17.48-12.46l-2.06-1.45-2,1.5C513.43,323.15,410.05,392.41,295.72,462.5c15.16-25,31.19-54.69,40.19-88.87,7-26.69,13.41-58.53,7.49-92.32C335,233.52,308.32,201.86,264,187.21c-23.39-7.74-48.62-7.16-79.39,1.83-27.56,8-53.85,23.69-82.44,49.08,7.24-41.22,11.37-74.61,13.33-107.75l.21-3.5-58.42-3.42-.57,6.39c-.16,1.79-.29,3.39-.46,5-.55,5.28-1.06,10.65-1.55,15.84v.12c-1.11,11.7-2.26,23.8-3.89,35.6-2.95,21.28-6.12,42.89-9.19,63.79C38.76,269.75,35.79,290,33,310c-1.11,7.94-1.62,15.76-2.17,24.06v.11c-.24,3.68-.5,7.48-.8,11.27l-.27,3.32,3.3.43,11.56,1.5.81.1c12.08,1.57,23.48,3,35.09,4.66,5.19.72,7.39-2,8.85-4.86,22.45-43.15,52.33-74.71,91.35-96.5A96.75,96.75,0,0,1,235,241.51c16.18,1.06,29.22,8,38.76,20.64,11.5,15.23,13.08,33.39,13.18,47.51.14,21.61-4.81,44.68-15.13,70.55-16.25,40.69-41,76.47-65,111.07-7.09,10.23-15,20.25-22.67,29.94l-.1.12c-3.49,4.41-7.09,9-10.6,13.53l-1.7,2.21,7.22,8.8q5.67,6.92,11.34,13.79c3.92,4.74,7.86,9.46,11.93,14.34l7.54,9.05,2.55-1.46C348.61,503.56,477.2,418,585.45,344.17L422.57,723.86c-41.08-40.93-77.16-68.42-116.46-88.74L378,575.78l12.25,11.1-34.46,54.18,43.47,38.65,2.3-2.92c.7-.89,1.44-1.78,2.22-2.71a74.29,74.29,0,0,0,5.32-7l.47-.73c10.45-16.1,21.26-32.76,31.6-49.37,4-6.35,7.76-12.92,11.48-19.32,3-5.24,6.19-10.66,9.38-15.9,3.68-6,.49-9.93-2.23-12.33-21.62-19.1-46.91-41.16-73.44-61.25-4.8-3.64-9.31-4-14.17-1.16l-.94.54a32.51,32.51,0,0,0-3.66,2.32q-4.09,3.11-8.21,6.17c-6.78,5.06-13.79,10.3-20.44,15.85-37,30.91-74.83,62.69-115.57,97.15-7.06,6-14,12.33-20.79,18.48l1,1.11-1.09-1q-3.41,3.1-6.85,6.23c-8.32-10.5-16.56-21.25-24.54-31.67-28.89-37.71-58.77-76.71-96.36-108.6l-2.51-2.13L31.3,554l2.85,2.41c20.31,17.14,39.28,36.95,59.64,62.27-20.3,32.42-34.07,65.77-40.94,99.14-7.1,34.5-7.08,70.22.06,106.21-.62.09-1.19.17-1.75.22-2.41.22-4.81.43-7.22.64l-.36,0c-4.3.37-9.16.79-13.84,1.3-2,.22-4.89.81-6.64,3.29-1.32,1.87-1.61,4.23-.91,7.23a85.22,85.22,0,0,1,1.52,10c.26,2.29.52,4.66.9,7,1,6.38,2.17,12.71,3.38,19.46.52,2.89,1,5.85,1.58,8.9l.57,3.21,40.14-4.15,42.25,59.47,48.2-35-1.94-2.81c-3.4-4.94-7.15-9.63-10.78-14.18-5.7-7.14-11.58-14.51-16.08-22.84,42.27-10.59,85.08-27.06,138.33-53.19,11.29,21.7,23.9,47.69,33.1,77.14-27.9,7.18-54,18.33-82.78,31.08l-3.15,1.4,23.17,54.63,3.32-1.62c64.38-31.48,132.69-46.68,203.07-45.16l3.58.08V869.86l-87.07,5.88q-4.16-9.5-8.27-19l-.12-.29c-7-16.25-14.32-33.05-21.89-49.44-12.24-26.47-24.5-49-37.46-68.79l-1.69-2.58-2.77,1.34q-9.41,4.56-18.79,9.15l-.82.4c-51.34,25.1-104.42,51-161.29,64.05-9.53-47.76-2.1-94.37,22.69-142.36l48.48,69.56,2.88-2c1.54-1.09,3.11-2.17,4.68-3.24,3.47-2.38,7.06-4.83,10.44-7.57,9.49-7.68,19.09-15.54,28.38-23.14l.18-.15c9.27-7.59,18.85-15.43,28.32-23.09a4.57,4.57,0,0,1,1.58-.68c4.38,2.25,8.87,4.46,13.22,6.59l.12.06c12,5.92,24.5,12,35.65,19.5,24.86,16.65,46,33.92,64.75,52.81l3.14,3.16c14.62,14.72,29.73,29.94,40.79,47.94,2.28,3.72,5.47,4.89,9.74,3.6,6.93-2.1,16.07-4.81,25.31-7.12,4.82-1.21,7.69-3.79,9.3-8.39q2-5.59,3.91-11.19l.14-.41c5-14.39,10.18-29.26,15.9-43.61,11-27.72,22.78-55.66,34.13-82.69l2.8-6.67c4.09-9.73,8.48-19.57,12.74-29.1q2.33-5.22,4.66-10.46c20,6.66,40.17,16.41,63.39,30.58l-.49,1c-1.27,2.59-2.47,5-3.58,7.55-21.55,49-33.18,103.34-34.55,161.39-.07,3.11-.4,3.3-2.93,3.78-15,2.88-30.21,6-44.91,9l-11.4,2.32a5.38,5.38,0,0,0-2.33,1.2c-.13.1-.28.22-.46.34l-1.94,1.32L506.92,887l55-11.57c3.41,24,7.08,45.64,16.24,66l1.22,2.71,15.43-4.09c9.36-2.48,18.39-4.87,27.41-7.3,4.93-1.33,8.54-2.51,10.17-5.68s.49-6.81-1.44-12c-6.42-17-9.13-34.69-11-51.3l4.73-.8c18-3,36.52-6.16,54.75-9.07a3.16,3.16,0,0,1,1,.71C700,879.46,719.65,904.44,739.73,930c8.39,10.68,18.31,23.33,28.28,36.18,3.36,4.34,7.48,5.89,12.58,4.75,2.21-.5,4.55-.86,6.84-1.22a85.81,85.81,0,0,0,9.5-1.85,14.73,14.73,0,0,0,8.31-6.28c2.48-4.23,4.74-8.61,7-12.89,1.71-3.32,3.49-6.75,5.33-10,4.28-7.64,8.62-15.09,13.21-23l2.69-4.62,32.47,67.56,2.7-1.3-34.93-72.67Z" transform="translate(0.76 1.16)"/><path d="M1841.87,620.34l-11.8,36-68-10.43a315.19,315.19,0,0,0,2.79-62.76c-1.13-20.46-5.26-41.15-12.6-63.22l.94-.49c38.21-19.42,70.7-45.31,96.56-77,54-66.12,54.15-154.5.27-225.15-13-17-29.56-31.25-50.77-43.61-2.79-1.63-2.83-2.06-1.79-4.74,1.55-4,2.76-8.16,3.93-12.17.46-1.58.92-3.15,1.4-4.72,1.72-5.64,3.44-11.28,5.19-17l3.4-11.17-54.64-18.11-1.34,2.75c-.18.36-.36.7-.54,1a13.66,13.66,0,0,0-1.27,2.87c-15.07,53.68-34.27,107.07-52.85,158.73-13.71,38.13-27.89,77.55-40.39,117l-1,3.11,53.9,21.38L1778,230a96.42,96.42,0,0,1,26.42,24.67c26.17,36.34,33.34,72.34,21.95,110-8.66,28.64-28.53,49.53-44.87,64.52-32.18,29.52-71.2,49.11-119.3,59.87a143.19,143.19,0,0,1-39.81,3c10.76-96,21.54-199.08,27.64-303.19l.1-1.71-3-.17-.1,1.71c-6.14,104.61-17,208.22-27.81,304.6l-.18,1.56,1.57.1a146.81,146.81,0,0,0,42.23-3c48.63-10.88,88.1-30.7,120.67-60.59,16.63-15.25,36.84-36.52,45.72-65.86,11.69-38.65,4.36-75.51-22.38-112.66-7.4-10.28-16.83-18.93-28.84-26.47l-1.59-1L1711.47,408.7l-48.41-19.2.14-.44c12.47-39.4,26.65-78.8,40.36-116.94,18.59-51.68,37.81-105.12,52.9-158.9a11,11,0,0,1,1-2.25c.2-.36.4-.73.6-1.14l.19-.39,49.38,16.36-2.55,8.37c-1.75,5.76-3.46,11.4-5.19,17-.48,1.58-.95,3.17-1.41,4.77-1.15,3.95-2.34,8-3.84,11.92-1.6,4.14-.88,6.11,3.08,8.41,20.86,12.15,37.18,26.16,49.9,42.83,53,69.51,52.92,156.42-.21,221.43-25.6,31.31-57.76,56.94-95.6,76.17-.66.34-1.32.69-2.12,1.11l-1.12.6.41,1.2c7.51,22.26,11.71,43.08,12.85,63.63a312.11,312.11,0,0,1-3,63.63l-.22,1.48,73.47,11.27,11.72-35.73,51.47,13.25-.17.51c-1.57,4.64-3.09,9.23-4.59,13.78l-.06.18c-3.36,10.19-6.54,19.81-10.14,29.52q-3.31,8.91-6.56,17.85c-10.43,28.55-21.22,58.07-35.42,85.69-23.67,46-50.17,84.39-81,117.25-9,9.55-18.45,18.63-27.62,27.41-4,3.81-8.11,7.76-12.12,11.69l-.3.29L1652,894.85l-19.17,43.54-49.1-18.78,19.37-45.55-1.3-.62c-15.8-7.54-48.84-15.49-86.23-20.74s-69.72-6.65-86.87-3.78l-2,.34.93,1.83q1.78,3.47,3.53,6.94l.24.48c3.66,7.23,7.44,14.71,11.46,21.92l.43.76c5.5,9.87,5.42,10.17-4.42,16.11-3.09,1.87-6.29,3.8-9.57,5.45-5.9,3-11.8,5.85-18.08,8.92l-.42.2-7.41,3.63-.4.19-.24-.37c-.87-1.33-1.78-2.63-2.69-3.94a79.17,79.17,0,0,1-5.41-8.51c-32.75-62.84-57.9-131.75-74.77-204.81-.85-3.68-1.54-7.45-2.22-11.14l-.12-.64c-.32-1.75-.62-3.49-.89-5.13l-.63-3.81L1247,783.42l4.48-1.86c3.74-1.55,7.4-3.08,11.08-4.68q6.48-2.83,12.95-5.69c7.55-3.33,15.36-6.78,23.18-10.1a5.11,5.11,0,0,1,4.68.85c7.42,7.45,15.38,15.68,24.33,25.16a5.5,5.5,0,0,1,1,3.93q-3.06,30.79-6.17,61.57-3.33,33.1-6.63,66.21c-.86,8.62-1.57,17.4-2.26,25.89v.13q-.48,5.84-1,11.69l0,.47-52.7-1.82,0-.52q.69-9.73,1.32-19.21c1-14.46,1.9-28.13,3.11-42s2.69-27.55,4.24-42l.06-.56q.8-7.46,1.61-15.08l.29-2.72-2.45,1.22c-8.4,4.19-16.83,8.48-25,12.62l-.13.07c-28.53,14.5-58,29.5-88.52,41.55l-.43.17-2.38-5c-1.54-3.27-3-6.43-4.54-9.58q-1.7-3.53-3.39-7.06c-3.47-7.25-7.05-14.75-10.84-22.05-1.67-3.22-1.38-5.21,1.16-7.87,32.8-34.41,64.44-75.6,99.55-129.66l.85-1.31-44-26.27-.83.86c-50.52,52.39-103.47,90.76-161.86,117.32l-1.81.82,92.63,108.7-.29.32-5.05,5.78-.23.27c-5.42,6.21-10.53,12.07-15.88,17.88a6.66,6.66,0,0,1-5.51,1.52c-16.85-3.79-34-7.71-50.52-11.5-15.52-3.56-31.56-7.23-47.36-10.79-25.21-5.68-49.94-11.16-76.12-17l-1.18-.26-29.75-6.59-3-.67,33.11,69.05,2.71-1.3-30.45-63.49,26.74,5.93L917,897c26.18,5.8,50.9,11.27,76.11,16.95,15.79,3.56,31.83,7.23,47.35,10.79,16.55,3.79,33.67,7.72,50.52,11.5,2.45.56,6.35-.21,8.38-2.42,5.37-5.84,10.5-11.71,15.93-17.94l.23-.26,5-5.77,2-2.28-91.73-107.65C1088.59,773.39,1141,735.33,1191,683.64l39.27,23.45c-34.67,53.25-66,93.93-98.36,127.92-3.41,3.58-3.91,7-1.65,11.33,3.76,7.26,7.34,14.74,10.8,22q1.69,3.54,3.39,7.07c1.51,3.14,3,6.29,4.53,9.55l3.58,7.58,3.05-1.21c30.63-12.1,60.19-27.13,88.8-41.68l.12-.06c7.35-3.74,14.93-7.59,22.51-11.39q-.66,6.23-1.32,12.35l-.06.56c-1.56,14.45-3,28.11-4.25,42s-2.14,27.62-3.12,42.1q-.64,9.49-1.32,19.2l-.26,3.62,58.66,2,.28-3.32q.5-5.85,1-11.7v-.13c.69-8.48,1.41-17.25,2.26-25.84q3.28-33.11,6.63-66.2,3.1-30.78,6.17-61.57a8.38,8.38,0,0,0-1.83-6.29c-9-9.5-16.95-17.75-24.39-25.22a8,8,0,0,0-8-1.49c-7.83,3.33-15.65,6.78-23.21,10.12q-6.46,2.85-12.94,5.69c-2.18,1-4.35,1.87-6.54,2.79l59.56-91.49.25,1.4.12.68c.67,3.68,1.37,7.49,2.24,11.24,16.92,73.32,42.17,142.46,75,205.53a81.6,81.6,0,0,0,5.62,8.86c.89,1.27,1.78,2.55,2.63,3.85l1.7,2.58,2.77-1.36,7.41-3.62.44-.22c6.26-3.06,12.18-5.95,18.09-8.92,3.39-1.71,6.63-3.67,9.78-5.57,11.22-6.78,11.78-8.85,5.48-20.14l-.43-.76c-4-7.16-7.76-14.61-11.41-21.82l-.24-.48-2.58-5.09c17.17-2.35,48.94-.81,83.92,4.1,36.1,5.07,68,12.63,84.05,19.87L1579.8,921.3l54.67,20.92,18.83-42.78,64.31,45.83,2.09-2c4-3.92,8.12-7.86,12.1-11.67,9.2-8.81,18.72-17.91,27.74-27.52,31-33.06,57.7-71.64,81.5-117.93,14.28-27.78,25.1-57.39,35.57-86q3.26-8.92,6.55-17.83c3.63-9.77,6.81-19.41,10.18-29.62l.06-.18c1.5-4.54,3-9.12,4.58-13.76l1.21-3.57Z" transform="translate(0.76 1.16)"/><path d="M840.15,416.92l2.39,0c1.2,0,2.28,0,3.36,0l24.57.79c21.07.69,42.86,1.4,64.29,2,4,.11,4.8,2.42,5.44,5.68l0,.11c7.18,36,10.46,66.18,10.32,94.82,0,8.92,0,17.61,0,26.81v12.15l1.65-.17c78.08-8,143.35-42.51,196.89-75.22l1.4-.86-1-1.32c-2.22-3-4.47-6-6.66-8.83l-.08-.11c-6-7.93-11.73-15.42-16.86-23.51-10.46-16.49-17.89-36.14-22.73-60.06a8,8,0,0,0-3.85-5c-44-19.79-79.75-52.42-106.26-97-10.9-18.32-18-38.15-24.27-56.89a6.26,6.26,0,0,1,1.32-5.23c7.94-9.08,16-18.14,23.73-26.9L994,198q9.57-10.81,19.12-21.64c11.27-12.83,20.48-23.53,29-33.68,2.46-2.93,4.65-3.54,8.08-2.23,32.34,12.38,64.89,24.64,92.46,35,3.81,1.43,7.82,2.84,11.39,4.1,5.21,1.84,10.61,3.74,15.83,5.82,2.77,1.1,3.89.28,5.64-1.71,8.58-9.79,17.36-19.62,25.85-29.14l5.68-6.36a21,21,0,0,1,1.66-1.62l.08-.07.33-.31.29-.27,44.56,28.89-.36.43-1.35,1.63-.08.09c-1.09,1.32-2.22,2.69-3.4,4-4.5,5.15-9.12,10.34-13.6,15.36l-.11.12c-9.77,11-19.87,22.29-29.21,33.9-25.11,31.21-41.58,65.29-49,101.28-.7,3.4-1.22,6.9-1.73,10.32-.2,1.32-.39,2.64-.6,4l0,.23c0,.06,0,.33.05.61l.13,1.16,1.15.17c2.65.38,5.32.8,7.91,1.21a204,204,0,0,0,20.84,2.57,257.35,257.35,0,0,0,113.54-19.5c2.88-1.2,3.62-2.39,3.28-5.32-5.41-47.11,1.77-96,21.94-149.5,1.49-4,3.18-5.89,8.31-5.43,51.23,4.58,105.93-2.36,167.25-21.22l.61-.19c9.8-3,10.12-2.93,16.74,4.89,6.1,7.2,12,14.33,18.32,21.87l.13.16,8.25,9.9.33.39-.39.32c-20.65,16.75-41.11,37.32-64.38,64.74-18.68,22-34.28,47.45-47.72,77.79l-.24.55L1386.11,301l.17-.38c12.93-29.55,28.88-55,48.74-77.7l2.7-3.09-4.05.62-5.44.84c-7.71,1.2-15,2.34-22.34,3-11.82,1-23.89,1.49-35.57,1.91l-3.85.14c-2.72.1-4,.6-4.73,3.42-9.14,34.08-11.52,64.94-7.28,94.33,3.89,27,11.15,47.87,22.83,65.78a43.52,43.52,0,0,1,2.19,3.94l0,.09c.34.67.71,1.37,1.1,2.11l.22.42-45.3,28-21.43-41.21-1.25.48c-37.47,14.28-75.82,21.52-114,21.52a306.54,306.54,0,0,1-34.44-2L1162,403l.89,2.31a110.57,110.57,0,0,0,16.05,28.41c16.73,21.51,39.56,33.8,69.82,37.58,43.85,5.48,87.58-1.47,133.71-21.25,39-16.73,72.63-41.43,102.8-75.51,46.15-52.13,81.32-114.71,107.51-191.32.39-1.14.73-2.27,1.13-3.62.19-.62.38-1.28.6-2l.54-1.75-2.87-.88-.54,1.75c-.22.7-.41,1.36-.62,2-.38,1.28-.71,2.38-1.08,3.46-26.06,76.22-61,138.47-106.92,190.3-29.87,33.74-63.15,58.19-101.74,74.74-45.63,19.57-88.86,26.45-132.16,21-29.43-3.68-51.61-15.6-67.83-36.45a107.29,107.29,0,0,1-14.7-25.34,309.53,309.53,0,0,0,32.29,1.7c38.11,0,76.39-7.15,113.81-21.24l21.69,41.71,50.45-31.2-1.57-2.9c-.39-.72-.74-1.41-1.08-2.06l0-.09a45.69,45.69,0,0,0-2.35-4.2c-11.44-17.53-18.55-38.05-22.37-64.57-4.18-29-1.83-59.44,7.21-93.12.22-.83.35-1,.37-1s.33-.16,1.57-.2l3.87-.14c11.71-.42,23.81-.86,35.71-1.92,7.45-.66,14.78-1.8,22.55-3l1.4-.22c-18.84,22.18-34.09,46.88-46.57,75.38l-1.16,2.66,49.47,33.84,1.7-3.85c13.31-30.08,28.77-55.28,47.26-77.06,23.15-27.27,43.48-47.72,64-64.35l2.76-2.24-2.28-2.73-8.25-9.89-.13-.16c-6.28-7.55-12.22-14.68-18.33-21.89-7.43-8.77-8.92-9.21-19.92-5.82l-.6.19c-60.94,18.74-115.27,25.64-166.1,21.09-7.32-.65-9.8,3.15-11.39,7.36-20.34,53.94-27.57,103.31-22.11,150.9.18,1.53.18,1.53-1.46,2.21a254.35,254.35,0,0,1-112.23,19.28,201.71,201.71,0,0,1-20.53-2.54c-2.16-.34-4.36-.69-6.57-1,.15-1,.29-1.95.44-2.94.5-3.35,1-6.81,1.7-10.13,7.28-35.52,23.55-69.17,48.36-100,9.29-11.55,19.37-22.85,29.14-33.81l.08-.1c4.48-5,9.11-10.22,13.62-15.38,1.21-1.39,2.35-2.77,3.46-4.11l-1.16-1,1.23.86,1.33-1.61,2.53-3-49.39-32-2.35,2.24a23.89,23.89,0,0,0-1.88,1.85l-5.67,6.36c-8.5,9.52-17.28,19.36-25.87,29.16-1.17,1.34-1.18,1.34-2.27.9-5.28-2.1-10.7-4-16-5.87-3.52-1.24-7.52-2.65-11.3-4.07-27.56-10.36-60.1-22.62-92.44-35-4.64-1.77-8.17-.82-11.45,3.1-8.5,10.13-17.7,20.82-29,33.63q-9.52,10.84-19.11,21.63l-.15.17c-7.76,8.76-15.79,17.82-23.74,26.91-1.65,1.89-2.81,5.46-1.9,8.16,6.35,18.89,13.48,38.89,24.54,57.46,26.84,45.11,63,78.15,107.61,98.2a5.22,5.22,0,0,1,2.14,2.84c4.91,24.29,12.48,44.26,23.13,61.07,5.2,8.21,10.94,15.74,17,23.72l.08.11c1.86,2.45,3.77,5,5.66,7.49-52.61,32-116.51,65.6-192.58,73.77v-8.83c0-9.2,0-17.88,0-26.79.14-28.85-3.16-59.18-10.38-95.43l0-.11c-.55-2.76-1.57-7.9-8.3-8.09-21.42-.59-43.21-1.3-64.31-2L846,413.93l-1.09,0,1.5-3.15c18.7-39.21,38-79.7,50.31-122.56,29.83,91.65,73.61,163.92,133.75,220.83l2.67,2.53,37.09-43.25-1.9-2.27c-4.74-5.67-9.55-11.29-14.2-16.73l-.16-.18c-10.59-12.38-20.59-24.07-30.06-36.51-24.3-31.9-44-69.08-60.37-113.66C940.76,236.74,925.83,183.6,927,126.43a4.36,4.36,0,0,0-1-2.76c-.1-.14-.22-.31-.36-.53l-.59-.95-2.55,1.58.59.95c.18.29.34.52.48.72a1.5,1.5,0,0,1,.42.92C922.82,184,937.82,237.45,960.72,300c16.43,44.87,36.32,82.3,60.8,114.45,9.52,12.51,19.55,24.23,30.18,36.65l.15.17c4.65,5.43,9.45,11.05,14.18,16.71l.27.33-33.38,38.94-.38-.36C971.73,449.33,927.75,376,898,282.54l-1.54-4.84-1.34,4.9C883,327,863,368.92,843.7,409.47Z" transform="translate(0.76 1.16)"/><path d="M400.2,109.27c1,3.47,2,6.74,3,10.13q.74,2.61,1.48,5.22l.16.57c2.06,7.23,4.19,14.71,6,22.13.66,2.69,1.67,3.39,4.67,3.37,20.78-.34,41.88-.59,62.28-.83l11.64-.14a2.34,2.34,0,0,1,.86.2l.29.11.35.11v53h-65.4l14.88,58.56,1.76-1.15,1.59-1.06c53-36.3,100.27-80.56,140.37-119.2,2.54-2.44,4.35-2.78,7.76-1.44,9.61,3.77,19.48,7.39,29.05,10.91q6.28,2.31,12.56,4.63c2.27.85,4.55,1.78,6.78,2.69L671,169.61q44.1,18,88.21,36c2.22.91,4.49,1.62,7.11,2.45l3.6,1.15L785,144,834.78,155l0,.45a671.35,671.35,0,0,1-38.95,164.84,685.61,685.61,0,0,1-77.93,147.91l-.64.93.71.87c16.11,19.71,46.73,42,81.9,59.6,36.12,18.09,71.5,28.67,97.09,29l1.55,0,0-1.55c-.11-5.39-.18-10.83-.26-16.12v-.1c-.3-22.28-.61-45.32-3.64-68.56l-.16-1.24-1.25-.06c-3.43-.17-6.87-.38-10.21-.59h-.11a260.67,260.67,0,0,0-26.08-.78c-12.85.47-25.9,1.48-38.56,2.45-7.12.55-14.48,1.12-21.74,1.58-2,.12-4.72-.47-6-1.87-6.56-7.2-12.87-14.44-19.55-22.12l-6.33-7.26-.25-.28.2-.32C825.06,346,860.8,239.4,870.74,124.94l.16-1.83-3-.26-.16,1.83c-9.89,114-45.49,220.14-105.79,315.52l-1.4,2.21,1.72,2,6.34,7.26c6.69,7.68,13,14.93,19.59,22.16,2,2.2,5.67,3,8.4,2.84,7.28-.47,14.65-1,21.82-1.59,12.59-1,25.61-2,38.4-2.44,8.52-.31,16.91.22,25.78.78h.11c2.94.18,6,.37,9,.53,2.86,22.65,3.16,45.17,3.46,67v.1c.06,4.78.13,9.69.23,14.58-25-.75-59.23-11.15-94.23-28.68-34.29-17.18-64.16-38.77-80.2-58a688.33,688.33,0,0,0,77.63-147.62,674.32,674.32,0,0,0,39.12-165.58l.33-3.12-55.27-12.16-15,64.87-.51-.16c-2.56-.81-4.77-1.51-6.88-2.37q-44.12-18-88.21-36L641.4,154.28c-2.23-.91-4.53-1.86-6.85-2.72-4.19-1.56-8.38-3.1-12.61-4.65-9.52-3.5-19.37-7.12-29-10.87-4.49-1.76-7.56-1.18-10.94,2.07-40,38.5-87,82.6-139.77,118.74l-12.89-50.73h64.55V147.94l-2.45-.77-.1,0a5.21,5.21,0,0,0-2-.41l-11.66.14c-20.4.24-41.5.49-62.29.83a7.38,7.38,0,0,1-1.37-.06,3.33,3.33,0,0,1-.34-1c-1.84-7.48-4-15-6.05-22.24l-.16-.57q-.74-2.61-1.48-5.21c-1-3.41-1.95-6.69-3-10.23l-1.4-4.69-.57-1.94-2.88.85.58,1.94C399.25,106.11,399.72,107.68,400.2,109.27Z" transform="translate(0.76 1.16)"/><rect x="0.5" y="0.5" width="1920" height="1080" style="fill:none;stroke:#000;stroke-miterlimit:10"/></svg>