<svg xmlns="http://www.w3.org/2000/svg" width="1921" height="1081" viewBox="0 0 1921 1081"><title>04_Maze</title><path d="M1368.3,98.8c-3.3,30.5-23.1,110-50.7,158.4-28.9,50.5-71.6,86.3-117.3,98.4a145.87,145.87,0,0,1-30.4,4.6,157.23,157.23,0,0,1,1-29.8c5.3-39.9,26.1-82.6,63.4-130.6a33.13,33.13,0,0,0-24.7-53.4c-19.8-.8-39.9-1.2-61.5-1.2-33.3,0-69.3.9-120.4,3.1a43.48,43.48,0,0,0-30.3,14.1c-5.6,6.1-11.4,12.3-17,18.2l-.1.1c-5.6,5.9-11.3,12.1-17,18.2A44,44,0,0,0,952,234.5a217.35,217.35,0,0,0,28.9,82.3,214.51,214.51,0,0,0,59.1,64.4,212.2,212.2,0,0,0,80.6,34.8c.4,1.2.9,2.5,1.3,3.7a176.37,176.37,0,0,0,22.5,42.3,294.53,294.53,0,0,1-92.5,62.1A302.12,302.12,0,0,1,942,548.4c.3-37-4.2-75.7-13.7-118.4l-6.9-30.9-.2-1.1-1,.3L890,407.9c-14.1,4.5-30.7,9.7-47.9,14.8,16.9-33.2,31.3-69.6,43.9-111.1,2.5-8.1,4.9-16.5,7.2-24.9,4.9,15.6,10.5,31.2,16.7,46.2,27.8,67.2,69.4,128.9,120.3,178.4l.7.7.7-.7,40.5-41.6.7-.7-.7-.7c-45.1-43.9-82-98.6-106.7-158.4-24.6-59.5-37.3-123.9-36.5-186.5l439.4-24.6M1,98.9l53.9,5L31.7,305.3a33.2,33.2,0,0,0,21.7,35.1,34.2,34.2,0,0,0,11.4,2,33.09,33.09,0,0,0,27.8-15.1c20.6-31.5,49-57.9,79.8-74.4,12.5-6.7,31.2-14.7,49.3-14.7a47.14,47.14,0,0,1,18.4,3.4c15,6.2,27.3,22.4,32.2,42.5,4.5,18.7,3.6,40.6-3,68.9a336.71,336.71,0,0,1-82.9,154.3,33,33,0,0,0,24,55.7,33.34,33.34,0,0,0,15.1-3.7,2714.62,2714.62,0,0,0,348-213.1C543,442.5,505.8,530.7,466.5,624c-15.6,37.1-31.8,75.5-47.9,115.1-28.3-44-64.3-78.8-107-103.5,22.1-17.1,44.7-34.9,69-54.3,14.1,13.3,27.8,27.2,40.9,41.3l.7.7.7-.7,42.6-39.3.7-.7-.7-.7c-20.1-21.8-41.5-42.8-63.7-62.5l-18.3-16.3-.6-.6-.7.5-19.1,15.3c-74.5,59.8-137,107.8-196.8,151.1l-.8.6.6.8,34,47,.6.8.8-.6c18.5-13.4,37.7-27.6,57.2-42.2A242.69,242.69,0,0,1,328,722.6a281.73,281.73,0,0,1,53.1,70.9l10,18.7.3.6.7-.1,20.9-3.9c8.5-1.6,14.5-3.1,19.8-4.5,3.7-1,6.9-1.8,10.3-2.4l15.6-3,.5-.1.2-.5,5.9-14.8c7-17.5,14.6-36.2,23.2-57.2,17.8,36,32,74.5,44,108-17.1,8.1-35.1,16.7-51.8,24.6l-.9.4.4.9,24.9,52.4.4.9.9-.4c20.7-9.9,43.2-20.5,65-30.9l.7-.3c16.5-7.8,32.9-15.6,48.7-23.1,18.5,13.1,36,26.7,54.4,41C693,913.6,713.1,929.3,734,944c.3,8.4,1,14.6,1.6,21.2.5,4.6.9,9.4,1.4,15.8L1,981.2V98.9m1918,.2V981.2L797.1,977c-.5-7.2-1.1-12.6-1.5-17.4a228.79,228.79,0,0,1-1.5-23.6,150.85,150.85,0,0,1,87.2-67.2,135.47,135.47,0,0,1,36.7-5,152.71,152.71,0,0,1,74,19.5,32,32,0,0,0,44.8-40.9c-6.6-15-13.1-30.2-19.4-44.9l-.1-.2-.2-.4a63.32,63.32,0,0,0,27.1-6.6,360.22,360.22,0,0,0,69.4-45.3c21.4-17.7,41.1-38.1,60.4-62.3a416.7,416.7,0,0,0,52.4,25.3,1416.13,1416.13,0,0,1-86.9,129.7,33.65,33.65,0,0,0,1.6,42.8,34.06,34.06,0,0,0,25.5,11.7,34.55,34.55,0,0,0,16.8-4.4,417.3,417.3,0,0,1,116.5-44.1l1-.2-.2-1-12.1-56.7-.2-1-1,.2a456.77,456.77,0,0,0-45.9,12.3c22.6-34.3,43.9-69.9,63.6-105.9a746.6,746.6,0,0,0,29.4,125.2l7.1,21.6.2.7.8-.1,22.7-1.7c12.9-1,26-1.5,39-1.5a532.35,532.35,0,0,1,277,78.2,39.91,39.91,0,0,0,60.3-27.6c20-123,19.1-249.1-2.8-374.8,35-16,65.6-39.2,88.5-67.2,40.6-49.6,57.2-114.3,44.5-173.2-12.5-57.6-54.5-107.4-107.6-127.8L1919,99.1m-491.1,6,138.5,91.7c-25.5,71.5-54,124.8-89.6,167.6-18.9-37.2-39.7-68.9-63.6-96.9l-.6-.8-.8.6-44.1,37.6-.8.6.6.8c24.7,29,45.2,61.6,64.3,102.6a284.92,284.92,0,0,1-39.6,27.2c-29.7,16.9-60.4,27-91.2,30a171.93,171.93,0,0,1-17.4.9c-26.6,0-50-6.2-67.6-18-10.7-7.1-20.4-17.6-28.1-30.3a195,195,0,0,0,27.6-5.3c32.3-8.5,62.7-24.9,90.4-48.6,24.6-21.1,46.6-48.1,63.7-78,31.2-54.3,54-141,58.3-181.7M114.5,110.6l754.7,7.2c-11.9,62.9-23.3,119.7-40.6,176.4-15.7,51.6-34.5,95-57.4,132.7a43.45,43.45,0,0,0,48.4,64.6c16.8-4.5,35.3-9.8,56.5-16.3a435.12,435.12,0,0,1,6,69,275.17,275.17,0,0,1-78.1-26c-30.2-15.2-58.7-35.7-87.2-62.7,31.9-50.5,71.8-119,99-202.2l8.5-26,.3-.9-.9-.3-25.4-10c-33.8-13.3-65.4-25.4-96-37.1h-.1l-.2-.1c-30.4-11.6-61.9-23.7-95.3-36.9l-17.1-6.7-.6-.2-.5.4-13.4,12.6c-42.3,39.8-89.9,81.1-137.7,119.5-6.9-10.2-13.9-20.7-20.1-30-7-10.4-14.2-21.2-21.5-32.1,12.6.7,25.5,1.1,38.2,1.1,18.8,0,37.7-.8,56.3-2.3l1-.1-.1-1-4.8-57.8-.1-1-1,.1c-16.9,1.4-34.2,2.1-51.3,2.1-14.8,0-29.7-.5-44.3-1.6-1.2-.1-2.5-.1-3.7-.1a51.16,51.16,0,0,0-35.6,14.3c-1.6,1.5-3.2,3.1-4.8,4.6a49.4,49.4,0,0,0-7.1,63.9c9.8,14.5,19.6,29.1,29.1,43.3,9.2,13.8,18.7,28,28.4,42.3a46.79,46.79,0,0,0,31.5,20,41.66,41.66,0,0,0,7.1.5,46.39,46.39,0,0,0,28.9-10.1c47.6-37.8,95.6-78.9,139-119,27.2,10.6,53.1,20.5,78.2,30.1l.2.1c22.1,8.4,44.9,17.2,68.6,26.4-7.7,20.5-16.4,40.6-26.6,61.6A767,767,0,0,1,633,256.5l-17.8-15.4-.6-.5-.6.5-18.7,14.3A2645.3,2645.3,0,0,1,296.9,452.5a394.32,394.32,0,0,0,30.9-86c8.8-37.7,9.7-68.4,2.9-96.6C321.3,231,296,199.6,263,186.1a107.53,107.53,0,0,0-41.4-8c-24.4,0-50.5,7.3-77.5,21.8a265.27,265.27,0,0,0-43.2,29l13.6-118.3m1607.6,82.5c20.7,31.7,26.3,72.1,14.5,105.6-13,36.9-48.1,65.3-85.2,68.9l-1,.1.1,1,5.7,57.7.1,1,1-.1c60.5-6,115.1-49.7,135.9-108.7a172.25,172.25,0,0,0,9.4-64.2,115.37,115.37,0,0,1,10.5,29.3c8.8,40.6-3.6,87.5-32.2,122.5-27.6,33.7-69.1,57.3-116.8,66.5-16.6,3.2-33.7,4.6-51.8,6.2-1.6.1-3.1.3-4.7.4,7.6-97.4,13.8-185.9,18.7-270.2l95.8-16m-574,12.1h9.1c-25.7,40.8-40.7,79.2-45.7,117.2a205.85,205.85,0,0,0-1.8,28.3,147.3,147.3,0,0,1-34.7-18.3,152.53,152.53,0,0,1-40.5-43.3,160.79,160.79,0,0,1-21.7-55.2c3.7-4,7.5-8.1,11.2-12l.1-.2c4-4.2,8.5-9,13-13.8,45.9-1.9,80.2-2.7,111-2.7M638.9,338.1c17.6,13,36.3,25.8,55.8,38.1-25.5,44.5-53.6,86.4-83.4,130.7l-2.3,3.5-.6.8.8.6,48.1,32.4.8.6.6-.8,2.3-3.5c7.4-11,15-22.3,22.6-33.7,29.7,27,60.9,48.8,92.8,64.9a341.36,341.36,0,0,0,100.4,32.6,269.89,269.89,0,0,1-7.4,30.1c-11.2,36.3-36.2,84.5-91.2,108.7-50.3-79.6-126.8-148.2-215.6-193.4,22.7-55.8,51.8-130,76.3-211.6m917.6,18.6c-3,41.8-6.3,85.8-9.8,130.8-34.1,7.6-60.8,20.4-81.5,39.1-41,36.9-56.1,99.1-36.7,151.3,9.4,25.3,26.4,47.6,49.1,64.6s49.1,26.9,76,28.6l28.2,1.7,1,.1.1-1,2.5-28.1c4.4-49.4,11-124.2,17.4-203.7,4.8-.4,9.5-.8,14.6-1.3,18.8-1.6,38.3-3.3,58-7,1.8-.3,3.7-.7,5.8-1.2,17.7,106.3,19.5,213,5.5,317.3a592.66,592.66,0,0,0-282.6-72c-6.4,0-13,.1-19.4.3a687.55,687.55,0,0,1-27.4-182.6,33.17,33.17,0,0,0-63.3-13.4c-11.7,25.3-24.4,50.7-37.6,75.4-48.5-18.5-86.3-42.8-122.7-78.5l-.7-.7-.7.7-40.7,41.4-.7.7.7.7c10.7,10.5,21.7,20.3,32.8,29.2a370.44,370.44,0,0,1-44,45.8c-12.6-21.6-23.5-41.6-34.1-63.1l-.4-.9-.9.4L993,657l-.9.4.4.9c12,24.2,24.3,46.9,38.7,71.3-4.6,2.6-9.2,5.1-13.8,7.4a2,2,0,0,1-1.1.3,1.27,1.27,0,0,1-.6-.1c-4.4-.8-9.1-1.8-14.1-2.9h-.1c-9.5-2-19.3-4.1-28.2-5.2a25.49,25.49,0,0,0-3.9-.2,31,31,0,0,0-28.3,43.5c5.4,12.3,10.8,24.8,15.4,35.5a209,209,0,0,0-38.5-3.6,193.38,193.38,0,0,0-52.8,7.2,209.86,209.86,0,0,0-74.3,38.7,213.59,213.59,0,0,0-35,36.1c-14.5-10.7-28.5-21.5-43.4-33.1-22.7-17.7-46.2-36-71.8-53.1L627,790.9l-.5-.3-.5.2-14.9,7.1c-7.7,3.7-15.7,7.5-23.8,11.3-17.7-49.5-37.7-102.1-68.9-152.8l1.2-2.8,2.5-5.9v-.1c5.8-13.8,11.8-28,17.7-42a511,511,0,0,1,101.6,69.6c-13,23.3-26,45.3-40.7,69.1l-.5.9.9.5,49.3,30.5.9.5.5-.9c12.1-19.5,23.1-38.1,33.8-56.7a431.6,431.6,0,0,1,53.5,75.3l11.2,20.1.4.7.8-.2,22.1-6.3c73.9-21.6,128.4-77.1,153-156.7a342.91,342.91,0,0,0,10.3-43.4,367.85,367.85,0,0,0,143.6-31.3,359.41,359.41,0,0,0,108.1-74.5c26.8,16.2,58.6,24.4,94.7,24.4a234.6,234.6,0,0,0,23.6-1.2c39.2-3.9,77.9-16.5,115-37.6,34-19.3,65.1-44.8,92.5-75.7a462.42,462.42,0,0,0,42.1-56m-15,194.3c-3.8,46.7-8.1,96.5-13,152.4-20.2-9.6-36.6-26.9-43.9-46.6-10.8-29.2-2.2-65.2,20.6-85.7,9.5-8.5,21.3-15.1,36.3-20.1M1920,97.8l-159.2,45.3c54.1,19.5,97.3,69.8,109.9,128.1,12.7,58.6-3.9,123-44.3,172.4-23.3,28.5-53.8,51.4-88.9,67.3,22,125.9,23,252,3,375.3a39.22,39.22,0,0,1-22.2,29.2,39,39,0,0,1-36.6-2.3c-83.1-51.1-180.4-78.3-277.6-78.3-13,0-26.1.5-39.1,1.5l-22.7,1.7-7.1-21.6a752.33,752.33,0,0,1-29.8-128c-20.5,37.9-42.8,74.9-66.5,110.9a475.21,475.21,0,0,1,48.5-13.1l12.1,56.7a416.32,416.32,0,0,0-116.8,44.2,33.13,33.13,0,0,1-16.3,4.3,33,33,0,0,1-26.2-52.8,1418.37,1418.37,0,0,0,87.5-130.8,423.29,423.29,0,0,1-54.1-26.1c-38.5,48.4-80.3,83-130,108a62,62,0,0,1-27.7,6.5h-.5c.3.6.5,1.2.8,1.8,6.4,14.8,12.9,30.1,19.5,45.1a31,31,0,0,1-43.4,39.5A155,155,0,0,0,917.8,863a139.31,139.31,0,0,0-37,5c-36.3,10.2-68.7,35.4-87.9,67.9.2,10,.8,15.8,1.5,23.9.5,5,1,10.7,1.6,18.3l1123.8,4.3V97.8ZM0,97.8V982.2H738.3c-.5-6.9-1-12-1.5-16.9-.7-6.8-1.3-13.1-1.6-21.6C714.5,929.1,695,914,676,899.3c-18.5-14.4-36.3-28.2-54.9-41.4-16.2,7.7-33.1,15.7-50,23.7-22.2,10.5-44.5,21.1-65,30.9l-24.9-52.4c16.7-8,34.6-16.4,52.7-25-13.7-38.5-27.6-75.7-45.3-110.9-8,19.4-16.1,39.2-24.1,59.2l-5.9,14.8-15.6,3c-3.5.7-6.7,1.5-10.4,2.5-5.3,1.4-11.3,2.9-19.7,4.5L392,812.1l-10-18.7c-29.3-54.9-71.7-95.5-123.4-118.4-19.6,14.8-38.8,28.9-57.6,42.6l-34-47c59.8-43.3,122.3-91.3,196.8-151.1l19.1-15.3,18.3,16.3c22.1,19.7,43.5,40.7,63.6,62.4L422.3,622c-13.3-14.4-27.2-28.5-41.5-42-24.8,19.8-48.3,38.2-70.9,55.7,43.4,24.9,80.4,60.6,109,105.6,16.3-40.3,32.7-79.1,48.6-116.9,39.5-93.9,77.3-183.4,108-280.8A2713.57,2713.57,0,0,1,225.2,558.4a32,32,0,0,1-38-50.4,337,337,0,0,0,83.1-154.7c6.6-28.4,7.6-50.4,3-69.3-4.9-20.3-17.5-36.9-32.8-43.2a48.29,48.29,0,0,0-18.8-3.5c-18.8,0-38.2,8.6-49.8,14.8-31,16.6-59.4,43.1-80.2,74.8a32.23,32.23,0,0,1-59-21.3L56,103,0,97.8Zm1369.4,0L927.9,122.6c-.9,63,11.8,128,36.6,187.9s61.8,114.8,106.9,158.7l-40.5,41.6c-50.8-49.4-92.3-111-120.1-178.1q-10.05-24.3-17.7-49.4c-2.6,9.4-5.3,18.8-8.2,28.2-12.8,42.1-27.6,79.4-44.9,113,17.1-5.1,34-10.4,50.2-15.5l30.2-9.6,6.9,30.9c9.5,42.6,14,82.2,13.6,119.2,77.2-2.1,151.3-33.9,204.7-87.3a173.48,173.48,0,0,1-22.9-42.8l-1.5-4.2a211.37,211.37,0,0,1-80.8-34.7,213.74,213.74,0,0,1-58.8-64.1,217.64,217.64,0,0,1-28.8-81.9,42.74,42.74,0,0,1,11-34.8c5.7-6.2,11.4-12.3,17-18.2s11.5-12.2,17.1-18.4a42.39,42.39,0,0,1,29.6-13.8c43.6-1.9,82.6-3.1,120.3-3.1,20.7,0,41,.4,61.5,1.2a32.11,32.11,0,0,1,24,51.8c-37.5,48.1-58.3,91-63.6,131a155.45,155.45,0,0,0-1,31,150.59,150.59,0,0,0,31.6-4.6c45.9-12.1,88.9-48.1,117.9-98.8,28.3-49.2,48.3-130.3,51.2-160Zm57.7,5.6c-3.9,39.9-26.9,128-58.4,183.1-17.1,29.8-39,56.7-63.5,77.7-27.5,23.6-57.8,39.9-90,48.4a205.55,205.55,0,0,1-29,5.4c8.2,13.9,18.5,24.8,29.2,31.9,17.8,11.9,41.5,18.1,68.1,18.1a173.89,173.89,0,0,0,17.5-.9c31-3,61.8-13.2,91.6-30.1a293.64,293.64,0,0,0,40.4-27.8c-19.2-41.3-40-74.5-64.8-103.6l44.1-37.6c23.9,28.1,45.1,60.4,64.1,98.1,36.2-43.2,65.3-97.4,91.1-169.8l-140.4-92.9ZM113.6,109.6l-14,121.7a263.2,263.2,0,0,1,44.9-30.5c26.9-14.4,53-21.7,77.1-21.7a106.55,106.55,0,0,1,41,7.9c32.6,13.4,57.7,44.5,67.1,83.1,6.8,28,5.9,58.6-2.9,96.2A397.38,397.38,0,0,1,294.5,455,2625.76,2625.76,0,0,0,595.7,256.3L614.4,242l17.8,15.4a781,781,0,0,0,90.9,67.1c10-20.5,19.2-41.6,27.4-63.6-24-9.3-47-18.2-69.5-26.8-25.4-9.7-51.5-19.7-79-30.4C558.6,244,510.8,285,462.8,323a45.75,45.75,0,0,1-28.3,9.9,53.38,53.38,0,0,1-6.9-.5,45.88,45.88,0,0,1-30.8-19.5c-9.6-14.2-19.1-28.5-28.4-42.3-9.5-14.2-19.3-28.8-29.1-43.3a48.36,48.36,0,0,1,7-62.6c1.6-1.5,3.2-3,4.8-4.6a50.78,50.78,0,0,1,35-14.1c1.2,0,2.4,0,3.6.1,14.7,1.1,29.6,1.6,44.4,1.6,17.2,0,34.3-.7,51.4-2.1l4.8,57.8c-18.6,1.6-37.4,2.3-56.2,2.3-13.4,0-26.8-.4-40.1-1.2,7.6,11.4,15.2,22.7,22.6,33.8,6.8,10.1,13.7,20.5,20.7,30.9,48.1-38.7,95.8-80.1,138.6-120.3l13.4-12.6,17.1,6.7c33.5,13.2,65,25.3,95.5,36.9s62.3,23.8,96,37.1l25.4,10-8.5,26c-24.9,76.1-59.9,140.4-99.3,202.7,28.6,27.3,57.6,48.1,88,63.4A281.45,281.45,0,0,0,883,545.4a434.84,434.84,0,0,0-6.2-71.5c-18.8,5.8-38.2,11.5-57.5,16.7A42.46,42.46,0,0,1,772,427.5c22.9-37.8,41.8-81.3,57.5-133,17.4-57.1,28.8-114.3,40.8-177.7l-756.7-7.2ZM1722.5,192l-97.3,16.2c-5.5,92.9-12,184.5-18.9,272.2,2-.2,3.9-.3,5.9-.5,18.1-1.5,35.3-3,51.9-6.2,48-9.2,89.7-32.9,117.4-66.8,28.8-35.2,41.3-82.5,32.4-123.4a117.32,117.32,0,0,0-12.8-33.5,171.94,171.94,0,0,1-9.1,68.3c-20.7,58.7-75,102.1-135.1,108l-5.7-57.7c37.5-3.7,72.9-32.3,86.1-69.6,12.2-34,6.4-75-14.8-107Zm-574.4,12.2c-34.9,0-71.3,1.1-111.6,2.8-4.4,4.8-8.9,9.5-13.2,14.1-3.9,4.1-7.8,8.3-11.7,12.5,7.2,39.7,30.3,76.5,62.7,99.6a152.67,152.67,0,0,0,36.3,18.9,210.94,210.94,0,0,1,1.8-29.6c5.1-38.2,20.4-77.2,46.6-118.4-3.6.1-7.3.1-10.9.1ZM638.3,336.5c-22.4,74.8-48.7,144.3-77,213.6,89.2,45.2,166.1,114.1,216.5,194.2,55.3-24,80.8-71.8,92.5-109.7a284.31,284.31,0,0,0,7.7-31.2c-70.3-11-134.5-43.4-194.5-98.2-7.7,11.5-15.4,23-23.2,34.6l-2.3,3.5-48.1-32.4,2.3-3.5c29.6-44,58.3-86.8,83.9-131.6-20.3-12.6-39.6-25.8-57.8-39.3Zm919.4,16.3a456.6,456.6,0,0,1-44.1,59.3c-27.3,30.8-58.3,56.2-92.3,75.5-36.9,21-75.5,33.6-114.6,37.4-7.2.7-15.1,1.2-23.5,1.2-28.8,0-63.3-5.4-94.8-24.6a353.33,353.33,0,0,1-108.3,74.8,363,363,0,0,1-144,31.2,337,337,0,0,1-10.4,44.1C901.2,730.9,847,786.2,773,807.4l-22.1,6.3-11.2-20.1a434.93,434.93,0,0,0-54.6-76.5c-11,19.3-22.1,38-34.5,57.9l-49.3-30.5c14.8-24,27.9-46.2,41.1-69.9A517.11,517.11,0,0,0,539,603.8c-6,14.3-12,28.6-18.1,43.1-1.3,3-2.6,6.1-3.9,9.1,30.4,49.3,50.3,100.5,69.5,154.1,8.5-4,16.7-8,24.8-11.8l14.9-7.1,13.7,9.2c25.5,17.1,49,35.4,71.7,53.1,14.9,11.6,29.4,22.8,44.2,33.7a215.62,215.62,0,0,1,35.4-36.7A210.12,210.12,0,0,1,865.1,812a193.45,193.45,0,0,1,52.6-7.1,210.59,210.59,0,0,1,40.2,3.9c-5.3-12.3-10.7-24.9-16.1-37.2a30,30,0,0,1,27.4-42.1c1.2,0,2.5.1,3.8.2,8.8,1.1,18.6,3.2,28.1,5.2,5,1.1,9.8,2.1,14.2,2.9.3,0,.5.1.8.1a2.93,2.93,0,0,0,1.6-.4c5-2.5,9.9-5.1,14.7-7.9-14.9-25.1-27.1-47.7-39.2-72.2l52-25.7c10.7,21.7,21.7,42,34.7,64.2a357.29,357.29,0,0,0,45.7-47.5,441.24,441.24,0,0,1-33.5-29.8l40.7-41.4c36.6,36,74.5,60.3,123.9,79.1q20.25-37.5,38.1-76.2a32.18,32.18,0,0,1,61.4,13,691,691,0,0,0,27.6,183.6c6.7-.2,13.4-.4,20.1-.4a592.64,592.64,0,0,1,283.4,72.6c14.3-105.3,12.4-212.8-5.5-320.1-2.3.5-4.5,1-6.8,1.4-19.6,3.7-39.1,5.4-57.9,7-5.3.4-10.4.9-15.5,1.4-5.9,72-11.8,140.7-17.5,204.5l-2.5,28.1-28.2-1.7c-26.8-1.6-52.9-11.5-75.5-28.4s-39.4-39-48.7-64.1c-19.3-51.8-4.3-113.5,36.5-150.2,20.7-18.6,47.6-31.5,81.8-39,3.6-43.8,7-89,10.2-135Zm-15.1,196.8c-15.7,5.1-28.3,12-38.1,20.8-23.1,20.8-31.9,57.3-20.9,86.8,7.8,20.9,25.2,38.4,45.7,47.7,4.4-49.4,8.9-101.4,13.3-155.3Z" transform="translate(0.5 0.5)" style="fill:#333"/><rect x="0.5" y="0.5" width="1920" height="1080" style="fill:none;stroke:#000;stroke-miterlimit:10"/></svg>