<svg xmlns="http://www.w3.org/2000/svg" viewBox="0 0 1921 1082"><title>Untitled-2</title><path d="M6812.7,7010.2c1.1,1.8-.1,3.3-.5,4.7-2.6,8.2-5.4,16.4-8.1,24.6-18.1,53.8-38.6,106.7-60.3,159.1-20.9,50.5-42.1,100.9-63.1,151.4-6.1,14.6-12,29.3-18.1,43.9-.6,1.4-.7,3.2-2.5,3.9-1.7-.8-2.4-2.6-3.3-4a330.06,330.06,0,0,0-36-44.8,308.62,308.62,0,0,0-61.1-49.3c-1.5-.9-3.1-1.5-4.2-3.3a8.78,8.78,0,0,1,1.2-1.5q32.85-25.8,65.5-51.5c2.1.6,3.1,2.1,4.4,3.3,11.5,10.9,22.5,22.3,33.3,33.9a19,19,0,0,0,4.1,3.9c3.3-2.3,40.4-36.3,44.1-40.4-.5-1.5-1.8-2.5-2.8-3.6q-29.1-31.35-61-59.8c-5.1-4.6-10.3-9.2-15.4-13.7-1.2-1.1-2.4-2.1-3.6-3.1-2,.4-3.2,1.8-4.5,2.9l-39,31.2c-55.9,44.6-112.4,88.4-170.3,130.4-1.3.9-2.5,1.9-3.6,2.8,2.1,4,32.4,46,35.4,49,1.4-.9,2.8-1.8,4.2-2.9,16.3-12.1,32.7-24.2,49-36.3a4.81,4.81,0,0,0,1.1-.9c2.2-2.4,4.5-2.1,7.3-.8a243.09,243.09,0,0,1,53.4,34.6c26.5,22.6,47.4,49.7,63.9,80.2,3,5.5,5.9,11,8.8,16.5.7,1.2,1.5,2.4,2.3,3.8,4.5-.8,8.9-1.7,13.3-2.4,13-2.1,25.6-5.6,38.4-8.5,4.2-1,8.4-1.9,12.7-2.5,2.8-.4,4.1-1.7,5.1-4.2,5.4-13.7,10.9-27.3,16.4-40.9,3-7.4,6-14.8,9.1-22.2.5-1.2,1.1-2.3,1.9-3.8a9.19,9.19,0,0,1,1.9,2.3c3.5,7.4,7,14.7,10.3,22.2,10.3,23.3,19.2,47.1,27.8,71,.9,2.4,1.8,4.8,2.6,7.2a15.72,15.72,0,0,1,.4,2.3c-1.4,1.7-3.3,2.2-5,3-14.1,6.8-28.3,13.5-42.4,20.2-1.4.7-2.8,1.4-4,2.1-.1.5-.2.7-.2.8v.5c8.2,17.3,16.4,34.7,24.6,52a8.34,8.34,0,0,0,.8,1.2c1.9.2,3.3-1,4.9-1.7,18.8-8.9,37.5-17.9,56.3-26.8q24.45-11.7,49-23.2c1.6-.7,3.2-1.4,4.6-2.1a9.91,9.91,0,0,1,4.7,2.7c15.2,11.5,30.4,22.9,45.5,34.5,19.6,15.1,39.2,30.4,59.3,44.8a14.3,14.3,0,0,0,1.5,1.1,4,4,0,0,1,2,3.6c.1,1.6.3,3.2.4,4.8.7,7.3,1.4,14.6,2,22,.2,2.2.6,4.4-.1,6.8a7.94,7.94,0,0,1-2.2.6c-1.8.1-3.5.1-5.3.1H6252c-2.4,0-4.8-.1-7.4-.2a27.27,27.27,0,0,1-.8-3.4c-.1-1.4-.1-2.9-.1-4.3V6767.6c0-2.2-.4-4.5.6-6.4a2.74,2.74,0,0,0,.5-.4.76.76,0,0,1,.4-.2,28.1,28.1,0,0,1,2.9.1c15.9,1.6,31.8,2.8,47.9,4.6a10.6,10.6,0,0,1,.4,2.9c-1.4,12.1-2.8,24.1-4.2,36.2-1.1,9.7-2.1,19.4-3.2,29.1s-2.3,19.4-3.4,29-2.1,19.4-3.2,29.1c-.8,6.8-1.6,13.6-2.4,20.5-.8,6.7-1.5,13.3-2.3,20-.8,7.3-1.8,14.6-2.5,21.9-.6,5.9-1.5,11.7-1.5,17.7A32.83,32.83,0,0,0,6300,7003c14.6,3,26.5-2,35.1-14.2a303.67,303.67,0,0,1,21.3-27.7,218,218,0,0,1,55.2-45,134.7,134.7,0,0,1,34.5-14.1,77.67,77.67,0,0,1,15.1-2.3c15.8-.7,28.7,5,38.8,17.2a70.87,70.87,0,0,1,14.6,31.4,116.69,116.69,0,0,1,1.5,34.4c-2.7,27.3-10.1,53.3-20.1,78.7a331.17,331.17,0,0,1-66.5,105.2,36.2,36.2,0,0,0-9.1,15.6c-4.9,18.8,6.2,37.3,25.1,41.4a32.73,32.73,0,0,0,21.1-2.3c3.6-1.8,7.1-3.6,10.7-5.4a2723.29,2723.29,0,0,0,237.5-139.1c30.9-20.3,61.4-41.1,91.4-62.7C6808.3,7012.7,6810.1,7010.8,6812.7,7010.2Z" transform="translate(-6239 -6658.5)" style="fill:none;stroke:#000;stroke-miterlimit:10"/><path d="M7038.6,7636.9c-.3-1.9-.6-4.1-.9-6.3-.3-3-.6-6-.8-9.1-.5-6.4-.8-12.8-1.3-19.1a14.86,14.86,0,0,1,2.8-9.8,156.67,156.67,0,0,1,31.1-34.4c17.4-14.1,36.8-24.2,58.7-29.2a131.79,131.79,0,0,1,43.4-2.7,153.91,153.91,0,0,1,59.6,18.3,32.52,32.52,0,0,0,26,3,31.55,31.55,0,0,0,22.6-28.1,35.8,35.8,0,0,0-2.9-16.8c-5.4-12.3-10.7-24.7-16-37-.8-1.9-1.6-3.8-2.5-6a22.38,22.38,0,0,1,2.8-1.1c9.4-.6,18.1-3.7,26.4-8a369.24,369.24,0,0,0,106.6-82.9c5.6-6.2,10.8-12.6,16.3-18.9,1-1.2,2.1-2.4,3.2-3.6,4.6,1.7,8.4,4.4,12.5,6.4,4.3,2.1,8.6,4.4,12.9,6.4s8.4,4,12.6,5.9,8.4,3.7,12.4,5.5c.6,2-.5,3.1-1.2,4.3-7.1,11.6-14.1,23.2-21.4,34.7q-29,45.9-61.6,89.2a40.92,40.92,0,0,0-7.3,16,34.18,34.18,0,0,0,23.3,38.7,33.13,33.13,0,0,0,27.3-2.9c10.6-6,21.4-11.5,32.5-16.5a405,405,0,0,1,79.4-26.6c1.1-.2,2.2-.5,3.3-.8a11.61,11.61,0,0,0,1.6-.6,24.53,24.53,0,0,0-.2-2.7c-3.7-17.4-7.3-34.7-11-52.1-.3-1.2-.7-2.4-1.1-3.6-1.9-.6-3.6,0-5.3.3-12,2.7-23.9,5.9-35.7,9.4a9.26,9.26,0,0,1-2.3.4c-.2,0-.5-.3-.8-.4,0-.3-.1-.7.1-.9,20.5-32.2,40.3-65,58.8-98.4.1-.2.5-.3.8-.5,1.3.2,1.3,1.3,1.4,2.2.9,5.5,1.8,11,2.8,16.5a692.43,692.43,0,0,0,18.7,80.3c4.2,14.1,8.9,28,13.3,42a18.89,18.89,0,0,0,1.1,2.5c1.7.9,3.3.5,4.8.3a592.12,592.12,0,0,1,81-2.5c10.5.4,21.1,1.4,31.5,2.5,9.8,1,19.7,2.4,29.5,3.9a489.08,489.08,0,0,1,56.2,12.2,524.53,524.53,0,0,1,134.6,58.4,42.82,42.82,0,0,0,22.2,6.5,39.84,39.84,0,0,0,36.8-24.7,49,49,0,0,0,2.9-10.6c1.5-10.3,3.2-20.5,4.5-30.8,1.3-9.5,2.2-19,3.3-28.6.9-8.4,1.7-16.9,2.5-25.3.4-4.8.8-9.6,1.1-14.4.5-8.3.8-16.6,1.3-24.9,1.3-21.1,1.2-42.2,1.2-63.3,0-10.7-.1-21.4-.6-32.1-.6-13.4-1.5-26.8-2.4-40.2-.6-9.4-1.4-18.8-2.3-28.2-.7-7.3-1.6-14.6-2.5-21.9-1-7.9-1.9-15.9-3-23.8-1.7-11.9-3.6-23.7-5.4-35.5-.2-1.2-.2-2.5-.4-3.9,1.7-.9,3.2-1.7,4.8-2.5a250.46,250.46,0,0,0,63-43.3c31.8-30.2,53.1-66.6,63.3-109.2a189.33,189.33,0,0,0,4.8-60c-3.4-44.6-21-83-52.4-114.9a166.61,166.61,0,0,0-52.1-36.2c-1.2-.5-2.9-.6-3.3-2.5.4-.2.7-.6,1.2-.7q73-21,146.1-41.8a11.49,11.49,0,0,1,2.1-.2,13.82,13.82,0,0,1,.8,2.7c.1,2.2.1,4.5.1,6.7v864.4c0,2.1.3,4.2-.8,6.4a26.08,26.08,0,0,1-3.1.4c-21.4,0-42.9-.1-64.3-.2-17.4-.1-34.9-.1-52.3-.2l-162.7-.6c-15.2-.1-30.4-.1-45.6-.2s-30.4-.1-45.6-.1l-156.9-.6c-21-.1-41.9-.1-62.9-.2-10.1,0-20.2-.1-30.2-.1l-157.9-.6c-20.5-.1-41-.1-61.4-.2-10.2,0-20.5-.1-30.7-.1l-157.4-.6c-20.8-.1-41.6-.1-62.4-.2-6.1,0-12.2-.1-18.2-.2C7042,7637.8,7040.4,7638.1,7038.6,7636.9Z" transform="translate(-6239 -6658.5)" style="fill:none;stroke:#000;stroke-miterlimit:10"/><path d="M6761.3,7317.4c4.4-12.2,18.4-44.7,20.7-48,1.8,0,3.2,1.1,4.7,2a508.57,508.57,0,0,1,55.7,34.8c11.8,8.5,23.3,17.5,34.3,27,1.2,1,2.3,2.1,3.6,3.3-.7,1.5-1.2,2.8-1.9,4-11.5,19.6-23,39.1-34.6,58.7-1.4,2.3-2.8,4.6-4.3,7.2a16.24,16.24,0,0,0,2.3,1.8c15.6,9.7,31.3,19.4,46.9,29,1.2.7,2.5,1.3,4,2.1,1-1.5,2-2.8,2.8-4.1,9.4-15.6,18.7-31.3,28.1-46.9,1-1.6,1.6-3.5,3.3-4.6,1.9.5,2.7,2.2,3.8,3.5a414.46,414.46,0,0,1,32.5,43.3c9,13.6,16.8,27.9,24.8,42.2.9,1.7,1.6,3.5,3.2,4.8a12.11,12.11,0,0,0,1.9-.1c14.4-4.2,29-7.8,43-13.5q62.1-25.2,99.6-80.5c16.8-24.5,28.4-51.4,36.1-80.1,2.5-9.3,4.4-18.7,6.5-28a14.34,14.34,0,0,1,.7-2.8,2.54,2.54,0,0,1,1.3-1.2,10.79,10.79,0,0,1,1.9-.3c6.2-.3,12.5-.4,18.7-1,9.1-.8,18.2-1.7,27.2-3a349.12,349.12,0,0,0,57.8-13.6,356.9,356.9,0,0,0,136.8-80.9c2.3-2.2,4.6-4.3,7.1-6.6,1.5.7,2.8,1.3,4,2a172,172,0,0,0,58.4,19.4,210.37,210.37,0,0,0,46.9,1.8,277,277,0,0,0,91.8-22.3c37.1-15.9,70.1-38.2,99.7-65.6,23-21.4,42.8-45.4,60.5-71.2.8-1.2,1.7-2.4,2.5-3.5a4.78,4.78,0,0,1,1.1-.6c.2.6.6,1.1.6,1.6a19.61,19.61,0,0,1-.1,3.4c-.8,10.5-1.7,21-2.5,31.6-.5,6.2-.8,12.4-1.3,18.7l-1.5,18.6c-.4,4.9-.8,9.9-1.2,14.8-.7,9.7-1.4,19.5-2.1,29.2-.1,1.1-.4,2.2-.6,3.5-1.7.5-3.4,1-5.1,1.4-16.7,4.2-32.8,9.8-47.8,18.2-37.9,21.1-61.1,52.9-70.4,95.2a141.14,141.14,0,0,0-2.5,42,132.63,132.63,0,0,0,29.1,72.9c21.2,26.6,48.2,44.6,81.3,52.9a118,118,0,0,0,23.7,3.6c7.5.4,15,1,22.5,1.5a26.91,26.91,0,0,0,7.5,0c1.3-1.5,1.2-3.1,1.3-4.7.9-10,1.8-20.1,2.7-30.1.8-8.8,1.4-17.5,2.2-26.3.8-9.1,1.7-18.1,2.5-27.2.4-4.1.8-8.3,1.1-12.4.8-9.2,1.4-18.5,2.2-27.7s1.7-18.5,2.5-27.7c.8-9.4,1.5-18.8,2.2-28.2.8-9.6,1.7-19.1,2.5-28.7.4-4.9.8-9.9,1.2-14.8.1-1.3.3-2.5.4-3.5,1.3-1.5,2.7-1.4,4.2-1.6,11.6-1,23.3-1.9,34.9-3.2,10.2-1.1,20.3-2.9,30.4-4.3,1.9-.3,3.8-.5,5.4-.8,1.6,1.2,1.6,2.8,1.8,4.1,1.5,9.5,2.9,19,4.1,28.5,1.3,9.3,2.4,18.7,3.5,28.1.9,7.8,1.6,15.6,2.2,23.4.6,6.8,1.1,13.7,1.6,20.6.4,6.2.8,12.4,1.1,18.7,1.2,26.9,1.6,53.7.9,80.6-.4,13.4-1,26.9-1.9,40.3-.9,13.1-2.2,26.1-3.5,39.2-.9,8.7-2,17.5-3,26.2a10.52,10.52,0,0,1-.6,2.1c-2,.7-3.3-.6-4.6-1.3-7.2-3.5-14.2-7.3-21.4-10.7a593.41,593.41,0,0,0-132.7-45c-16.1-3.4-32.3-6.2-48.7-8.2-14.4-1.8-28.9-3-43.5-3.9-13.8-.8-27.5-.7-41.3-.7h-6.3c-2-1.4-2.1-3.3-2.5-4.9-3-11.8-6.1-23.5-8.9-35.3-3.4-14.3-6.1-28.8-8.3-43.3-1.7-10.9-3-21.8-4.3-32.8-1-8.9-2-17.8-2.5-26.7-.7-10.9-.9-21.7-1.4-32.6-.1-3.4-.3-6.7-.7-10-2.1-16.2-16.6-29.2-33-29.3-15.1-.1-26,6.8-32.6,20.3-7.2,14.6-14.2,29.4-21.4,44-4.2,8.6-8.8,17.1-13.2,25.6-.7,1.3-1.4,2.5-2.3,3.9a20,20,0,0,1-3.7-1c-30.7-12.1-59.3-27.8-85.3-48.2a374.13,374.13,0,0,1-29.3-25.5l-4.3-4c-5.4,4.7-10,9.8-14.8,14.7s-9.7,9.8-14.5,14.7l-14.3,14.6c.1,2,1.5,2.7,2.5,3.6,8.6,7.9,17.3,15.7,26,23.5,1.2,1.1,2.4,2.1,3.4,3,.4,1.8-.7,2.7-1.5,3.6a366.35,366.35,0,0,1-26,28.2c-2.9,2.8-5.8,5.5-8.7,8.2a41.15,41.15,0,0,1-3.5,2.9c-1.9,0-2.3-1.4-2.9-2.5-6.1-10.9-12.2-21.7-18.2-32.7-4-7.4-7.8-15.1-11.7-22.6-.7-1.4-1.5-2.8-2.2-4.1-2.2-.3-3.6.8-5.2,1.6-7.5,3.6-14.9,7.3-22.4,11-8,4-16,8-24.1,11.9-1.4.7-2.8,1.5-4,2.1-.6,2.1.6,3.4,1.3,4.7,6.3,12.2,12.6,24.5,19.1,36.6,4.8,9,10,17.8,15.1,26.8.8,1.4,2,2.6,1.8,4.6a44.29,44.29,0,0,1-11.1,6.1c-1.6.6-3.8.1-5.6-.2-4.6-.8-9.1-1.9-13.6-2.8-7.5-1.5-15-3-22.6-4.2-16.4-2.7-31.6,6.4-36.7,21.8a32.11,32.11,0,0,0,1.2,23.4c4,9.2,8,18.5,12,27.7.6,1.3,1,2.6,1.5,4-2,1-3.7.5-5.4.2a202.08,202.08,0,0,0-47.9-1.4,195.73,195.73,0,0,0-61.5,15.8,211.65,211.65,0,0,0-79.8,60.7c-1,1.2-1.7,2.7-3.5,3.4-1.7-.4-2.9-1.7-4.3-2.7-14.9-11.4-29.8-22.7-44.5-34.2-24.6-19.2-49.6-37.9-75.7-54.9-1.3-.9-2.7-1.7-4.1-2.6-1.8.8-3.6,1.6-5.3,2.4-9.2,4.4-18.5,8.8-27.7,13.2-1.6.7-3.2,1.4-4.6,2.1-2.1-1.1-2.1-3.1-2.7-4.6-4.8-12.9-9.5-25.8-14.4-38.6-10.9-28.2-23.1-55.8-37.6-82.4-3.7-6.7-7.6-13.3-11.4-20A42,42,0,0,0,6761.3,7317.4Z" transform="translate(-6239 -6658.5)" style="fill:none;stroke:#000;stroke-miterlimit:10"/><path d="M6988.1,6923.1c-1,5.7-8.5,24.2-18.6,45.8-1.9,4.1-3.5,8.5-6.2,12.3-2.1-.2-3.4-1.5-4.8-2.4a738.13,738.13,0,0,1-68.3-49.6c-10.3-8.4-20.3-17.2-30.4-25.8-1.2-1-2.4-2-3.8-3.1-1.8.4-3.1,1.7-4.4,2.8-15.8,12-31.5,24.1-47.5,35.9q-99.9,73.95-206.5,138.1c-16.6,10-33.3,19.6-50,29.4-1.4.8-2.8,1.5-4,2.1-1.3-.8-.8-1.6-.5-2.3,1.5-3.4,3-6.7,4.5-10.1a385.21,385.21,0,0,0,26-84.6,224.6,224.6,0,0,0,4-46.3c-.7-25.3-6.3-49.4-19.2-71.5-11.1-18.9-26-34-45.5-44.2a107.19,107.19,0,0,0-37.4-11.2c-19.3-2.2-37.9.7-56.3,6.4s-35.5,14.4-51.7,24.9c-6.6,4.2-12.9,9-19.3,13.4-1,.7-2,1.4-3.5,2.3a10,10,0,0,1-.3-2.7c.4-4.6.9-9.2,1.4-13.8.9-7.6,1.7-15.2,2.6-22.9,1.1-9.7,2.3-19.4,3.4-29,.8-6.8,1.5-13.7,2.3-20.5.7-6.4,1.4-12.7,2.2-19.1a37,37,0,0,1,.9-4,25.16,25.16,0,0,1,3.7-.5c9.6.1,19.2.4,28.8.5,8.6.1,17.3.1,25.9.2,22.9.2,45.8.3,68.6.5q44.85.3,89.7.8,50.4.45,100.8,1c29.3.3,58.5.6,87.8.8,37.7.4,75.5.7,113.2,1.1q50.4.45,100.8,1c29.3.3,58.5.5,87.8.8,13.1.1,26.2.4,39.3.6,1.4,0,2.9-.2,4.4.9a22,22,0,0,1-.4,3.6c-6.1,32.2-12.4,64.3-19.8,96.2-9.1,38.9-19.5,77.5-33.4,115-11.6,31.4-25.6,61.7-43,90.4a44.28,44.28,0,0,0-6.9,26c1.1,21.5,16,38.2,36.7,42.2a45.74,45.74,0,0,0,21.4-1.2c14.6-4.2,29.2-8.3,43.8-12.5,2.9-.8,5.8-1.7,8.4-2.4,1.7.9,1.7,2.3,1.9,3.5,1.1,8.7,2.1,17.4,3.1,26.2a284.27,284.27,0,0,1,1.8,29.2c0,1.7.3,3.5-.4,5.4a17.09,17.09,0,0,1-3.2,0,272.93,272.93,0,0,1-77.4-27.5c-28.7-15.2-54.5-34.5-78.3-56.7a8.63,8.63,0,0,1-1.3-1.4c-.2-.2-.3-.6-.6-1,.1-1.7,1.4-3,2.3-4.5,11.4-18.3,22.5-36.8,33-55.7,26.5-47.6,48.8-97.1,65.2-149.1,2-6.3,4.1-12.5,6.1-18.7.1-.3.1-.6.2-1.1-1-1.6-2.9-1.8-4.4-2.4-25.4-10-50.9-20-76.4-29.8q-67.05-26-134.2-51.8c-6.1-2.4-12.2-4.8-18.3-7.1-1.2-.5-2.4-.8-3.4-1.2-2.2.6-3.3,2.3-4.7,3.5-18.9,17.3-37.6,34.8-56.6,51.9-27.7,24.9-56.3,48.9-85.3,72.3-1.4,1.1-2.8,2.1-4.4,3.4a13.05,13.05,0,0,1-2.1-1.8c-2.7-3.9-5.4-7.9-8.1-11.9-8.6-12.9-17.3-25.8-25.9-38.7-.9-1.3-1.7-2.7-2.4-3.8.6-1.8,1.9-1.5,2.9-1.4,7.7.2,15.3.6,23,.6,11.4.1,22.7.1,34.1-.3,10.1-.3,20.1-1.2,30.2-1.8a7.94,7.94,0,0,0,2.2-.6c.1-.7.4-1.1.3-1.6q-2.25-28.65-4.7-57.4a24.84,24.84,0,0,0-.7-3c-1.3,0-2.6-.2-3.8-.1-12.4,1.2-24.9,1.8-37.4,1.8-10.2,0-20.5.1-30.7-.1-8.5-.2-16.9-.7-25.4-1.1a62,62,0,0,0-22.2,2.9c-12.4,4.1-30.9,21.5-35.5,34.1-6.2,16.8-4.7,32.7,5.1,47.6,7.3,11.3,15,22.3,22.5,33.5l34.2,51a50,50,0,0,0,11.7,12.6,46.83,46.83,0,0,0,30.9,9.8,47.62,47.62,0,0,0,28.3-10.7c6.4-5.1,12.8-10.2,19.1-15.3,39.2-31.9,77.6-64.8,114.8-99,4.7-4.3,3.5-4,9.5-1.7q65.4,25,130.7,50.2C6982.7,6920.8,6985.3,6921.9,6988.1,6923.1Z" transform="translate(-6239 -6658.5)" style="fill:none;stroke:#000;stroke-miterlimit:10"/><path d="M7360.4,7078.5c2.3,5.4,4.2,10.4,6.5,15.4s4.9,10,7.7,14.9c2.7,4.7,5.7,9.2,8.5,13.8-.6,2.1-2.4,3.2-3.7,4.5a291.77,291.77,0,0,1-52,39.2,304.18,304.18,0,0,1-97.8,36.8,231.7,231.7,0,0,1-34.2,4.3c-1.6.1-3.2.3-4.8.4s-3.5.5-5.5-.4a15.3,15.3,0,0,1-.6-2.5c-.1-2.6,0-5.1-.1-7.7-.3-13.3-1.3-26.5-2.6-39.7-2.6-25.6-7.4-50.9-13.1-76-1.5-6.5-2.9-13.1-4.4-19.6-.3-1.4-.8-2.7-1.2-4.4-1.9.6-3.6,1-5.2,1.6-21.3,6.7-42.7,13.4-64,20.1-1.9.6-3.8,1.7-5.9,1.3-1-1-.4-1.9,0-2.7,2.1-4.5,4.3-8.9,6.4-13.4,15.3-33,27.3-67.2,37.5-102.1.7-2.3,1.4-4.5,2.1-6.9,1.7.1,1.8,1.3,2.2,2.3,2.7,7.5,5.2,15.1,8.1,22.6a536.29,536.29,0,0,0,107.9,174.3c5.7,6.2,11.8,12.2,17.7,18.2a18.11,18.11,0,0,0,2.1,1.8c.6-.3,1.1-.4,1.4-.8,13.8-14.2,27.7-28.4,41.5-42.6a6,6,0,0,0,.7-1.4c-.5-.6-1-1.2-1.6-1.8-55.1-54.4-94.4-118.5-118.7-191.9a464.48,464.48,0,0,1-17.5-71.6,392.41,392.41,0,0,1-4.8-40.5c-.6-10.5-1-21.1-1.5-31.6v-2.9c.2-3.3.6-3.8,4-4,5.4-.4,10.9-.7,16.3-.9,8.5-.4,16.9-.8,25.4-1.3,8-.4,16-1,23.9-1.5,6.1-.4,12.1-.7,18.2-1,8.1-.4,16.3-.8,24.4-1.3,8.8-.5,17.6-1,26.3-1.6,6.1-.4,12.1-.7,18.2-1,8.3-.4,16.6-.8,24.9-1.3l25.4-1.5c6.1-.4,12.1-.7,18.2-1,8.3-.4,16.6-.8,24.9-1.3l25.4-1.5c6.1-.4,12.1-.7,18.2-1,8.5-.4,16.9-.8,25.4-1.3l24.9-1.5c6.2-.4,12.5-.7,18.7-1.1,8.3-.4,16.6-.8,24.9-1.3l24.9-1.5c6.5-.4,13.1-.8,19.6-1.1a18.29,18.29,0,0,1,3.3.2c.9,2.3.3,4.3,0,6.3-2.1,13.1-5,26.1-8.2,38.9a563.78,563.78,0,0,1-25.9,79.2c-9.8,23.5-22.2,45.4-38.3,65.1-15.8,19.4-34.2,35.9-55.9,48.4a149.26,149.26,0,0,1-48.7,18.1c-4.7.8-9.5,1.3-14.3,1.8-2.5.3-3.4-.4-3.3-2.8,0-5.4,0-10.9.4-16.3,2.1-29.3,12.3-56,26.1-81.6,10.6-19.8,23.3-38.2,37-56a38.21,38.21,0,0,0,7.7-17.3,34.62,34.62,0,0,0-18.1-35.7,34.24,34.24,0,0,0-14.7-3.9c-25.4-1.1-50.9-1.2-76.3-1.1-8.6.1-17.3,0-25.9.3-14.2.4-28.5.9-42.7,1.4-11.7.4-23.3.9-35,1.2-13.3.4-24.5,5.3-33.6,15q-16.5,17.7-33.1,35.4c-10.3,11-14.1,24.2-12.1,38.9a204.37,204.37,0,0,0,13.3,49.9c21.6,52.5,57.5,91.7,109.1,115.9a206.63,206.63,0,0,0,41.2,14.1A44.91,44.91,0,0,0,7360.4,7078.5Z" transform="translate(-6239 -6658.5)" style="fill:none;stroke:#000;stroke-miterlimit:10"/><path d="M7669.6,6767.7a10.76,10.76,0,0,1,2.3,1q67.2,44.4,134.1,88.7c.6,2-.1,3.3-.5,4.6a710.21,710.21,0,0,1-31.3,74.2c-12.6,25.4-26.9,49.8-43.9,72.5-3.3,4.4-6.7,8.6-10,12.9-.6.7-1.3,1.3-2,2-1.9-1-2.3-2.8-3.1-4.3-6.5-12.3-13.3-24.4-20.7-36.2a440.33,440.33,0,0,0-37.3-51.7c-1.1-1.3-2-2.8-3.6-3.7-3.3,2-42.7,35.6-45.8,39,.7,1,1.4,2,2.2,3,24.5,29.1,43.9,61.3,60.1,95.5,2.2,4.7,2.6,4.5-1.6,7.9-24.8,19.3-51.8,34.6-81.8,44.4a226.63,226.63,0,0,1-40.6,9,161.57,161.57,0,0,1-31.1,1c-16.7-1-32.9-4.5-48-12.1-14.6-7.3-25.9-18-34.8-31.5a21.14,21.14,0,0,1-1.1-2.1,3.42,3.42,0,0,1-.1-1.1c1.2-1.1,2.9-1.1,4.4-1.3,39.4-5.9,74-22.6,105-47.3,26.8-21.4,48.5-47.2,66.4-76.4,11.3-18.5,20.3-38.1,28.1-58.2a652.41,652.41,0,0,0,30.5-104.3c1.3-6.6,2.2-13.2,3.3-19.9C7668.8,6771.7,7669.2,6770,7669.6,6767.7Z" transform="translate(-6239 -6658.5)" style="fill:none;stroke:#000;stroke-miterlimit:10"/><path d="M7890.9,7028.8c1.8,20.3,3.9,39.9,5.8,59.2a8.35,8.35,0,0,0,5.3.4c62.4-8.2,113.2-53.4,132.5-108.9a153.76,153.76,0,0,0,8.3-37.3c.5-5.7.7-11.5,1.1-17.2.1-1.3.2-2.5.2-3.7,1.2-.5,1.6.1,2,.9a105.19,105.19,0,0,1,6.4,18.1,125.34,125.34,0,0,1,3.9,37.1,153.26,153.26,0,0,1-22.1,71.7c-13.8,22.9-32.5,41-55,55.3a207.24,207.24,0,0,1-68.9,28,315,315,0,0,1-42.2,5.9c-4.9.4-9.9.9-14.8,1.4a12.1,12.1,0,0,1-1.9.1c-1.6,0-2.4-.7-2.3-2.4.3-4.1.6-8.3.9-12.4.5-5.7,1.1-11.5,1.5-17.2.8-10.5,1.4-21.1,2.2-31.6s1.7-21,2.5-31.6c.4-4.8.7-9.6,1-14.4.8-11.5,1.5-23,2.3-34.5s1.7-23,2.5-34.4c.4-4.9.7-9.9,1-14.8l1.2-21.6c.5-7.7,1.1-15.3,1.6-23s.9-15.3,1.3-23c.1-1.8.1-3.5.3-5.3.3-2.8.8-3.4,3.4-3.8,3.9-.7,7.9-1.3,11.8-2,16.7-2.8,33.4-5.6,50.1-8.3l27.9-4.5a13.42,13.42,0,0,1,2.1-.1c.7.9,1.4,1.7,2,2.6a121,121,0,0,1,17.1,46.5,119.33,119.33,0,0,1,1.6,15.7c.4,25.6-6.5,49-22.6,69.2-13.9,17.5-31.4,29.9-53,36.2-4,1.2-8.1,1.7-12.2,2.6C7894.2,7028.1,7892.8,7028.4,7890.9,7028.8Z" transform="translate(-6239 -6658.5)" style="fill:none;stroke:#000;stroke-miterlimit:10"/><path d="M6805.8,7209.9c4.5-12,9.3-23.3,13.8-34.7s8.8-22.6,13.2-34,8.7-23,12.9-34.6c4.2-11.4,8.2-22.8,12.2-34.3s7.9-23.3,11.7-35c3.8-11.5,7.4-23.1,11-34.5,2-.6,3,.7,4.1,1.5,8,5.6,15.9,11.3,24,16.8,6.9,4.7,13.9,9.2,20.8,13.8l3.9,2.7c-.2,2.3-1.4,3.8-2.4,5.4-10.5,17-20.7,34.3-31.5,51.1-15.1,23.4-30.6,46.5-45.9,69.7-1.8,2.8-3.7,5.6-5.6,8.5,1,1.7,2.6,2.5,4,3.5,12.1,8.1,24.1,16.3,36.2,24.4,3,2.1,6.1,4.1,9.2,6.2a18.56,18.56,0,0,0,1.9,1.1c1.8-1,2.5-2.7,3.5-4.1,6.4-9.5,12.8-19.1,19.3-28.7.9-1.3,1.8-2.6,2.7-3.7,2.2.4,3.3,1.9,4.6,3a462.25,462.25,0,0,0,49.4,37.9c33.1,21.8,68.6,38.3,107,48.2,8,2.1,16.2,3.6,24.3,5.4,1.7.4,3.4.7,5.4,1.2a14.06,14.06,0,0,1,.3,2.8c-6.8,33.3-18.9,64.3-40.8,90.9a150.94,150.94,0,0,1-50,39.7c-1.5.8-3,1.8-5.1,1.8-5.5-7.9-10.9-16-16.6-23.9-5.7-7.7-11.5-15.4-17.5-22.8-6.2-7.6-12.5-15-19.1-22.2s-13.1-14-19.9-20.8-14.1-13.5-21.3-20-14.5-12.6-22-18.6-15.4-12-23.3-17.7-15.7-11.1-23.7-16.3q-12.3-7.95-24.9-15.3C6823.1,7219.4,6814.7,7214.9,6805.8,7209.9Z" transform="translate(-6239 -6658.5)" style="fill:none;stroke:#000;stroke-miterlimit:10"/><path d="M7394.3,6868.3c.4,1.8-.7,2.8-1.4,4-4.6,8.2-9.4,16.3-13.7,24.7-11.1,21.5-19.7,44-24.7,67.8a200.93,200.93,0,0,0-4.5,32.7c-.1,3.2-.4,6.4-.6,9.6a6.07,6.07,0,0,1-.5,1.8c-2.3.1-4.2-1-6-1.9-27.5-12.3-49.1-31.3-65.3-56.6a157.9,157.9,0,0,1-21.3-51.6,5.5,5.5,0,0,1,1.4-5.6c6.5-6.8,12.9-13.7,19.3-20.7a7,7,0,0,1,5-2.4c.8,0,1.6-.1,2.4-.1,14.1-.4,28.1-.8,42.2-1.3,20.9-.9,41.9-.9,62.8-.9C7391,6867.8,7392.8,6867.4,7394.3,6868.3Z" transform="translate(-6239 -6658.5)" style="fill:none;stroke:#000;stroke-miterlimit:10"/><path d="M7768,7361.6c-1.2-.5-2.2-.7-2.9-1.1-17.9-10.4-31.3-24.7-38.3-44.4a74.4,74.4,0,0,1-3.8-32.1,81,81,0,0,1,15-40.4c6.9-9.5,15.9-16.6,26.2-22.1,4.4-2.3,9-4.2,13.5-6.1a11.79,11.79,0,0,1,2.7-.6,8.57,8.57,0,0,1,.5,1.5C7780.9,7221.6,7768.9,7357.2,7768,7361.6Z" transform="translate(-6239 -6658.5)" style="fill:none;stroke:#000;stroke-miterlimit:10"/><rect x="0.5" y="0.5" width="1920" height="1081" style="fill:none;stroke:#000;stroke-miterlimit:10"/></svg>