<svg xmlns="http://www.w3.org/2000/svg" width="1920.75" height="1080.75" viewBox="0 0 1920.75 1080.75"><title>04_Maze</title><path d="M1368.68,99.18c-3.3,30.5-23.1,110-50.7,158.4-28.9,50.5-71.6,86.3-117.3,98.4a145.87,145.87,0,0,1-30.4,4.6,157.22,157.22,0,0,1,1-29.8c5.3-39.9,26.1-82.6,63.4-130.6a33.13,33.13,0,0,0-24.7-53.4c-19.8-.8-39.9-1.2-61.5-1.2-33.3,0-69.3.9-120.4,3.1a43.48,43.48,0,0,0-30.3,14.1c-5.6,6.1-11.4,12.3-17,18.2l-.1.1c-5.6,5.9-11.3,12.1-17,18.2a44,44,0,0,0-11.3,35.6,217.35,217.35,0,0,0,28.9,82.3,214.51,214.51,0,0,0,59.1,64.4,212.2,212.2,0,0,0,80.6,34.8c.4,1.2.9,2.5,1.3,3.7a176.37,176.37,0,0,0,22.5,42.3,294.53,294.53,0,0,1-92.5,62.1,302.12,302.12,0,0,1-109.9,24.3c.3-37-4.2-75.7-13.7-118.4l-6.9-30.9-.2-1.1-1,.3-30.2,9.6c-14.1,4.5-30.7,9.7-47.9,14.8,16.9-33.2,31.3-69.6,43.9-111.1,2.5-8.1,4.9-16.5,7.2-24.9,4.9,15.6,10.5,31.2,16.7,46.2,27.8,67.2,69.4,128.9,120.3,178.4l.7.7.7-.7,40.5-41.6.7-.7-.7-.7c-45.1-43.9-82-98.6-106.7-158.4-24.6-59.5-37.3-123.9-36.5-186.5l439.4-24.6" transform="translate(0 0)" style="fill:none;stroke:#606060;stroke-miterlimit:10;stroke-width:0.75px"/><path d="M1.38,99.28l53.9,5-23.2,201.4a33.2,33.2,0,0,0,21.7,35.1,34.2,34.2,0,0,0,11.4,2A33.09,33.09,0,0,0,93,327.68c20.6-31.5,49-57.9,79.8-74.4,12.5-6.7,31.2-14.7,49.3-14.7a47.14,47.14,0,0,1,18.4,3.4c15,6.2,27.3,22.4,32.2,42.5,4.5,18.7,3.6,40.6-3,68.9a336.71,336.71,0,0,1-82.9,154.3,33,33,0,0,0,24,55.7,33.34,33.34,0,0,0,15.1-3.7,2714.62,2714.62,0,0,0,348-213.1c-30.5,96.3-67.7,184.5-107,277.8-15.6,37.1-31.8,75.5-47.9,115.1-28.3-44-64.3-78.8-107-103.5,22.1-17.1,44.7-34.9,69-54.3,14.1,13.3,27.8,27.2,40.9,41.3l.7.7.7-.7,42.6-39.3.7-.7-.7-.7c-20.1-21.8-41.5-42.8-63.7-62.5l-18.3-16.3-.6-.6-.7.5-19.1,15.3c-74.5,59.8-137,107.8-196.8,151.1l-.8.6.6.8,34,47,.6.8.8-.6c18.5-13.4,37.7-27.6,57.2-42.2a242.69,242.69,0,0,1,69.3,46.8,281.73,281.73,0,0,1,53.1,70.9l10,18.7.3.6.7-.1,20.9-3.9c8.5-1.6,14.5-3.1,19.8-4.5,3.7-1,6.9-1.8,10.3-2.4l15.6-3,.5-.1.2-.5,5.9-14.8c7-17.5,14.6-36.2,23.2-57.2,17.8,36,32,74.5,44,108-17.1,8.1-35.1,16.7-51.8,24.6l-.9.4.4.9,24.9,52.4.4.9.9-.4c20.7-9.9,43.2-20.5,65-30.9l.7-.3c16.5-7.8,32.9-15.6,48.7-23.1,18.5,13.1,36,26.7,54.4,41,17.8,13.8,37.9,29.5,58.8,44.2.3,8.4,1,14.6,1.6,21.2.5,4.6.9,9.4,1.4,15.8l-736,.2V99.28" transform="translate(0 0)" style="fill:none;stroke:#606060;stroke-miterlimit:10;stroke-width:0.75px"/><path d="M1919.38,99.48v882.1l-237-.89-160.92-.6-723.94-2.71c-.5-7.2-1.1-12.6-1.5-17.4a228.78,228.78,0,0,1-1.5-23.6,150.85,150.85,0,0,1,87.2-67.2,135.47,135.47,0,0,1,36.7-5,152.71,152.71,0,0,1,74,19.5,32,32,0,0,0,44.8-40.9c-6.6-15-13.1-30.2-19.4-44.9l-.1-.2-.2-.4a63.32,63.32,0,0,0,27.1-6.6,360.22,360.22,0,0,0,69.4-45.3c21.4-17.7,41.1-38.1,60.4-62.3a416.7,416.7,0,0,0,52.4,25.3,1416.12,1416.12,0,0,1-86.9,129.7,33.65,33.65,0,0,0,1.6,42.8,34.06,34.06,0,0,0,25.5,11.7,34.55,34.55,0,0,0,16.8-4.4,417.3,417.3,0,0,1,116.5-44.1l1-.2-.2-1-12.1-56.7-.2-1-1,.2a456.78,456.78,0,0,0-45.9,12.3c22.6-34.3,43.9-69.9,63.6-105.9a746.6,746.6,0,0,0,29.4,125.2l7.1,21.6.2.7.8-.1,22.7-1.7c12.9-1,26-1.5,39-1.5a532.35,532.35,0,0,1,277,78.2,39.91,39.91,0,0,0,60.3-27.6c20-123,19.1-249.1-2.8-374.8,35-16,65.6-39.2,88.5-67.2,40.6-49.6,57.2-114.3,44.5-173.2-12.5-57.6-54.5-107.4-107.6-127.8l154.8-44.1" transform="translate(0 0)" style="fill:none;stroke:#606060;stroke-miterlimit:10;stroke-width:0.75px"/><path d="M1428.28,105.48l138.5,91.7c-25.5,71.5-54,124.8-89.6,167.6-18.9-37.2-39.7-68.9-63.6-96.9l-.6-.8-.8.6-44.1,37.6-.8.6.6.8c24.7,29,45.2,61.6,64.3,102.6a284.91,284.91,0,0,1-39.6,27.2c-29.7,16.9-60.4,27-91.2,30a171.93,171.93,0,0,1-17.4.9c-26.6,0-50-6.2-67.6-18-10.7-7.1-20.4-17.6-28.1-30.3a195,195,0,0,0,27.6-5.3c32.3-8.5,62.7-24.9,90.4-48.6,24.6-21.1,46.6-48.1,63.7-78,31.2-54.3,54-141,58.3-181.7" transform="translate(0 0)" style="fill:none;stroke:#606060;stroke-miterlimit:10;stroke-width:0.75px"/><path d="M1722.48,193.48c20.7,31.7,26.3,72.1,14.5,105.6-13,36.9-48.1,65.3-85.2,68.9l-1,.1.1,1,5.7,57.7.1,1,1-.1c60.5-6,115.1-49.7,135.9-108.7a172.25,172.25,0,0,0,9.4-64.2,115.37,115.37,0,0,1,10.5,29.3c8.8,40.6-3.6,87.5-32.2,122.5-27.6,33.7-69.1,57.3-116.8,66.5-16.6,3.2-33.7,4.6-51.8,6.2-1.6.1-3.1.3-4.7.4,7.6-97.4,13.8-185.9,18.7-270.2l95.8-16" transform="translate(0 0)" style="fill:none;stroke:#606060;stroke-miterlimit:10;stroke-width:0.75px"/><path d="M1148.48,205.58h9.1c-25.7,40.8-40.7,79.2-45.7,117.2a205.83,205.83,0,0,0-1.8,28.3,147.3,147.3,0,0,1-34.7-18.3,152.53,152.53,0,0,1-40.5-43.3,160.79,160.79,0,0,1-21.7-55.2c3.7-4,7.5-8.1,11.2-12l.1-.2c4-4.2,8.5-9,13-13.8,45.9-1.9,80.2-2.7,111-2.7" transform="translate(0 0)" style="fill:none;stroke:#606060;stroke-miterlimit:10;stroke-width:0.75px"/><path d="M639.28,338.48c17.6,13,36.3,25.8,55.8,38.1-25.5,44.5-53.6,86.4-83.4,130.7l-2.3,3.5-.6.8.8.6,48.1,32.4.8.6.6-.8,2.3-3.5c7.4-11,15-22.3,22.6-33.7,29.7,27,60.9,48.8,92.8,64.9a341.36,341.36,0,0,0,100.4,32.6,269.89,269.89,0,0,1-7.4,30.1c-11.2,36.3-36.2,84.5-91.2,108.7-50.3-79.6-126.8-148.2-215.6-193.4,22.7-55.8,51.8-130,76.3-211.6" transform="translate(0 0)" style="fill:none;stroke:#606060;stroke-miterlimit:10;stroke-width:0.75px"/><path d="M1556.88,357.08c-3,41.8-6.3,85.8-9.8,130.8-34.1,7.6-60.8,20.4-81.5,39.1-41,36.9-56.1,99.1-36.7,151.3,9.4,25.3,26.4,47.6,49.1,64.6s49.1,26.9,76,28.6l28.2,1.7,1,.1.1-1,2.5-28.1c4.4-49.4,11-124.2,17.4-203.7,4.8-.4,9.5-.8,14.6-1.3,18.8-1.6,38.3-3.3,58-7,1.8-.3,3.7-.7,5.8-1.2,17.7,106.3,19.5,213,5.5,317.3a592.66,592.66,0,0,0-282.6-72c-6.4,0-13,.1-19.4.3a687.55,687.55,0,0,1-27.4-182.6,33.17,33.17,0,0,0-63.3-13.4c-11.7,25.3-24.4,50.7-37.6,75.4-48.5-18.5-86.3-42.8-122.7-78.5l-.7-.7-.7.7-40.7,41.4-.7.7.7.7c10.7,10.5,21.7,20.3,32.8,29.2a370.44,370.44,0,0,1-44,45.8c-12.6-21.6-23.5-41.6-34.1-63.1l-.4-.9-.9.4-52,25.7-.9.4.4.9c12,24.2,24.3,46.9,38.7,71.3-4.6,2.6-9.2,5.1-13.8,7.4a2,2,0,0,1-1.1.3,1.27,1.27,0,0,1-.6-.1c-4.4-.8-9.1-1.8-14.1-2.9h-.1c-9.5-2-19.3-4.1-28.2-5.2a25.49,25.49,0,0,0-3.9-.2,31,31,0,0,0-28.3,43.5c5.4,12.3,10.8,24.8,15.4,35.5a209,209,0,0,0-38.5-3.6,193.38,193.38,0,0,0-52.8,7.2,209.86,209.86,0,0,0-74.3,38.7,213.59,213.59,0,0,0-35,36.1c-14.5-10.7-28.5-21.5-43.4-33.1-22.7-17.7-46.2-36-71.8-53.1l-13.7-9.2-.5-.3-.5.2-14.9,7.1c-7.7,3.7-15.7,7.5-23.8,11.3-17.7-49.5-37.7-102.1-68.9-152.8L520,654l2.5-5.9V648c5.8-13.8,11.8-28,17.7-42a511,511,0,0,1,101.6,69.6c-13,23.3-26,45.3-40.7,69.1l-.5.9.9.5,49.3,30.5.9.5.5-.9c12.1-19.5,23.1-38.1,33.8-56.7a431.6,431.6,0,0,1,53.5,75.3l11.2,20.1.4.7.8-.2,22.1-6.3c73.9-21.6,128.4-77.1,153-156.7a342.91,342.91,0,0,0,10.3-43.4,367.85,367.85,0,0,0,143.6-31.3,359.41,359.41,0,0,0,108.1-74.5c26.8,16.2,58.6,24.4,94.7,24.4a234.59,234.59,0,0,0,23.6-1.2c39.2-3.9,77.9-16.5,115-37.6,34-19.3,65.1-44.8,92.5-75.7a462.43,462.43,0,0,0,42.1-56" transform="translate(0 0)" style="fill:none;stroke:#606060;stroke-miterlimit:10;stroke-width:0.75px"/><path d="M1541.88,551.38c-3.8,46.7-8.1,96.5-13,152.4-20.2-9.6-36.6-26.9-43.9-46.6-10.8-29.2-2.2-65.2,20.6-85.7,9.5-8.5,21.3-15.1,36.3-20.1" transform="translate(0 0)" style="fill:none;stroke:#606060;stroke-miterlimit:10;stroke-width:0.75px"/><rect x="0.38" y="0.38" width="1920" height="1080" style="fill:none;stroke:#606060;stroke-miterlimit:10;stroke-width:0.75px"/><path d="M114.88,111l754.7,7.2c-11.9,62.9-23.3,119.7-40.6,176.4-15.7,51.6-34.5,95-57.4,132.7a43.45,43.45,0,0,0,48.4,64.6c16.8-4.5,35.3-9.8,56.5-16.3a435.12,435.12,0,0,1,6,69,275.17,275.17,0,0,1-78.1-26c-30.2-15.2-58.7-35.7-87.2-62.7,31.9-50.5,71.8-119,99-202.2l8.5-26,.3-.9-.9-.3-25.4-10c-33.8-13.3-65.4-25.4-96-37.1h-.1l-.2-.1c-30.4-11.6-61.9-23.7-95.3-36.9l-17.1-6.7-.6-.2-.5.4-13.4,12.6c-42.3,39.8-89.9,81.1-137.7,119.5-6.9-10.2-13.9-20.7-20.1-30-7-10.4-14.2-21.2-21.5-32.1,12.6.7,25.5,1.1,38.2,1.1,18.8,0,37.7-.8,56.3-2.3l1-.1-.1-1-4.8-57.8-.1-1-1,.1c-16.9,1.4-34.2,2.1-51.3,2.1-14.8,0-29.7-.5-44.3-1.6-1.2-.1-2.5-.1-3.7-.1a51.16,51.16,0,0,0-35.6,14.3c-1.6,1.5-3.2,3.1-4.8,4.6a49.4,49.4,0,0,0-7.1,63.9c9.8,14.5,19.6,29.1,29.1,43.3,9.2,13.8,18.7,28,28.4,42.3a46.79,46.79,0,0,0,31.5,20,41.66,41.66,0,0,0,7.1.5,46.39,46.39,0,0,0,28.9-10.1c47.6-37.8,95.6-78.9,139-119,27.2,10.6,53.1,20.5,78.2,30.1l.2.1c22.1,8.4,44.9,17.2,68.6,26.4-7.7,20.5-16.4,40.6-26.6,61.6a767,767,0,0,1-89.9-66.4l-17.8-15.4-.6-.5-.6.5-18.7,14.3a2645.31,2645.31,0,0,1-298.4,197.1,394.32,394.32,0,0,0,30.9-86c8.8-37.7,9.7-68.4,2.9-96.6-9.4-38.9-34.7-70.3-67.7-83.8a107.53,107.53,0,0,0-41.4-8c-24.4,0-50.5,7.3-77.5,21.8a265.27,265.27,0,0,0-43.2,29L114.88,111" transform="translate(0 0)" style="fill:none;stroke:#606060;stroke-miterlimit:10;stroke-width:0.75px"/></svg>