<svg xmlns="http://www.w3.org/2000/svg" width="1920" height="1080" viewBox="0 0 1920 1080"><defs><style>.a{fill:#fff;}</style></defs><title>03_maze_alt</title><path d="M252,227.6a23.43,23.43,0,0,1,3.59,4.95Q270.3,258,285,283.48c.68,1.19,1.34,2.39,1.92,3.63a3.28,3.28,0,0,1-1.31,4,3.24,3.24,0,0,1-4.16-.22,12.69,12.69,0,0,1-1.67-2.32c-2.76-4.74-5.49-9.49-8.24-14.24L251.2,239c-.55-.95-1.11-1.89-1.67-2.84a2.19,2.19,0,0,0-2-1.17c-1.1,0-2.19,0-3.29,0q-26.12,0-52.25,0a12.84,12.84,0,0,0-4.64.35c-.64,1.08-1.36,2.25-2,3.43l-27.57,47.72c-.69,1.19-1.36,2.38-2.11,3.52a3.66,3.66,0,0,1-3.11,1.71q-1.85,0-3.7,0H94.08c-1.5,0-3,0-4.28,0a5.82,5.82,0,0,0-2.2,2.7Q79.78,308,72,321.58q-5.65,9.79-11.31,19.59c-.68,1.18-1.32,2.39-1.94,3.5a10.52,10.52,0,0,0,1.79,3.8Q70.47,365.77,80.46,383l7,12.11c.41.71.84,1.41,1.29,2.1a1.7,1.7,0,0,0,1.36.82c1.37.05,2.74.07,4.11.07h55.13a34,34,0,0,1,3.7.1,3.44,3.44,0,0,1,3,4.17,3.51,3.51,0,0,1-2.74,2.73,8.53,8.53,0,0,1-1.23.11c-1.23,0-2.47,0-3.7,0H94c-1.5,0-3,0-4.28,0a6.37,6.37,0,0,0-2.17,2.74q-5.57,9.61-11.1,19.23Q68.55,441,60.63,454.71c-.68,1.18-1.31,2.39-1.95,3.55a8.28,8.28,0,0,0,.46,1.25Q74,485.14,88.79,510.76a3.37,3.37,0,0,0,.62.61,16.45,16.45,0,0,0,4.45.22q27.77,0,55.54,0a33.89,33.89,0,0,1,3.7.1,3.5,3.5,0,0,1,.1,6.9,18.38,18.38,0,0,1-2.46.13H94a20,20,0,0,0-4.5.19c-1.17.86-1.65,2.18-2.33,3.36Q76.53,540.63,65.95,559q-3,5.16-6,10.33c-.47.83-.89,1.68-1.38,2.61.67,1.23,1.3,2.44,2,3.62l27.75,48.09c.68,1.19,1.36,2.38,2,3.6a3,3,0,0,1,0,2.78c-.55,1.1-1.16,2.17-1.78,3.24q-13.87,24-27.74,48.09a24.81,24.81,0,0,0-2.08,3.87A13.17,13.17,0,0,0,60.59,689Q74.45,713,88.34,737.08c.68,1.19,1.35,2.38,2,3.6a3,3,0,0,1,0,2.78c-.54,1.11-1.17,2.17-1.79,3.24L60.82,794.79a29.74,29.74,0,0,0-2.17,4c.38.75.7,1.5,1.11,2.2q14,24.22,28,48.44c.27.48.53,1,.83,1.42a2.23,2.23,0,0,0,2,1.18c.82,0,1.65,0,2.47,0h53.89c1.09,0,2.19-.05,3.17-.08a7.2,7.2,0,0,0,2.27-3q10-17.26,20-34.54l8.22-14.25c.27-.47.59-.93.82-1.43,1.16-2.52,2.95-3.92,5.86-3.43h57.6c1.1,0,2.2,0,3.28-.11a1.82,1.82,0,0,0,1-.59,7.28,7.28,0,0,0,.92-1.35q14.19-24.57,28.36-49.16a7.34,7.34,0,0,0,.73-1.47,1.79,1.79,0,0,0,0-1.19c-.53-1.11-1.13-2.19-1.74-3.26q-14-24.22-28-48.45c-.61-1.07-1.19-2.16-1.72-3.27a2.66,2.66,0,0,1,0-2.39c.55-1.1,1.12-2.2,1.73-3.26q12.23-21.2,24.47-42.38,2.88-5,5.76-10a20.31,20.31,0,0,1,1.32-2.08,3.4,3.4,0,0,1,3.71-1.11,3.51,3.51,0,0,1,2.43,3,3.06,3.06,0,0,1-.28,1.58c-.59,1.23-1.25,2.44-1.94,3.62q-13.66,23.69-27.34,47.37c-.41.71-.78,1.46-1.25,2.12a3.65,3.65,0,0,0-.1,4.51c3.81,6.35,7.45,12.79,11.15,19.21q8.94,15.49,17.89,31c2.55,4.41,2.53,4.3.06,8.56l-28,48.44c-.55.95-1.08,1.91-1.63,2.85a2.15,2.15,0,0,0,0,2.33c.55.95,1.07,1.91,1.62,2.86l26.32,45.59c.48.83,1,1.67,1.46,2.48a2.21,2.21,0,0,0,2,1.19c.82,0,1.65,0,2.47,0h53.89c1.09,0,2.18,0,3.19-.07,1.29-.89,1.78-2.21,2.45-3.37q9.28-16,18.51-32.05l8-13.89c.68-1.19,1.35-2.38,2-3.49-.13-1.57-1.06-2.64-1.73-3.81Q362,771.33,348.12,747.29c-.62-1.07-1.25-2.13-1.83-3.21a4,4,0,0,1,0-3.93c.52-1,1.07-1.91,1.62-2.86l27.35-47.37c.82-1.42,1.61-2.86,2.37-4.21-.18-1.56-1.09-2.63-1.76-3.8q-14-24.23-27.95-48.45c-.62-1.07-1.25-2.13-1.79-3.24a3.6,3.6,0,0,1,0-3.19c.53-1.11,1.18-2.16,1.8-3.23l27.35-47.37c.82-1.42,1.61-2.86,2.36-4.21a10.33,10.33,0,0,0-1.78-3.8q-13.55-23.52-27.13-47c-.75-1.31-1.53-2.6-2.23-3.94a6.43,6.43,0,0,1-.66-1.92,3.4,3.4,0,0,1,5.86-2.75,22.31,22.31,0,0,1,1.79,2.75q7.32,12.63,14.61,25.28,6.89,11.93,13.79,23.86a14.94,14.94,0,0,0,2.31,3.51c.89,0,1.84.14,2.79.14h55.54c.41,0,.83,0,1.23,0a2.53,2.53,0,0,0,2.6-1.61c.44-.85,1-1.66,1.44-2.49l26.94-46.66c.69-1.19,1.39-2.36,2.05-3.56a4.27,4.27,0,0,1,4-2.4h58.42a14.87,14.87,0,0,0,4.59-.31c.68-1.14,1.39-2.31,2.08-3.49l27.78-48.07a33.05,33.05,0,0,1,2.16-3.49,3.4,3.4,0,0,1,5.59.39,3.19,3.19,0,0,1,.26,3.14c-.45,1-1,1.95-1.56,2.9q-4.21,7.31-8.43,14.6-9.87,17.09-19.74,34.19c-.68,1.18-1.32,2.39-1.92,3.49a12.8,12.8,0,0,0,1.85,3.8q14,24.23,28,48.44c.62,1.07,1.26,2.13,1.78,3.24a3.48,3.48,0,0,1-2.76,4.92,3.11,3.11,0,0,1-2.93-1.16,24.75,24.75,0,0,1-2-3.1q-6.7-11.57-13.36-23.15l-14.61-25.28c-.68-1.18-1.39-2.36-2.15-3.64-.94-.09-1.88-.25-2.82-.25-6.72,0-13.44,0-20.16,0H487.09c-1.23,0-2.47,0-3.7,0a1.94,1.94,0,0,0-1.71,1c-.56.94-1.13,1.88-1.67,2.83L454.31,567.1c-1.16,2-2.35,4-3.51,6a4.32,4.32,0,0,1-4.06,2.32c-1.1,0-2.19,0-3.29,0q-27.56,0-55.13,0c-5,0-4-.57-6.62,3.91Q368.52,602.17,355.39,625c-.68,1.18-1.32,2.39-1.92,3.47a18.43,18.43,0,0,0,2.13,4.18q13.87,24,27.75,48.09c.55.95,1.12,1.89,1.61,2.87a3.74,3.74,0,0,1,0,3.56c-.58,1.09-1.2,2.16-1.81,3.23q-13.87,24-27.74,48.09a13.69,13.69,0,0,0-1.87,3.74,15.5,15.5,0,0,0,.65,1.42q14.6,25.29,29.22,50.56a8.37,8.37,0,0,0,.83,1c.64,0,1.32.13,2,.14,10.78.2,55.25.08,58.82-.16a8,8,0,0,0,2.14-3q6.19-10.68,12.34-21.37,8.12-14.07,16.25-28.13a24.46,24.46,0,0,1,1.74-2.78,3.27,3.27,0,0,1,3.29-1.25,3.5,3.5,0,0,1,2.76,2.71,3,3,0,0,1-.19,2c-.53,1.11-1.12,2.19-1.74,3.26q-13.77,23.87-27.55,47.73-.93,1.6-1.84,3.21a2.25,2.25,0,0,0-.06,2.34q.7,1.25,1.43,2.5l26.51,46c.48.83,1,1.65,1.47,2.47a2.2,2.2,0,0,0,2,1.2c1,0,1.92,0,2.88,0h53.07c1.23,0,2.45-.06,3.52-.09a5.72,5.72,0,0,0,2.12-2.67q6-10.31,11.95-20.65l15.2-26.36c.61-1.07,1.2-2.15,1.7-3a6,6,0,0,0-1.27-3.22q-7.18-12.47-14.4-24.93l-14.18-24.58c-.55-.95-1.12-1.89-1.57-2.88a3.74,3.74,0,0,1,0-3.2c.46-1,1-1.93,1.58-2.88L572,689.5c.75-1.3,1.45-2.63,2.1-3.81-.17-1.63-1.1-2.7-1.78-3.87q-13.24-23-26.51-46c-.48-.83-1-1.64-1.45-2.48a2.17,2.17,0,0,0-2-1.16c-1,0-1.92,0-2.88,0H486.39q-1.64,0-3.28.1a1.63,1.63,0,0,0-1.35.82c-.63,1.06-1.27,2.11-1.89,3.18L452.1,684.37c-.62,1.07-1.24,2.13-2,3.14a3.34,3.34,0,0,1-3.69,1.12,3.42,3.42,0,0,1-2.47-3,3.69,3.69,0,0,1,.27-1.59,23.62,23.62,0,0,1,1.32-2.55Q460.79,655.16,476,628.8c.41-.71.84-1.42,1.31-2.09a3.51,3.51,0,0,1,2.75-1.58c1-.06,1.92-.06,2.88-.06H543l2.47,0a3.92,3.92,0,0,1,3.4,2c.6.92,1.12,1.89,1.67,2.83l27.55,47.73c.75,1.3,1.54,2.58,2.12,3.55a3.25,3.25,0,0,0,2.28.62c1.23,0,2.47,0,3.7,0h54.31c1.23,0,2.47,0,3.7.06a3.49,3.49,0,0,1,2.76,5.18,3,3,0,0,1-1.86,1.51,7.15,7.15,0,0,1-1.61.3c-1.23,0-2.47,0-3.7,0q-27.36,0-54.72,0a12.3,12.3,0,0,0-4.56.35c-.29.39-.66.8-.94,1.26-3.35,5.44-28.11,48.61-29.49,51.39,0,1.14.77,2,1.31,2.91q9.33,16.22,18.7,32.42,4.21,7.3,8.44,14.6c.62,1.06,1.27,2.1,1.75,2.89a3.12,3.12,0,0,0,2.22.59c1.23,0,2.47,0,3.7,0h54.31l3.29,0a3.71,3.71,0,0,1,3.36,2c.56.94,1.12,1.89,1.67,2.84l27.57,47.71a21.36,21.36,0,0,0,2.53,4c.67.07,1.48.21,2.28.22,4.66,0,9.33,0,14,0h40.32c1.23,0,2.47,0,3.7-.06a1.64,1.64,0,0,0,1.36-.82c.74-1.15,1.42-2.34,2.11-3.53L770.27,800c.62-1.07,1.22-2.15,1.92-3.16a3,3,0,0,1,2.41-1.39c1.23-.06,2.47-.07,3.7-.07h58.83c5.34,0,5.21-.44,8.09,4.55Q859.08,823.94,873,848c.75,1.3,1.53,2.59,2.26,3.8a8.08,8.08,0,0,0,1.36.26H936a4.75,4.75,0,0,0,2-2.3q5.66-9.79,11.31-19.59l15.84-27.42c.55-.95,1.08-1.91,1.62-2.86a2,2,0,0,0,.07-2c-.3-.61-.65-1.2-1-1.8q-13.67-23.68-27.36-47.36c-1.86-3.21-1.4-3.16-5.44-3.16h-56c-1.37,0-2.75,0-4.11-.08a3.41,3.41,0,0,1-2.74-1.6c-.66-1-1.27-2.12-1.89-3.18Q854.61,716.86,840.83,693a17.23,17.23,0,0,0-2.41-3.75,12.93,12.93,0,0,0-4.54-.33q-20.57,0-41.14,0H780.8c-1,0-1.92,0-2.88.09a1.73,1.73,0,0,0-1.35.83q-1.08,1.75-2.11,3.53l-27.35,47.37c-.62,1.07-1.24,2.13-1.91,3.17a3.41,3.41,0,0,1-2.73,1.61c-1,.07-1.92.09-2.88.09H679.54a30.74,30.74,0,0,1-3.29-.12,3.31,3.31,0,0,1-2.94-3.39,3.36,3.36,0,0,1,3-3.4c1.36-.12,2.74-.11,4.11-.11H735.5c1.23,0,2.47,0,3.7-.06a1.69,1.69,0,0,0,1.38-.76c.39-.56.75-1.15,1.09-1.74l27.77-48.08c.34-.59.68-1.19,1-1.81a1.74,1.74,0,0,0,0-1.58q-1-1.81-2-3.59-13.77-23.86-27.55-47.73a26.66,26.66,0,0,1-1.84-3.66,3.07,3.07,0,0,1,.87-3.38,3.33,3.33,0,0,1,5.07.28,31.47,31.47,0,0,1,2,3.14q11,19,22,38.11c2.26,3.92,4.51,7.84,6.8,11.75.47.81,1.08,1.55,1.65,2.35,1.6,0,3.11,0,4.61,0h55.13c1.23,0,2.47,0,3.7.07a3.14,3.14,0,0,1,2.44,1.35,40.62,40.62,0,0,1,2.16,3.49q11.52,19.94,23,39.89c1.71,3,3.42,5.94,5.14,8.9.55.94,1.16,1.86,1.69,2.71a11.62,11.62,0,0,0,4.19.33q14.81,0,29.62,0h23.45c1.1,0,2.19,0,3.29-.06a1.68,1.68,0,0,0,1.36-.81c.46-.68.88-1.39,1.29-2.1l27.14-47a12.1,12.1,0,0,1,.82-1.42c1-1.3.75-2.51-.09-3.77-.53-.8-1-1.66-1.45-2.49q-13.57-23.51-27.14-47c-.75-1.3-1.5-2.62-2.14-4a3.45,3.45,0,0,1,5.87-3.46,28.3,28.3,0,0,1,1.74,2.79q8.65,15,17.28,29.91Q966.75,670,973,680.88c.61,1.07,1.18,2.16,1.73,3.27a2.66,2.66,0,0,1,0,2.39c-.53,1.11-1.11,2.2-1.72,3.27q-11.19,19.42-22.4,38.83c-2.33,4-4.65,8.08-7,12.11a2.46,2.46,0,0,0,0,2.7c.56.94,1.1,1.9,1.65,2.85q13.88,24,27.75,48.09c.61,1.07,1.17,2.16,1.72,3.27a2.7,2.7,0,0,1,0,2.39c-.4.87-.83,1.73-1.31,2.56Q958.22,829,943,855.31c-.68,1.18-1.48,2.28-2.22,3.42H870.83a2.85,2.85,0,0,0-.19-.77c-4-6.88-8-13.74-12-20.62q-9.16-15.84-18.29-31.69c-2-3.38-1.63-3.27-5.39-3.27h-54.3c-.82,0-1.65,0-2.47.07a2,2,0,0,0-1.72,1q-1.07,1.75-2.1,3.54l-27.56,47.71a21.64,21.64,0,0,1-2.74,4.09H674.16a2.06,2.06,0,0,0-.09-.78q-15.29-26.49-30.61-53c-.27-.47-.56-.94-.85-1.41a2.33,2.33,0,0,0-2-1.17c-.82,0-1.64,0-2.46,0h-53.8c-1,0-1.91,0-2.87.1a1.81,1.81,0,0,0-1.38.79c-.39.56-.75,1.14-1.1,1.73q-15.32,26.47-30.62,53a2.13,2.13,0,0,0-.1.78H478.32a25.14,25.14,0,0,1-2.93-4.45q-13.87-24-27.76-48.07c-2.43-4.2-1.57-3.84-6.7-3.84H388.29c-.82,0-1.65,0-2.47,0a2.74,2.74,0,0,0-2.72,1.48c-.6,1.08-1.22,2.14-1.84,3.21Q366.53,832.51,351.81,858a3,3,0,0,0-.2.77H281.66c-.94-1.51-1.93-3-2.82-4.52Q265,830.36,251.28,806.5c-.62-1.07-1.26-2.12-1.89-3.18a1.71,1.71,0,0,0-1.35-.83c-1-.09-1.91-.12-2.87-.12H191.29c-1,0-1.92,0-2.87.1a1.71,1.71,0,0,0-1.38.77c-.37.57-.74,1.15-1.09,1.74l-31,53.74h-130a4.77,4.77,0,0,0-2.77-.54c-4.5-.12-9-.21-13.51-.32-1.5,0-3-.1-4.5-.22a5.24,5.24,0,0,1-1.55-.45.9.9,0,0,1-.49-.57,23.64,23.64,0,0,1-.21-2.84q0-12.9,0-25.8,0-11.87,0-23.75a30.72,30.72,0,0,0-.17-3.67,1.27,1.27,0,0,0-1.48-1.09v-.82a2.4,2.4,0,0,0,1.6-2.16c0-1,0-1.91,0-2.86q0-22.87,0-45.75c0-1,0-1.91-.06-2.86a1.49,1.49,0,0,0-1.58-1.5v-4.94A1.85,1.85,0,0,0,1,737.22c.18-2.46.46-4.91.49-7.37.15-13.43.24-26.87.34-40.3a13,13,0,0,0-.14-2.46,1.43,1.43,0,0,0-1.48-1.16v-.82A2.18,2.18,0,0,0,1.85,683q0-1.23,0-2.47,0-51.81,0-103.63c0-1,0-1.92-.09-2.87a1.68,1.68,0,0,0-1.55-1.63v-.82a1.92,1.92,0,0,0,1.55-1.7c.08-1,.1-1.91.1-2.87q0-51.81,0-103.62c0-1,0-1.92-.09-2.87a1.79,1.79,0,0,0-1.55-1.66V458a1.77,1.77,0,0,0,1.55-1.65,19.63,19.63,0,0,0,.07-2c-.08-11.91-.18-23.82-.23-35.73,0-3.84-.36-7.65-.54-11.47a2,2,0,0,0-.85-1.75V400.4a4.55,4.55,0,0,0,.79-.93,10,10,0,0,0,.88-4.37c0-15.22,0-30.44,0-45.66a24.42,24.42,0,0,0-.1-2.46,2,2,0,0,0-1.55-1.71v-.82a1.58,1.58,0,0,0,1.55-1.59c.08-1.37.09-2.74.09-4.11q0-30.43,0-60.87,0-17.48,0-35c0-3.56,0-7.13,0-10.69,0-2.3.33-2.62,2.57-2.75,1.51-.09,3-.12,4.52-.15,6.72-.09,13.44-.14,20.15-.26,25.77-.45,51.55-.59,77.32-.72,12.34-.06,24.68-.2,37-.3a7.24,7.24,0,0,0,3.23-.44Z"/><path d="M1067.49,858.73q-7.69-13.35-15.38-26.7-8.22-14.25-16.45-28.49c-.55-.95-1.11-1.9-1.6-2.87a4,4,0,0,1-.07-3.58c.34-.75.8-1.44,1.21-2.15q15.1-26.18,30.21-52.36a25.12,25.12,0,0,1,1.78-2.76,3.34,3.34,0,0,1,4.1-.85,3.39,3.39,0,0,1,1.78,4.15,23.29,23.29,0,0,1-1.5,2.92q-6.05,10.51-12.13,21-8.12,14.07-16.24,28.14c-.68,1.18-1.3,2.39-1.93,3.57.28.61.48,1.12.74,1.59q14.6,25.28,29.22,50.56a8,8,0,0,0,.84,1c.77,0,1.59.13,2.4.14,17.51.23,54.23.12,58.41-.17,1.17-.83,1.65-2.16,2.33-3.33q7.83-13.52,15.63-27.06l12.34-21.37,1.45-2.49a4.09,4.09,0,0,1,4-2.32c.82.05,1.65,0,2.47,0h59.24q1.65,0,3.29,0a3.3,3.3,0,0,1,2.77,1.53c.69,1,1.31,2.09,1.93,3.15q13.88,24,27.76,48.08a14.43,14.43,0,0,0,2.48,3.75,9.27,9.27,0,0,0,1.23.17h58c.54,0,1.09-.08,1.57-.12a10.45,10.45,0,0,0,2.36-3.41q8.56-14.76,17.08-29.55l9.45-16.39c.68-1.18,1.34-2.38,2-3.57a16.71,16.71,0,0,0-2.07-4.08q-14-24.22-28-48.44a30,30,0,0,1-1.73-3.27,3.47,3.47,0,0,1,2.81-4.59,3.12,3.12,0,0,1,3,1.1,21.23,21.23,0,0,1,1.8,2.74q5.16,8.89,10.29,17.8,9,15.67,18.1,31.34c.68,1.18,1.41,2.33,2,3.33a9.67,9.67,0,0,0,3.89.37q16.66,0,33.32,0H1428c3.55,0,4.14,0,6.2,3.54q14.15,24.59,28.36,49.16c.55.95,1.09,1.9,1.66,2.84a2.2,2.2,0,0,0,2,1.19c.82,0,1.65,0,2.47,0h53.89c1.09,0,2.18,0,3.18-.07,1.3-.89,1.78-2.21,2.46-3.38q9.07-15.65,18.1-31.33l9.87-17.1a14.78,14.78,0,0,0,.82-1.43c1.12-2.57,3-3.87,5.85-3.43h60.47q1.65,0,3.29,0a3.51,3.51,0,0,1,3,1.81c.58.93,1.13,1.88,1.68,2.83l27.57,47.71c.69,1.19,1.38,2.37,2.12,3.52a1.67,1.67,0,0,0,1.38.78c.68,0,1.37.05,2.05.05H1720c.82,0,1.63-.07,2.26-.09a6.15,6.15,0,0,0,2.12-2.71q6.5-11.21,13-22.43L1753,799.77c.55-.95,1.09-1.9,1.71-2.81a3.35,3.35,0,0,1,2.74-1.58c1.23,0,2.47,0,3.7,0h55.13c1.5,0,3,0,4.33,0a10.08,10.08,0,0,0,2.48-3.5q9.79-16.9,19.55-33.83,3.8-6.59,7.6-13.18c.48-.83.91-1.68,1.36-2.51a7.09,7.09,0,0,0-.42-1.21q-14.68-25.47-29.4-50.93a6.2,6.2,0,0,0-.8-.92,13.68,13.68,0,0,0-4.51-.3q-21.8,0-43.61,0H1763c-.82,0-1.65,0-2.46.1a1.74,1.74,0,0,0-1.34.85c-.66,1-1.3,2.1-1.92,3.16l-27.34,47.37c-.62,1.07-1.24,2.13-1.87,3.2a3.86,3.86,0,0,1-3.4,2c-.82,0-1.64,0-2.47,0h-60.06a29.79,29.79,0,0,1-3.28-.13,3.41,3.41,0,0,1-3-3.41,3.47,3.47,0,0,1,3-3.38c1.36-.11,2.74-.11,4.11-.11h55.13a20,20,0,0,0,4.41-.17,11.74,11.74,0,0,0,2.37-3.45q9.48-16.37,18.92-32.76l9.25-16c.34-.59.71-1.17,1-1.78a4.35,4.35,0,0,1,4.32-2.55c1.09.05,2.19,0,3.29,0q27.36,0,54.72,0a16.09,16.09,0,0,0,4.48-.23,6.26,6.26,0,0,0,.83-.94q14.71-25.46,29.38-50.94a8.64,8.64,0,0,0,.47-1.25c-.56-1-1.12-2.13-1.74-3.19q-13.46-23.33-26.94-46.65c-2-3.41-1.55-3.14-5.43-3.14H1762c-1.23,0-2.47,0-3.7,0a7.1,7.1,0,0,1-1.62-.25,3.51,3.51,0,0,1-2.47-3.41,3.64,3.64,0,0,1,2.66-3.29,6.52,6.52,0,0,1,1.22-.15c1.23,0,2.47,0,3.7,0q27.36,0,54.72,0a15.28,15.28,0,0,0,4.48-.24,6.43,6.43,0,0,0,.82-.94q14.8-25.64,29.58-51.3a4,4,0,0,0,.21-1c-.66-1.18-1.39-2.5-2.14-3.8l-27.54-47.73c-.48-.83-.93-1.68-1.45-2.49a4.27,4.27,0,0,1,.09-5c.52-.8,1-1.65,1.45-2.49q13.77-23.86,27.54-47.73a18.09,18.09,0,0,0,2.1-4.12c-.71-1.27-1.44-2.59-2.19-3.89l-27.54-47.73c-.62-1.07-1.23-2.14-1.82-3.22a3.49,3.49,0,0,1,.07-3.53c.53-1,1.07-1.91,1.62-2.86q13.87-24,27.74-48.09a18.91,18.91,0,0,0,2.06-3.93c-1.23-2.58-26.6-46.85-29.68-51.8a13.36,13.36,0,0,0-1-1.25,10.57,10.57,0,0,0-1.29-.16h-58.42a9.69,9.69,0,0,0-1.2.14c-1.17.87-1.65,2.2-2.33,3.37q-10.2,17.62-20.37,35.25-3.39,5.88-6.78,11.76c-.48.83-.91,1.68-1.33,2.44a11.5,11.5,0,0,0,1.81,3.78q9.54,16.57,19.12,33.12,4.63,8,9.26,16a29.24,29.24,0,0,1,1.52,2.91,3.42,3.42,0,0,1-1.68,4.19,3.24,3.24,0,0,1-4.11-.71,22.23,22.23,0,0,1-1.8-2.74q-5.77-10-11.52-19.94l-18.3-31.69c-.55-.95-1.12-1.89-1.61-2.87a4,4,0,0,1,0-3.58c.35-.74.78-1.45,1.19-2.16q15.11-26.18,30.23-52.35c.88-1.52,2-2.92,2.94-4.37h165.39V857.08a25.74,25.74,0,0,1-2.8.49c-1.77.12-3.55.16-5.32.18l-27.44.3-16.38.18a3.7,3.7,0,0,0-2.35.5H1657.48a24.33,24.33,0,0,1-2.94-4.45q-13.87-24-27.76-48.07c-2.43-4.2-1.59-3.84-6.7-3.84q-26.32,0-52.65,0-1.44,0-2.88,0a2.3,2.3,0,0,0-2.06,1.13c-.63,1.06-1.27,2.11-1.89,3.18Q1545.78,832.33,1531,858a3,3,0,0,0-.2.77h-69.94c-1-1.62-2.08-3.21-3-4.87q-13.69-23.67-27.34-47.35c-.62-1.07-1.26-2.12-1.89-3.18a1.68,1.68,0,0,0-1.35-.83c-1.23-.09-2.46-.13-3.69-.13h-52.23c-1.1,0-2.19,0-3.29,0a2.27,2.27,0,0,0-2,1.16c-1.1,1.9-2.21,3.79-3.31,5.68l-28.54,49.47h-69.94c-1.18-2-2.38-4-3.54-6l-26.74-46.27c-.55-.95-1.13-1.88-1.66-2.84a2.29,2.29,0,0,0-2-1.19c-.68,0-1.37,0-2.05,0h-54.7a24.6,24.6,0,0,0-2.46.12,1.72,1.72,0,0,0-1.37.8c-.57.94-1.15,1.87-1.7,2.82L1141,852.73c-1.16,2-2.37,4-3.55,6Z"/><path d="M1627.85,227.6a40.15,40.15,0,0,1,3.7,5.36q14.65,25.49,29.37,50.95a24.11,24.11,0,0,1,1.68,3.28,3.44,3.44,0,0,1-2.92,4.5,3.17,3.17,0,0,1-2.92-1.19,26.18,26.18,0,0,1-2-3.13q-8.14-14.06-16.26-28.13-6.17-10.68-12.34-21.37a7.08,7.08,0,0,0-2.08-2.75c-.78,0-1.73-.11-2.68-.11-28.89-.23-53.77-.14-58,.2-1.11.83-1.59,2.15-2.27,3.31q-10.21,17.61-20.38,35.25-3.19,5.52-6.37,11c-.61,1.07-1.19,2.15-1.75,3.16a12.24,12.24,0,0,0,1.83,3.78q14,24.23,28,48.44c.62,1.07,1.25,2.13,1.78,3.24a3.53,3.53,0,0,1,0,3.18c-.55,1.1-1.2,2.16-1.81,3.22l-27.74,48.09c-.68,1.18-1.34,2.38-2,3.54a7.85,7.85,0,0,0,.45,1.24q14.68,25.48,29.39,50.94a7,7,0,0,0,.78.94,15.42,15.42,0,0,0,4.51.26q27.36,0,54.72,0l3.7,0a4.13,4.13,0,0,1,3.71,2.18c.49.82,1,1.66,1.45,2.49l27.77,48.08c.68,1.19,1.39,2.36,2.15,3.65a19.24,19.24,0,0,0,2.37.3c3.84,0,7.68,0,11.52,0q21.6,0,43.2,0a13,13,0,0,0,4.45-.29c2-3,29.05-49.77,30.43-52.72a4.59,4.59,0,0,0-.89-2.24q-14.08-24.4-28.16-48.8c-.41-.7-.88-1.36-1.26-1.94a11.73,11.73,0,0,0-4.24-.33q-16.87,0-33.73,0c-7.82,0-15.63,0-23.45,0-3.7,0-4.42-.47-6.22-3.59q-15.39-26.73-30.82-53.44a20.94,20.94,0,0,1-1.12-2.19,3.39,3.39,0,0,1,1.37-4,3.31,3.31,0,0,1,4.18.27,5.11,5.11,0,0,1,1,1.27c.65,1,1.26,2.12,1.87,3.19l27.34,47.37c.68,1.18,1.4,2.35,2.16,3.62a18.09,18.09,0,0,0,2,.29c1.23,0,2.47,0,3.7,0h53.89c1.23,0,2.47,0,3.7,0a4,4,0,0,1,3.44,1.92c.59.93,1.12,1.89,1.67,2.84l29.4,50.93c.55.95,1.09,1.9,1.6,2.87a3.52,3.52,0,0,1-.06,3.53c-.46.84-.92,1.68-1.4,2.52l-29.82,51.64c-.55.95-1.11,1.89-1.72,2.8a3.36,3.36,0,0,1-2.41,1.42,22,22,0,0,1-2.87.11h-59.24c-1.23,0-2.47,0-3.7-.05a3.75,3.75,0,0,1-3.08-1.78c-.66-1-1.28-2.11-1.9-3.18L1626.9,466q-.92-1.6-1.92-3.16a1.67,1.67,0,0,0-1.37-.78c-1,0-1.92-.05-2.88-.05h-53.89a11.11,11.11,0,0,0-3.73.29c-.43.66-.91,1.33-1.32,2-9.21,15.51-27.16,46.78-29.13,50.77a16.09,16.09,0,0,0,2,3.88q13.56,23.51,27.13,47c.69,1.19,1.37,2.38,2,3.58a7.25,7.25,0,0,1,.63,1.51,3.36,3.36,0,0,1-1.71,3.83,3.32,3.32,0,0,1-4.12-.66,21.73,21.73,0,0,1-1.79-2.74q-7.32-12.63-14.61-25.28-6.89-11.93-13.8-23.85a11.6,11.6,0,0,0-2.38-3.5c-.7,0-1.51-.14-2.33-.14h-56c-.68,0-1.37,0-2.05.08a1.7,1.7,0,0,0-1.33.85c-.44.69-.86,1.4-1.27,2.11q-13.58,23.5-27.14,47c-2,3.45-2,2.73,0,6.25l28.36,49.16c.62,1.07,1.22,2.15,1.73,3.26a3.34,3.34,0,0,1-1.27,4,3.42,3.42,0,0,1-4.48-.47,22.43,22.43,0,0,1-1.8-2.74q-5.47-9.43-10.9-18.87-9.56-16.56-19.13-33.12c-2.48-4.27-2.45-4.47-.07-8.58q15-26,30-52c.48-.83,1-1.66,1.51-2.45a3.55,3.55,0,0,1,2.77-1.57c1.23-.08,2.47-.06,3.7-.06h55.13a18.84,18.84,0,0,0,4.49-.2,8.65,8.65,0,0,0,2.11-3q10-17.26,20-34.54,3.49-6.05,7-12.11c.61-1.07,1.17-2.16,1.8-3.32-.69-1.24-1.34-2.44-2-3.62l-27.74-48.09c-.62-1.07-1.28-2.12-1.83-3.22a3.83,3.83,0,0,1,0-3.57c.56-1.1,1.2-2.15,1.82-3.22q13.87-24,27.74-48.09a14.22,14.22,0,0,0,1.85-3.64c-1.27-2.75-28-49.09-30.37-52.73-.83-.62-1.82-.43-2.76-.43q-11.72,0-23.45,0h-33.73c-1.23,0-2.47,0-3.7-.06a3.44,3.44,0,0,1-2.77-1.55c-.69-1-1.3-2.1-1.92-3.16q-13.79-23.85-27.58-47.71c-2.91-5-1.67-4.27-7.22-4.28q-26.12-.05-52.25,0c-1.36,0-2.73.06-4,.09a9.71,9.71,0,0,0-2.45,3.45q-10.82,18.68-21.6,37.39c-1.85,3.21-3.71,6.4-5.56,9.61-.48.83-.89,1.69-1.29,2.46a11.06,11.06,0,0,0,1.81,3.79q10.26,17.82,20.55,35.62,3.08,5.34,6.16,10.69c.48.83,1,1.64,1.5,2.45a1.62,1.62,0,0,0,1.37.77c1.37,0,2.74.08,4.11.08h54.72c1.23,0,2.47,0,3.7.06a3.54,3.54,0,0,1,2.25.91,3.25,3.25,0,0,1,1.14,3.32,3.51,3.51,0,0,1-2.41,2.59,4.17,4.17,0,0,1-1.21.2c-1.1,0-2.19,0-3.29,0h-58.42c-1.23,0-2.47,0-3.7-.06a3.44,3.44,0,0,1-2.75-1.58c-.7-1-1.31-2.09-1.93-3.16l-27.34-47.37c-.82-1.42-1.67-2.82-2.34-3.94a3.82,3.82,0,0,0-2.67-.62c-3,0-6,0-9.05,0h-48.13q-1.85,0-3.7,0a3.86,3.86,0,0,1-3.38-2c-.57-.93-1.12-1.89-1.67-2.84l-27.57-47.72c-.75-1.3-1.52-2.59-2.31-3.94a18.37,18.37,0,0,0-2.08-.25c-3.57,0-7.13,0-10.7,0h-43.61c-1.1,0-2.2,0-3.29,0a2.61,2.61,0,0,0-2.68,1.48c-1,1.93-2.19,3.8-3.29,5.7l-24.47,42.38c-.55.95-1.09,1.9-1.59,2.88a1.68,1.68,0,0,0,0,1.58c.64,1.21,1.3,2.41,2,3.6L1169.26,340c.48.83,1,1.66,1.41,2.51a9.18,9.18,0,0,1,.64,1.5,3.46,3.46,0,0,1-1.87,4.11,3.31,3.31,0,0,1-4.07-1,23.73,23.73,0,0,1-1.55-2.42q-3.81-6.58-7.6-13.18-10.38-18-20.77-36c-.68-1.18-1.42-2.32-2-3.19a3.15,3.15,0,0,0-2.27-.6c-1.78,0-3.57,0-5.35,0h-52.66c-1.23,0-2.47,0-3.7-.08a3.22,3.22,0,0,1-2.45-1.34,33,33,0,0,1-2-3.13q-11.21-19.41-22.4-38.82-2.88-5-5.76-10c-.62-1.06-1.27-2.11-1.85-3.07a10.94,10.94,0,0,0-4.21-.35q-11.72,0-23.45,0H978.23c-1.23,0-2.47,0-3.7.06a1.64,1.64,0,0,0-1.36.79c-.66,1-1.29,2.1-1.91,3.17L943.49,287.1c-.62,1.07-1.23,2.14-1.92,3.16a3.38,3.38,0,0,1-3.63,1.34,3.49,3.49,0,0,1-2.61-2.89,3,3,0,0,1,.19-1.6,20,20,0,0,1,1.29-2.57q15.31-26.54,30.61-53.08a26.65,26.65,0,0,1,3-3.87h67.47a10.23,10.23,0,0,1,3.15,3.72c.31.61.67,1.19,1,1.79q13.76,23.83,27.52,47.65c2.53,4.38,1.62,3.87,6.64,3.88q25.88,0,51.76,0c6.27,0,4.86.79,7.92-4.5q13.9-24,27.73-48a16.73,16.73,0,0,1,3.46-4.52h67.47a13.87,13.87,0,0,1,3.26,4.16c.58,1.08,1.22,2.14,1.84,3.21q13.24,22.94,26.49,45.87c2.48,4.29,1.57,3.79,6.69,3.79q26.08,0,52.17,0c5.65,0,4.44.65,7.26-4.22q14-24.15,27.93-48.36a13.1,13.1,0,0,1,3.54-4.44h67.47a23.28,23.28,0,0,1,3.58,4.94q13.73,23.84,27.51,47.64c.68,1.18,1.39,2.36,2.09,3.53a1.68,1.68,0,0,0,1.35.82c.82.07,1.64.09,2.46.09h54.62c.82,0,1.64,0,2.46-.06a2,2,0,0,0,1.66-1c.57-.93,1.12-1.88,1.67-2.83l19.3-33.42,2.26-3.91,2.25-3.92,2.46-4.27a39.42,39.42,0,0,0,2.22-3.93c.61-1.4,2-2.2,2.46-3.68Z"/><path d="M842,227.6c.77,1.59,2.1,2.8,2.88,4.4s1.76,3.09,2.66,4.64l2.67,4.63,24.46,42.37a35.25,35.25,0,0,1,1.75,3.25,3.47,3.47,0,0,1-1.42,4.3,3.26,3.26,0,0,1-4.14-.47,18.61,18.61,0,0,1-1.83-2.72q-5.68-9.78-11.32-19.57l-17.06-29.55c-.68-1.18-1.4-2.35-2-3.4a7.45,7.45,0,0,0-3.78-.46q-19.95,0-39.89,0c-4.8,0-9.6,0-14.39,0-1.09,0-2.18.07-3.13.11a10,10,0,0,0-2.45,3.46q-10.19,17.61-20.35,35.25-3.91,6.76-7.82,13.52c-.48.83-.95,1.67-1.46,2.48a3.87,3.87,0,0,1-3.42,1.93l-3.29,0h-58.4l-3.29,0a3.9,3.9,0,0,1-3.4-2c-.6-.92-1.12-1.88-1.67-2.83q-13.87-24-27.75-48.07c-.75-1.29-1.28-2.74-2.5-3.69-3.49-.27-57.56-.26-60.88,0a10.65,10.65,0,0,0-2.29,3.36q-9.38,16.19-18.72,32.39l-9.24,16c-.48.83-1,1.65-1.45,2.49a4.21,4.21,0,0,1-4,2.31c-1,0-1.92,0-2.88,0h-58.4c-1.23,0-2.47,0-3.7-.06a3.38,3.38,0,0,1-2.74-1.59c-.75-1.14-1.44-2.33-2.13-3.52q-13.88-24-27.76-48.06c-.68-1.17-1.16-2.5-2.36-3.38a9,9,0,0,0-1.17-.15h-58.4a8.93,8.93,0,0,0-1.21.16,10.39,10.39,0,0,0-2.3,3.37q-13.39,23.13-26.74,46.28c-.62,1.07-1.19,2.15-1.75,3.16a12.42,12.42,0,0,0,1.84,3.78q13.85,24,27.73,48.08c.55.95,1.11,1.89,1.63,2.86a7.25,7.25,0,0,1,.62,1.51,3.41,3.41,0,0,1-1.76,3.81,3.26,3.26,0,0,1-4.11-.71,22.24,22.24,0,0,1-1.79-2.75q-6.4-11-12.76-22.06l-17.05-29.56c-.55-.95-1.12-1.89-1.61-2.87a3.86,3.86,0,0,1-.05-3.57c.42-.86.91-1.69,1.39-2.52q15-26,30-52c.88-1.53,2.11-2.81,2.86-4.4h68.3a39.54,39.54,0,0,1,3.7,5.35q13.71,23.85,27.49,47.65c.55.95,1.13,1.87,1.65,2.84a2.18,2.18,0,0,0,2,1.15c.82,0,1.64,0,2.46,0h53.8c.68,0,1.37,0,2.05,0a2.57,2.57,0,0,0,2.69-1.46c.42-.86.95-1.66,1.43-2.49l26.48-45.86c.68-1.19,1.34-2.39,2.08-3.54s1.67-2.44,2.51-3.66h68.3c.53,1.27,1.76,2,2.37,3.28s1.34,2.38,2,3.57l.42.71q13.24,22.93,26.49,45.86a11.61,11.61,0,0,0,2.28,3.39,17.75,17.75,0,0,0,4.5.22q26.08,0,52.16,0c.82,0,1.65,0,2.46,0s1.59-.23,2.35-.35c.76-1.29,1.47-2.47,2.15-3.65l27.3-47.29c.68-1.18,1.35-2.38,2.11-3.52.52-.78,1.17-1.47,1.77-2.2Z"/><path class="a" d="M146.71,227.6a7.24,7.24,0,0,1-3.23.44c-12.34.1-24.68.24-37,.3-25.78.12-51.55.27-77.32.72-6.72.12-13.44.17-20.15.26-1.51,0-3,.06-4.52.15-2.24.13-2.55.45-2.57,2.75,0,3.56,0,7.13,0,10.69q0,17.48,0,35,0,30.43,0,60.87c0,1.37,0,2.74-.09,4.11a1.58,1.58,0,0,1-1.55,1.59V227.6Z"/><path class="a" d="M.24,572.38A1.68,1.68,0,0,1,1.8,574c.08,1,.09,1.92.09,2.87q0,51.81,0,103.63,0,1.23,0,2.47a2.18,2.18,0,0,1-1.61,2.14Z"/><path class="a" d="M.24,458.82a1.79,1.79,0,0,1,1.55,1.66c.08,1,.09,1.91.09,2.87q0,51.81,0,103.62c0,1,0,1.92-.1,2.87a1.92,1.92,0,0,1-1.55,1.7Z"/><path class="a" d="M.24,799.48a1.27,1.27,0,0,1,1.48,1.09,30.72,30.72,0,0,1,.17,3.67q0,11.87,0,23.75,0,12.9,0,25.8a23.64,23.64,0,0,0,.21,2.84.9.9,0,0,0,.49.57,5.24,5.24,0,0,0,1.55.45c1.5.12,3,.18,4.5.22,4.5.12,9,.21,13.51.32a4.77,4.77,0,0,1,2.77.54H.24Z"/><path class="a" d="M.24,743.53A1.49,1.49,0,0,1,1.82,745c.05,1,.06,1.9.06,2.86q0,22.87,0,45.75c0,1,0,1.91,0,2.86a2.4,2.4,0,0,1-1.6,2.16Z"/><path class="a" d="M.24,345.27A2,2,0,0,1,1.79,347a24.42,24.42,0,0,1,.1,2.46c0,15.22,0,30.44,0,45.66A10,10,0,0,1,1,399.47a4.55,4.55,0,0,1-.79.93Q.24,372.83.24,345.27Z"/><path class="a" d="M.24,685.93a1.43,1.43,0,0,1,1.48,1.16,13,13,0,0,1,.14,2.46c-.1,13.43-.19,26.87-.34,40.3,0,2.46-.31,4.92-.49,7.37a1.85,1.85,0,0,1-.79,1.38Z"/><path class="a" d="M.24,405.34a2,2,0,0,1,.85,1.75c.18,3.82.52,7.64.54,11.47,0,11.91.15,23.82.23,35.73a19.63,19.63,0,0,1-.07,2A1.77,1.77,0,0,1,.24,458Z"/><path class="a" d="M1867.31,858.73a3.7,3.7,0,0,1,2.35-.5l16.38-.18,27.44-.3c1.77,0,3.55-.06,5.32-.18a25.74,25.74,0,0,0,2.8-.49v1.65Z"/><path d="M475.86,401.36c-.65-1.16-1.37-2.48-2.12-3.78L446,349.49c-.62-1.07-1.23-2.14-1.75-3.26a3.44,3.44,0,0,1,5.9-3.42,35.63,35.63,0,0,1,2,3.14l25.71,44.52c1.3,2.25,2.63,4.5,4,6.74a1.63,1.63,0,0,0,1.34.82c.82.05,1.64.09,2.46.09h54.72l2.06,0a2.15,2.15,0,0,0,2-1.16c.53-1,1.11-1.89,1.66-2.84l27.57-47.72,1.66-2.84a4.13,4.13,0,0,1,3.75-2.11c.82,0,1.65,0,2.47,0h59.66c1,0,1.92,0,2.88.06a3.79,3.79,0,0,1,3.06,1.82c.72,1.17,1.41,2.35,2.09,3.54L676.5,394.2c.68,1.19,1.39,2.36,2.13,3.62a21.23,21.23,0,0,0,2.42.29c4,0,8,0,11.93,0h45.67c1.1,0,2.19,0,3.29,0a4,4,0,0,1,3.43,1.94c.51.81,1,1.65,1.46,2.48l29.82,51.64c.55.95,1.09,1.91,1.55,2.9a3.36,3.36,0,0,1-1.43,4.27,3.26,3.26,0,0,1-4.43-.77,31.8,31.8,0,0,1-2-3.13q-7.42-12.81-14.81-25.64L742.2,408.69c-.48-.83-1-1.65-1.48-2.47a2,2,0,0,0-1.73-.92c-.68,0-1.37,0-2.06,0H681.81c-1,0-1.9.08-2.6.1a4.69,4.69,0,0,0-1.72,2.08q-14.1,24.39-28.16,48.8c-.4.7-.71,1.46-1.05,2.17A16.21,16.21,0,0,0,649,460q14.8,25.64,29.61,51.28a14,14,0,0,0,1.71.28c1.23,0,2.47,0,3.7,0h54.72c1.23,0,2.47,0,3.7.07a3.47,3.47,0,0,1,2.73,1.62c.75,1.15,1.44,2.33,2.12,3.52q13.68,23.68,27.35,47.37a21.31,21.31,0,0,0,2.2,3.58,3.15,3.15,0,0,0,2.22.56c4.11,0,8.23,0,12.34,0h42.38a23.13,23.13,0,0,0,4.55-.19,4.19,4.19,0,0,0,.53-.61q14.64-25.26,29.26-50.54c.34-.59.6-1.22.93-1.92-.67-1.21-1.32-2.41-2-3.59l-28-48.44c-.62-1.07-1.25-2.13-1.77-3.25a3.53,3.53,0,0,1,1-4.09,3.41,3.41,0,0,1,4.79.51,30.5,30.5,0,0,1,2,3.12q8.75,15.13,17.47,30.28l10.5,18.16c.68,1.18,1.39,2.35,2,3.41a10.25,10.25,0,0,0,4.23.4q17.69,0,35.38,0h20.16c1,0,1.92,0,2.88,0a4.62,4.62,0,0,1,4.63,2.76c.51,1,1.09,1.9,1.64,2.85L971,563.86l.82,1.42c2,3.41,1.45,3,5.48,3q26.95,0,53.9,0c1.22,0,2.45-.08,3.54-.12a12.9,12.9,0,0,0,2.39-3.53q11.85-20.47,23.67-40.95l4.73-8.19c.41-.71.8-1.44,1.27-2.12a3.77,3.77,0,0,1,3.08-1.78c1.23,0,2.47,0,3.7,0h54.72c1.23,0,2.47,0,3.7,0a2.25,2.25,0,0,0,2-1.2c.37-.58.69-1.18,1-1.78l27.14-47c.55-.95,1.05-1.91,1.51-2.74a5.85,5.85,0,0,0-1.29-3.13q-9.85-17.11-19.73-34.2l-7.41-12.82c-.48-.83-1-1.66-1.47-2.47a1.94,1.94,0,0,0-1.73-.91c-1.23,0-2.47,0-3.7,0H1073.6c-1.23,0-2.47,0-3.7,0a3.7,3.7,0,0,1-3.1-1.75c-.76-1.14-1.42-2.34-2.11-3.53l-27.57-47.72c-.68-1.18-1.4-2.33-2.12-3.52-.92-.06-1.73-.17-2.55-.17H976.1c-.55,0-1.1,0-1.64.06a1.7,1.7,0,0,0-1.35.82c-.45.69-.87,1.4-1.28,2.11l-27.35,47.37a19.46,19.46,0,0,0-1.15,2.18,1.78,1.78,0,0,0,0,1.19,11.64,11.64,0,0,0,.93,1.83q13.88,24,27.77,48.08c1.65,2.85,1.32,2.69,4.86,2.69h56.78c1.23,0,2.47,0,3.7.1a3.5,3.5,0,0,1,.37,6.89,7.18,7.18,0,0,1-1.22.13c-1.1,0-2.19,0-3.29,0h-58c-1.1,0-2.19,0-3.29,0a3.93,3.93,0,0,1-3.44-1.91c-.66-1-1.27-2.11-1.89-3.18Q952.77,433,939,409.16c-2.61-4.5-1.52-3.88-6.63-3.89q-27.77,0-55.54,0c-1.23,0-2.47,0-3.7-.07a3.47,3.47,0,0,1-2.75-1.59c-.69-1-1.3-2.09-1.92-3.16q-13.58-23.5-27.15-47a31.51,31.51,0,0,0-2.79-4.53,7.81,7.81,0,0,0-3.65-.37q-20.78,0-41.55,0-8,0-16,0a21.35,21.35,0,0,1-2.87-.14,3.45,3.45,0,0,1-.18-6.78,6.86,6.86,0,0,1,1.22-.16c1,0,1.92,0,2.88,0h58.83c1.1,0,2.2,0,3.29.05a3.82,3.82,0,0,1,3.11,1.75c.6.91,1.13,1.88,1.68,2.83q13.88,24,27.77,48.08a19.24,19.24,0,0,0,2.48,3.84c.82.05,1.63.15,2.44.15h56c.68,0,1.37,0,2.05-.09a1.68,1.68,0,0,0,1.33-.85q1.06-1.76,2.09-3.54l27.36-47.36c.62-1.07,1.24-2.13,1.91-3.17a3.56,3.56,0,0,1,2.74-1.62,22.32,22.32,0,0,1,2.46-.08h60.89c.69,0,1.37,0,2.06,0a4,4,0,0,1,3.43,1.94c.58.93,1.12,1.89,1.67,2.84q13.67,23.69,27.36,47.37c3.12,5.38,1.6,4.52,7.9,4.54,18,0,35.93,0,53.9,0,1.1,0,2.2,0,3.29,0a4.64,4.64,0,0,1,4.64,2.76c.38.73.8,1.44,1.21,2.15l27.57,47.72a30,30,0,0,0,2.27,3.7,8.68,8.68,0,0,0,3.82.39q11.93,0,23.86,0h29.21l3.29,0a2.12,2.12,0,0,0,2-1.14c.39-.72.85-1.41,1.26-2.12l26.72-46.31c.41-.71.81-1.43,1.23-2.14a2.47,2.47,0,0,0,.08-2.71c-.62-1.07-1.23-2.14-1.85-3.21l-27.15-47c-.62-1.07-1.27-2.12-1.81-3.23a5.7,5.7,0,0,1-.5-2,3.2,3.2,0,0,1,2.1-3.2,3.41,3.41,0,0,1,3.77.79,24,24,0,0,1,1.79,2.75q6.91,11.92,13.79,23.86,7.4,12.82,14.81,25.64a9.37,9.37,0,0,0,2.13,3.06,15.34,15.34,0,0,0,4.44.23q27.36,0,54.72,0c1.1,0,2.2,0,3.29,0a4.46,4.46,0,0,1,4.32,2.58c.65,1.2,1.37,2.37,2.06,3.56l26.73,46.3c.75,1.3,1.53,2.6,2.19,3.72a4.81,4.81,0,0,0,3,.55q9.87,0,19.75,0h34.56c1.23,0,2.47,0,3.69-.12a1.55,1.55,0,0,0,1-.56c.7-1,1.33-2.08,1.95-3.14l25.5-44.17c1.1-1.9,2.19-3.8,3.3-5.7a15,15,0,0,1,1.14-1.71,3.46,3.46,0,0,1,3.71-1,3.5,3.5,0,0,1,2.39,3.06,2.46,2.46,0,0,1-.18,1.2,18.6,18.6,0,0,1-1.08,2.21q-15.51,26.9-31,53.78a20.32,20.32,0,0,1-1.1,1.73,3.7,3.7,0,0,1-2.79,1.54c-.82.07-1.64.05-2.47.05h-60.48c-.82,0-1.65,0-2.47,0a3.81,3.81,0,0,1-3.11-1.74c-.68-1-1.28-2.11-1.9-3.17q-13.78-23.86-27.55-47.73c-.75-1.3-1.56-2.56-2.35-3.87-.91-.07-1.73-.18-2.54-.18h-56.37c-.55,0-1.1,0-1.64.06a1.76,1.76,0,0,0-1.35.82c-.39.56-.74,1.15-1.09,1.74L1239.05,456c-.41.71-.79,1.43-1.08,2a4.32,4.32,0,0,0,1,2.84q8.31,14.44,16.65,28.85l11.91,20.66c.41.71.8,1.44,1.25,2.13a4.46,4.46,0,0,1,0,5.37c-.46.68-.84,1.42-1.25,2.13q-14.7,25.47-29.4,50.94a35.26,35.26,0,0,1-2,3.14,3.39,3.39,0,0,1-4.76.68,3.26,3.26,0,0,1-1.31-3.26,4.83,4.83,0,0,1,.48-1.56c.57-1.1,1.2-2.15,1.82-3.22l27.35-47.37.2-.36c2.38-4.22,2.44-3.26.08-7.34q-9.24-16-18.5-32.06L1233.83,466c-.69-1.19-1.39-2.36-2.16-3.66a19.35,19.35,0,0,0-2.36-.3c-4.11,0-8.23,0-12.34,0h-42.79a13.53,13.53,0,0,0-4.21.3c-.74,1.24-1.52,2.52-2.27,3.81l-27.36,47.37c-.55.95-1.11,1.89-1.65,2.84a4.31,4.31,0,0,1-4,2.39c-1.23,0-2.47,0-3.7,0q-27.15,0-54.31,0c-5.74,0-4.42-.73-7.27,4.19q-13.11,22.59-26.12,45.23c-.68,1.18-1.32,2.39-1.93,3.49a13,13,0,0,0,1.86,3.8q13.86,24.05,27.74,48.09c.62,1.07,1.24,2.13,1.83,3.22a3.63,3.63,0,0,1,.06,3.55c-.44.85-.91,1.69-1.39,2.52q-15,26-30,52a21.28,21.28,0,0,1-1.77,2.76,3.16,3.16,0,0,1-3.32,1.1,3.31,3.31,0,0,1-2.52-4.4,18.71,18.71,0,0,1,1.49-2.92q7.28-12.66,14.58-25.3l13.57-23.51c.68-1.19,1.34-2.39,1.95-3.48.07-1.48-.81-2.43-1.41-3.47q-9.12-15.87-18.3-31.7l-8.44-14.6c-.68-1.18-1.39-2.36-2.11-3.58-.87-.09-1.68-.24-2.49-.25-1.92,0-3.84,0-5.76,0H975.44c-1.23,0-2.47,0-3.7,0a4,4,0,0,1-3.38-2c-.65-1-1.27-2.12-1.88-3.19l-26.52-46c-.34-.59-.67-1.2-1-1.78-2.53-4.21-1.52-3.72-6.31-3.75-6,0-12.07,0-18.1,0q-17.49,0-35,0a13.17,13.17,0,0,0-4.14.26,6.09,6.09,0,0,0-.76.89q-14.72,25.46-29.4,50.93a8.29,8.29,0,0,0-.46,1.27c.7,1.26,1.42,2.58,2.17,3.88l27.55,47.73c.55.95,1.1,1.9,1.62,2.86a5.6,5.6,0,0,1,.44,1.14,3.44,3.44,0,0,1-6,3.05c-.79-1.11-1.47-2.31-2.15-3.5l-27.56-47.73c-.75-1.3-1.56-2.57-2.26-3.73a14.08,14.08,0,0,0-4.68-.34q-25.3,0-50.61,0h-6.58a13.77,13.77,0,0,1-2-.1,3.45,3.45,0,0,1-2.42-1.41c-.69-1-1.32-2.08-1.94-3.15l-27.77-48.08c-.68-1.19-1.39-2.36-2.15-3.65a20.08,20.08,0,0,0-2.37-.31c-2.33,0-4.66,0-7,0q-23.86,0-47.73,0a12.91,12.91,0,0,0-4.61.34c-.53.84-1.14,1.75-1.68,2.69q-13.58,23.5-27.15,47c-2,3.43-2,2.79,0,6.26q14,24.23,28,48.44c.62,1.07,1.28,2.12,1.81,3.23a5.37,5.37,0,0,1,.45,2,3.19,3.19,0,0,1-2.21,3.14,3.31,3.31,0,0,1-3.73-.91,26.26,26.26,0,0,1-1.78-2.76q-6.4-11-12.77-22.07l-17.06-29.57c-.62-1.07-1.24-2.14-1.78-3.24a3.06,3.06,0,0,1,0-2.78c.55-1.1,1.16-2.18,1.78-3.24q13.87-24,27.75-48.09a20.36,20.36,0,0,0,2.14-4.15c-.61-1.11-1.24-2.32-1.92-3.5l-28-48.44c-.62-1.07-1.23-2.14-1.78-3.24a3.06,3.06,0,0,1,0-2.78c.54-1.11,1.16-2.18,1.77-3.25l27.75-48.09a24,24,0,0,0,2.14-4.07c-.29-.59-.55-1.22-.89-1.8q-14.63-25.27-29.27-50.53a4.56,4.56,0,0,0-.58-.65c-1,0-1.91-.12-2.87-.12-26.55-.23-53.52-.14-58,.17a5.9,5.9,0,0,0-1.94,2.58q-6.71,11.56-13.37,23.15l-15.22,26.35c-.55.95-1.09,1.9-1.71,2.81a3.49,3.49,0,0,1-2.74,1.6c-1.23.07-2.47.07-3.7.07q-27.57,0-55.13,0c-5.71,0-4.36-.73-7.24,4.24Q466,433.35,452.22,457.23c-.62,1.07-1.23,2.14-1.92,3.16a3.59,3.59,0,0,1-2.77,1.56c-.82.07-1.64.06-2.47.06H384.16c-.69,0-1.37,0-2.06,0a3.79,3.79,0,0,1-3.12-1.72c-.69-1-1.28-2.11-1.9-3.17l-17.27-29.92L349.32,409c-.68-1.18-1.4-2.35-2.1-3.53-.92-.07-1.74-.19-2.55-.19H288.3c-.55,0-1.1,0-1.64.06a1.72,1.72,0,0,0-1.37.79c-.45.69-.87,1.39-1.28,2.1l-27.35,47.37c-.34.59-.68,1.19-1,1.79a1.92,1.92,0,0,0-.06,2q.9,1.62,1.82,3.22,13.77,23.87,27.55,47.73c.68,1.19,1.33,2.4,1.95,3.62a2.65,2.65,0,0,1,0,2.39c-.4.87-.83,1.73-1.31,2.56Q270.32,545.39,255,571.92c-1.91,3.31-2.33,3.54-6.23,3.55q-28.39,0-56.78,0a13.22,13.22,0,0,0-4.51.3,8.48,8.48,0,0,0-.75,1Q172.11,602,157.52,627.31a10.61,10.61,0,0,0-.52,1.3,15.45,15.45,0,0,0,2,3.88q11.09,19.24,22.2,38.47,3,5.16,5.95,10.34c.41.71.84,1.41,1.22,2.15a4.15,4.15,0,0,1,0,4c-.44.85-.94,1.67-1.42,2.5q-14.8,25.65-29.61,51.29a29.31,29.31,0,0,1-2,3.12,3.49,3.49,0,0,1-5.94-1.22,3.14,3.14,0,0,1,.15-2.41c.48-1,1-1.94,1.57-2.89q5-8.73,10.08-17.45,9-15.67,18.09-31.34a20.46,20.46,0,0,0,1.93-3.72c-.65-1.18-1.27-2.39-2-3.57l-27.75-48.09c-.68-1.19-1.39-2.37-2-3.6a3.16,3.16,0,0,1,0-2.79c.41-.86.89-1.7,1.37-2.53Q166,598.49,181.08,572.3c2.32-4,3-4,6.81-4h56q2.06,0,4.11-.07a1.62,1.62,0,0,0,1.37-.78c.51-.81,1-1.63,1.49-2.46l26.93-46.66c.41-.71.82-1.42,1.22-2.14a2,2,0,0,0,.07-2q-.47-.91-1-1.8-13.68-23.68-27.36-47.36c-2-3.41-1.39-3.07-5.45-3.07q-28,0-56,0c-1.23,0-2.47,0-3.7-.05a5,5,0,0,1-1.58-.4,3.45,3.45,0,0,1,.33-6.38,6.54,6.54,0,0,1,1.61-.28c1.23,0,2.47,0,3.7,0h54.31l3.7,0a2.15,2.15,0,0,0,2-1.23c.4-.72.84-1.42,1.25-2.13L277.8,404.8c2-3.44,2-2.82,0-6.26q-13.46-23.34-26.93-46.66c-.41-.71-.84-1.41-1.25-2.13a2.17,2.17,0,0,0-2-1.21c-1.23,0-2.47,0-3.7,0H188.76c-1.23,0-2.47,0-3.7-.1a3.4,3.4,0,0,1-3-3.73,3.28,3.28,0,0,1,2.4-3,7.91,7.91,0,0,1,1.62-.25c1,0,1.92,0,2.88,0h58.42c1.1,0,2.19,0,3.29,0a4,4,0,0,1,3.42,1.94c.58.93,1.12,1.89,1.67,2.83q13.88,24,27.77,48.08c2.56,4.41,1.49,3.82,6.67,3.83q27.77,0,55.54,0c1.23,0,2.47,0,3.7.09a3.56,3.56,0,0,1,2.73,1.64c.67,1,1.28,2.11,1.9,3.18q13.68,23.68,27.35,47.37a25.71,25.71,0,0,0,2.68,4.25c.77.06,1.58.19,2.39.19h56.37c.41,0,.82,0,1.23,0a2.21,2.21,0,0,0,2-1.15c.42-.7.83-1.42,1.24-2.14q13.47-23.32,26.93-46.65A8.77,8.77,0,0,0,475.86,401.36Z"/><path d="M1366.78,681.74c1.69,0,3.19.07,4.69.07h54.72l3.7,0a3.84,3.84,0,0,1,3.37,2c.65,1.05,1.26,2.12,1.87,3.19q13.77,23.87,27.55,47.72c.74,1.29,1.27,2.76,2.78,3.79h59a15.5,15.5,0,0,0,1.6-.16,8.07,8.07,0,0,0,.81-1q14.72-25.45,29.41-50.92a9.21,9.21,0,0,0,.48-1.28c-.62-1.13-1.26-2.33-1.94-3.51l-27.75-48.09c-.68-1.19-1.4-2.36-2-3.61a3.46,3.46,0,0,1,1.41-4.3,3.27,3.27,0,0,1,4.14.46,14.87,14.87,0,0,1,1.62,2.36q4.65,8,9.26,16L1560.93,678c.68,1.18,1.4,2.35,2,3.38a7.9,7.9,0,0,0,3.81.44q26.95,0,53.89,0c.82,0,1.65,0,2.47,0a2.23,2.23,0,0,0,2.06-1.1c.52-.81,1-1.65,1.46-2.48q13.27-23,26.52-45.95a12.85,12.85,0,0,0,1.84-3.74,19,19,0,0,0-2.06-3.93q-13.86-24.05-27.74-48.09c-.62-1.07-1.24-2.14-1.77-3.25a3.45,3.45,0,0,1,5.78-3.62,30.16,30.16,0,0,1,2,3.13q7.42,12.81,14.81,25.64,6.68,11.58,13.37,23.15c.55.95,1.11,1.89,1.74,2.79a1.56,1.56,0,0,0,1,.6c1.23.1,2.46.12,3.69.12h52.25c1.78,0,3.57,0,5.35,0a16.53,16.53,0,0,1,2.05.12,3.48,3.48,0,0,1,2.82,3.11,3.4,3.4,0,0,1-2.62,3.67,8.88,8.88,0,0,1-1.62.2c-1.1,0-2.19,0-3.29,0h-54.31c-1.23,0-2.47,0-3.7,0a2.17,2.17,0,0,0-2,1.16c-.52,1-1.11,1.89-1.66,2.84l-27.34,47.37c-.55.95-1.14,1.88-1.65,2.85a4.46,4.46,0,0,1-4.4,2.45c-1.1,0-2.19,0-3.29,0h-53.89c-1.23,0-2.47,0-3.7,0a14.26,14.26,0,0,0-1.73.28c-.76,1.27-1.56,2.54-2.31,3.84l-27.55,47.73c-.48.83-1,1.64-1.45,2.49a4.14,4.14,0,0,1-4,2.3c-1.1,0-2.19,0-3.29,0h-58c-1.1,0-2.19,0-3.29,0a3.85,3.85,0,0,1-3.42-1.92q-.85-1.41-1.67-2.84-13.78-23.86-27.57-47.71c-2.77-4.77-1.52-4.16-7.3-4.17q-27.56,0-55.13,0c-1.23,0-2.47,0-3.7-.1a3.48,3.48,0,0,1-2.72-1.64c-.59-.92-1.14-1.87-1.69-2.82q-13.88-24-27.76-48.08a14.9,14.9,0,0,0-2.49-3.78,14.27,14.27,0,0,0-4.47-.28q-26.12,0-52.25,0c-1,0-1.92,0-2.88,0a2.65,2.65,0,0,0-2.63,1.59c-.31.61-.68,1.19-1,1.78l-26.94,46.66c-.55.94-1.06,1.91-1.51,2.72,0,1.37.76,2.22,1.29,3.15q9.44,16.4,18.91,32.77,4.93,8.55,9.86,17.1c.55.95,1.09,1.91,1.54,2.9a3.46,3.46,0,0,1-1.57,4.24,3.55,3.55,0,0,1-4.45-.94c-.7-1-1.31-2.09-1.93-3.15l-25.7-44.52c-1.37-2.37-2.76-4.73-4.21-7.2-.78-.12-1.57-.31-2.37-.36-1-.07-1.92,0-2.88,0H1175c-1.23,0-2.47,0-3.7,0a2.22,2.22,0,0,0-2,1.25c-.74,1.32-1.52,2.6-2.28,3.91l-27.14,47c-.62,1.07-1.24,2.13-1.95,3.14a3.45,3.45,0,0,1-3.71,1.09,3.4,3.4,0,0,1-2.44-3,3.47,3.47,0,0,1,.27-1.59c.59-1.23,1.28-2.42,2-3.61l27.54-47.73c.75-1.3,1.47-2.62,2.17-3.87a17.53,17.53,0,0,0-2.1-4.14q-13.14-22.8-26.31-45.59c-1-1.78-2-3.58-3-5.37a3.43,3.43,0,0,1-.07-3.53c.46-.84.91-1.69,1.39-2.52q15-26,30-52a25.4,25.4,0,0,1,1.76-2.77,3.28,3.28,0,0,1,4.44-.66,3.36,3.36,0,0,1,1.41,3.94,20.8,20.8,0,0,1-1.46,2.93q-6.15,10.7-12.33,21.37-8,13.89-16,27.79a10.57,10.57,0,0,0-1.79,3.79,13.93,13.93,0,0,0,.63,1.4q14.78,25.65,29.63,51.32c.76.1,1.42.25,2.09.27,1.37,0,2.74,0,4.11,0h50.6a28.61,28.61,0,0,0,4.43-.13,10.55,10.55,0,0,0,2.39-3.42q7.94-13.7,15.84-27.42,6.17-10.69,12.34-21.37c.55-.95,1.09-1.91,1.72-2.8a3.49,3.49,0,0,1,2.78-1.54c1.23-.05,2.47,0,3.7,0h55.13a19.25,19.25,0,0,0,4.53-.2,3.48,3.48,0,0,0,.55-.59q14.74-25.44,29.46-50.89c.27-.47.45-1,.74-1.6-.72-1.29-1.44-2.61-2.19-3.91l-27.54-47.74c-.68-1.19-1.41-2.36-2-3.6a3.5,3.5,0,0,1,2.89-4.86,3.2,3.2,0,0,1,2.91,1.24,22.34,22.34,0,0,1,1.77,2.76q6.18,10.68,12.34,21.37l17.06,29.56,1,1.77c1.7,2.86,1.91,3.93-.11,7.18-.58.93-1.1,1.9-1.65,2.85q-13.46,23.33-26.92,46.67a10.57,10.57,0,0,0-1.78,3.66C1337.56,631.62,1364.55,678.39,1366.78,681.74Z"/></svg>