<svg xmlns="http://www.w3.org/2000/svg" width="1924" height="1084" viewBox="0 0 1924 1084"><title>05_RepresentativeMoving</title><polygon points="1922 1082 1233.37 1082 2 1082 2 2 1922 2 1922 1082" style="fill:none;stroke:#000;stroke-miterlimit:10;stroke-width:4px"/><path d="M1372,2h140a0,0,0,0,1,0,0V472a70,70,0,0,1-70,70h0a70,70,0,0,1-70-70V2A0,0,0,0,1,1372,2Z" style="fill:#fff;stroke:#000;stroke-miterlimit:10"/><path d="M1370.5,540.5h140a0,0,0,0,1,0,0v470a70,70,0,0,1-70,70h0a70,70,0,0,1-70-70v-470A0,0,0,0,1,1370.5,540.5Z" transform="translate(2883 1623) rotate(180)" style="fill:#fff;stroke:#000;stroke-miterlimit:10"/></svg>