<svg xmlns="http://www.w3.org/2000/svg" width="1921" height="1081" viewBox="0 0 1921 1081"><title>06_solid_objects</title><rect x="0.5" y="0.5" width="1920" height="1080" style="fill:none;stroke:#e6e6e6;stroke-miterlimit:10"/><polyline points="520.84 270 535.84 406 563 406 563 566 197.5 566 197.5 563 560 563 560 409 533.16 409 518.16 273" style="fill:#1b1464"/><polyline points="1084.84 270 1099.84 406 1127 406 1127 566 761.5 566 761.5 563 1124 563 1124 409 1097.16 409 1082.16 273" style="fill:#1b1464"/><polyline points="1648.84 270 1663.84 406 1691 406 1691 566 1325.5 566 1325.5 563 1688 563 1688 409 1661.16 409 1646.16 273" style="fill:#1b1464"/><polyline points="520.84 685 535.84 821 563 821 563 981 197.5 981 197.5 978 560 978 560 824 533.16 824 518.16 688" style="fill:#1b1464"/><polyline points="1084.84 685 1099.84 821 1127 821 1127 981 761.5 981 761.5 978 1124 978 1124 824 1097.16 824 1082.16 688" style="fill:#1b1464"/><polyline points="1648.84 685 1663.84 821 1691 821 1691 981 1325.5 981 1325.5 978 1688 978 1688 824 1661.16 824 1646.16 688" style="fill:#1b1464"/></svg>