<svg xmlns="http://www.w3.org/2000/svg" width="1921" height="1080" viewBox="0 0 1921 1080"><title>06_solid_objects</title><path d="M577.26,480.45,575,477.12c40-26.59,63-66.32,63-109C638,291.41,563.42,229,471.75,229S305.5,291.41,305.5,368.11c0,42.68,22.95,82.41,63,109l-2.21,3.33C325.1,453.1,301.5,412.16,301.5,368.11,301.5,289.2,377.87,225,471.75,225S642,289.2,642,368.11C642,412.16,618.4,453.11,577.26,480.45Z"/><path d="M1051.26,480.45l-2.21-3.33c40-26.59,63-66.32,63-109C1112,291.41,1037.42,229,945.75,229S779.5,291.41,779.5,368.11c0,42.68,22.95,82.41,63,109l-2.21,3.33C799.1,453.1,775.5,412.16,775.5,368.11,775.5,289.2,851.87,225,945.75,225S1116,289.2,1116,368.11C1116,412.16,1092.4,453.11,1051.26,480.45Z"/><path d="M1520.26,480.45l-2.21-3.33c40-26.59,63-66.32,63-109,0-76.71-74.58-139.11-166.25-139.11S1248.5,291.41,1248.5,368.11c0,42.68,22.95,82.41,63,109l-2.21,3.33c-41.14-27.34-64.74-68.29-64.74-112.33,0-78.91,76.37-143.11,170.25-143.11S1585,289.2,1585,368.11C1585,412.16,1561.4,453.11,1520.26,480.45Z"/><path d="M577.26,930.45,575,927.12c40-26.59,63-66.32,63-109C638,741.41,563.42,679,471.75,679S305.5,741.41,305.5,818.11c0,42.68,22.95,82.41,63,109l-2.21,3.33C325.1,903.1,301.5,862.16,301.5,818.11,301.5,739.2,377.87,675,471.75,675S642,739.2,642,818.11C642,862.16,618.4,903.11,577.26,930.45Z"/><path d="M1051.26,930.45l-2.21-3.33c40-26.59,63-66.32,63-109C1112,741.41,1037.42,679,945.75,679S779.5,741.41,779.5,818.11c0,42.68,22.95,82.41,63,109l-2.21,3.33C799.1,903.1,775.5,862.16,775.5,818.11,775.5,739.2,851.87,675,945.75,675S1116,739.2,1116,818.11C1116,862.16,1092.4,903.11,1051.26,930.45Z"/><path d="M1520.26,930.45l-2.21-3.33c40-26.59,63-66.32,63-109,0-76.71-74.58-139.11-166.25-139.11S1248.5,741.41,1248.5,818.11c0,42.68,22.95,82.41,63,109l-2.21,3.33c-41.14-27.34-64.74-68.29-64.74-112.33,0-78.91,76.37-143.11,170.25-143.11S1585,739.2,1585,818.11C1585,862.16,1561.4,903.11,1520.26,930.45Z"/></svg>