<svg xmlns="http://www.w3.org/2000/svg" width="1921" height="1080" viewBox="0 0 1921 1080"><title>06_solid_objects</title><path d="M592.26,480.45,590,477.12c40-26.59,63-66.32,63-109C653,291.41,578.42,229,486.75,229S320.5,291.41,320.5,368.11c0,42.68,22.95,82.41,63,109l-2.21,3.33C340.1,453.1,316.5,412.16,316.5,368.11,316.5,289.2,392.87,225,486.75,225S657,289.2,657,368.11C657,412.16,633.4,453.11,592.26,480.45Z"/><path d="M1066.26,480.45l-2.21-3.33c40-26.59,63-66.32,63-109C1127,291.41,1052.42,229,960.75,229S794.5,291.41,794.5,368.11c0,42.68,22.95,82.41,63,109l-2.21,3.33C814.1,453.1,790.5,412.16,790.5,368.11,790.5,289.2,866.87,225,960.75,225S1131,289.2,1131,368.11C1131,412.16,1107.4,453.11,1066.26,480.45Z"/><path d="M1535.26,480.45l-2.21-3.33c40-26.59,63-66.32,63-109,0-76.71-74.58-139.11-166.25-139.11S1263.5,291.41,1263.5,368.11c0,42.68,22.95,82.41,63,109l-2.21,3.33c-41.14-27.34-64.74-68.29-64.74-112.33,0-78.91,76.37-143.11,170.25-143.11S1600,289.2,1600,368.11C1600,412.16,1576.4,453.11,1535.26,480.45Z"/><path d="M592.26,930.45,590,927.12c40-26.59,63-66.32,63-109C653,741.41,578.42,679,486.75,679S320.5,741.41,320.5,818.11c0,42.68,22.95,82.41,63,109l-2.21,3.33C340.1,903.1,316.5,862.16,316.5,818.11,316.5,739.2,392.87,675,486.75,675S657,739.2,657,818.11C657,862.16,633.4,903.11,592.26,930.45Z"/><path d="M1066.26,930.45l-2.21-3.33c40-26.59,63-66.32,63-109C1127,741.41,1052.42,679,960.75,679S794.5,741.41,794.5,818.11c0,42.68,22.95,82.41,63,109l-2.21,3.33C814.1,903.1,790.5,862.16,790.5,818.11,790.5,739.2,866.87,675,960.75,675S1131,739.2,1131,818.11C1131,862.16,1107.4,903.11,1066.26,930.45Z"/><path d="M1535.26,930.45l-2.21-3.33c40-26.59,63-66.32,63-109,0-76.71-74.58-139.11-166.25-139.11S1263.5,741.41,1263.5,818.11c0,42.68,22.95,82.41,63,109l-2.21,3.33c-41.14-27.34-64.74-68.29-64.74-112.33,0-78.91,76.37-143.11,170.25-143.11S1600,739.2,1600,818.11C1600,862.16,1576.4,903.11,1535.26,930.45Z"/></svg>