<svg xmlns="http://www.w3.org/2000/svg" width="1921" height="1081" viewBox="0 0 1921 1081"><title>08_EscalatorSolids</title><rect x="0.5" y="0.5" width="1920" height="1080" style="fill:none;stroke:#000;stroke-miterlimit:10"/><polygon points="512.92 1070.08 250.92 882.08 250.92 1004.5 196.5 1004.5 196.5 918.21 163.5 882.5 163.5 1070.5 512.92 1070.08" style="fill:#fff;stroke:#000;stroke-miterlimit:10"/><polygon points="1243.5 596 1559.42 359.08 1559.42 540.5 1613.84 540.5 1613.84 395.21 1646.84 359.5 1646.84 596 1243.5 596" style="fill:#fff;stroke:#000;stroke-miterlimit:10"/><polygon points="780.5 104.5 1232.5 556.5 1233 596 780 147 780.5 104.5" style="fill:#fff;stroke:#000;stroke-miterlimit:10"/><polygon points="163.5 675 479.42 478.91 479.42 643.88 533.84 643.88 533.84 517.04 566.84 479.33 566.84 675 163.5 675" style="fill:#fff;stroke:#000;stroke-miterlimit:10"/><rect x="1782.5" y="246.43" width="137.5" height="42.07" style="fill:#fff;stroke:#000;stroke-miterlimit:10"/><polygon points="1636.98 1080 1684.27 1080.5 1684 1060 1636.98 1080" style="fill:#1b1464"/></svg>