<svg xmlns="http://www.w3.org/2000/svg" width="1921" height="1081" viewBox="0 0 1921 1081"><title>08_EscalatorSolids</title><rect x="0.5" y="0.5" width="1920" height="1080" style="fill:none;stroke:#000;stroke-miterlimit:10"/><polygon points="512.92 1026.08 250.92 764.08 250.92 960.5 196.5 960.5 196.5 800.21 163.5 764.5 163.5 1026.5 512.92 1026.08" style="fill:#fff;stroke:#000;stroke-miterlimit:10"/><polygon points="1243.5 675 1559.42 359.08 1559.42 540.5 1613.84 540.5 1613.84 395.21 1646.84 359.5 1646.84 675 1243.5 675" style="fill:#fff;stroke:#000;stroke-miterlimit:10"/><polygon points="780.5 104.5 1232.5 556.5 1233 596 780 147 780.5 104.5" style="fill:#fff;stroke:#000;stroke-miterlimit:10"/><polygon points="163.5 675 479.42 359.08 479.42 559.5 533.84 559.5 533.84 397.21 566.84 359.5 566.84 675 163.5 675" style="fill:#fff;stroke:#000;stroke-miterlimit:10"/><rect x="1782.5" y="246.43" width="137.5" height="42.07" style="fill:#fff;stroke:#000;stroke-miterlimit:10"/></svg>