<svg xmlns="http://www.w3.org/2000/svg" width="1921" height="1081" viewBox="0 0 1921 1081"><title>08_EscalatorSolids</title><rect x="0.5" y="0.5" width="1920" height="1080" style="fill:none;stroke:#000;stroke-miterlimit:10"/><polygon points="1243.5 596 1243.5 359.08 1559.42 359.08 1559.42 540.5 1613.84 540.5 1613.84 359.08 1646.84 359.5 1646.84 596 1243.5 596" style="fill:none;stroke:#000;stroke-miterlimit:10"/><polygon points="219.08 675 219.08 479.5 535 478.91 535 665.04 589.42 665.04 589.42 479.5 622.42 479.33 622.42 675 219.08 675" style="fill:none;stroke:#000;stroke-miterlimit:10"/><polygon points="829.66 479.5 829.66 283.41 1145.58 283.41 1145.58 448.38 1200 448.38 1200 288.5 1233 283.83 1233 479.5 829.66 479.5" style="fill:none;stroke:#000;stroke-miterlimit:10"/><rect x="1782.5" y="246.43" width="137.5" height="42.07" style="fill:none;stroke:#000;stroke-miterlimit:10"/><polygon points="1636.98 1080 1684.27 1080.5 1684 1060 1636.98 1080" style="fill:#1b1464"/></svg>