<svg xmlns="http://www.w3.org/2000/svg" width="1921" height="1081" viewBox="0 0 1921 1081"><title>08_TickDispensor</title><rect x="0.5" y="0.5" width="1920" height="1080" style="fill:none;stroke:#000;stroke-miterlimit:10"/><polygon points="1140.5 820.5 1132.72 820.5 1132.5 881.23 709.5 881.5 709.34 820.5 700.5 820.5 700.5 886.73 1140.5 886.73 1140.5 820.5" style="fill:#fff;stroke:#000;stroke-miterlimit:10"/><polygon points="1140.5 748.5 1132.72 748.5 1132.5 809.23 709.5 809.5 709.34 748.5 700.5 748.5 700.5 814.73 1140.5 814.73 1140.5 748.5" style="fill:#fff;stroke:#000;stroke-miterlimit:10"/><polygon points="1360.5 656.5 1349.93 656.5 1349.5 732.23 490.5 732.5 490.3 666.58 1333.5 666.04 1333.5 656.5 480.5 656.5 480.5 742.73 1360.5 742.73 1360.5 656.5" style="fill:#fff;stroke:#000;stroke-miterlimit:10"/></svg>