<svg xmlns="http://www.w3.org/2000/svg" width="3841" height="1081" viewBox="0 0 3841 1081"><title>100_looserTick</title><path d="M292.78,34.13a17.68,17.68,0,0,1-6.46.71c-24.66.16-49.32.39-73.95.48-51.52.19-103,.44-154.53,1.16-13.43.19-26.86.27-40.27.42-3,0-6,.1-9,.24-4.48.21-5.1.73-5.14,4.43V58.82q0,28.19,0,56.44,0,49.07,0,98.15c0,2.21,0,4.42-.18,6.63a2.88,2.88,0,0,1-3.1,2.56V34.13Z" transform="translate(0.5 0.5)" style="fill:#fff"/><path d="M3731.44,1051.84a8.88,8.88,0,0,1,4.7-.81l32.74-.29,54.84-.48c3.54,0,7.09-.1,10.63-.29q2.82-.27,5.6-.79v2.66Z" transform="translate(0.5 0.5)" style="fill:#fff"/><path d="M1640.47,632.9a16.18,16.18,0,0,0-3.61,6c2.86,4.76,57.56,81.25,62.08,86.73,3.43,0,6.47.11,9.51.11h118.41a8.22,8.22,0,0,1,6.83,3.27c1.32,1.72,2.55,3.47,3.79,5.22q27.91,39,55.84,78c1.5,2.11,2.57,4.51,5.63,6.2h119.59q1.63-.06,3.24-.26a14.2,14.2,0,0,0,1.64-1.64q29.84-41.62,59.61-83.28a13.37,13.37,0,0,0,1-2.09c-1.26-1.85-2.55-3.81-3.93-5.74l-56.25-78.65c-1.38-1.95-2.84-3.86-4.05-5.9-1.34-2.59-.13-5.59,2.86-7a7.84,7.84,0,0,1,8.39.75,24.9,24.9,0,0,1,3.28,3.86q9.43,13.08,18.77,26.17l39.38,54.85c1.38,1.93,2.84,3.84,4.05,5.53a19.61,19.61,0,0,0,7.72.72h114.24a4.87,4.87,0,0,0,4.18-1.8c1.05-1.32,2-2.7,3-4.06l53.75-75.15a19.71,19.71,0,0,0,3.73-6.12,29.57,29.57,0,0,0-4.18-6.43q-28.09-39.33-56.23-78.65c-1.26-1.75-2.51-3.5-3.59-5.32-1.53-2.86.11-6.18,3.65-7.42a8.17,8.17,0,0,1,8.06,1.5,49.43,49.43,0,0,1,4.05,5.12q15,20.95,30,41.93,13.54,18.94,27.1,37.86c1.11,1.55,2.25,3.09,3.53,4.56a3.36,3.36,0,0,0,2,1c2.49.16,5,.2,7.48.2h116.75a41.44,41.44,0,0,1,4.16.2c3.1.47,5.44,2.55,5.72,5.09.37,2.8-1.91,5.37-5.31,6a22.11,22.11,0,0,1-3.28.33H2298.81a4.66,4.66,0,0,0-4.05,1.9c-1.05,1.64-2.25,3.09-3.36,4.64L2236,728.59c-1.11,1.55-2.31,3.07-3.34,4.66-1.66,2.69-5.21,4.28-8.92,4h-123.4a35.34,35.34,0,0,0-3.51.46c-1.54,2.08-3.16,4.15-4.68,6.28l-55.84,78.06c-1,1.36-2,2.68-2.94,4.07a8.89,8.89,0,0,1-8.11,3.76h-130.9a8.34,8.34,0,0,1-6.93-3.14q-1.72-2.31-3.39-4.64-27.93-39-55.88-78c-5.61-7.8-3.08-6.8-14.8-6.82H1701.6c-2.49,0-5,0-7.5-.16a7.45,7.45,0,0,1-5.51-2.68c-1.2-1.5-2.31-3.06-3.43-4.61q-28.13-39.25-56.27-78.63a24.65,24.65,0,0,0-5-6.18,35.7,35.7,0,0,0-9.06-.46H1503a5.62,5.62,0,0,0-5.33,2.6c-.63,1-1.38,1.95-2,2.91l-54.61,76.31c-1.11,1.54-2.15,3.12-3.06,4.45,0,2.24,1.54,3.63,2.61,5.15q19.13,26.82,38.33,53.59l20,28a52.39,52.39,0,0,1,3.12,4.74c1.22,2.63-.14,5.58-3.18,6.93a8.38,8.38,0,0,1-9-1.54c-1.42-1.64-2.66-3.42-3.91-5.15l-52.09-72.81c-2.78-3.88-5.59-7.74-8.53-11.78-1.58-.2-3.18-.51-4.8-.59-2-.11-3.89,0-5.84,0h-112a4.69,4.69,0,0,0-4.05,2c-1.5,2.16-3.08,4.25-4.62,6.39l-55,76.87c-1.26,1.75-2.51,3.48-4,5.14a8.08,8.08,0,0,1-7.52,1.78c-2.75-.65-4.72-2.6-4.95-4.91a4.71,4.71,0,0,1,.55-2.6,67.29,67.29,0,0,1,4.05-5.9L1283,738.08c1.52-2.13,3-4.28,4.4-6.33a27.07,27.07,0,0,0-4.26-6.77q-26.63-37.29-53.33-74.56c-2-2.91-4.05-5.85-6.08-8.78a4.7,4.7,0,0,1-.14-5.77c.93-1.37,1.84-2.76,2.82-4.12l60.81-85a41.58,41.58,0,0,1,3.57-4.53,7.77,7.77,0,0,1,9-1.08c2.7,1.35,3.88,4,2.86,6.44a32,32,0,0,1-3,4.79q-12.47,17.5-25,34.95l-32.43,45.45a16.08,16.08,0,0,0-3.63,6.2,20.91,20.91,0,0,0,1.28,2.29q30,41.95,60.06,83.93c1.54.16,2.88.41,4.24.44h110.89a71.79,71.79,0,0,0,9-.21,17.76,17.76,0,0,0,4.84-5.59q16.09-22.41,32.11-44.84l25-34.95c1.11-1.55,2.21-3.12,3.49-4.58a7.61,7.61,0,0,1,5.63-2.52c2.49-.08,5,0,7.5,0h111.74a48.25,48.25,0,0,0,9.18-.33,6.42,6.42,0,0,0,1.11-1Z" transform="translate(0.5 0.5)"/><path d="M1640.47,170.9a16.18,16.18,0,0,0-3.61,6c2.86,4.76,57.56,81.25,62.08,86.73,3.43,0,6.47.11,9.51.11h118.41a8.22,8.22,0,0,1,6.83,3.27c1.32,1.72,2.55,3.47,3.79,5.22q27.91,39,55.84,78c1.5,2.11,2.57,4.51,5.63,6.2h119.59q1.63-.06,3.24-.26a14.2,14.2,0,0,0,1.64-1.64q29.84-41.62,59.61-83.28a13.37,13.37,0,0,0,1-2.09c-1.26-1.85-2.55-3.81-3.93-5.74l-56.25-78.65c-1.38-1.95-2.84-3.86-4.05-5.9-1.34-2.59-.13-5.59,2.86-7a7.84,7.84,0,0,1,8.39.75,24.9,24.9,0,0,1,3.28,3.86q9.43,13.08,18.77,26.17l39.38,54.85c1.38,1.93,2.84,3.84,4.05,5.53a19.61,19.61,0,0,0,7.72.72h114.24a4.87,4.87,0,0,0,4.18-1.8c1.05-1.32,2-2.7,3-4.06l53.75-75.15a19.71,19.71,0,0,0,3.73-6.12,29.57,29.57,0,0,0-4.18-6.43q-28.09-39.33-56.23-78.65c-1.26-1.75-2.51-3.5-3.59-5.32-1.53-2.86.11-6.18,3.65-7.42a8.17,8.17,0,0,1,8.06,1.5,49.43,49.43,0,0,1,4.05,5.12q15,20.95,30,41.93,13.54,18.94,27.1,37.86c1.11,1.55,2.25,3.09,3.53,4.56a3.36,3.36,0,0,0,2,1c2.49.16,5,.2,7.48.2h116.75a41.44,41.44,0,0,1,4.16.2c3.1.47,5.44,2.55,5.72,5.09.37,2.8-1.91,5.37-5.31,6a22.11,22.11,0,0,1-3.28.33H2298.81a4.66,4.66,0,0,0-4.05,1.9c-1.05,1.64-2.25,3.09-3.36,4.64L2236,266.59c-1.11,1.55-2.31,3.07-3.34,4.66-1.66,2.69-5.21,4.28-8.92,4h-123.4a35.34,35.34,0,0,0-3.51.46c-1.54,2.08-3.16,4.15-4.68,6.28l-55.84,78.06c-1,1.36-2,2.68-2.94,4.07a8.89,8.89,0,0,1-8.11,3.76h-130.9a8.34,8.34,0,0,1-6.93-3.14q-1.72-2.31-3.39-4.64-27.93-39-55.88-78c-5.61-7.8-3.08-6.8-14.8-6.82H1701.6c-2.49,0-5,0-7.5-.16a7.45,7.45,0,0,1-5.51-2.68c-1.2-1.5-2.31-3.06-3.43-4.61q-28.13-39.25-56.27-78.63a24.65,24.65,0,0,0-5-6.18,35.7,35.7,0,0,0-9.06-.46H1503a5.62,5.62,0,0,0-5.33,2.6c-.63,1-1.38,1.95-2,2.91l-54.61,76.31c-1.11,1.54-2.15,3.12-3.06,4.45,0,2.24,1.54,3.63,2.61,5.15q19.13,26.82,38.33,53.59l20,28a52.39,52.39,0,0,1,3.12,4.74c1.22,2.63-.14,5.58-3.18,6.93a8.38,8.38,0,0,1-9-1.54c-1.42-1.64-2.66-3.42-3.91-5.15l-52.09-72.81c-2.78-3.88-5.59-7.74-8.53-11.78-1.58-.2-3.18-.51-4.8-.59-2-.11-3.89,0-5.84,0h-112a4.69,4.69,0,0,0-4.05,2c-1.5,2.16-3.08,4.25-4.62,6.39l-55,76.87c-1.26,1.75-2.51,3.48-4,5.14a8.08,8.08,0,0,1-7.52,1.78c-2.75-.65-4.72-2.6-4.95-4.91a4.71,4.71,0,0,1,.55-2.6,67.29,67.29,0,0,1,4.05-5.9L1283,276.08c1.52-2.13,3-4.28,4.4-6.33a27.07,27.07,0,0,0-4.26-6.77q-26.63-37.29-53.33-74.56c-2-2.91-4.05-5.85-6.08-8.78a4.7,4.7,0,0,1-.14-5.77c.93-1.37,1.84-2.76,2.82-4.12l60.81-85a41.58,41.58,0,0,1,3.57-4.53,7.77,7.77,0,0,1,9-1.08c2.7,1.35,3.88,4,2.86,6.44a32,32,0,0,1-3,4.79q-12.47,17.5-25,34.95l-32.43,45.45a16.08,16.08,0,0,0-3.63,6.2,20.91,20.91,0,0,0,1.28,2.29q30,41.95,60.06,83.93c1.54.16,2.88.41,4.24.44h110.89a71.79,71.79,0,0,0,9-.21,17.76,17.76,0,0,0,4.84-5.59q16.09-22.41,32.11-44.84l25-34.95c1.11-1.55,2.21-3.12,3.49-4.58a7.61,7.61,0,0,1,5.63-2.52c2.49-.08,5,0,7.5,0h111.74a48.25,48.25,0,0,0,9.18-.33,6.42,6.42,0,0,0,1.11-1Z" transform="translate(0.5 0.5)"/><rect x="0.5" y="0.5" width="3840" height="1080" style="fill:none;stroke:#000;stroke-miterlimit:10"/></svg>