<svg xmlns="http://www.w3.org/2000/svg" width="3374.23" height="1080.95" viewBox="0 0 3374.23 1080.95"><title>100_looserTick</title><path d="M2444.61,494.81c0-.28-.08-.56-.12-.85Z" transform="translate(-236.6)"/><path d="M2011.45,513.7c-.07.47-.15.94-.22,1.41S2011.26,515.12,2011.45,513.7Z" transform="translate(-236.6)"/><path d="M2461.76,562.26c-.33-.71-.66-1.41-1-2.12C2461.32,561.35,2461.63,562,2461.76,562.26Z" transform="translate(-236.6)"/><path d="M2499.16,611.75c-.38-.28-.77-.54-1.14-.82C2498.65,611.41,2499,611.66,2499.16,611.75Z" transform="translate(-236.6)"/><path d="M2478.63,591.17c-.51-.63-1-1.25-1.53-1.88A12.5,12.5,0,0,0,2478.63,591.17Z" transform="translate(-236.6)"/><path d="M1958.21,612.14c-.56.46-1.1.94-1.66,1.39C1957.56,612.71,1958.06,612.28,1958.21,612.14Z" transform="translate(-236.6)"/><path d="M1598,593.12c0-.24.09-.48.13-.72l0-.17C1598.1,592.5,1598.06,592.79,1598,593.12Z" transform="translate(-236.6)"/><path d="M1598.15,592.09l0,.14,0,.17,0-.14Z" transform="translate(-236.6)"/><path d="M1915.13,637.67l-1.38.62C1914.65,637.9,1915.06,637.72,1915.13,637.67Z" transform="translate(-236.6)"/><path d="M1598,591.34c0,.33.07.62.1.89l0-.14C1598.11,591.84,1598.06,591.59,1598,591.34Z" transform="translate(-236.6)"/><path d="M1600,599.45c.1.36.36,1,.84,2.18C1600.52,600.91,1600.25,600.18,1600,599.45Z" transform="translate(-236.6)"/><path d="M1612.14,613.13c-.64-.44-1.27-.88-1.89-1.35C1611.33,612.59,1611.91,613,1612.14,613.13Z" transform="translate(-236.6)"/><path d="M1853.68,654.16c-.61.08-1.21.18-1.82.25C1853,654.27,1853.54,654.19,1853.68,654.16Z" transform="translate(-236.6)"/><path d="M1632.17,624.34c-.8-.32-1.6-.65-2.39-1A19.39,19.39,0,0,0,1632.17,624.34Z" transform="translate(-236.6)"/><path d="M1603.6,605.22c-.1-.15-.55-1-1.11-2C1602.15,603,1602.35,603.38,1603.6,605.22Z" transform="translate(-236.6)"/><path d="M1595.7,999.06c2.75-5-3.69,3.8,0,0Z" transform="translate(-236.6)"/><path d="M2351.48,854c-68.5,2.11-137,4.48-205.49,6.5-34.81,1-69.72,2.73-104.55,2.7-7.1,0-14.21-.12-21.3-.47-4.24-.2-8.49-.48-12.71-.85h0s-9.49-1.07-8.46-.87l1.42.21-1.42-.21c-16.73-2.34-33.31-6.18-49.77-9.92-65.68-15-135-34.14-200.84-9.53q-46.63,17.44-93.07,35.66c-29.36,11.49-59.08,23.73-84.35,42.92s-44.34,42.86-55.82,72.56c-11.84,30.61-13.51,18.21-11.76,50.67,1,19.55,16.49,38.44,37.5,37.5,18.57-.83,37-15.2,37.52-34.81-1.21,3.11-.74-16.18,0-2.69,0,.91,0,1.8,0,2.69a25.47,25.47,0,0,0,.86-4.44c-.83,6,.79-3.18,1.18-5.43.06-.34.13-.69.2-1q.79-3.64,1.76-7.25c1-3.9,2.34-7.69,3.62-11.51l.5-1.31-.08.16q2-5.24.08-.16c1-2,2-4,3-5.91,1.63-3,3.55-5.73,5.27-8.63.38-.64.67-1.14.9-1.57-3.69,3.8,2.75-5,0,0,.35-.36.78-.82,1.33-1.43a158.58,158.58,0,0,1,11.65-12c.41-.38,4.88-4.07,5.1-4.38-.77.56-1.56,1.11-2.31,1.69a15.48,15.48,0,0,1,2.31-1.69c2-1.44,4-2.83,6-4.17a228.39,228.39,0,0,1,21.31-12.23c26.55-13.64,53.76-22.58,84.39-34.21,14.31-5.43,28.46-11.29,42.8-16.66,18.23-6.82,28.88-9.26,45.64-9.5,31.55-.46,57.16,5.66,89.89,13.16,35.62,8.15,71.25,17,107.82,19.68,32.82,2.42,65.93.21,98.78-.7q53.43-1.47,106.84-3.22c103.15-3.3,206.44-6.89,309.73-8.62v-75C2468.47,850.7,2409.95,852.24,2351.48,854Z" transform="translate(-236.6)"/><path d="M1611.47,982.93c.75-.58,1.54-1.13,2.31-1.69A15.48,15.48,0,0,0,1611.47,982.93Z" transform="translate(-236.6)"/><path d="M3092.14,625.75c.23.21.73.63,1.59,1.34C3093.19,626.65,3092.67,626.2,3092.14,625.75Z" transform="translate(-236.6)"/><path d="M3077.87,611.56c-.51-.6-1-1.21-1.51-1.83C3077.17,610.75,3077.64,611.31,3077.87,611.56Z" transform="translate(-236.6)"/><path d="M3120.07,642c-.76-.29-1.53-.57-2.29-.88A19.24,19.24,0,0,0,3120.07,642Z" transform="translate(-236.6)"/><path d="M2007.42,861.92h0Z" transform="translate(-236.6)"/><path d="M1999,861.05l1.42.21Z" transform="translate(-236.6)"/><path d="M1586.42,1015.32l.08-.16Q1588.43,1010.09,1586.42,1015.32Z" transform="translate(-236.6)"/><path d="M1578.36,1043.41c-.72-13.48-1.19,5.8,0,2.69C1578.41,1045.22,1578.41,1044.32,1578.36,1043.41Z" transform="translate(-236.6)"/><path d="M2686.66,599.8c-3.71,3.4,4.37-3,0,0Z" transform="translate(-236.6)"/><path d="M3069.43,598.15c-2.5-3.53.88,4.47,0,0Z" transform="translate(-236.6)"/><path d="M2642.81,625.77l-.15.07Q2646.83,624.17,2642.81,625.77Z" transform="translate(-236.6)"/><path d="M2562.32,637.1l-2.11-.22Q2563,637.23,2562.32,637.1Z" transform="translate(-236.6)"/><path d="M2604.58,636.75l-1,.11C2600.31,637.53,2603.06,637,2604.58,636.75Z" transform="translate(-236.6)"/><path d="M3067.19,579.08c.44-1,.92-1.9,1.41-2.83C3068.72,575.66,3068.26,576.59,3067.19,579.08Z" transform="translate(-236.6)"/><path d="M3067.14,589.29c-.24-1-.46-2.06-.67-3.09C3066.85,588.67,3067,589.45,3067.14,589.29Z" transform="translate(-236.6)"/><path d="M3084,558.27c4.54-4.28-4.51,2.35,0,0Z" transform="translate(-236.6)"/><path d="M3071.92,570.57c.54-.83,1.07-1.66,1.63-2.49C3072.62,569.47,3072.12,570.23,3071.92,570.57Z" transform="translate(-236.6)"/><path d="M2000.31,557.22l0,.1,0,0Z" transform="translate(-236.6)"/><path d="M3434.71,705.22c6.26.37-5.21-1.2,0,0Z" transform="translate(-236.6)"/><path d="M3504.43,732.41c1.88,1.07-5.56-5,0,0Z" transform="translate(-236.6)"/><path d="M3376,389.26l-1.34.62C3377.24,388.71,3377,388.83,3376,389.26Z" transform="translate(-236.6)"/><path d="M3475.65,716.17l1.72.67C3476.49,716.49,3475.94,716.27,3475.65,716.17Z" transform="translate(-236.6)"/><path d="M3407.47,371.47l-.74.5C3405.62,372.79,3405,373.27,3407.47,371.47Z" transform="translate(-236.6)"/><path d="M3425.29,314.05c-.75-1.82-.6-1.26-.16.06C3425.74,315.37,3426,315.88,3425.29,314.05Z" transform="translate(-236.6)"/><path d="M3429.28,328c.15.71.3,1.41.44,2.12C3429.53,329.18,3429.38,328.49,3429.28,328Z" transform="translate(-236.6)"/><path d="M3429.59,338.32c-.06,1-.12,1.93-.22,2.89C3429.74,338.42,3429.81,337.47,3429.59,338.32Z" transform="translate(-236.6)"/><path d="M3426.54,349.59c-1.15,4.66,2.62-3.27,0,0Z" transform="translate(-236.6)"/><path d="M3421.25,357.85c-.47.75-1,1.48-1.48,2.2A12.43,12.43,0,0,0,3421.25,357.85Z" transform="translate(-236.6)"/><path d="M3489,875.76c-.65.48-1.32.95-2,1.42C3487,877.2,3487.56,876.81,3489,875.76Z" transform="translate(-236.6)"/><path d="M3457.88,894.23c-4.41,2.46,4.76-1.57,0,0Z" transform="translate(-236.6)"/><path d="M3539.64,665.89c-58.74-40.26-132-41-199.78-31.38-17.26,2.46-34.4,5.61-51.55,8.74-7.16,1.31-14.32,2.62-21.5,3.87q-6.45,1.13-12.92,2.18c-2.88.47-5.75.92-8.63,1.35q-7.14,1-3,.47c-31.16,4.24-66.42,5.13-93.18-.6a202,202,0,0,1-21.06-5.68q-4-1.33-8-2.85a19.24,19.24,0,0,1-2.29-.88c.75.31,1.53.58,2.29.88,0-.11-6.3-2.92-6.58-3a152.55,152.55,0,0,1-15.67-9.07c-.24-.16-6.89-5.24-5.68-4.12.53.45,1.06.9,1.59,1.34-.87-.71-1.37-1.14-1.59-1.34q-4.61-3.91-8.84-8.25c-1.87-1.92-3.7-3.89-5.43-5.94-.23-.25-.7-.81-1.51-1.83.49.62,1,1.23,1.51,1.83,1.09,1.2-3.56-5.14-3.8-5.59-1.22-2-2.25-4.06-3.46-6-.49-.8-.87-1.39-1.18-1.82.88,4.47-2.5-3.53,0,0-.1-.49-.24-1.13-.45-2q-1-3.42-1.84-6.91c-.09.16-.28-.62-.67-3.09.2,1,.43,2.06.67,3.09.21-.38-.21-6.18-.22-6.95-.15-10.55.09,4.27.59-.93a23.13,23.13,0,0,1,.93-4.58c.08-.28.13-.45.16-.58-.49.93-1,1.87-1.41,2.83,1.07-2.49,1.53-3.42,1.41-2.83.25-.47.5-1,.76-1.42.8-1.46,1.67-2.87,2.57-4.26.2-.34.69-1.1,1.63-2.49-.56.82-1.1,1.66-1.63,2.49-.77,1.35,3.23-4,4-4.74,2.25-2.33,4.68-4.44,7.09-6.61l1-1c-4.51,2.35,4.54-4.28,0,0,.44-.23,1-.54,1.73-1,5-2.93,9.87-6.11,15.08-8.78,9.92-5.06,9.36-4.62,19.88-8.27,31.31-10.84,64-18.26,96-27q48.9-13.29,97.89-26.22c33.34-8.74,66.44-18.22,97.93-32.43,29.21-13.18,56.12-32.54,73.91-59.56,19-28.9,23-66.19,11.84-98.75-21.68-63.23-77.7-107.24-137.86-131.42-62.94-25.28-134.31-30.06-201.37-24.76-69.24,5.47-139.53,19.22-201.15,52.57-57.64,31.2-100.34,81-128.4,139.68-15.48,32.38-27.69,66.21-40.07,99.86-11.54,31.35-20.21,55.12-35.65,84.15-15.58,29.32-28.18,47.13-51.07,69.06-4.53,4.34-9.3,8.39-14,12.52-.92.8-2.06,1.83-2.06,1.83s-1.22.85-2.14,1.52c-3,2.18-9.2,6.43-9.2,6.43s-12.65,8-19.24,11.51q-3.3,1.76-6.65,3.41c-2.18,1.08-7.57,3.49-8.17,3.73a222.07,222.07,0,0,1-22.84,7.28c-3.93,1-7.88,1.78-11.84,2.59-1.3.26-18.41,2-26.17,1.86q-6.08,0-12.12-.48c-2-.15-7.33-.78-9.07-1-.4-.06-.8-.14-1.2-.22-6-1.29-12-2.51-17.93-4.25-3.67-1.08-7.23-2.38-10.85-3.57-.94-.31-1.66-.54-2.24-.71v78.59A227.4,227.4,0,0,0,2668,696c59.38-24.54,107.3-69.42,140.49-124.09,34.25-56.42,53-126.11,77.25-183a438.79,438.79,0,0,1,19.44-40.06c6.77-12.23,17.29-28.71,23.13-35.84a242.68,242.68,0,0,1,28.56-29.39q3.4-3,6.92-5.77a13.16,13.16,0,0,1,1.65-1.33c-.56.43-1.1.89-1.65,1.33.47-.28,5.93-4.33,6-4.33q9.16-6.4,18.85-12c52-30.14,119.36-43.12,179.23-47,16.09-1,32.23-1.44,48.36-1.07q11,.25,22,1,6.59.44,13.15,1.08c2.81.27,5.62.56,8.42.89l3.53.43-1.39-.2c2.05.27,2.51.34,1.39.2a352.66,352.66,0,0,1,42.5,8.75c7.86,2.13,15.65,4.54,23.31,7.29,2.56.91,5.09,1.9,7.63,2.85l2.89,1.16-1.22-.54c2.4,1,2.8,1.17,1.22.54,1.86.82,3.71,1.65,5.54,2.56,27.92,13.29,43.29,24.46,62.7,47.06.17.2,4.8,6.23,4.46,5.62s-.86-1.24-1.31-1.85c.83,1.15,1.22,1.7,1.31,1.85,1.67,2.35,3.3,4.72,4.83,7.15,1.94,3.07,3.75,6.2,5.44,9.42-.19-.37,1.56,3.43,2.52,5.39-.44-1.32-.58-1.88.16-.06s.45,1.32-.16.06c.69,2.06,2.1,6,2,5.58q1.26,4.13,2.15,8.36c.1.44.24,1.13.44,2.12-.14-.71-.29-1.42-.44-2.12-.69-3,.44,5.27.44,6.26,0,1.34-.05,2.67-.13,4,.22-.85.15.1-.22,2.89.1-1,.16-1.93.22-2.89-.09.34-.23,1-.41,1.89-.15.75-.34,1.49-.56,2.22-.55,1.79-1.05,3.62-1.59,5.41-.22.72-.37,1.29-.49,1.75,2.62-3.27-1.15,4.66,0,0-.32.4-.74,1-1.27,1.75-1.44,2.11-2.66,4.35-4,6.51a12.43,12.43,0,0,1-1.48,2.2c.52-.72,1-1.45,1.48-2.2-.18,0-4.15,4.87-4.53,5.25-2.52,2.59-5.2,5-7.92,7.32-.26.22-1.28,1-2.07,1.55l.74-.5c-2.52,1.79-1.85,1.31-.74.5a178,178,0,0,1-21.85,13c-2.92,1.49-5.88,2.88-8.87,4.24,1-.43,1.23-.55-1.34.62l1.34-.62c-.91.41-2.44,1.09-2.82,1.24q-10.51,4.13-21.23,7.69c-16.15,5.39-32.54,10-49,14.36-64.83,17.27-130.83,32.41-194.73,52.9-30.09,9.65-60,22.83-83.05,45-25.2,24.3-37,57.64-31.51,92.2,10.26,64.73,75.83,107.41,135.49,120.17,70.51,15.09,139.62-.9,209.23-12.65,16.68-2.82,24.59-4.08,41.55-5.4a325.75,325.75,0,0,1,51.8.18c1.27.1,2.24.17,3,.22-5.21-1.2,6.26.37,0,0,.61.14,1.45.32,2.57.54,3.71.74,7.44,1.38,11.13,2.22q9.24,2.1,18.27,5c3,1,6,2,9,3.19.3.11.84.32,1.72.67l-1.72-.67c-1.87-.68,6.54,3,6.6,3a176.93,176.93,0,0,1,21,12.45c.57.39.94.63,1.18.76-5.56-5,1.88,1.07,0,0l1,.87c2.62,2.33,5.25,4.61,7.75,7.09s4.78,5.08,7.13,7.67c.6.66,1.07,1.16,1.45,1.54-2.28-4.28,3.58,3.64,0,0,.26.48.62,1.12,1.11,2,2.54,4.23,5.12,8.36,7.36,12.76a20.07,20.07,0,0,1,1.21,2.4c-.38-.82-.8-1.6-1.21-2.4-.22-.15,2.33,6,2.51,6.53a83.66,83.66,0,0,1,3,12.26,11.24,11.24,0,0,1,.39,2.4c-.11-.8-.26-1.6-.39-2.4-.2,0,.28,7.35.29,7.58,0,2.54-.16,5-.2,7.58,0,1.22,0,2.09,0,2.7,1.29-4.82.18,4.46,0,0-.15.58-.34,1.36-.57,2.39-.82,3.72-1.6,7.42-2.66,11.1-.87,3-1.84,6-2.92,8.95,0,.16-.25.72-.72,1.9.25-.63.48-1.27.72-1.9s-1.85,4.18-2.35,5.18a207.22,207.22,0,0,1-11.94,20c-.56.86-1,1.53-1.27,2,3.59-3.87-2.65,4.41,0,0-.39.42-.9,1-1.55,1.73-2.36,2.7-4.67,5.42-7.13,8-4.09,4.33-8.41,8.46-12.91,12.36-.24.21-5.63,4.44-5.55,4.49.66-.47,1.33-.94,2-1.42-1.41,1-2,1.44-2,1.42-2.3,1.65-4.62,3.26-7,4.8a220.2,220.2,0,0,1-19.75,11c-1,.54-1.79.94-2.34,1.25,4.76-1.57-4.41,2.46,0,0-.6.2-1.41.48-2.51.88-3.54,1.29-7.06,2.58-10.64,3.73q-9,2.87-18.16,4.92c-16.63,3.77-26.12,4.59-44.52,5.11-67.45,1.91-128.75-13.7-196.21-24-218.21-33.41-438.58-38.62-658.84-35.11v75c176.8-3,353.59-.44,529.63,18.4,68.19,7.3,132,18,201.35,29.27,67.77,11,139.87,20.14,206.7-1.2,62.78-20,115.82-66.78,137.91-129.59C3626.31,774.18,3596.84,705.09,3539.64,665.89Z" transform="translate(-236.6)"/><path d="M3514.13,850.6c-2.65,4.41,3.59-3.87,0,0Z" transform="translate(-236.6)"/><path d="M3530.2,764.3c.41.8.82,1.58,1.21,2.4A20.07,20.07,0,0,0,3530.2,764.3Z" transform="translate(-236.6)"/><path d="M3535.74,783.1c.14.8.28,1.59.39,2.4A11.24,11.24,0,0,0,3535.74,783.1Z" transform="translate(-236.6)"/><path d="M3529.68,823.39c-.23.64-.47,1.27-.72,1.9C3529.43,824.11,3529.64,823.54,3529.68,823.39Z" transform="translate(-236.6)"/><path d="M3521.73,749.59c3.58,3.64-2.28-4.28,0,0Z" transform="translate(-236.6)"/><path d="M3535.84,801c.18,4.46,1.29-4.82,0,0Z" transform="translate(-236.6)"/><path d="M1598.51,594.2c.35.53.36-4.2,0-4-.14.67-.25,1.34-.36,2C1598.28,592.91,1598.38,593.56,1598.51,594.2Z" transform="translate(-236.6)"/><path d="M1433.47,360c1.57-2.25-4.5,5.22,0,0Z" transform="translate(-236.6)"/><path d="M1362.39,618.89c0,.13,0,.26,0,.39.17-.6.33-1.26.45-1.86-.1.32-.19.63-.29.95Z" transform="translate(-236.6)"/><path d="M3412.33,292.15c-.09-.15-.47-.7-1.31-1.85C3411.47,290.91,3411.9,291.54,3412.33,292.15Z" transform="translate(-236.6)"/><path d="M2089,335.54c.07-.59.14-1.18.22-1.76C2089.11,334.57,2089,335.14,2089,335.54Z" transform="translate(-236.6)"/><path d="M1598.15,592.4a6.72,6.72,0,0,0,.36,1.8c-.13-.64-.23-1.29-.33-1.94Z" transform="translate(-236.6)"/><path d="M1598.18,592.26c.11-.67.22-1.34.36-2a5.24,5.24,0,0,0-.39,1.84Z" transform="translate(-236.6)"/><path d="M1624.63,554.37l1-.87Z" transform="translate(-236.6)"/><path d="M2100.69,292.58a19.59,19.59,0,0,0-.94,2C2100,293.88,2100.38,293.23,2100.69,292.58Z" transform="translate(-236.6)"/><path d="M1607.59,571.18c.47-.67.95-1.33,1.44-2C1607.65,571,1607.38,571.41,1607.59,571.18Z" transform="translate(-236.6)"/><path d="M1834.59,373.89c2.27-2.08,2.65-2.47,2.17-2.11C1836,372.55,1835.26,373.27,1834.59,373.89Z" transform="translate(-236.6)"/><path d="M2963.8,277.86c.55-.44,1.09-.9,1.65-1.33A13.16,13.16,0,0,0,2963.8,277.86Z" transform="translate(-236.6)"/><path d="M3261.92,216.66l1.39.2C3264.43,217,3264,216.93,3261.92,216.66Z" transform="translate(-236.6)"/><path d="M3338.42,236.37l1.22.54C3341.22,237.55,3340.82,237.37,3338.42,236.37Z" transform="translate(-236.6)"/><path d="M2113.52,270.68c.5-.61,1-1.19,1.52-1.78A16.6,16.6,0,0,0,2113.52,270.68Z" transform="translate(-236.6)"/><path d="M2527.38,630.45s-16.72-11-23.11-15.16c-1.71-1.13-3.43-2.32-5.11-3.54-.16-.09-.51-.35-1.14-.82.37.28.76.55,1.14.82,1,.61-6.74-5.88-7.56-6.65a137.48,137.48,0,0,1-13-13.94,12.5,12.5,0,0,1-1.53-1.88c.5.64,1,1.25,1.53,1.88-.12-.35-3.91-5.62-4.07-5.88q-3-4.49-5.63-9.15-3.9-6.77-7.17-13.88c-.13-.25-.44-.9-1-2.12.32.71.65,1.42,1,2.12.66,1.26-2.92-7.45-3-7.6-1.88-5.22-3.55-10.51-5.06-15.85a342.22,342.22,0,0,1-9.11-44l-.12-.85c0,.28.08.56.12.85.61,4.13-1-7.93-.93-7.4q-.73-6.3-1.37-12.59c-.89-8.67-1.67-17.35-2.43-26-5.94-67.41-11.52-138.75-50.46-196.59-37.39-55.53-95.86-94.08-163-100.86-68.8-7-137.1,25.29-177.23,80.88-40.63,56.29-38.53,130.39-36.4,196.4.52,15.88,1,31.78.78,47.67-.12,8.64-.43,17.28-1.09,25.9-.22,2.87-.5,5.74-.76,8.6q-.43,3.58-.49,4.29c.07-.47.15-.94.22-1.41q-.29,2.12-.22,1.41-.55,3.56-1.2,7.11a200.88,200.88,0,0,1-5.58,23c-1.1,3.58-2.35,7.1-3.64,10.61l-.55,1.49,0-.1-.06.14c-1.73,4.69-.64,1.48,0,0l0,0a168.27,168.27,0,0,1-10.48,19.7c-2,3.19-4.07,6.26-6.18,9.34q-3.95,5.38-1,1.35-2.36,2.87-4.83,5.64a181.83,181.83,0,0,1-12.9,13c-2.18,2-4.41,3.9-6.67,5.79-.15.14-.65.57-1.66,1.39.56-.46,1.11-.93,1.66-1.39.67-.64-5.63,4.26-5.78,4.39a219.37,219.37,0,0,1-37.3,21.14c-.07,0-.48.23-1.38.62l1.38-.62c.35-.23-8.21,3.2-7.64,3q-5.78,2.11-11.65,4-10.76,3.36-21.78,5.8c-6.73,1.5-13.54,2.84-20.38,3.75-.14,0-.69.11-1.82.25.61-.07,1.21-.17,1.82-.25s-6.48.6-7.92.76l-.58,0c-5.67.5-11.36.84-17.06,1.06a413.9,413.9,0,0,1-47.9-1.16c-18.32-1.45-28-2.88-45.51-5.68-31.9-5.11-64.23-11.23-94.79-22-2.59-.91-5.19-1.83-7.75-2.85a19.39,19.39,0,0,1-2.39-1c.79.34,1.59.67,2.39,1-.31-.18-2.8-1.32-3.39-1.63-5.64-3.08-11.34-5.94-16.64-9.58-.23-.13-.81-.54-1.89-1.35.62.46,1.26.91,1.89,1.35,1,.59-5-4.31-5.21-4.62s-3.7-4.57-4.44-5.25c.55,1,1,1.81,1.11,2-1.25-1.85-1.45-2.27-1.11-2-1.2-2.14-2.87-5.07-2.5-3.81.26.73.54,1.46.84,2.18-.48-1.14-.74-1.82-.84-2.18a38.42,38.42,0,0,1-1.47-5.25,6.72,6.72,0,0,1-.36-1.8c0,.24-.09.48-.12.72,0-.33.07-.62.1-.89s-.07-.56-.1-.89c0,.25.09.5.12.75a5.24,5.24,0,0,1,.39-1.84,51.18,51.18,0,0,1,2.22-7.72c-2.28,6.69,2-3.74,2.36-4.33q2.06-3.62,4.47-7c-.21.23.06-.17,1.44-2-.49.65-1,1.31-1.44,2,.34-.36,1.94-2.32,2.37-2.75,2.55-2.55,4.92-5.26,7.54-7.75,2.3-2.18,4.69-4.26,7.13-6.31l1-.87-1,.87c-1.82,1.63,7-5.17,8-5.87,24.65-16.67,52.58-29.17,76.77-38.6,32.63-12.73,65.72-24.13,97.95-37.87,56.51-24,125.61-60.4,113.64-133.29-11.26-68.52-85-106.42-143.34-128.42a381.79,381.79,0,0,0-208.32-17.07c-65.09,13.07-126.47,47.25-172.47,95.11s-74.12,107.66-84,173.09c-5.19,34.44-7.14,68.75-12.87,99.66-3.81,20.57-12.36,39.73-12.66,60.91-.28,19.62,17.45,38.4,37.5,37.5,20.56-.92,37.2-16.47,37.5-37.5h0c0-.18,0-1.4,0-2.74-.55,2-1.1,3.24,0-.39,0-1.67.1-3.39.29-3.42.43-.07.37.84.16,2,.42-1.38.82-2.76,1.26-4.13a345.9,345.9,0,0,0,11-49c2.42-16.43,4.33-32.94,6.15-49.45,2-17.93,3.08-29.56,5.95-45.42,5.64-31.23,13.39-56.17,27.85-81.44q5.63-9.82,12.08-19.14,2.67-3.88,5.5-7.66c.39-.53.67-.9.84-1.15-4.5,5.22,1.57-2.25,0,0l1.43-1.67a330.59,330.59,0,0,1,31.83-33.1c41.88-37.23,101.63-61.2,159.15-64A319.65,319.65,0,0,1,1799,302c14.34,8.11,21.38,13,31,22.46,9.45,9.31,16.82,24.63,17.7,27.71s-1.32,8.41-1.81,9.16a96.26,96.26,0,0,1-9.09,10.43c.48-.36.1,0-2.17,2.11.67-.62,1.41-1.34,2.17-2.11-.81.61-4.08,3.4-4.8,3.9-3.56,2.4-7.23,4.63-11,6.77-52.16,29.88-109.75,44.93-167.29,70-57,24.79-128.37,67.67-130,138-1.69,74.76,76.44,106.36,137.07,120.62,124.38,29.25,284.36,39,374.87-70.34,21.26-25.69,36.83-55.63,44.48-88.2,8.16-34.81,9-70.82,8.11-106.39-.82-33.48-3-67.06-.21-100.5.29-3.4.59-6.76,1-10.11,0-.4.12-1,.22-1.76-.08.59-.15,1.18-.22,1.76-.39,3.36,1.16-6.49,1.22-6.76,1.17-6.2,2.58-12.35,4.29-18.42,1-3.64,2.15-7.24,3.4-10.81,0-.09,2.92-7,2.78-7-.31.66-.64,1.3-.94,2a19.59,19.59,0,0,1,.94-2,142.39,142.39,0,0,1,10.06-17.89c.15-.23,4.26-5.59,4.29-5.78-.51.6-1,1.18-1.52,1.78a16.6,16.6,0,0,1,1.52-1.78c1.83-2.16,3.7-4.27,5.67-6.32a145.65,145.65,0,0,1,11.47-10.73c.12-.13.64-.57,1.77-1.49-.6.49-1.18,1-1.77,1.49s5.53-4,5.77-4.21q4.51-3,9.22-5.71c3-1.7,6-3.21,9.08-4.79.35-.18.71-.35,1.07-.51,1.62-.74,2.54-1.16,2.76-1.28l-1.68.65c1.36-.56,1.91-.78,1.68-.65,1.29-.5,2.59-1,3.89-1.43a164.92,164.92,0,0,1,20.44-5.86c.36-.08.71-.15,1.08-.21,1.79-.32,7.56-1.34,7.26-1.4-.69.08-1.39.14-2.08.24a19.39,19.39,0,0,1,2.08-.24c1.67-.18,3.35-.34,5-.45a177.85,177.85,0,0,1,22.62,0c2.33.15,3.85.21,4.82.23-4.8-1.21,5,.08,0,0,.59.15,1.41.34,2.51.57,4.91,1,9.8,2,14.64,3.39,24.54,6.86,44.22,18.93,62.65,37.06a165.44,165.44,0,0,1,39.73,62.68c22,63.5,17.49,128.74,29.27,196.47,11.08,63.74,41.63,123.93,98.74,157.83a203.71,203.71,0,0,0,54.24,22.2C2527,680.36,2527.38,630.45,2527.38,630.45Z" transform="translate(-236.6)"/><path d="M2132.18,251.85c.59-.5,1.17-1,1.77-1.49C2132.82,251.28,2132.3,251.72,2132.18,251.85Z" transform="translate(-236.6)"/><path d="M2158.4,236l1.68-.65C2160.31,235.22,2159.76,235.44,2158.4,236Z" transform="translate(-236.6)"/><path d="M2190.67,226.69c.69-.09,1.39-.16,2.08-.24A19.39,19.39,0,0,0,2190.67,226.69Z" transform="translate(-236.6)"/><path d="M2225.22,226.23c5,.08-4.8-1.21,0,0Z" transform="translate(-236.6)"/><path d="M666,0c-47.73,29.81-44.9,25.64-86.9,63.48-40.88,36.83-67.27,85.51-88.75,135.43C479,225.22,466.81,251.83,460,279.76c-7.11,29.34-9,61.78,1,90.75,9.74,28.28,28.46,54.5,55.27,68.89,29.43,15.79,62.82,15.47,93.39,3,30.08-12.27,58.28-28.72,86.58-44.54,26.47-14.8,53.18-29.3,81.1-41.2l-9,3.78c22.76-9.58,46.3-17.41,70.85-20.72l-10,1.34a170.33,170.33,0,0,1,43.1-.06l-10-1.34a149.81,149.81,0,0,1,37.35,10.22l-9-3.78a137.87,137.87,0,0,1,28.93,17.14L912,357.37A153,153,0,0,1,938.38,384l-5.87-7.59a170.51,170.51,0,0,1,20.57,35.43l-3.78-9a179.24,179.24,0,0,1,12.43,45.5l-1.34-10a183.84,183.84,0,0,1-.23,46.58l1.34-10a209.35,209.35,0,0,1-14,50.9l3.78-9a253,253,0,0,1-32.91,55.87l5.87-7.59a292.3,292.3,0,0,1-51.52,51.07l7.59-5.87A230.74,230.74,0,0,1,830.43,640l9-3.78a169.94,169.94,0,0,1-42.07,11.37l10-1.34a190,190,0,0,1-47.65-.22l10,1.34c-27.8-3.8-54.39-12.88-80.16-23.73l9,3.78c-67.66-28.75-131.34-68.75-204.7-81.9-39.55-7.09-80.31-8.09-119.28,3.11-35.57,10.2-70.22,29.66-95,57.37-27.21,30.43-43.18,68.57-43,109.68.13,38.57,13.87,76.66,34.93,108.66,40.17,61,103.33,109.82,176.65,121.38,38.78,6.11,77.13,5.07,116,0S641.5,933.2,680.24,927q13.56-2.16,27.16-4l-10,1.34A580.6,580.6,0,0,1,761.94,919a591.9,591.9,0,0,1,64.68,2.79c42.74,3.85,85.23,10.33,128.08,12.84,43.7,2.56,89.21.59,131-13.32,43.25-14.38,80.06-40.47,115.13-68.92a563.84,563.84,0,0,0,48.89-45c9.62-9.89,16.73-21.27,24.61-32.48,5.32-7.58,6.15-20.29,3.78-28.9s-9.12-18.12-17.23-22.41c-8.71-4.6-19.25-6.9-28.9-3.78s-16.53,8.86-22.41,17.23c-3.88,5.52-7.32,11.41-11.36,16.8l5.87-7.59c-7.47,9.66-17.08,18.15-25.91,26.51-12.89,12.19-26.43,23.66-40.44,34.55l7.59-5.86c-22.69,17.52-46.44,34-72.89,45.41l9-3.78a240.8,240.8,0,0,1-60.79,16.07l10-1.34c-60.77,7.84-122.12-2.51-182.52-8.92-30.24-3.22-60.63-5.73-91.06-4.79-33.09,1-66,5.62-98.68,10.87-34.11,5.49-68,12.16-102.29,16.78l10-1.34c-34.22,4.53-68.92,6.87-103.26,2.28l10,1.34a217.79,217.79,0,0,1-54-14.65l9,3.78a214,214,0,0,1-46-27.09l7.59,5.86a274.3,274.3,0,0,1-47.94-47.7l5.86,7.59a222,222,0,0,1-28.23-47.15l3.78,9a162.79,162.79,0,0,1-11.26-39.45l1.34,10a139.47,139.47,0,0,1-.34-35.18l-1.34,10a124.06,124.06,0,0,1,8.22-30.81l-3.79,9A131.83,131.83,0,0,1,332.2,659l-5.86,7.59a152.22,152.22,0,0,1,25.79-25.7l-7.59,5.87a175.77,175.77,0,0,1,38.4-22.36l-9,3.78a189.93,189.93,0,0,1,46.7-12.68l-10,1.34a234.25,234.25,0,0,1,61.07.49l-10-1.34c32.84,4.58,64.47,14.76,95,27.54l-9-3.78c74,31.3,144.09,78.12,226.52,82.71,84.85,4.71,159-47.06,208.76-111.75,48.46-63,70.26-150.51,39.2-226.12a220.26,220.26,0,0,0-33.93-57.43,172.44,172.44,0,0,0-42.87-37,166,166,0,0,0-56.21-21.65,219,219,0,0,0-34.55-3.82c-11.94-.26-23.65,1.15-35.47,2.77-39.44,5.41-76.91,21.87-112.22,39.6-34.17,17.16-66.91,37-100.85,54.57-7.84,4.07-15.7,8.09-23.81,11.6l9-3.78a114.77,114.77,0,0,1-28.78,8.38l10-1.34a71.92,71.92,0,0,1-15.66.09l10,1.34a66.21,66.21,0,0,1-16.35-4.43l9,3.78a74.51,74.51,0,0,1-15.31-9.07l7.58,5.87a87.11,87.11,0,0,1-14.67-14.87l5.86,7.59a94.39,94.39,0,0,1-11-18.69l3.78,9a104.86,104.86,0,0,1-7.16-26.66l1.34,10a133.9,133.9,0,0,1,.31-32.87l-1.34,10c4-28.63,15.45-55.36,26.58-81.8l-3.78,9c15.11-35.73,31.65-71.3,55.33-102.26L601.23,150c14.61-18.85,31.67-35.14,50.5-49.72l-7.59,5.86c35.61-27.32,74.77-50,112.79-73.72A39.27,39.27,0,0,0,774.16,10C776.63,1,770.85,0,756,0Z" transform="translate(-236.6)"/></svg>