<svg xmlns="http://www.w3.org/2000/svg" width="3854.73" height="1080.95" viewBox="0 0 3854.73 1080.95"><title>100_looserTick</title><path d="M2450,494.81a6.43,6.43,0,0,0-.12-.85Z"/><path d="M2016.85,513.7c-.07.47-.15.94-.22,1.41S2016.66,515.12,2016.85,513.7Z"/><path d="M2467.16,562.26c-.33-.71-.66-1.41-1-2.12C2466.72,561.35,2467,562,2467.16,562.26Z"/><path d="M2504.56,611.75c-.38-.28-.77-.54-1.14-.82A14,14,0,0,0,2504.56,611.75Z"/><path d="M2484,591.17c-.51-.63-1-1.25-1.53-1.88A13.09,13.09,0,0,0,2484,591.17Z"/><path d="M1963.61,612.14c-.56.46-1.1.94-1.66,1.39C1963,612.71,1963.46,612.28,1963.61,612.14Z"/><path d="M1603.4,593.12a4.54,4.54,0,0,1,.13-.72v-.17C1603.5,592.5,1603.46,592.79,1603.4,593.12Z"/><path d="M1920.53,637.67l-1.38.62C1920.05,637.9,1920.46,637.72,1920.53,637.67Z"/><path d="M1603.4,591.34a7.31,7.31,0,0,0,.1.89v-.14A2.76,2.76,0,0,0,1603.4,591.34Z"/><path d="M1605.4,599.45c.1.36.36,1,.84,2.18C1605.92,600.91,1605.65,600.18,1605.4,599.45Z"/><path d="M1617.54,613.13c-.64-.44-1.27-.88-1.89-1.35C1616.73,612.59,1617.31,613,1617.54,613.13Z"/><path d="M1859.08,654.16c-.61.08-1.21.18-1.82.25C1858.4,654.27,1858.94,654.19,1859.08,654.16Z"/><path d="M1637.57,624.34c-.8-.32-1.6-.65-2.39-1A18.55,18.55,0,0,0,1637.57,624.34Z"/><path d="M1609,605.22c-.1-.15-.55-1-1.11-2C1607.55,603,1607.75,603.38,1609,605.22Z"/><path d="M2356.88,854c-68.5,2.11-137,4.48-205.49,6.5-34.81,1-69.72,2.73-104.55,2.7-7.1,0-14.21-.12-21.3-.47-4.24-.2-8.49-.48-12.71-.85h0s-9.49-1.07-8.46-.87l1.42.21-1.42-.21c-16.73-2.34-33.31-6.18-49.77-9.92-65.68-15-135-34.14-200.84-9.53q-46.63,17.45-93.07,35.66c-29.36,11.49-59.08,23.73-84.35,42.92S1532,963,1520.52,992.7c-11.84,30.61-13.51,18.21-11.76,50.67,1,19.55,16.49,38.44,37.5,37.5,18.57-.83,37-15.2,37.52-34.81-1.21,3.11-.74-16.18,0-2.69v2.69a24.88,24.88,0,0,0,.86-4.44c-.83,6,.79-3.18,1.18-5.43.06-.34.13-.69.2-1,.53-2.43,1.11-4.84,1.76-7.25,1-3.9,2.34-7.69,3.62-11.51l.5-1.31-.08.16q2-5.24.08-.16c1-2,2-4,3-5.91,1.63-3,3.55-5.73,5.27-8.63.38-.64.67-1.14.9-1.57-3.69,3.8,2.75-5,0,0,.35-.36.78-.82,1.33-1.43a159,159,0,0,1,11.65-12c.41-.38,4.88-4.07,5.1-4.38-.77.56-1.56,1.11-2.31,1.69a15.91,15.91,0,0,1,2.31-1.69q3-2.16,6-4.17a227.07,227.07,0,0,1,21.31-12.23c26.55-13.64,53.76-22.58,84.39-34.21,14.31-5.43,28.46-11.29,42.8-16.66,18.23-6.82,28.88-9.26,45.64-9.5,31.55-.46,57.16,5.66,89.89,13.16,35.62,8.15,71.25,17,107.82,19.68,32.82,2.42,65.93.21,98.78-.7q53.43-1.47,106.84-3.22c103.15-3.3,206.44-6.89,309.73-8.62v-75C2473.87,850.7,2415.35,852.24,2356.88,854Z"/><path d="M1616.87,982.93c.75-.58,1.54-1.13,2.31-1.69A15.91,15.91,0,0,0,1616.87,982.93Z"/><path d="M3097.54,625.75c.23.21.73.63,1.59,1.34C3098.59,626.65,3098.07,626.2,3097.54,625.75Z"/><path d="M3083.27,611.56c-.51-.6-1-1.21-1.51-1.83C3082.57,610.75,3083,611.31,3083.27,611.56Z"/><path d="M3125.47,642c-.76-.29-1.53-.57-2.29-.88A18.65,18.65,0,0,0,3125.47,642Z"/><path d="M2004.4,861.05l1.42.21Z"/><path d="M1591.82,1015.32l.08-.16Q1593.84,1010.09,1591.82,1015.32Z"/><path d="M1583.76,1043.41c-.72-13.48-1.19,5.8,0,2.69A24.14,24.14,0,0,0,1583.76,1043.41Z"/><path d="M2648.21,625.77l-.15.07C2650.84,624.73,2650.89,624.7,2648.21,625.77Z"/><path d="M2567.72,637.1l-2.11-.22C2567.47,637.11,2568.17,637.19,2567.72,637.1Z"/><path d="M2610,636.75l-1,.11C2605.71,637.53,2608.46,637,2610,636.75Z"/><path d="M3072.59,579.08c.44-1,.92-1.9,1.41-2.83C3074.12,575.66,3073.66,576.59,3072.59,579.08Z"/><path d="M3072.54,589.29c-.24-1-.46-2.06-.67-3.09C3072.25,588.67,3072.4,589.45,3072.54,589.29Z"/><path d="M3077.32,570.57c.54-.83,1.07-1.66,1.63-2.49C3078,569.47,3077.52,570.23,3077.32,570.57Z"/><path d="M3381.4,389.26l-1.34.62C3382.64,388.71,3382.4,388.83,3381.4,389.26Z"/><path d="M3481.05,716.17l1.72.67C3481.89,716.49,3481.34,716.27,3481.05,716.17Z"/><path d="M3412.87,371.47l-.74.5C3411,372.79,3410.4,373.27,3412.87,371.47Z"/><path d="M3430.69,314.05c-.75-1.82-.6-1.26-.16.06C3431.14,315.37,3431.4,315.88,3430.69,314.05Z"/><path d="M3434.68,328c.15.71.3,1.41.44,2.12C3434.93,329.18,3434.78,328.49,3434.68,328Z"/><path d="M3435,338.32c-.06,1-.12,1.93-.22,2.89C3435.14,338.42,3435.21,337.47,3435,338.32Z"/><path d="M3426.65,357.85c-.47.75-1,1.48-1.48,2.2A12.46,12.46,0,0,0,3426.65,357.85Z"/><path d="M3494.4,875.76c-.65.48-1.32,1-2,1.42C3492.4,877.2,3493,876.81,3494.4,875.76Z"/><path d="M3545,665.89c-58.74-40.26-132-41-199.78-31.38-17.26,2.46-34.4,5.61-51.55,8.74-7.16,1.31-14.32,2.62-21.5,3.87q-6.45,1.13-12.92,2.18c-2.88.47-5.75.92-8.63,1.35q-7.14,1-3,.47c-31.16,4.24-66.42,5.13-93.18-.6a201.29,201.29,0,0,1-21.06-5.68c-2.67-.89-5.33-1.84-8-2.85a18.65,18.65,0,0,1-2.29-.88c.75.31,1.53.58,2.29.88,0-.11-6.3-2.92-6.58-3a152.55,152.55,0,0,1-15.67-9.07c-.24-.16-6.89-5.24-5.68-4.12l1.59,1.34c-.87-.71-1.37-1.14-1.59-1.34q-4.6-3.91-8.84-8.25c-1.87-1.92-3.7-3.89-5.43-5.94-.23-.25-.7-.81-1.51-1.83.49.62,1,1.23,1.51,1.83,1.09,1.2-3.56-5.14-3.8-5.59-1.22-2-2.25-4.06-3.46-6-.49-.8-.87-1.39-1.18-1.82.88,4.47-2.5-3.53,0,0-.1-.49-.24-1.13-.45-2q-1-3.42-1.84-6.91c-.09.16-.28-.62-.67-3.09.2,1,.43,2.06.67,3.09.21-.38-.21-6.18-.22-6.95-.15-10.55.09,4.27.59-.93a23.12,23.12,0,0,1,.93-4.58c.08-.28.13-.45.16-.58-.49.93-1,1.87-1.41,2.83,1.07-2.49,1.53-3.42,1.41-2.83.25-.47.5-1,.76-1.42.8-1.46,1.67-2.87,2.57-4.26.2-.34.69-1.1,1.63-2.49-.56.82-1.1,1.66-1.63,2.49-.77,1.35,3.23-4,4-4.74,2.25-2.33,4.68-4.44,7.09-6.61l1-1c-4.51,2.35,4.54-4.28,0,0,.44-.23,1-.54,1.73-1,5-2.93,9.87-6.11,15.08-8.78,9.92-5.06,9.36-4.62,19.88-8.27,31.31-10.84,64-18.26,96-27Q3271,499.88,3320,487c33.34-8.74,66.44-18.22,97.93-32.43C3447.09,441.34,3474,422,3491.79,395c19-28.9,23-66.19,11.84-98.75C3482,233,3425.93,189,3365.77,164.79c-62.94-25.28-134.31-30.06-201.37-24.76-69.24,5.47-139.53,19.22-201.15,52.57-57.64,31.2-100.34,81-128.4,139.68-15.48,32.38-27.69,66.21-40.07,99.86-11.54,31.35-20.21,55.12-35.65,84.15-15.58,29.32-28.18,47.13-51.07,69.06-4.53,4.34-9.3,8.39-14,12.52-.92.8-2.06,1.83-2.06,1.83s-1.22.85-2.14,1.52c-3,2.18-9.2,6.43-9.2,6.43s-12.65,8-19.24,11.51q-3.3,1.76-6.65,3.41c-2.18,1.08-7.57,3.49-8.17,3.73a220.4,220.4,0,0,1-22.84,7.28c-3.93,1-7.88,1.78-11.84,2.59-1.3.26-18.41,2-26.17,1.86q-6.08,0-12.12-.48c-2-.15-7.33-.78-9.07-1-.4-.06-.8-.14-1.2-.22-6-1.29-12-2.51-17.93-4.25-3.67-1.08-7.23-2.38-10.85-3.57-.94-.31-1.66-.54-2.24-.71v78.59A227.4,227.4,0,0,0,2673.4,696c59.38-24.54,107.3-69.42,140.49-124.09,34.25-56.42,53-126.11,77.25-183a441.38,441.38,0,0,1,19.44-40.06c6.77-12.23,17.29-28.71,23.13-35.84a242.51,242.51,0,0,1,28.56-29.39q3.41-3,6.92-5.77a12.47,12.47,0,0,1,1.65-1.33c-.56.43-1.1.89-1.65,1.33.47-.28,5.93-4.33,6-4.33q9.17-6.4,18.85-12c52-30.14,119.36-43.12,179.23-47,16.09-1,32.23-1.44,48.36-1.07q11,.26,22,1,6.59.44,13.15,1.08c2.81.27,5.62.56,8.42.89l3.53.43-1.39-.2c2,.27,2.51.34,1.39.2a351.61,351.61,0,0,1,42.5,8.75c7.86,2.13,15.65,4.54,23.31,7.29,2.56.91,5.09,1.9,7.63,2.85l2.89,1.16-1.22-.54c2.4,1,2.8,1.17,1.22.54,1.86.82,3.71,1.65,5.54,2.56,27.92,13.29,43.29,24.46,62.7,47.06.17.2,4.8,6.23,4.46,5.62a19.09,19.09,0,0,0-1.31-1.85c.83,1.15,1.22,1.7,1.31,1.85,1.67,2.35,3.3,4.72,4.83,7.15,1.94,3.07,3.75,6.2,5.44,9.42-.19-.37,1.56,3.43,2.52,5.39-.44-1.32-.58-1.88.16-.06s.45,1.32-.16.06c.69,2.06,2.1,6,2,5.58q1.26,4.13,2.15,8.36c.1.44.24,1.13.44,2.12-.14-.71-.29-1.42-.44-2.12-.69-3,.44,5.27.44,6.26,0,1.34,0,2.67-.13,4,.22-.85.15.1-.22,2.89.1-1,.16-1.93.22-2.89-.09.34-.23,1-.41,1.89s-.34,1.49-.56,2.22c-.55,1.79-1.05,3.62-1.59,5.41-.22.72-.37,1.29-.49,1.75,2.62-3.27-1.15,4.66,0,0-.32.4-.74,1-1.27,1.75-1.44,2.11-2.66,4.35-4,6.51a12.46,12.46,0,0,1-1.48,2.2c.52-.72,1-1.45,1.48-2.2-.18,0-4.15,4.87-4.53,5.25-2.52,2.59-5.2,5-7.92,7.32-.26.22-1.28,1-2.07,1.55l.74-.5c-2.52,1.79-1.85,1.31-.74.5a178.19,178.19,0,0,1-21.85,13c-2.92,1.49-5.88,2.88-8.87,4.24,1-.43,1.23-.55-1.34.62l1.34-.62c-.91.41-2.44,1.09-2.82,1.24q-10.52,4.13-21.23,7.69c-16.15,5.39-32.54,10-49,14.36-64.83,17.27-130.83,32.41-194.73,52.9-30.09,9.65-60,22.83-83.05,45-25.2,24.3-37,57.64-31.51,92.2,10.26,64.73,75.83,107.41,135.49,120.17,70.51,15.09,139.62-.9,209.23-12.65,16.68-2.82,24.59-4.08,41.55-5.4a325.76,325.76,0,0,1,51.8.18l3,.22c-5.21-1.2,6.26.37,0,0,.61.14,1.45.32,2.57.54,3.71.74,7.44,1.38,11.13,2.22q9.24,2.1,18.27,5c3,1,6,2,9,3.19l1.72.67-1.72-.67c-1.87-.68,6.54,3,6.6,3a176.79,176.79,0,0,1,21,12.45c.57.39.94.63,1.18.76-5.56-5,1.88,1.07,0,0l1,.87c2.62,2.33,5.25,4.61,7.75,7.09s4.78,5.08,7.13,7.67c.6.66,1.07,1.16,1.45,1.54-2.28-4.28,3.58,3.64,0,0,.26.48.62,1.12,1.11,2,2.54,4.23,5.12,8.36,7.36,12.76a19.25,19.25,0,0,1,1.21,2.4c-.38-.82-.8-1.6-1.21-2.4-.22-.15,2.33,6,2.51,6.53a83.37,83.37,0,0,1,3,12.26,10.83,10.83,0,0,1,.39,2.4c-.11-.8-.26-1.6-.39-2.4-.2,0,.28,7.35.29,7.58,0,2.54-.16,5-.2,7.58v2.7c1.29-4.82.18,4.46,0,0-.15.58-.34,1.36-.57,2.39-.82,3.72-1.6,7.42-2.66,11.1-.87,3-1.84,6-2.92,8.95a14.64,14.64,0,0,1-.72,1.9c.25-.63.48-1.27.72-1.9s-1.85,4.18-2.35,5.18a206.94,206.94,0,0,1-11.94,20c-.56.86-1,1.53-1.27,2,3.59-3.87-2.65,4.41,0,0-.39.42-.9,1-1.55,1.73-2.36,2.7-4.67,5.42-7.13,8-4.09,4.33-8.41,8.46-12.91,12.36-.24.21-5.63,4.44-5.55,4.49l2-1.42c-1.41,1-2,1.44-2,1.42-2.3,1.65-4.62,3.26-7,4.8a221.32,221.32,0,0,1-19.75,11c-1,.54-1.79.94-2.34,1.25,4.76-1.57-4.41,2.46,0,0-.6.2-1.41.48-2.51.88-3.54,1.29-7.06,2.58-10.64,3.73q-9,2.87-18.16,4.92c-16.63,3.77-26.12,4.59-44.52,5.11-67.45,1.91-128.75-13.7-196.21-24-218.21-33.41-438.58-38.62-658.84-35.11v75c176.8-3,353.59-.44,529.63,18.4,68.19,7.3,132,18,201.35,29.27,67.77,11,139.87,20.14,206.7-1.2,62.78-20,115.82-66.78,137.91-129.59C3631.71,774.18,3602.24,705.09,3545,665.89Z"/><path d="M3535.6,764.3c.41.8.82,1.58,1.21,2.4A19.25,19.25,0,0,0,3535.6,764.3Z"/><path d="M3541.14,783.1c.14.8.28,1.59.39,2.4A10.83,10.83,0,0,0,3541.14,783.1Z"/><path d="M3535.08,823.39c-.23.64-.47,1.27-.72,1.9C3534.83,824.11,3535,823.54,3535.08,823.39Z"/><path d="M1603.91,594.2c.35.53.36-4.2,0-4-.14.67-.25,1.34-.36,2C1603.68,592.91,1603.78,593.56,1603.91,594.2Z"/><path d="M1367.79,618.89v.39c.17-.6.33-1.26.45-1.86l-.29,1Z"/><path d="M3417.73,292.15c-.09-.15-.47-.7-1.31-1.85C3416.87,290.91,3417.3,291.54,3417.73,292.15Z"/><path d="M2094.4,335.54c.07-.59.14-1.18.22-1.76A16.77,16.77,0,0,0,2094.4,335.54Z"/><path d="M1603.55,592.4a6.93,6.93,0,0,0,.36,1.8c-.13-.64-.23-1.29-.33-1.94Z"/><path d="M1603.58,592.26c.11-.67.22-1.34.36-2a5.27,5.27,0,0,0-.39,1.84Z"/><path d="M1630,554.37l1-.87Z"/><path d="M2106.09,292.58a21.4,21.4,0,0,0-.94,2A21.55,21.55,0,0,1,2106.09,292.58Z"/><path d="M1613,571.18c.47-.67,1-1.33,1.44-2C1613.05,571,1612.78,571.41,1613,571.18Z"/><path d="M1840,373.89c2.27-2.08,2.65-2.47,2.17-2.11C1841.4,372.55,1840.66,373.27,1840,373.89Z"/><path d="M2969.2,277.86c.55-.44,1.09-.9,1.65-1.33A13.15,13.15,0,0,0,2969.2,277.86Z"/><path d="M3267.32,216.66l1.39.2C3269.83,217,3269.4,216.93,3267.32,216.66Z"/><path d="M3343.82,236.37l1.22.54C3346.62,237.55,3346.22,237.37,3343.82,236.37Z"/><path d="M2118.92,270.68c.5-.61,1-1.19,1.52-1.78A16.06,16.06,0,0,0,2118.92,270.68Z"/><path d="M2532.78,630.45s-16.72-11-23.11-15.16c-1.71-1.13-3.43-2.32-5.11-3.54-.16-.09-.51-.35-1.14-.82.37.28.76.55,1.14.82,1,.61-6.74-5.88-7.56-6.65a138.22,138.22,0,0,1-13-13.94,13.09,13.09,0,0,1-1.53-1.88c.5.64,1,1.25,1.53,1.88-.12-.35-3.91-5.62-4.07-5.88q-3-4.49-5.63-9.15-3.9-6.76-7.17-13.88c-.13-.25-.44-.9-1-2.12.32.71.65,1.42,1,2.12.66,1.26-2.92-7.45-3-7.6-1.88-5.22-3.55-10.51-5.06-15.85a341.82,341.82,0,0,1-9.11-44l-.12-.85a6.43,6.43,0,0,0,.12.85c.61,4.13-1-7.93-.93-7.4q-.74-6.3-1.37-12.59c-.89-8.67-1.67-17.35-2.43-26-5.94-67.41-11.52-138.75-50.46-196.59-37.39-55.53-95.86-94.08-163-100.86-68.8-7-137.1,25.29-177.23,80.88-40.63,56.29-38.53,130.39-36.4,196.4.52,15.88,1,31.78.78,47.67-.12,8.64-.43,17.28-1.09,25.9-.22,2.87-.5,5.74-.76,8.6-.29,2.39-.45,3.82-.49,4.29.07-.47.15-.94.22-1.41-.19,1.41-.27,1.88-.22,1.41q-.55,3.55-1.2,7.11a201.7,201.7,0,0,1-5.58,23c-1.1,3.58-2.35,7.1-3.64,10.61l-.55,1.49v-.1l-.06.14c-1.73,4.69-.64,1.48,0,0h0a167.34,167.34,0,0,1-10.48,19.7c-2,3.19-4.07,6.26-6.18,9.34q-3.95,5.39-1,1.35-2.36,2.87-4.83,5.64a179.79,179.79,0,0,1-12.9,13c-2.18,2-4.41,3.9-6.67,5.79-.15.14-.65.57-1.66,1.39l1.66-1.39c.67-.64-5.63,4.26-5.78,4.39a219.11,219.11,0,0,1-37.3,21.14c-.07,0-.48.23-1.38.62l1.38-.62c.35-.23-8.21,3.2-7.64,3q-5.77,2.12-11.65,4-10.75,3.36-21.78,5.8c-6.73,1.5-13.54,2.84-20.38,3.75-.14,0-.69.11-1.82.25.61-.07,1.21-.17,1.82-.25s-6.48.6-7.92.76h-.58c-5.67.5-11.36.84-17.06,1.06a413.85,413.85,0,0,1-47.9-1.16c-18.32-1.45-28-2.88-45.51-5.68-31.9-5.11-64.23-11.23-94.79-22-2.59-.91-5.19-1.83-7.75-2.85a18.55,18.55,0,0,1-2.39-1l2.39,1c-.31-.18-2.8-1.32-3.39-1.63-5.64-3.08-11.34-5.94-16.64-9.58-.23-.13-.81-.54-1.89-1.35.62.46,1.26.91,1.89,1.35,1,.59-5-4.31-5.21-4.62s-3.7-4.57-4.44-5.25l1.11,2c-1.25-1.85-1.45-2.27-1.11-2-1.2-2.14-2.87-5.07-2.5-3.81.26.73.54,1.46.84,2.18a22.67,22.67,0,0,1-.84-2.18,38.21,38.21,0,0,1-1.47-5.25,6.93,6.93,0,0,1-.36-1.8,6,6,0,0,1-.12.72,7.31,7.31,0,0,1,.1-.89,5,5,0,0,0-.1-.89,6.5,6.5,0,0,0,.12.75,5.27,5.27,0,0,1,.39-1.84,51.59,51.59,0,0,1,2.22-7.72c-2.28,6.69,2-3.74,2.36-4.33a79.79,79.79,0,0,1,4.47-7c-.21.23.06-.17,1.44-2-.49.65-1,1.31-1.44,2,.34-.36,1.94-2.32,2.37-2.75,2.55-2.55,4.92-5.26,7.54-7.75,2.3-2.18,4.69-4.26,7.13-6.31l1-.87-1,.87c-1.82,1.63,7-5.17,8-5.87,24.65-16.67,52.58-29.17,76.77-38.6,32.63-12.73,65.72-24.13,98-37.87,56.51-24,125.61-60.4,113.64-133.29-11.26-68.52-85-106.42-143.34-128.42a381.75,381.75,0,0,0-208.32-17.07c-65.09,13.07-126.47,47.25-172.47,95.11s-74.12,107.66-84,173.09c-5.19,34.44-7.14,68.75-12.87,99.66-3.81,20.57-12.36,39.73-12.66,60.91-.28,19.62,17.45,38.4,37.5,37.5,20.56-.92,37.2-16.47,37.5-37.5h0v-2.74c-.55,2-1.1,3.24,0-.39,0-1.67.1-3.39.29-3.42.43-.07.37.84.16,2,.42-1.38.82-2.76,1.26-4.13a346.62,346.62,0,0,0,11-49c2.42-16.43,4.33-32.94,6.15-49.45,2-17.93,3.08-29.56,6-45.42,5.64-31.23,13.39-56.17,27.85-81.44q5.63-9.82,12.08-19.14,2.67-3.88,5.5-7.66c.39-.53.67-.9.84-1.15-4.5,5.22,1.57-2.25,0,0l1.43-1.67a330.61,330.61,0,0,1,31.83-33.1c41.88-37.23,101.63-61.2,159.15-64A319.59,319.59,0,0,1,1804.4,302c14.34,8.11,21.38,13,31,22.46,9.45,9.31,16.82,24.63,17.7,27.71s-1.32,8.41-1.81,9.16a95.92,95.92,0,0,1-9.09,10.43c.48-.36.1,0-2.17,2.11.67-.62,1.41-1.34,2.17-2.11-.81.61-4.08,3.4-4.8,3.9-3.56,2.4-7.23,4.63-11,6.77-52.16,29.88-109.75,44.93-167.29,70-57,24.79-128.37,67.67-130,138-1.69,74.76,76.44,106.36,137.07,120.62,124.38,29.25,284.36,39,374.87-70.34,21.26-25.69,36.83-55.63,44.48-88.2,8.16-34.81,9-70.82,8.11-106.39-.82-33.48-3-67.06-.21-100.5.29-3.4.59-6.76,1-10.11,0-.4.12-1,.22-1.76-.08.59-.15,1.18-.22,1.76-.39,3.36,1.16-6.49,1.22-6.76,1.17-6.2,2.58-12.35,4.29-18.42,1-3.64,2.15-7.24,3.4-10.81,0-.09,2.92-7,2.78-7-.31.66-.64,1.3-.94,2a21.4,21.4,0,0,1,.94-2,142.05,142.05,0,0,1,10.06-17.89c.15-.23,4.26-5.59,4.29-5.78l-1.52,1.78a16.06,16.06,0,0,1,1.52-1.78c1.83-2.16,3.7-4.27,5.67-6.32a147.21,147.21,0,0,1,11.47-10.73c.12-.13.64-.57,1.77-1.49-.6.49-1.18,1-1.77,1.49s5.53-4,5.77-4.21q4.51-3,9.22-5.71c3-1.7,6-3.21,9.08-4.79.35-.18.71-.35,1.07-.51,1.62-.74,2.54-1.16,2.76-1.28l-1.68.65c1.36-.56,1.91-.78,1.68-.65,1.29-.5,2.59-1,3.89-1.43a164.92,164.92,0,0,1,20.44-5.86c.36-.08.71-.15,1.08-.21,1.79-.32,7.56-1.34,7.26-1.4-.69.08-1.39.14-2.08.24a18.14,18.14,0,0,1,2.08-.24c1.67-.18,3.35-.34,5-.45a177.84,177.84,0,0,1,22.62,0c2.33.15,3.85.21,4.82.23-4.8-1.21,5,.08,0,0,.59.15,1.41.34,2.51.57,4.91,1,9.8,2,14.64,3.39,24.54,6.86,44.22,18.93,62.65,37.06a165.53,165.53,0,0,1,39.73,62.68c22,63.5,17.49,128.74,29.27,196.47,11.08,63.74,41.63,123.93,98.74,157.83a203.67,203.67,0,0,0,54.24,22.2C2532.4,680.36,2532.78,630.45,2532.78,630.45Z"/><path d="M2137.58,251.85c.59-.5,1.17-1,1.77-1.49C2138.22,251.28,2137.7,251.72,2137.58,251.85Z"/><path d="M2163.8,236l1.68-.65C2165.71,235.22,2165.16,235.44,2163.8,236Z"/><path d="M2196.07,226.69c.69-.09,1.39-.16,2.08-.24A18.14,18.14,0,0,0,2196.07,226.69Z"/><path d="M671.4,0c-47.73,29.81-44.9,25.64-86.9,63.48-40.88,36.83-67.27,85.51-88.75,135.43-11.35,26.31-23.54,52.92-30.35,80.85-7.11,29.34-9,61.78,1,90.75,9.74,28.28,28.46,54.5,55.27,68.89,29.43,15.79,62.82,15.47,93.39,3,30.08-12.27,58.28-28.72,86.58-44.54,26.47-14.8,53.18-29.3,81.1-41.2l-9,3.78c22.76-9.58,46.3-17.41,70.85-20.72l-10,1.34a170.33,170.33,0,0,1,43.1-.06l-10-1.34A149.93,149.93,0,0,1,905,349.88l-9-3.78A137.87,137.87,0,0,1,925,363.24l-7.57-5.87A153.19,153.19,0,0,1,943.78,384l-5.87-7.59a170.51,170.51,0,0,1,20.57,35.43l-3.78-9a179.13,179.13,0,0,1,12.43,45.5l-1.34-10a183.84,183.84,0,0,1-.23,46.58l1.34-10a209.17,209.17,0,0,1-14,50.9l3.78-9a253,253,0,0,1-32.91,55.87l5.87-7.59a292.29,292.29,0,0,1-51.52,51.07l7.59-5.87A230.75,230.75,0,0,1,835.83,640l9-3.78a170.06,170.06,0,0,1-42.07,11.37l10-1.34a190,190,0,0,1-47.65-.22l10,1.34c-27.8-3.8-54.39-12.88-80.16-23.73l9,3.78c-67.66-28.75-131.34-68.75-204.7-81.9-39.55-7.09-80.31-8.09-119.28,3.11-35.57,10.2-70.22,29.66-95,57.37-27.21,30.43-43.18,68.57-43,109.68.13,38.57,13.87,76.66,34.93,108.66,40.17,61,103.33,109.82,176.65,121.38,38.78,6.11,77.13,5.07,116,0S646.9,933.2,685.64,927q13.56-2.16,27.16-4l-10,1.34A580.93,580.93,0,0,1,767.34,919,591.9,591.9,0,0,1,832,921.79c42.74,3.85,85.23,10.33,128.08,12.84,43.7,2.56,89.21.59,131-13.32,43.25-14.38,80.06-40.47,115.13-68.92a564.08,564.08,0,0,0,48.89-45c9.62-9.89,16.73-21.27,24.61-32.48,5.32-7.58,6.15-20.29,3.78-28.9s-9.12-18.12-17.23-22.41c-8.71-4.6-19.25-6.9-28.9-3.78s-16.53,8.86-22.41,17.23c-3.88,5.52-7.32,11.41-11.36,16.8l5.87-7.59c-7.47,9.66-17.08,18.15-25.91,26.51-12.89,12.19-26.43,23.66-40.44,34.55l7.59-5.86c-22.69,17.52-46.44,34-72.89,45.41l9-3.78A240.91,240.91,0,0,1,1026,859.16l10-1.34c-60.77,7.84-122.12-2.51-182.52-8.92-30.24-3.22-60.63-5.73-91.06-4.79-33.09,1-66,5.62-98.68,10.87-34.11,5.49-68,12.16-102.29,16.78l10-1.34c-34.22,4.53-68.92,6.87-103.26,2.28l10,1.34a217.94,217.94,0,0,1-54-14.65l9,3.78a214,214,0,0,1-46-27.09l7.59,5.86a274,274,0,0,1-47.94-47.7l5.86,7.59a221.78,221.78,0,0,1-28.23-47.15l3.78,9A162.66,162.66,0,0,1,317,724.23l1.34,10a139.47,139.47,0,0,1-.34-35.18l-1.34,10a124.06,124.06,0,0,1,8.22-30.81l-3.79,9A131.93,131.93,0,0,1,337.6,659l-5.86,7.59a152.22,152.22,0,0,1,25.79-25.7l-7.59,5.87a175.77,175.77,0,0,1,38.4-22.36l-9,3.78A190,190,0,0,1,426,615.5l-10,1.34a234.25,234.25,0,0,1,61.07.49l-10-1.34c32.84,4.58,64.47,14.76,95,27.54l-9-3.78c74,31.3,144.09,78.12,226.52,82.71,84.85,4.71,159-47.06,208.76-111.75,48.46-63,70.26-150.51,39.2-226.12a220.37,220.37,0,0,0-33.93-57.43,172.5,172.5,0,0,0-42.87-37,166.12,166.12,0,0,0-56.21-21.65A219.13,219.13,0,0,0,860,264.69c-11.94-.26-23.65,1.15-35.47,2.77-39.44,5.41-76.91,21.87-112.22,39.6-34.17,17.16-66.91,37-100.85,54.57-7.84,4.07-15.7,8.09-23.81,11.6l9-3.78a114.65,114.65,0,0,1-28.78,8.38l10-1.34a71.92,71.92,0,0,1-15.66.09l10,1.34a66.21,66.21,0,0,1-16.35-4.43l9,3.78a74.51,74.51,0,0,1-15.31-9.07l7.58,5.87a87.1,87.1,0,0,1-14.67-14.87l5.86,7.59a94.84,94.84,0,0,1-11-18.69l3.78,9A104.86,104.86,0,0,1,534,330.44l1.34,10a133.9,133.9,0,0,1,.31-32.87l-1.34,10c4-28.63,15.45-55.36,26.58-81.8l-3.78,9c15.11-35.73,31.65-71.3,55.33-102.26L606.63,150c14.61-18.85,31.67-35.14,50.5-49.72l-7.59,5.86c35.61-27.32,74.77-50,112.79-73.72A39.26,39.26,0,0,0,779.56,10C782,1,776.25,0,761.4,0Z"/></svg>