<svg xmlns="http://www.w3.org/2000/svg" width="1921" height="1081" viewBox="0 0 1921 1081"><title>10_FactorySolids</title><rect x="0.5" y="0.5" width="1920" height="1080" style="fill:none;stroke:#000;stroke-miterlimit:10"/><path d="M595.24,622l-4,6.91s-49.13-36.83-109-19.68-97.86,36.62-121.31,100.52S350.68,832.32,394.4,876.41,501,939.85,551,921.61s69.13-29.09,97.6-73.84,21.88-81,21.88-81l10.29.23S669.83,845.13,639,878.07,519.31,940.15,486.13,933.5c0,0-66.29-7.47-106-58.47s-48.92-108.52-33.48-152.77,36.28-81.88,88.63-108,93.23-20.79,119.07-11.48S595.24,622,595.24,622Z" transform="translate(0.5 0.5)" style="fill:none;stroke:#000;stroke-miterlimit:10"/><path d="M677.5,312.5h-8s7-61-38-104-81-66-148-54-111,53-127,113-1,124,40,158,60,45,113,47,81-22,81-22l5,9s-73,30-117,20-114-72-125-104c0,0-27-61-3-121s69-97,115-106,89-10,138,22,65,70,70,97S677.5,312.5,677.5,312.5Z" transform="translate(0.5 0.5)" style="fill:none;stroke:#000;stroke-miterlimit:10"/><path d="M1325.94,457.21l4-6.94s49.39,36.47,109.1,18.9,97.59-37.32,120.58-101.39S1569,245.14,1525,201.36,1418,138.69,1368,157.28s-68.92,29.58-97.07,74.53-21.3,81.19-21.3,81.19l-10.29-.15s10.38-78.24,41-111.4,119.24-62.94,152.47-56.52c0,0,66.34,7,106.39,57.71s49.7,108.17,34.57,152.53-35.69,82.14-87.86,108.67-93.08,21.46-119,12.33S1325.94,457.21,1325.94,457.21Z" transform="translate(0.5 0.5)" style="fill:none;stroke:#000;stroke-miterlimit:10"/><path d="M1242.65,767.51l8-.07s-6.49,61.06,38.87,103.68,81.55,65.32,148.45,52.75,110.55-53.93,126-114.06,0-124-41.33-157.66-60.38-44.49-113.39-46-80.81,22.68-80.81,22.68l-5.08-9s72.75-30.61,116.83-21,114.6,71,125.87,102.95c0,0,27.51,60.77,4,121s-68.18,97.58-114.11,107-88.91,10.75-138.18-20.84-65.59-69.45-70.81-96.41S1242.65,767.51,1242.65,767.51Z" transform="translate(0.5 0.5)" style="fill:none;stroke:#000;stroke-miterlimit:10"/><path d="M1043.71,353.91l-4-6.91s56.23-24.67,70.71-85.2,16.23-103.22-27.88-155.06S980.84,37.53,920.94,53.93,813.31,115.51,804.58,168s-8.66,74.5,16.3,121.29,59.8,58.9,59.8,58.9l-5.26,8.85s-62.68-48-76.2-91,4.8-134.75,26.9-160.37c0,0,39.1-54,103-63.53s118.55,10.76,149.49,46,53.46,71.86,50.49,130.3-27.74,91.41-48.55,109.32S1043.71,353.91,1043.71,353.91Z" transform="translate(0.5 0.5)" style="fill:none;stroke:#000;stroke-miterlimit:10"/><path d="M878.43,726.68l4,6.91s-56.23,24.67-70.71,85.2S795.51,922,839.62,973.85s101.69,69.21,161.58,52.82,107.63-61.58,116.36-114.12,8.66-74.5-16.3-121.29-59.8-58.9-59.8-58.9l5.26-8.85s62.68,48,76.2,91-4.8,134.75-26.9,160.37c0,0-39.1,54-103,63.53s-118.55-10.76-149.49-46S790,920.57,793,862.12s27.74-91.41,48.55-109.32S878.43,726.68,878.43,726.68Z" transform="translate(0.5 0.5)" style="fill:none;stroke:#000;stroke-miterlimit:10"/></svg>