<svg xmlns="http://www.w3.org/2000/svg" width="1922" height="1082" viewBox="0 0 1922 1082"><title>s03</title><rect x="1" y="632" width="266" height="66" style="fill:#1b1464"/><rect x="1" y="405" width="266" height="66" style="fill:#1b1464"/><rect x="428" y="1" width="66" height="631" style="fill:#1b1464"/><rect x="428" y="892" width="66" height="189" style="fill:#1b1464"/><rect x="668" y="1" width="66" height="361" style="fill:#1b1464"/><rect x="668" y="607" width="66" height="474" style="fill:#1b1464"/><rect x="908" y="1" width="66" height="780" style="fill:#1b1464"/><rect x="908" y="936" width="66" height="145" style="fill:#1b1464"/><rect x="1148" y="1" width="66" height="210" style="fill:#1b1464"/><rect x="1148" y="375" width="66" height="706" style="fill:#1b1464"/><rect x="1388" y="1" width="66" height="697" style="fill:#1b1464"/><rect x="1388" y="892" width="66" height="189" style="fill:#1b1464"/><rect x="1628" y="1" width="66" height="361" style="fill:#1b1464"/><rect x="1628" y="551" width="66" height="530" style="fill:#1b1464"/><rect x="0.5" y="0.5" width="1921" height="1081" style="fill:none;stroke:#e6e6e6;stroke-miterlimit:10"/></svg>