<svg xmlns="http://www.w3.org/2000/svg" width="1919.61" height="1081" viewBox="0 0 1919.61 1081"><title>03</title><polygon points="747.92 1080 747.92 860 487.61 860 487.61 1027 194.61 1027 194.61 173 1413.61 173 1413.61 235 255.61 235 255.61 965 429.61 965 429.61 806 804.61 806 804.61 1080.5 747.92 1080" style="fill:#e6e6e6"/><polygon points="959.61 1080 959.61 679 646.61 679 646.61 627 1033.61 627 1033.61 1080.5 959.61 1080" style="fill:#e6e6e6"/><polygon points="1594.61 101 1594.61 627 1315.61 627 1315.61 386 389.61 386 389.61 452 1239.61 452 1239.61 705 1666.61 705 1666.61 101 1919.61 101 1919.61 39.21 1594.61 39.21 1594.61 101" style="fill:#e6e6e6"/><rect x="0.5" y="0.5" width="1918.22" height="1080" style="fill:none;stroke:#e6e6e6;stroke-miterlimit:10"/></svg>