<svg xmlns="http://www.w3.org/2000/svg" width="1920.5" height="1080" viewBox="0 0 1920.5 1080"><title>03_EasyMaze</title><rect x="1" y="0.5" width="1919" height="1079" style="fill:#fff"/><path d="M1919,1V1079H1V1H1919m1-1H0V1080H1920V0Z" transform="translate(0.5)"/><path d="M978.73,1002.5H841.27c-103.54,0-187.77-84.23-187.77-187.77V685.84a107.57,107.57,0,0,0-17.07-58.21L476,377.71a61.39,61.39,0,0,0-102.54-1.19L291.59,497.8A187.54,187.54,0,0,1,136,580.5H-.5v-80H136A107.64,107.64,0,0,0,225.29,453l81.89-121.28a141.39,141.39,0,0,1,236.17,2.75L703.75,584.42A187.41,187.41,0,0,1,733.5,685.84V814.73A107.89,107.89,0,0,0,841.27,922.5H978.73A107.89,107.89,0,0,0,1086.5,814.73V462.27c0-103.54,84.23-187.77,187.77-187.77h112a187.77,187.77,0,0,1,132.77,55L1671,481.43A107.07,107.07,0,0,0,1747.21,513H1919.5v80H1747.21a187.76,187.76,0,0,1-132.77-55L1462.5,386.07a107.07,107.07,0,0,0-76.21-31.57h-112A107.89,107.89,0,0,0,1166.5,462.27V814.73C1166.5,918.27,1082.27,1002.5,978.73,1002.5Z" transform="translate(0.5)"/></svg>