<svg xmlns="http://www.w3.org/2000/svg" width="1921" height="1081" viewBox="0 0 1921 1081"><title>s06_baskets</title><rect x="0.5" y="0.5" width="1920" height="1080" style="fill:none;stroke:#e6e6e6;stroke-miterlimit:10"/><path d="M280.91,428.41c-2.61-12.69,11.39-22.25,22.23-15.16C333.25,432.94,384.44,458,450,458c69.91,0,131-28.49,165.43-48.59A14.58,14.58,0,0,1,637,425.25L568.19,727.39A40.62,40.62,0,0,1,528.59,759H382.11a40.62,40.62,0,0,1-39.79-32.43Z" transform="translate(0.5 0.5)" style="fill:#c1272d"/><path d="M799.91,428.41c-2.61-12.69,11.39-22.25,22.23-15.16C852.25,432.94,903.44,458,969,458c69.91,0,131-28.49,165.43-48.59A14.58,14.58,0,0,1,1156,425.25l-68.78,302.14A40.62,40.62,0,0,1,1047.59,759H901.11a40.62,40.62,0,0,1-39.79-32.43Z" transform="translate(0.5 0.5)" style="fill:#006837"/><path d="M1318.91,428.41c-2.61-12.69,11.39-22.25,22.23-15.16C1371.25,432.94,1422.44,458,1488,458c69.91,0,131-28.49,165.43-48.59A14.58,14.58,0,0,1,1675,425.25l-68.78,302.14A40.62,40.62,0,0,1,1566.59,759H1420.11a40.62,40.62,0,0,1-39.79-32.43Z" transform="translate(0.5 0.5)" style="fill:#1b1464"/></svg>