<svg xmlns="http://www.w3.org/2000/svg" width="1921" height="1081" viewBox="0 0 1921 1081"><title>02_borders</title><rect x="0.5" y="0.5" width="1920" height="1080" style="fill:none;stroke:#e6e6e6;stroke-miterlimit:10"/><path d="M1175.46,547.5h-.18c-77.63,0-140.78-63.15-140.78-140.78V363.17c0-51.65-23-93.67-74.67-93.67H922.5c-46.32,0-86,30.68-86,77a30,30,0,0,1-60,0c0-79.4,66.6-137,146-137h37.33c84.73,0,134.67,68.94,134.67,153.67v43.55a80.88,80.88,0,0,0,80.62,80.78h744.39l.36,60Z" transform="translate(0.5)" style="fill:#1b1464"/><path d="M0,488H795s24,5,24,30-30,30-30,30H0Z" transform="translate(0.5)" style="fill:#1b1464"/></svg>