<svg xmlns="http://www.w3.org/2000/svg" width="1921" height="1081" viewBox="0 0 1921 1081"><title>03_EasyMaze</title><path d="M1919.5.5v1079H.5V.5h1919m1-1H-.5v1081h1921V-.5Z" transform="translate(0.5 0.5)"/><path d="M-.5,484.57S150,480,201,480s110-30,163-81,85-83,148-78,92,24,128,89,87,178,123,216,109,47,145,11,147-255,174-307,69-72,111-77,95,4,123,43,95,244,95,244,144-108,192-129,101,5,117,29,24,50,24,50l176.5-5.43V587.89L1732,589c-50.5,0-91.5-54.5-97.5-80.5s-96,63-134,89-65,44-115,38-66-56-79-96-35-132-49-153-63-52-85-13-146,269-176,315-88,73-156,74-147-52-179-109-91-172-116-208-55-32-77-10-101,104-155,120-98,33-196,33-118-.61-118-.61Z" transform="translate(0.5 0.5)" style="fill:#1b1464"/></svg>