<svg xmlns="http://www.w3.org/2000/svg" width="1921" height="1081" viewBox="0 0 1921 1081"><title>06_factory_areas</title><rect x="0.5" y="0.5" width="1920" height="1080" style="fill:none;stroke:#e6e6e6;stroke-miterlimit:10"/><polygon points="196.5 564.5 196.5 362.5 449.5 362.5 462.5 271.5 518.5 271.5 533.5 407.5 560.5 407.5 560.5 564.5 196.5 564.5" style="fill:#1b1464"/><polygon points="760.5 564.5 760.5 362.5 1013.5 362.5 1026.5 271.5 1082.5 271.5 1097.5 407.5 1124.5 407.5 1124.5 564.5 760.5 564.5" style="fill:#1b1464"/><polygon points="1324.5 564.5 1324.5 362.5 1577.5 362.5 1590.5 271.5 1646.5 271.5 1661.5 407.5 1688.5 407.5 1688.5 564.5 1324.5 564.5" style="fill:#1b1464"/><polygon points="196.5 979.5 196.5 777.5 449.5 777.5 462.5 686.5 518.5 686.5 533.5 822.5 560.5 822.5 560.5 979.5 196.5 979.5" style="fill:#1b1464"/><polygon points="760.5 979.5 760.5 777.5 1013.5 777.5 1026.5 686.5 1082.5 686.5 1097.5 822.5 1124.5 822.5 1124.5 979.5 760.5 979.5" style="fill:#1b1464"/><polygon points="1324.5 979.5 1324.5 777.5 1577.5 777.5 1590.5 686.5 1646.5 686.5 1661.5 822.5 1688.5 822.5 1688.5 979.5 1324.5 979.5" style="fill:#1b1464"/></svg>