<svg xmlns="http://www.w3.org/2000/svg" width="1921.78" height="1081" viewBox="0 0 1921.78 1081"><title>06_logic</title><path d="M242.94,222.57c46.4-33.78,125.07-26.27,162.73,11.26s16.81,89.54-22.86,93.29S278.58,351.79,287.32,303,196.54,256.35,242.94,222.57Z" transform="translate(1.89 0.5)" style="fill:#fff;stroke:#000;stroke-miterlimit:10"/><path d="M339.94,356.57c46.4-33.78,125.07-26.27,162.73,11.26s16.81,89.54-22.86,93.29S375.58,485.79,384.32,437,293.54,390.35,339.94,356.57Z" transform="translate(1.89 0.5)" style="fill:#fff;stroke:#000;stroke-miterlimit:10"/><path d="M534.94,236.57c46.4-33.78,125.07-26.27,162.73,11.26s16.81,89.54-22.86,93.29S570.58,365.79,579.32,317,488.54,270.35,534.94,236.57Z" transform="translate(1.89 0.5)" style="fill:#fff;stroke:#000;stroke-miterlimit:10"/><path d="M661.94,561.57c46.4-33.78,125.07-26.27,162.73,11.26s16.81,89.54-22.86,93.29S697.58,690.79,706.32,642,615.54,595.35,661.94,561.57Z" transform="translate(1.89 0.5)" style="fill:#fff;stroke:#000;stroke-miterlimit:10"/><path d="M936.94,370.57c46.4-33.78,125.07-26.27,162.73,11.26s16.81,89.54-22.86,93.29S972.58,499.79,981.32,451,890.54,404.35,936.94,370.57Z" transform="translate(1.89 0.5)" style="fill:#fff;stroke:#000;stroke-miterlimit:10"/><path d="M856.94,504.57c46.4-33.78,125.07-26.27,162.73,11.26s16.81,89.54-22.86,93.29S892.58,633.79,901.32,585,810.54,538.35,856.94,504.57Z" transform="translate(1.89 0.5)" style="fill:#fff;stroke:#000;stroke-miterlimit:10"/><path d="M1241.94,169.57c46.4-33.78,125.07-26.27,162.73,11.26s16.81,89.54-22.86,93.29-104.23,24.66-95.49-24.13S1195.54,203.35,1241.94,169.57Z" transform="translate(1.89 0.5)" style="fill:#fff;stroke:#000;stroke-miterlimit:10"/><path d="M1072.94,753.57c46.4-33.78,125.07-26.27,162.73,11.26s16.81,89.54-22.86,93.29-104.23,24.66-95.49-24.13S1026.54,787.35,1072.94,753.57Z" transform="translate(1.89 0.5)" style="fill:#fff;stroke:#000;stroke-miterlimit:10"/><path d="M485.94,820.57c46.4-33.78,125.07-26.27,162.73,11.26s16.81,89.54-22.86,93.29S521.58,949.79,530.32,901,439.54,854.35,485.94,820.57Z" transform="translate(1.89 0.5)" style="fill:#fff;stroke:#000;stroke-miterlimit:10"/><path d="M204.94,686.57c46.4-33.78,125.07-26.27,162.73,11.26s16.81,89.54-22.86,93.29S240.58,815.79,249.32,767,158.54,720.35,204.94,686.57Z" transform="translate(1.89 0.5)" style="fill:#fff;stroke:#000;stroke-miterlimit:10"/><rect x="0.5" y="0.5" width="1920.78" height="1080" style="fill:none;stroke:#000;stroke-miterlimit:10"/></svg>