<?xml version="1.0" encoding="utf-8"?>
<!-- Generator: Adobe Illustrator 21.0.2, SVG Export Plug-In . SVG Version: 6.00 Build 0)  -->
<svg version="1.1" id="Layer_1" xmlns="http://www.w3.org/2000/svg" xmlns:xlink="http://www.w3.org/1999/xlink" x="0px" y="0px"
	 viewBox="0 0 1921 1080" style="enable-background:new 0 0 1921 1080;" xml:space="preserve">
<style type="text/css">
	.st0{fill:none;stroke:#000000;stroke-width:3;stroke-miterlimit:10;}
	.st1{fill:#FFFFFF;stroke:#000000;stroke-miterlimit:10;}
</style>
<path id="maze" class="st0" d="M7,559.2c73.4,5.9,140.8,12,214.2,2.9c80.6-9.9,156-35.2,220.2-86.2
	c56.2-44.5,97.1-104.4,141.9-159.5c22.7-27.9,46.5-55.1,74-78.5c3-2.6,6.1-5.1,9.1-7.6c5.3-4.3,0.6-0.5-0.4,0.3
	c1.8-1.3,3.6-2.7,5.4-4c8.6-6.2,17.5-12.1,26.6-17.5c16.7-9.8,34.1-18.7,51.9-26.5c9.8-4.4-5,1.9,1.2-0.5c2.1-0.8,4.1-1.7,6.2-2.5
	c4.7-1.8,9.3-3.6,14-5.4c9.3-3.5,18.8-6.8,28.2-9.8c18.6-6.1,37.4-11.6,56.2-16.8c35-9.6,70.5-17.5,106.5-22.8
	c0.4-0.1,10.6-1.4,3.9-0.6c-5.7,0.7,1-0.1,2.4-0.3c4.6-0.6,9.3-1.1,13.9-1.5c9.2-0.9,18.5-1.6,27.8-2.1c18.3-1,36.7-0.9,55,0.2
	c8.1,0.5,16.1,1.3,24.1,2.2c9.9,1-6.4-1.1-0.2,0c2,0.3,4,0.6,5.9,0.9c4.9,0.8,9.9,1.7,14.8,2.7c17.1,3.5,33.9,8.3,50.3,14.4
	c2.3,0.9,4.7,1.9,7,2.7c5.3,2-6.4-2.9-1.2-0.5c4.1,1.9,8.3,3.7,12.3,5.8c8.2,4.1,16.2,8.5,24,13.3c7.6,4.7,14.8,9.8,22,15
	c5.2,3.7-7.1-6,0.8,0.7c1.6,1.4,3.3,2.7,5,4.1c4.1,3.5,8.2,7.1,12.1,10.8c13.9,13.1,26.9,27.2,38.8,42.2c1.3,1.6,5.8,7.6,0.9,1
	c1.3,1.8,2.7,3.5,4,5.3c2.6,3.6,5.2,7.2,7.8,10.8c5.7,8.2,11.2,16.5,16.5,24.9c10.7,16.9,20.2,34.5,28.6,52.6c0.9,2,1.8,4.1,2.7,6.1
	c-3.3-7.2-0.8-1.9-0.2-0.3c1.8,4.7,3.6,9.4,5.3,14.1c3.5,10,6.5,20.2,8.9,30.5c1,4.4,1.9,8.8,2.7,13.2c0.5,2.2,0.9,4.4,1.1,6.7
	c0-7.8-0.3-3-0.1-1c1,9.5,1.5,19.1,1.4,28.7c-0.1,4.5-0.3,9.1-0.6,13.6c-0.2,2-0.4,4-0.6,6c-0.5,5.8-1.5-0.1,0.3-1.6
	c-1.4,1.2-1.7,9.9-2.1,11.9c-1,4.9-2.2,9.7-3.6,14.5c-1.2,4.3-2.6,8.5-4.2,12.7c-1,2.7-1.8,8.6,0.2,0c-0.3,1.6-1.8,4-2.5,5.3
	c-3.8,7.8-8.3,15.3-13.3,22.4c-4.7,6.7,0.7-1.4,1-1.2c-0.1,0-3.3,3.8-3.8,4.4c-2.8,3.2-5.8,6.2-9,9c-1.7,1.6-3.5,3-5.2,4.6
	c-3.9,3.4,0.6,1.3,1.6-1.2c-1,2.7-8.8,5.9-11.4,7.4c-3.1,1.8-6.4,3.4-9.6,5.1c-6.2,3.2,1.1-0.5,2.1-0.7c-1.7,0.5-3.4,1.4-5,2
	c-8.1,3-16.4,5.2-24.8,6.8c-1,0.2-6.2,1.7-6.7,1.2c0,0,10.4-1,2.5-0.4c-3.7,0.3-7.3,0.7-11,0.8c-8.3,0.4-16.6,0.2-24.9-0.5
	c-2.3-0.2-4.6-0.5-6.9-0.7c-5.6-0.5,7.9,1.3,2.3,0.3c-4.1-0.7-8.2-1.4-12.3-2.2c-8.2-1.7-16.2-3.9-24.2-6.5
	c-3.7-1.2-7.3-2.5-10.9-3.9c-2.6-1-5.1-2-7.7-3c-5.6-2.2,5.8,2.8,0.5,0.2c-9.4-4.6-18.9-8.9-28.1-13.9
	c-34.4-18.6-66.2-41.3-98.8-62.8c-68.7-45.3-144.7-82.4-227-93.8c-78-10.8-157.4,0.8-224.8,43.2c-61.9,38.9-110.4,98.8-131,169.4
	c-12.4,42.5-15.3,90.9-1.5,133.5c12,37.1,35.4,69.5,65.6,93.9c32.1,25.9,67.8,43.6,105.8,59.1c38.4,15.4,78,27.6,118.4,36.2
	c83.1,18.2,168.6,24.5,253.5,26.2c78.7,1.6,164,3.9,234.3-37c36.3-21.1,63.2-52.6,87.7-86c10.8-14.8,21-30,31.7-45
	c2.7-3.8,5.5-7.6,8.3-11.4c1.2-1.7,2.5-3.3,3.7-5c4.5-6,0-0.4-0.6,0.7c4.3-8.2,13.1-15.9,19.3-22.7c12.3-13.3,25.4-25.8,39.3-37.4
	c1.6-1.3,3.2-2.6,4.8-3.9c0.2-0.2,8.2-6.4,3.2-2.6c-4.2,3.3,1-0.8,2.1-1.5c2.1-1.5,4.1-3,6.2-4.5c7.5-5.3,15.1-10.5,22.9-15.4
	c15.5-9.7,31.6-18.6,48.2-26.5c3.7-1.8,7.4-3.5,11.1-5.1c1.8-0.8,3.7-1.6,5.6-2.5c7.1-3.1-0.4-0.1-1.1,0.5c2.8-2.5,9.4-3.8,12.7-5.1
	c4.7-1.8,9.5-3.6,14.3-5.2c36.7-12.9,74.5-21.3,112.9-27.2c1.4-0.2,7.9-1,0.4-0.1c2.4-0.3,4.9-0.6,7.3-0.9c5.5-0.7,11-1.3,16.6-1.8
	c11.7-1.1,23.4-2,35.1-2.7c21.6-1.2,43.2-1.6,64.8-1.6c64,0,123,5,123,4.7V540c-1-23,1.5-39.5,0-40.4c-0.3-0.2-276-46.6-483.2,79.6
	c-33.4,20.4-65.3,44.6-92.8,72.5s-49.6,60-71.9,91.9c-5.4,7.7-10.8,15.4-16.4,22.9c-1.2,1.6-2.4,3.4-3.8,5c0.8-1,5.2-6.5,0.5-0.8
	c-3.2,4-6.5,8-9.9,11.8c-5.7,6.5-11.7,12.7-18,18.6c-1.9,1.8-7.5,8.5-10.3,8.9c0.5-0.1,7.7-5.5,0.7-0.7c-2.6,1.8-5.2,3.6-7.8,5.3
	c-7,4.5-14.4,8.2-21.8,12c-8.9,4.6,5.5-1.9-0.4,0.2c-1.9,0.7-3.8,1.5-5.8,2.2c-4.8,1.8-9.7,3.4-14.7,4.8c-8.4,2.5-17,4.5-25.6,6.1
	c-3.9,0.7-8.3,2-12.3,2c9.3-0.1,2.4-0.3-0.2,0s-5.2,0.6-7.8,0.8c-38.9,3.8-78.3,2.7-117.4,1.8c-40.8-0.9-81.6-2.9-122.2-6.9
	c-10.4-1-20.8-2.2-31.2-3.5l-6.9-0.9c1.5,0.2,8,1.2,0.3,0c-5.8-0.8-11.5-1.7-17.2-2.6c-20.6-3.3-41.2-7.3-61.5-12
	c-19.8-4.6-39.4-10-58.8-16.2c-9.4-3-18.8-6.3-28.1-9.7c-4.4-1.6-8.8-3.3-13.1-5c-2.7-1.1-5.4-2.2-8.2-3.3c-4.3-1.7,5.1,2.3-1.8-0.8
	c-16-7.1-31.8-14.7-46.9-23.8c-7-4.2-13.8-8.7-20.3-13.5c-2.6-1.9-7.4-3.3,0.1,0.2c-1.4-0.6-3.4-2.8-4.4-3.6
	c-3.6-3.1-7.2-6.3-10.6-9.6c-5.2-5-11.6-10.7-15.3-16.9c5.6,9.5-1.7-2.8-2.9-4.7c-2.6-4.1-5-8.2-7.2-12.5c-1-1.9-2.8-4.5-3.2-6.6
	c0.1,0.9,3.1,8.5,0.7,1.4c-1.4-4.2-2.9-8.4-4.1-12.7c-1.2-4.5-2-9-3-13.5c-2.3-10.6,0.1,5.2-0.2-1.4c-0.2-2.9-0.5-5.8-0.7-8.7
	c-0.5-10.5-0.2-20.9,0.9-31.4c0.2-1.8,1.4-7.7-0.1,0.2c0.4-2.3,0.7-4.6,1.2-6.9c0.9-4.9,2-9.8,3.2-14.6c2-7.8,4.3-15.5,7.1-23
	c0.8-2.2,1.7-4.4,2.5-6.6c1.2-3.2,0.2-5-0.8,1.8c0.6-4.1,4.1-8.9,6-12.6c3.3-6.6,7-13,11-19.3c2.2-3.5,4.5-7,6.9-10.4
	c1.3-1.9,2.7-3.7,4-5.6c4.3-6-3.5,4.2-0.4,0.4c10.2-12.4,21.3-24,33.2-34.7c3.1-2.7,6.3-5.3,9.5-7.9c4.5-3.8-7.9,5.7-0.5,0.4
	c1.5-1.1,2.9-2.2,4.4-3.2c6.7-4.8,13.5-9.2,20.6-13.4c6.6-3.9,13.4-7.5,20.3-10.9c3.6-1.8,7.5-3.2,11.1-5c-0.9,0.5-8.6,3.4-2.1,1
	c2.5-1,5-1.9,7.5-2.9c15-5.4,30.4-9.4,46.1-12c2.2-0.4,9.8-1.8,1-0.3c2.2-0.4,4.5-0.5,6.6-0.8c4.4-0.5,8.8-0.8,13.3-1.1
	c9.9-0.6,19.9-0.7,29.9-0.4c9.3,0.3,20.9-0.4,29.8,2.4c-1.2-0.4-8.5-1.3-0.7-0.1c2.2,0.4,4.4,0.7,6.6,1c5.5,0.9,11,2,16.4,3.1
	c19.8,4.3,39.3,9.9,58.3,16.9c4.3,1.6,8.5,3.2,12.7,4.9c2.1,0.8,4.2,1.7,6.3,2.6c-7.2-2.9-1.6-0.7-0.1,0c9.9,4.4,19.8,9,29.4,13.9
	c17.8,9,35,19,51.8,29.6c65.9,41.6,129.9,94.3,208,110.7c37.5,7.9,77.1,8.7,114.1-2c39-11.3,71.7-34.6,95.8-67.1
	c48.5-65.4,47.6-158,20.5-231.6c-14.6-39.8-35-77.1-59.3-111.9c-23.2-33.2-49.4-64.9-81-90.4c-63.5-51.4-139.8-76.7-220.9-80.8
	c-75.6-3.9-152,10-224.7,29.7C755.6,92.2,677,121,611.1,173.1c-56.2,44.5-97.2,104.6-142,159.7c-22.5,27.3-46,54-72.9,77.1
	c-3,2.6-6,5-9.1,7.5c-5.6,4.6,0.2,0,1.1-0.8c-1.9,1.6-4,3-6,4.5c-8,5.8-16.3,11.3-24.9,16.4c-7.1,4.2-14.3,8.1-21.7,11.8
	c-4.1,2-8.3,4-12.5,5.9c-1.2,0.5-7.3,3.1-2.2,1c5.4-2.3-4,1.6-5.1,2c-16.6,6.4-33.6,11.7-50.9,15.8c-8.9,2.1-17.9,4-27,5.6
	c-4,0.7-8,1.4-12.1,2c-2,0.3-4.1,0.7-6.1,0.9c10.7-0.9,0.2-0.1-1.6,0.1c-36.7,4.3-73.7,5.1-110.6,4.1C71.7,485.7,7,479,7,479.2
	c0,0.8-0.9,26.3,0,46.8C8,549.1,7,559,7,559.2z"/>
<path id="end" class="st1" d="M1916.5,363.1c-97.7,0-176.9,79.2-176.9,176.9s79.2,176.9,176.9,176.9V363.1z"/>
<path id="start" class="st1" d="M3.6,716.9c97.7,0,176.9-79.2,176.9-176.9S101.3,363.1,3.6,363.1V716.9z"/>
<rect id="freeSpace" class="st0" width="1922.3" height="1076"/>
</svg>
