<svg xmlns="http://www.w3.org/2000/svg" width="1922.31" height="1922.22" viewBox="0 0 1922.31 1922.22"><title>mask</title><path d="M6842.92,7026.12c19.72-10.52,15.78,19.72,31.55,19.72s64.42-18.41,68.37,7.89-17.09,39.44-17.09,56.53-19.72,5.26-30.24,17.09-19.72-32.87-34.18-40.76-15.78-30.24-21-39.44S6842.92,7026.12,6842.92,7026.12Z" transform="translate(-6240.29 -6236.17)" style="fill:none;stroke:#000;stroke-miterlimit:10"/><path d="M6799.54,6997.19c38.53-17,123.58-11.83,143.31-14.46s57.85-2.63,57.85,28.92,0,40.76,14.46,55.22-21,32.87-26.29,53.9-2.63,53.9-44.7,68.37-10.52-9.2-50-14.46-52.59,6.57-52.59-28.92-14.46-84.14-47.33-89.4-86.77-21-69.68-46S6766.67,7011.65,6799.54,6997.19Z" transform="translate(-6240.29 -6236.17)" style="fill:none;stroke:#000;stroke-miterlimit:10"/><path d="M6811.73,6908.55c66.33,0,102.4-24.09,141.56,15.06s42.17,96.38,102.4,96.38,105.42,60.24,90.36,147.58-111.44,87.34-147.58,147.58-150.59,96.38-171.68,57.23-90.36-48.19-135.53-69.27-87.34-78.31-87.34-153.61,15.06-165.65,57.23-192.76,81.32-24.09,105.42-24.09S6787.64,6908.55,6811.73,6908.55Z" transform="translate(-6240.29 -6236.17)" style="fill:none;stroke:#000;stroke-miterlimit:10"/><path d="M6869,6788.08c60.34-5.75,57.23,90.36,132.52,84.33s189.75-105.42,247-42.17-57.23,171.68-30.12,234.93,48.19,120.47,78.31,165.65,48.19,144.57-42.17,165.65-174.69-51.2-244,33.13-237.94,168.66-298.17,87.34-129.51-99.39-177.7-147.58,12-90.36,18.07-162.64,33.13-48.19,6-150.59-57.23-219.87,18.07-231.91,165.65,96.38,210.83,57.23S6805.71,6794.1,6869,6788.08Z" transform="translate(-6240.29 -6236.17)" style="fill:none;stroke:#000;stroke-miterlimit:10"/><path d="M6622,6718.81c69.17-24.21,54.21,69.27,135.53,45.18s63.25-138.55,156.62-138.55,45.18,153.61,132.52,165.65,213.84-24.09,240.95,63.25,12,183.72,45.18,286.13,189.75,180.71,147.58,277.09-198.78,87.34-298.17,168.66-81.32,126.5-195.77,81.32S6856.91,7477.8,6754.5,7477.8s-189.75,57.23-237.94,69.27-39.15-120.47-36.14-180.71,3-228.9,0-292.15-9-228.9,12-274.08S6561.75,6739.89,6622,6718.81Z" transform="translate(-6240.29 -6236.17)" style="fill:none;stroke:#000;stroke-miterlimit:10"/><path d="M6692.64,6617.83c75.06-6,107,67.84,173.31,67.84s117.46-24.09,189.75-48.19,185.84-89.31,260.35-89.31c222.89,0,344.79,3.48,386.58,153.24,38.89,139.37-80.62,276-48.76,376.13,24.38,76.62,247.27,100.35,247.27,229.86s39.08,189.89-41.79,268.17-389.79,10.07-477.13,52.24-46.42,199.35-145.81,235.5-364.44-6-451.78-30.12-183.72,45.18-231.91,45.18-60.24-72.28-54.21-183.72-42.17-924.64-15.06-966.81,92.06,87.23,132.58,46.71C6675.23,6715.35,6617.34,6623.86,6692.64,6617.83Z" transform="translate(-6240.29 -6236.17)" style="fill:none;stroke:#000;stroke-miterlimit:10"/><path d="M6585.84,6532.07c75.26,2.21,367.45,18.07,418.65,18.07s376.48-9,430.7-9,277.09-24.09,355.4-24.09,120.47,0,120.47,57.23,6,1246.91,6,1246.91-6,69.27-102.4,69.27-1237.88,6-1237.88,6-99.39,6-99.39-114.45,18.07-1105.36,18.07-1141.5S6483.44,6529.06,6585.84,6532.07Z" transform="translate(-6240.29 -6236.17)" style="fill:none;stroke:#000;stroke-miterlimit:10"/><polygon points="184.18 190.11 1727.03 190.11 1727.03 1732.95 191.15 1732.95 184.18 190.11" style="fill:none;stroke:#000;stroke-miterlimit:10"/><polygon points="1.81 1.72 96.34 60.8 1792.56 63.37 1870.18 58.14 1864.53 114.44 1854.23 1850.57 1856.95 1896.68 1820.08 1871.41 85.77 1867.04 56.88 1867.44 58.23 1827.58 58.38 82.66 1.81 1.72" style="fill:none;stroke:#000;stroke-miterlimit:10"/><rect x="1.81" y="1.72" width="1920" height="1920" style="fill:none;stroke:#000;stroke-miterlimit:10"/></svg>