<svg xmlns="http://www.w3.org/2000/svg" width="1921" height="1081" viewBox="0 0 1921 1081"><title>s06_empty</title><rect x="0.5" y="0.5" width="1920" height="1080" style="fill:none;stroke:#e6e6e6;stroke-miterlimit:10"/><path d="M637,425.25,568.19,727.39A40.62,40.62,0,0,1,528.59,759H382.11a40.62,40.62,0,0,1-39.79-32.43L280.91,428.41H291.5s54,290.09,58,298.09,12,26,31,27,134,0,148-1,30-14,34-28,66-299,66-299Z" transform="translate(0.5 0.5)" style="fill:none;stroke:#c1272d;stroke-miterlimit:10"/><path d="M1156,425.25l-68.78,302.14A40.62,40.62,0,0,1,1047.59,759H901.11a40.62,40.62,0,0,1-39.79-32.43L799.91,428.41H810.5s54,290.09,58,298.09,12,26,31,27,134,0,148-1,30-14,34-28,66-299,66-299Z" transform="translate(0.5 0.5)" style="fill:none;stroke:#c1272d;stroke-miterlimit:10"/><path d="M1675,425.25l-68.78,302.14A40.62,40.62,0,0,1,1566.59,759H1420.11a40.62,40.62,0,0,1-39.79-32.43l-61.41-298.16h10.59s54,290.09,58,298.09,12,26,31,27,134,0,148-1,30-14,34-28,66-299,66-299Z" transform="translate(0.5 0.5)" style="fill:none;stroke:#c1272d;stroke-miterlimit:10"/></svg>