<svg xmlns="http://www.w3.org/2000/svg" width="1924.51" height="1081" viewBox="0 0 1924.51 1081"><title>03_EasyMaze</title><path d="M1919.5.5v1079H.5V.5h1919m1-1H-.5v1081h1921V-.5Z" transform="translate(2.51 0.5)"/><path d="M-.5,442.85S190,450,216,443s69-26,109-60,71-76,112-93,119-21,151,0,63,59,90,108,89,192,121,209,70,30,104-30,133-252,157-289,54-57,109-68,105-11,145,21,58,83,80,132,34,104,34,104,80-63,124-87,72-32,104-28,68,14,85,40,28,47,28,47l151-1.9V630H1773c-53,0-91-9-119-30a241.23,241.23,0,0,1-45-44s-58,53-113,87-98,46-155,21-86-152-93-174-32-102-32-102-91,152-115,199-64,140-111,171c0,0-56,38-137,42,0,0-126,9-190-74S557,537,546,522s-47-62-47-62-65,73-125,110-146,56-239,60S0,627.87,0,627.87Z" transform="translate(2.51 0.5)" style="fill:none;stroke:#000;stroke-miterlimit:10;stroke-width:4px"/></svg>